  0
SECTION
  2
BLOCKS
  0
ENDSEC
  0
SECTION
  2
ENTITIES
  0
LINE
  8
0
 10
150
 20
150
 11
0
 21
150
  0
LINE
  8
0
 10
0
 20
150
 11
0
 21
0
  0
LINE
  8
0
 10
0
 20
0
 11
150
 21
0
  0
LINE
  8
0
 10
150
 20
0
 11
150
 21
150
  0
LINE
  8
0
 10
30.3048
 20
140.955
 11
29.9802
 21
140.925
  0
LINE
  8
0
 10
29.9802
 20
140.925
 11
29.6564
 21
140.963
  0
LINE
  8
0
 10
29.6564
 20
140.963
 11
29.3474
 21
141.067
  0
LINE
  8
0
 10
29.3474
 20
141.067
 11
29.0662
 21
141.232
  0
LINE
  8
0
 10
29.0662
 20
141.232
 11
28.8251
 21
141.451
  0
LINE
  8
0
 10
28.8251
 20
141.451
 11
28.6344
 21
141.715
  0
LINE
  8
0
 10
28.6344
 20
141.715
 11
28.5021
 21
142.013
  0
LINE
  8
0
 10
28.5021
 20
142.013
 11
28.434
 21
142.332
  0
LINE
  8
0
 10
28.434
 20
142.332
 11
28.4329
 21
142.658
  0
LINE
  8
0
 10
28.4329
 20
142.658
 11
28.4991
 21
142.977
  0
LINE
  8
0
 10
28.4991
 20
142.977
 11
28.6295
 21
143.276
  0
LINE
  8
0
 10
28.6295
 20
143.276
 11
28.8186
 21
143.542
  0
LINE
  8
0
 10
28.8186
 20
143.542
 11
29.0583
 21
143.762
  0
LINE
  8
0
 10
29.0583
 20
143.762
 11
29.3384
 21
143.929
  0
LINE
  8
0
 10
29.3384
 20
143.929
 11
29.6468
 21
144.035
  0
LINE
  8
0
 10
29.6468
 20
144.035
 11
29.9703
 21
144.075
  0
LINE
  8
0
 10
29.9703
 20
144.075
 11
30.2951
 21
144.047
  0
LINE
  8
0
 10
30.2951
 20
144.047
 11
30.6073
 21
143.953
  0
LINE
  8
0
 10
30.6073
 20
143.953
 11
30.8934
 21
143.797
  0
LINE
  8
0
 10
30.8934
 20
143.797
 11
31.1413
 21
143.585
  0
LINE
  8
0
 10
31.1413
 20
143.585
 11
31.3403
 21
143.327
  0
LINE
  8
0
 10
31.3403
 20
143.327
 11
31.4819
 21
143.034
  0
LINE
  8
0
 10
31.4819
 20
143.034
 11
31.56
 21
142.717
  0
LINE
  8
0
 10
31.56
 20
142.717
 11
31.5712
 21
142.391
  0
LINE
  8
0
 10
31.5712
 20
142.391
 11
31.5152
 21
142.07
  0
LINE
  8
0
 10
31.5152
 20
142.07
 11
31.3942
 21
141.767
  0
LINE
  8
0
 10
31.3942
 20
141.767
 11
31.2135
 21
141.496
  0
LINE
  8
0
 10
31.2135
 20
141.496
 11
30.9809
 21
141.268
  0
LINE
  8
0
 10
30.9809
 20
141.268
 11
30.7062
 21
141.092
  0
LINE
  8
0
 10
30.7062
 20
141.092
 11
30.4013
 21
140.977
  0
LINE
  8
0
 10
30.4013
 20
140.977
 11
30.3048
 21
140.955
  0
LINE
  8
0
 10
45.3048
 20
140.955
 11
44.9802
 21
140.925
  0
LINE
  8
0
 10
44.9802
 20
140.925
 11
44.6564
 21
140.963
  0
LINE
  8
0
 10
44.6564
 20
140.963
 11
44.3474
 21
141.067
  0
LINE
  8
0
 10
44.3474
 20
141.067
 11
44.0662
 21
141.232
  0
LINE
  8
0
 10
44.0662
 20
141.232
 11
43.8251
 21
141.451
  0
LINE
  8
0
 10
43.8251
 20
141.451
 11
43.6344
 21
141.715
  0
LINE
  8
0
 10
43.6344
 20
141.715
 11
43.5021
 21
142.013
  0
LINE
  8
0
 10
43.5021
 20
142.013
 11
43.434
 21
142.332
  0
LINE
  8
0
 10
43.434
 20
142.332
 11
43.4329
 21
142.658
  0
LINE
  8
0
 10
43.4329
 20
142.658
 11
43.4991
 21
142.977
  0
LINE
  8
0
 10
43.4991
 20
142.977
 11
43.6295
 21
143.276
  0
LINE
  8
0
 10
43.6295
 20
143.276
 11
43.8186
 21
143.542
  0
LINE
  8
0
 10
43.8186
 20
143.542
 11
44.0583
 21
143.762
  0
LINE
  8
0
 10
44.0583
 20
143.762
 11
44.3384
 21
143.929
  0
LINE
  8
0
 10
44.3384
 20
143.929
 11
44.6468
 21
144.035
  0
LINE
  8
0
 10
44.6468
 20
144.035
 11
44.9703
 21
144.075
  0
LINE
  8
0
 10
44.9703
 20
144.075
 11
45.2951
 21
144.047
  0
LINE
  8
0
 10
45.2951
 20
144.047
 11
45.6073
 21
143.953
  0
LINE
  8
0
 10
45.6073
 20
143.953
 11
45.8934
 21
143.797
  0
LINE
  8
0
 10
45.8934
 20
143.797
 11
46.1413
 21
143.585
  0
LINE
  8
0
 10
46.1413
 20
143.585
 11
46.3403
 21
143.327
  0
LINE
  8
0
 10
46.3403
 20
143.327
 11
46.4819
 21
143.034
  0
LINE
  8
0
 10
46.4819
 20
143.034
 11
46.56
 21
142.717
  0
LINE
  8
0
 10
46.56
 20
142.717
 11
46.5712
 21
142.391
  0
LINE
  8
0
 10
46.5712
 20
142.391
 11
46.5152
 21
142.07
  0
LINE
  8
0
 10
46.5152
 20
142.07
 11
46.3942
 21
141.767
  0
LINE
  8
0
 10
46.3942
 20
141.767
 11
46.2135
 21
141.496
  0
LINE
  8
0
 10
46.2135
 20
141.496
 11
45.9809
 21
141.268
  0
LINE
  8
0
 10
45.9809
 20
141.268
 11
45.7062
 21
141.092
  0
LINE
  8
0
 10
45.7062
 20
141.092
 11
45.4013
 21
140.977
  0
LINE
  8
0
 10
45.4013
 20
140.977
 11
45.3048
 21
140.955
  0
LINE
  8
0
 10
60.3048
 20
140.955
 11
59.9802
 21
140.925
  0
LINE
  8
0
 10
59.9802
 20
140.925
 11
59.6564
 21
140.963
  0
LINE
  8
0
 10
59.6564
 20
140.963
 11
59.3474
 21
141.067
  0
LINE
  8
0
 10
59.3474
 20
141.067
 11
59.0662
 21
141.232
  0
LINE
  8
0
 10
59.0662
 20
141.232
 11
58.8251
 21
141.451
  0
LINE
  8
0
 10
58.8251
 20
141.451
 11
58.6344
 21
141.715
  0
LINE
  8
0
 10
58.6344
 20
141.715
 11
58.5021
 21
142.013
  0
LINE
  8
0
 10
58.5021
 20
142.013
 11
58.434
 21
142.332
  0
LINE
  8
0
 10
58.434
 20
142.332
 11
58.4329
 21
142.658
  0
LINE
  8
0
 10
58.4329
 20
142.658
 11
58.4991
 21
142.977
  0
LINE
  8
0
 10
58.4991
 20
142.977
 11
58.6295
 21
143.276
  0
LINE
  8
0
 10
58.6295
 20
143.276
 11
58.8186
 21
143.542
  0
LINE
  8
0
 10
58.8186
 20
143.542
 11
59.0583
 21
143.762
  0
LINE
  8
0
 10
59.0583
 20
143.762
 11
59.3384
 21
143.929
  0
LINE
  8
0
 10
59.3384
 20
143.929
 11
59.6468
 21
144.035
  0
LINE
  8
0
 10
59.6468
 20
144.035
 11
59.9703
 21
144.075
  0
LINE
  8
0
 10
59.9703
 20
144.075
 11
60.2951
 21
144.047
  0
LINE
  8
0
 10
60.2951
 20
144.047
 11
60.6073
 21
143.953
  0
LINE
  8
0
 10
60.6073
 20
143.953
 11
60.8934
 21
143.797
  0
LINE
  8
0
 10
60.8934
 20
143.797
 11
61.1413
 21
143.585
  0
LINE
  8
0
 10
61.1413
 20
143.585
 11
61.3403
 21
143.327
  0
LINE
  8
0
 10
61.3403
 20
143.327
 11
61.4819
 21
143.034
  0
LINE
  8
0
 10
61.4819
 20
143.034
 11
61.56
 21
142.717
  0
LINE
  8
0
 10
61.56
 20
142.717
 11
61.5712
 21
142.391
  0
LINE
  8
0
 10
61.5712
 20
142.391
 11
61.5152
 21
142.07
  0
LINE
  8
0
 10
61.5152
 20
142.07
 11
61.3942
 21
141.767
  0
LINE
  8
0
 10
61.3942
 20
141.767
 11
61.2135
 21
141.496
  0
LINE
  8
0
 10
61.2135
 20
141.496
 11
60.9809
 21
141.268
  0
LINE
  8
0
 10
60.9809
 20
141.268
 11
60.7062
 21
141.092
  0
LINE
  8
0
 10
60.7062
 20
141.092
 11
60.4013
 21
140.977
  0
LINE
  8
0
 10
60.4013
 20
140.977
 11
60.3048
 21
140.955
  0
LINE
  8
0
 10
75.3048
 20
140.955
 11
74.9802
 21
140.925
  0
LINE
  8
0
 10
74.9802
 20
140.925
 11
74.6564
 21
140.963
  0
LINE
  8
0
 10
74.6564
 20
140.963
 11
74.3474
 21
141.067
  0
LINE
  8
0
 10
74.3474
 20
141.067
 11
74.0662
 21
141.232
  0
LINE
  8
0
 10
74.0662
 20
141.232
 11
73.8251
 21
141.451
  0
LINE
  8
0
 10
73.8251
 20
141.451
 11
73.6344
 21
141.715
  0
LINE
  8
0
 10
73.6344
 20
141.715
 11
73.5021
 21
142.013
  0
LINE
  8
0
 10
73.5021
 20
142.013
 11
73.434
 21
142.332
  0
LINE
  8
0
 10
73.434
 20
142.332
 11
73.4329
 21
142.658
  0
LINE
  8
0
 10
73.4329
 20
142.658
 11
73.4991
 21
142.977
  0
LINE
  8
0
 10
73.4991
 20
142.977
 11
73.6295
 21
143.276
  0
LINE
  8
0
 10
73.6295
 20
143.276
 11
73.8186
 21
143.542
  0
LINE
  8
0
 10
73.8186
 20
143.542
 11
74.0583
 21
143.762
  0
LINE
  8
0
 10
74.0583
 20
143.762
 11
74.3384
 21
143.929
  0
LINE
  8
0
 10
74.3384
 20
143.929
 11
74.6468
 21
144.035
  0
LINE
  8
0
 10
74.6468
 20
144.035
 11
74.9703
 21
144.075
  0
LINE
  8
0
 10
74.9703
 20
144.075
 11
75.2951
 21
144.047
  0
LINE
  8
0
 10
75.2951
 20
144.047
 11
75.6073
 21
143.953
  0
LINE
  8
0
 10
75.6073
 20
143.953
 11
75.8934
 21
143.797
  0
LINE
  8
0
 10
75.8934
 20
143.797
 11
76.1413
 21
143.585
  0
LINE
  8
0
 10
76.1413
 20
143.585
 11
76.3403
 21
143.327
  0
LINE
  8
0
 10
76.3403
 20
143.327
 11
76.4819
 21
143.034
  0
LINE
  8
0
 10
76.4819
 20
143.034
 11
76.56
 21
142.717
  0
LINE
  8
0
 10
76.56
 20
142.717
 11
76.5712
 21
142.391
  0
LINE
  8
0
 10
76.5712
 20
142.391
 11
76.5152
 21
142.07
  0
LINE
  8
0
 10
76.5152
 20
142.07
 11
76.3942
 21
141.767
  0
LINE
  8
0
 10
76.3942
 20
141.767
 11
76.2135
 21
141.496
  0
LINE
  8
0
 10
76.2135
 20
141.496
 11
75.9809
 21
141.268
  0
LINE
  8
0
 10
75.9809
 20
141.268
 11
75.7062
 21
141.092
  0
LINE
  8
0
 10
75.7062
 20
141.092
 11
75.4013
 21
140.977
  0
LINE
  8
0
 10
75.4013
 20
140.977
 11
75.3048
 21
140.955
  0
LINE
  8
0
 10
90.3048
 20
140.955
 11
89.9802
 21
140.925
  0
LINE
  8
0
 10
89.9802
 20
140.925
 11
89.6564
 21
140.963
  0
LINE
  8
0
 10
89.6564
 20
140.963
 11
89.3474
 21
141.067
  0
LINE
  8
0
 10
89.3474
 20
141.067
 11
89.0662
 21
141.232
  0
LINE
  8
0
 10
89.0662
 20
141.232
 11
88.8251
 21
141.451
  0
LINE
  8
0
 10
88.8251
 20
141.451
 11
88.6344
 21
141.715
  0
LINE
  8
0
 10
88.6344
 20
141.715
 11
88.5021
 21
142.013
  0
LINE
  8
0
 10
88.5021
 20
142.013
 11
88.434
 21
142.332
  0
LINE
  8
0
 10
88.434
 20
142.332
 11
88.4329
 21
142.658
  0
LINE
  8
0
 10
88.4329
 20
142.658
 11
88.4991
 21
142.977
  0
LINE
  8
0
 10
88.4991
 20
142.977
 11
88.6295
 21
143.276
  0
LINE
  8
0
 10
88.6295
 20
143.276
 11
88.8186
 21
143.542
  0
LINE
  8
0
 10
88.8186
 20
143.542
 11
89.0583
 21
143.762
  0
LINE
  8
0
 10
89.0583
 20
143.762
 11
89.3384
 21
143.929
  0
LINE
  8
0
 10
89.3384
 20
143.929
 11
89.6468
 21
144.035
  0
LINE
  8
0
 10
89.6468
 20
144.035
 11
89.9703
 21
144.075
  0
LINE
  8
0
 10
89.9703
 20
144.075
 11
90.2951
 21
144.047
  0
LINE
  8
0
 10
90.2951
 20
144.047
 11
90.6073
 21
143.953
  0
LINE
  8
0
 10
90.6073
 20
143.953
 11
90.8934
 21
143.797
  0
LINE
  8
0
 10
90.8934
 20
143.797
 11
91.1413
 21
143.585
  0
LINE
  8
0
 10
91.1413
 20
143.585
 11
91.3403
 21
143.327
  0
LINE
  8
0
 10
91.3403
 20
143.327
 11
91.4819
 21
143.034
  0
LINE
  8
0
 10
91.4819
 20
143.034
 11
91.56
 21
142.717
  0
LINE
  8
0
 10
91.56
 20
142.717
 11
91.5712
 21
142.391
  0
LINE
  8
0
 10
91.5712
 20
142.391
 11
91.5152
 21
142.07
  0
LINE
  8
0
 10
91.5152
 20
142.07
 11
91.3942
 21
141.767
  0
LINE
  8
0
 10
91.3942
 20
141.767
 11
91.2135
 21
141.496
  0
LINE
  8
0
 10
91.2135
 20
141.496
 11
90.9809
 21
141.268
  0
LINE
  8
0
 10
90.9809
 20
141.268
 11
90.7062
 21
141.092
  0
LINE
  8
0
 10
90.7062
 20
141.092
 11
90.4013
 21
140.977
  0
LINE
  8
0
 10
90.4013
 20
140.977
 11
90.3048
 21
140.955
  0
LINE
  8
0
 10
105.305
 20
140.955
 11
104.98
 21
140.925
  0
LINE
  8
0
 10
104.98
 20
140.925
 11
104.656
 21
140.963
  0
LINE
  8
0
 10
104.656
 20
140.963
 11
104.347
 21
141.067
  0
LINE
  8
0
 10
104.347
 20
141.067
 11
104.066
 21
141.232
  0
LINE
  8
0
 10
104.066
 20
141.232
 11
103.825
 21
141.451
  0
LINE
  8
0
 10
103.825
 20
141.451
 11
103.634
 21
141.715
  0
LINE
  8
0
 10
103.634
 20
141.715
 11
103.502
 21
142.013
  0
LINE
  8
0
 10
103.502
 20
142.013
 11
103.434
 21
142.332
  0
LINE
  8
0
 10
103.434
 20
142.332
 11
103.433
 21
142.658
  0
LINE
  8
0
 10
103.433
 20
142.658
 11
103.499
 21
142.977
  0
LINE
  8
0
 10
103.499
 20
142.977
 11
103.629
 21
143.276
  0
LINE
  8
0
 10
103.629
 20
143.276
 11
103.819
 21
143.542
  0
LINE
  8
0
 10
103.819
 20
143.542
 11
104.058
 21
143.762
  0
LINE
  8
0
 10
104.058
 20
143.762
 11
104.338
 21
143.929
  0
LINE
  8
0
 10
104.338
 20
143.929
 11
104.647
 21
144.035
  0
LINE
  8
0
 10
104.647
 20
144.035
 11
104.97
 21
144.075
  0
LINE
  8
0
 10
104.97
 20
144.075
 11
105.295
 21
144.047
  0
LINE
  8
0
 10
105.295
 20
144.047
 11
105.607
 21
143.953
  0
LINE
  8
0
 10
105.607
 20
143.953
 11
105.893
 21
143.797
  0
LINE
  8
0
 10
105.893
 20
143.797
 11
106.141
 21
143.585
  0
LINE
  8
0
 10
106.141
 20
143.585
 11
106.34
 21
143.327
  0
LINE
  8
0
 10
106.34
 20
143.327
 11
106.482
 21
143.034
  0
LINE
  8
0
 10
106.482
 20
143.034
 11
106.56
 21
142.717
  0
LINE
  8
0
 10
106.56
 20
142.717
 11
106.571
 21
142.391
  0
LINE
  8
0
 10
106.571
 20
142.391
 11
106.515
 21
142.07
  0
LINE
  8
0
 10
106.515
 20
142.07
 11
106.394
 21
141.767
  0
LINE
  8
0
 10
106.394
 20
141.767
 11
106.214
 21
141.496
  0
LINE
  8
0
 10
106.214
 20
141.496
 11
105.981
 21
141.268
  0
LINE
  8
0
 10
105.981
 20
141.268
 11
105.706
 21
141.092
  0
LINE
  8
0
 10
105.706
 20
141.092
 11
105.401
 21
140.977
  0
LINE
  8
0
 10
105.401
 20
140.977
 11
105.305
 21
140.955
  0
LINE
  8
0
 10
120.305
 20
140.955
 11
119.98
 21
140.925
  0
LINE
  8
0
 10
119.98
 20
140.925
 11
119.656
 21
140.963
  0
LINE
  8
0
 10
119.656
 20
140.963
 11
119.347
 21
141.067
  0
LINE
  8
0
 10
119.347
 20
141.067
 11
119.066
 21
141.232
  0
LINE
  8
0
 10
119.066
 20
141.232
 11
118.825
 21
141.451
  0
LINE
  8
0
 10
118.825
 20
141.451
 11
118.634
 21
141.715
  0
LINE
  8
0
 10
118.634
 20
141.715
 11
118.502
 21
142.013
  0
LINE
  8
0
 10
118.502
 20
142.013
 11
118.434
 21
142.332
  0
LINE
  8
0
 10
118.434
 20
142.332
 11
118.433
 21
142.658
  0
LINE
  8
0
 10
118.433
 20
142.658
 11
118.499
 21
142.977
  0
LINE
  8
0
 10
118.499
 20
142.977
 11
118.629
 21
143.276
  0
LINE
  8
0
 10
118.629
 20
143.276
 11
118.819
 21
143.542
  0
LINE
  8
0
 10
118.819
 20
143.542
 11
119.058
 21
143.762
  0
LINE
  8
0
 10
119.058
 20
143.762
 11
119.338
 21
143.929
  0
LINE
  8
0
 10
119.338
 20
143.929
 11
119.647
 21
144.035
  0
LINE
  8
0
 10
119.647
 20
144.035
 11
119.97
 21
144.075
  0
LINE
  8
0
 10
119.97
 20
144.075
 11
120.295
 21
144.047
  0
LINE
  8
0
 10
120.295
 20
144.047
 11
120.607
 21
143.953
  0
LINE
  8
0
 10
120.607
 20
143.953
 11
120.893
 21
143.797
  0
LINE
  8
0
 10
120.893
 20
143.797
 11
121.141
 21
143.585
  0
LINE
  8
0
 10
121.141
 20
143.585
 11
121.34
 21
143.327
  0
LINE
  8
0
 10
121.34
 20
143.327
 11
121.482
 21
143.034
  0
LINE
  8
0
 10
121.482
 20
143.034
 11
121.56
 21
142.717
  0
LINE
  8
0
 10
121.56
 20
142.717
 11
121.571
 21
142.391
  0
LINE
  8
0
 10
121.571
 20
142.391
 11
121.515
 21
142.07
  0
LINE
  8
0
 10
121.515
 20
142.07
 11
121.394
 21
141.767
  0
LINE
  8
0
 10
121.394
 20
141.767
 11
121.214
 21
141.496
  0
LINE
  8
0
 10
121.214
 20
141.496
 11
120.981
 21
141.268
  0
LINE
  8
0
 10
120.981
 20
141.268
 11
120.706
 21
141.092
  0
LINE
  8
0
 10
120.706
 20
141.092
 11
120.401
 21
140.977
  0
LINE
  8
0
 10
120.401
 20
140.977
 11
120.305
 21
140.955
  0
LINE
  8
0
 10
7.80484
 20
123.455
 11
7.48019
 21
123.425
  0
LINE
  8
0
 10
7.48019
 20
123.425
 11
7.15642
 21
123.463
  0
LINE
  8
0
 10
7.15642
 20
123.463
 11
6.84735
 21
123.567
  0
LINE
  8
0
 10
6.84735
 20
123.567
 11
6.56624
 21
123.732
  0
LINE
  8
0
 10
6.56624
 20
123.732
 11
6.32513
 21
123.951
  0
LINE
  8
0
 10
6.32513
 20
123.951
 11
6.13435
 21
124.215
  0
LINE
  8
0
 10
6.13435
 20
124.215
 11
6.00208
 21
124.513
  0
LINE
  8
0
 10
6.00208
 20
124.513
 11
5.93398
 21
124.832
  0
LINE
  8
0
 10
5.93398
 20
124.832
 11
5.93294
 21
125.158
  0
LINE
  8
0
 10
5.93294
 20
125.158
 11
5.99905
 21
125.477
  0
LINE
  8
0
 10
5.99905
 20
125.477
 11
6.12946
 21
125.776
  0
LINE
  8
0
 10
6.12946
 20
125.776
 11
6.31857
 21
126.042
  0
LINE
  8
0
 10
6.31857
 20
126.042
 11
6.55829
 21
126.262
  0
LINE
  8
0
 10
6.55829
 20
126.262
 11
6.83836
 21
126.429
  0
LINE
  8
0
 10
6.83836
 20
126.429
 11
7.14676
 21
126.535
  0
LINE
  8
0
 10
7.14676
 20
126.535
 11
7.47031
 21
126.575
  0
LINE
  8
0
 10
7.47031
 20
126.575
 11
7.79512
 21
126.547
  0
LINE
  8
0
 10
7.79512
 20
126.547
 11
8.10728
 21
126.453
  0
LINE
  8
0
 10
8.10728
 20
126.453
 11
8.39345
 21
126.297
  0
LINE
  8
0
 10
8.39345
 20
126.297
 11
8.64133
 21
126.085
  0
LINE
  8
0
 10
8.64133
 20
126.085
 11
8.8403
 21
125.827
  0
LINE
  8
0
 10
8.8403
 20
125.827
 11
8.98187
 21
125.534
  0
LINE
  8
0
 10
8.98187
 20
125.534
 11
9.05997
 21
125.217
  0
LINE
  8
0
 10
9.05997
 20
125.217
 11
9.07123
 21
124.891
  0
LINE
  8
0
 10
9.07123
 20
124.891
 11
9.01518
 21
124.57
  0
LINE
  8
0
 10
9.01518
 20
124.57
 11
8.89423
 21
124.267
  0
LINE
  8
0
 10
8.89423
 20
124.267
 11
8.71355
 21
123.996
  0
LINE
  8
0
 10
8.71355
 20
123.996
 11
8.48088
 21
123.768
  0
LINE
  8
0
 10
8.48088
 20
123.768
 11
8.20619
 21
123.592
  0
LINE
  8
0
 10
8.20619
 20
123.592
 11
7.90126
 21
123.477
  0
LINE
  8
0
 10
7.90126
 20
123.477
 11
7.80484
 21
123.455
  0
LINE
  8
0
 10
142.805
 20
123.455
 11
142.48
 21
123.425
  0
LINE
  8
0
 10
142.48
 20
123.425
 11
142.156
 21
123.463
  0
LINE
  8
0
 10
142.156
 20
123.463
 11
141.847
 21
123.567
  0
LINE
  8
0
 10
141.847
 20
123.567
 11
141.566
 21
123.732
  0
LINE
  8
0
 10
141.566
 20
123.732
 11
141.325
 21
123.951
  0
LINE
  8
0
 10
141.325
 20
123.951
 11
141.134
 21
124.215
  0
LINE
  8
0
 10
141.134
 20
124.215
 11
141.002
 21
124.513
  0
LINE
  8
0
 10
141.002
 20
124.513
 11
140.934
 21
124.832
  0
LINE
  8
0
 10
140.934
 20
124.832
 11
140.933
 21
125.158
  0
LINE
  8
0
 10
140.933
 20
125.158
 11
140.999
 21
125.477
  0
LINE
  8
0
 10
140.999
 20
125.477
 11
141.129
 21
125.776
  0
LINE
  8
0
 10
141.129
 20
125.776
 11
141.319
 21
126.042
  0
LINE
  8
0
 10
141.319
 20
126.042
 11
141.558
 21
126.262
  0
LINE
  8
0
 10
141.558
 20
126.262
 11
141.838
 21
126.429
  0
LINE
  8
0
 10
141.838
 20
126.429
 11
142.147
 21
126.535
  0
LINE
  8
0
 10
142.147
 20
126.535
 11
142.47
 21
126.575
  0
LINE
  8
0
 10
142.47
 20
126.575
 11
142.795
 21
126.547
  0
LINE
  8
0
 10
142.795
 20
126.547
 11
143.107
 21
126.453
  0
LINE
  8
0
 10
143.107
 20
126.453
 11
143.393
 21
126.297
  0
LINE
  8
0
 10
143.393
 20
126.297
 11
143.641
 21
126.085
  0
LINE
  8
0
 10
143.641
 20
126.085
 11
143.84
 21
125.827
  0
LINE
  8
0
 10
143.84
 20
125.827
 11
143.982
 21
125.534
  0
LINE
  8
0
 10
143.982
 20
125.534
 11
144.06
 21
125.217
  0
LINE
  8
0
 10
144.06
 20
125.217
 11
144.071
 21
124.891
  0
LINE
  8
0
 10
144.071
 20
124.891
 11
144.015
 21
124.57
  0
LINE
  8
0
 10
144.015
 20
124.57
 11
143.894
 21
124.267
  0
LINE
  8
0
 10
143.894
 20
124.267
 11
143.714
 21
123.996
  0
LINE
  8
0
 10
143.714
 20
123.996
 11
143.481
 21
123.768
  0
LINE
  8
0
 10
143.481
 20
123.768
 11
143.206
 21
123.592
  0
LINE
  8
0
 10
143.206
 20
123.592
 11
142.901
 21
123.477
  0
LINE
  8
0
 10
142.901
 20
123.477
 11
142.805
 21
123.455
  0
LINE
  8
0
 10
7.80484
 20
108.455
 11
7.48019
 21
108.425
  0
LINE
  8
0
 10
7.48019
 20
108.425
 11
7.15642
 21
108.463
  0
LINE
  8
0
 10
7.15642
 20
108.463
 11
6.84735
 21
108.567
  0
LINE
  8
0
 10
6.84735
 20
108.567
 11
6.56624
 21
108.732
  0
LINE
  8
0
 10
6.56624
 20
108.732
 11
6.32513
 21
108.951
  0
LINE
  8
0
 10
6.32513
 20
108.951
 11
6.13435
 21
109.215
  0
LINE
  8
0
 10
6.13435
 20
109.215
 11
6.00208
 21
109.513
  0
LINE
  8
0
 10
6.00208
 20
109.513
 11
5.93398
 21
109.832
  0
LINE
  8
0
 10
5.93398
 20
109.832
 11
5.93294
 21
110.158
  0
LINE
  8
0
 10
5.93294
 20
110.158
 11
5.99905
 21
110.477
  0
LINE
  8
0
 10
5.99905
 20
110.477
 11
6.12946
 21
110.776
  0
LINE
  8
0
 10
6.12946
 20
110.776
 11
6.31857
 21
111.042
  0
LINE
  8
0
 10
6.31857
 20
111.042
 11
6.55829
 21
111.262
  0
LINE
  8
0
 10
6.55829
 20
111.262
 11
6.83836
 21
111.429
  0
LINE
  8
0
 10
6.83836
 20
111.429
 11
7.14676
 21
111.535
  0
LINE
  8
0
 10
7.14676
 20
111.535
 11
7.47031
 21
111.575
  0
LINE
  8
0
 10
7.47031
 20
111.575
 11
7.79512
 21
111.547
  0
LINE
  8
0
 10
7.79512
 20
111.547
 11
8.10728
 21
111.453
  0
LINE
  8
0
 10
8.10728
 20
111.453
 11
8.39345
 21
111.297
  0
LINE
  8
0
 10
8.39345
 20
111.297
 11
8.64133
 21
111.085
  0
LINE
  8
0
 10
8.64133
 20
111.085
 11
8.8403
 21
110.827
  0
LINE
  8
0
 10
8.8403
 20
110.827
 11
8.98187
 21
110.534
  0
LINE
  8
0
 10
8.98187
 20
110.534
 11
9.05997
 21
110.217
  0
LINE
  8
0
 10
9.05997
 20
110.217
 11
9.07123
 21
109.891
  0
LINE
  8
0
 10
9.07123
 20
109.891
 11
9.01518
 21
109.57
  0
LINE
  8
0
 10
9.01518
 20
109.57
 11
8.89423
 21
109.267
  0
LINE
  8
0
 10
8.89423
 20
109.267
 11
8.71355
 21
108.996
  0
LINE
  8
0
 10
8.71355
 20
108.996
 11
8.48088
 21
108.768
  0
LINE
  8
0
 10
8.48088
 20
108.768
 11
8.20619
 21
108.592
  0
LINE
  8
0
 10
8.20619
 20
108.592
 11
7.90126
 21
108.477
  0
LINE
  8
0
 10
7.90126
 20
108.477
 11
7.80484
 21
108.455
  0
LINE
  8
0
 10
142.805
 20
108.455
 11
142.48
 21
108.425
  0
LINE
  8
0
 10
142.48
 20
108.425
 11
142.156
 21
108.463
  0
LINE
  8
0
 10
142.156
 20
108.463
 11
141.847
 21
108.567
  0
LINE
  8
0
 10
141.847
 20
108.567
 11
141.566
 21
108.732
  0
LINE
  8
0
 10
141.566
 20
108.732
 11
141.325
 21
108.951
  0
LINE
  8
0
 10
141.325
 20
108.951
 11
141.134
 21
109.215
  0
LINE
  8
0
 10
141.134
 20
109.215
 11
141.002
 21
109.513
  0
LINE
  8
0
 10
141.002
 20
109.513
 11
140.934
 21
109.832
  0
LINE
  8
0
 10
140.934
 20
109.832
 11
140.933
 21
110.158
  0
LINE
  8
0
 10
140.933
 20
110.158
 11
140.999
 21
110.477
  0
LINE
  8
0
 10
140.999
 20
110.477
 11
141.129
 21
110.776
  0
LINE
  8
0
 10
141.129
 20
110.776
 11
141.319
 21
111.042
  0
LINE
  8
0
 10
141.319
 20
111.042
 11
141.558
 21
111.262
  0
LINE
  8
0
 10
141.558
 20
111.262
 11
141.838
 21
111.429
  0
LINE
  8
0
 10
141.838
 20
111.429
 11
142.147
 21
111.535
  0
LINE
  8
0
 10
142.147
 20
111.535
 11
142.47
 21
111.575
  0
LINE
  8
0
 10
142.47
 20
111.575
 11
142.795
 21
111.547
  0
LINE
  8
0
 10
142.795
 20
111.547
 11
143.107
 21
111.453
  0
LINE
  8
0
 10
143.107
 20
111.453
 11
143.393
 21
111.297
  0
LINE
  8
0
 10
143.393
 20
111.297
 11
143.641
 21
111.085
  0
LINE
  8
0
 10
143.641
 20
111.085
 11
143.84
 21
110.827
  0
LINE
  8
0
 10
143.84
 20
110.827
 11
143.982
 21
110.534
  0
LINE
  8
0
 10
143.982
 20
110.534
 11
144.06
 21
110.217
  0
LINE
  8
0
 10
144.06
 20
110.217
 11
144.071
 21
109.891
  0
LINE
  8
0
 10
144.071
 20
109.891
 11
144.015
 21
109.57
  0
LINE
  8
0
 10
144.015
 20
109.57
 11
143.894
 21
109.267
  0
LINE
  8
0
 10
143.894
 20
109.267
 11
143.714
 21
108.996
  0
LINE
  8
0
 10
143.714
 20
108.996
 11
143.481
 21
108.768
  0
LINE
  8
0
 10
143.481
 20
108.768
 11
143.206
 21
108.592
  0
LINE
  8
0
 10
143.206
 20
108.592
 11
142.901
 21
108.477
  0
LINE
  8
0
 10
142.901
 20
108.477
 11
142.805
 21
108.455
  0
LINE
  8
0
 10
7.80484
 20
93.4548
 11
7.48019
 21
93.4251
  0
LINE
  8
0
 10
7.48019
 20
93.4251
 11
7.15642
 21
93.4629
  0
LINE
  8
0
 10
7.15642
 20
93.4629
 11
6.84735
 21
93.5666
  0
LINE
  8
0
 10
6.84735
 20
93.5666
 11
6.56624
 21
93.7316
  0
LINE
  8
0
 10
6.56624
 20
93.7316
 11
6.32513
 21
93.951
  0
LINE
  8
0
 10
6.32513
 20
93.951
 11
6.13435
 21
94.2153
  0
LINE
  8
0
 10
6.13435
 20
94.2153
 11
6.00208
 21
94.5133
  0
LINE
  8
0
 10
6.00208
 20
94.5133
 11
5.93398
 21
94.8321
  0
LINE
  8
0
 10
5.93398
 20
94.8321
 11
5.93294
 21
95.1581
  0
LINE
  8
0
 10
5.93294
 20
95.1581
 11
5.99905
 21
95.4773
  0
LINE
  8
0
 10
5.99905
 20
95.4773
 11
6.12946
 21
95.776
  0
LINE
  8
0
 10
6.12946
 20
95.776
 11
6.31857
 21
96.0416
  0
LINE
  8
0
 10
6.31857
 20
96.0416
 11
6.55829
 21
96.2625
  0
LINE
  8
0
 10
6.55829
 20
96.2625
 11
6.83836
 21
96.4293
  0
LINE
  8
0
 10
6.83836
 20
96.4293
 11
7.14676
 21
96.5349
  0
LINE
  8
0
 10
7.14676
 20
96.5349
 11
7.47031
 21
96.5747
  0
LINE
  8
0
 10
7.47031
 20
96.5747
 11
7.79512
 21
96.5471
  0
LINE
  8
0
 10
7.79512
 20
96.5471
 11
8.10728
 21
96.4532
  0
LINE
  8
0
 10
8.10728
 20
96.4532
 11
8.39345
 21
96.2971
  0
LINE
  8
0
 10
8.39345
 20
96.2971
 11
8.64133
 21
96.0853
  0
LINE
  8
0
 10
8.64133
 20
96.0853
 11
8.8403
 21
95.8271
  0
LINE
  8
0
 10
8.8403
 20
95.8271
 11
8.98187
 21
95.5335
  0
LINE
  8
0
 10
8.98187
 20
95.5335
 11
9.05997
 21
95.217
  0
LINE
  8
0
 10
9.05997
 20
95.217
 11
9.07123
 21
94.8912
  0
LINE
  8
0
 10
9.07123
 20
94.8912
 11
9.01518
 21
94.5701
  0
LINE
  8
0
 10
9.01518
 20
94.5701
 11
8.89423
 21
94.2674
  0
LINE
  8
0
 10
8.89423
 20
94.2674
 11
8.71355
 21
93.996
  0
LINE
  8
0
 10
8.71355
 20
93.996
 11
8.48088
 21
93.7677
  0
LINE
  8
0
 10
8.48088
 20
93.7677
 11
8.20619
 21
93.5922
  0
LINE
  8
0
 10
8.20619
 20
93.5922
 11
7.90126
 21
93.477
  0
LINE
  8
0
 10
7.90126
 20
93.477
 11
7.80484
 21
93.4548
  0
LINE
  8
0
 10
142.805
 20
93.4548
 11
142.48
 21
93.4251
  0
LINE
  8
0
 10
142.48
 20
93.4251
 11
142.156
 21
93.4629
  0
LINE
  8
0
 10
142.156
 20
93.4629
 11
141.847
 21
93.5666
  0
LINE
  8
0
 10
141.847
 20
93.5666
 11
141.566
 21
93.7316
  0
LINE
  8
0
 10
141.566
 20
93.7316
 11
141.325
 21
93.951
  0
LINE
  8
0
 10
141.325
 20
93.951
 11
141.134
 21
94.2153
  0
LINE
  8
0
 10
141.134
 20
94.2153
 11
141.002
 21
94.5133
  0
LINE
  8
0
 10
141.002
 20
94.5133
 11
140.934
 21
94.8321
  0
LINE
  8
0
 10
140.934
 20
94.8321
 11
140.933
 21
95.1581
  0
LINE
  8
0
 10
140.933
 20
95.1581
 11
140.999
 21
95.4773
  0
LINE
  8
0
 10
140.999
 20
95.4773
 11
141.129
 21
95.776
  0
LINE
  8
0
 10
141.129
 20
95.776
 11
141.319
 21
96.0416
  0
LINE
  8
0
 10
141.319
 20
96.0416
 11
141.558
 21
96.2625
  0
LINE
  8
0
 10
141.558
 20
96.2625
 11
141.838
 21
96.4293
  0
LINE
  8
0
 10
141.838
 20
96.4293
 11
142.147
 21
96.5349
  0
LINE
  8
0
 10
142.147
 20
96.5349
 11
142.47
 21
96.5747
  0
LINE
  8
0
 10
142.47
 20
96.5747
 11
142.795
 21
96.5471
  0
LINE
  8
0
 10
142.795
 20
96.5471
 11
143.107
 21
96.4532
  0
LINE
  8
0
 10
143.107
 20
96.4532
 11
143.393
 21
96.2971
  0
LINE
  8
0
 10
143.393
 20
96.2971
 11
143.641
 21
96.0853
  0
LINE
  8
0
 10
143.641
 20
96.0853
 11
143.84
 21
95.8271
  0
LINE
  8
0
 10
143.84
 20
95.8271
 11
143.982
 21
95.5335
  0
LINE
  8
0
 10
143.982
 20
95.5335
 11
144.06
 21
95.217
  0
LINE
  8
0
 10
144.06
 20
95.217
 11
144.071
 21
94.8912
  0
LINE
  8
0
 10
144.071
 20
94.8912
 11
144.015
 21
94.5701
  0
LINE
  8
0
 10
144.015
 20
94.5701
 11
143.894
 21
94.2674
  0
LINE
  8
0
 10
143.894
 20
94.2674
 11
143.714
 21
93.996
  0
LINE
  8
0
 10
143.714
 20
93.996
 11
143.481
 21
93.7677
  0
LINE
  8
0
 10
143.481
 20
93.7677
 11
143.206
 21
93.5922
  0
LINE
  8
0
 10
143.206
 20
93.5922
 11
142.901
 21
93.477
  0
LINE
  8
0
 10
142.901
 20
93.477
 11
142.805
 21
93.4548
  0
ENDSEC
  0
SECTION
  2
OBJECTS
  0
DICTIONARY
  0
ENDSEC
  0
EOF
