  0
SECTION
  2
BLOCKS
  0
ENDSEC
  0
SECTION
  2
ENTITIES
  0
LINE
  8
0
 10
150
 20
150
 11
125
 21
150
  0
LINE
  8
0
 10
125
 20
150
 11
125
 21
135
  0
LINE
  8
0
 10
125
 20
135
 11
110
 21
135
  0
LINE
  8
0
 10
110
 20
135
 11
110
 21
150
  0
LINE
  8
0
 10
110
 20
150
 11
40
 21
150
  0
LINE
  8
0
 10
40
 20
150
 11
40
 21
135
  0
LINE
  8
0
 10
40
 20
135
 11
25
 21
135
  0
LINE
  8
0
 10
25
 20
135
 11
25
 21
150
  0
LINE
  8
0
 10
25
 20
150
 11
0
 21
150
  0
LINE
  8
0
 10
0
 20
150
 11
0
 21
0
  0
LINE
  8
0
 10
0
 20
0
 11
150
 21
0
  0
LINE
  8
0
 10
150
 20
0
 11
150
 21
150
  0
LINE
  8
0
 10
14.6564
 20
140.963
 11
14.3474
 21
141.067
  0
LINE
  8
0
 10
14.3474
 20
141.067
 11
14.0662
 21
141.232
  0
LINE
  8
0
 10
14.0662
 20
141.232
 11
13.8251
 21
141.451
  0
LINE
  8
0
 10
13.8251
 20
141.451
 11
13.6344
 21
141.715
  0
LINE
  8
0
 10
13.6344
 20
141.715
 11
13.5021
 21
142.013
  0
LINE
  8
0
 10
13.5021
 20
142.013
 11
13.434
 21
142.332
  0
LINE
  8
0
 10
13.434
 20
142.332
 11
13.4329
 21
142.658
  0
LINE
  8
0
 10
13.4329
 20
142.658
 11
13.4991
 21
142.977
  0
LINE
  8
0
 10
13.4991
 20
142.977
 11
13.6295
 21
143.276
  0
LINE
  8
0
 10
13.6295
 20
143.276
 11
13.8186
 21
143.542
  0
LINE
  8
0
 10
13.8186
 20
143.542
 11
14.0583
 21
143.762
  0
LINE
  8
0
 10
14.0583
 20
143.762
 11
14.3384
 21
143.929
  0
LINE
  8
0
 10
14.3384
 20
143.929
 11
14.6468
 21
144.035
  0
LINE
  8
0
 10
14.6468
 20
144.035
 11
14.9703
 21
144.075
  0
LINE
  8
0
 10
14.9703
 20
144.075
 11
15.2951
 21
144.047
  0
LINE
  8
0
 10
15.2951
 20
144.047
 11
15.6073
 21
143.953
  0
LINE
  8
0
 10
15.6073
 20
143.953
 11
15.8934
 21
143.797
  0
LINE
  8
0
 10
15.8934
 20
143.797
 11
16.1413
 21
143.585
  0
LINE
  8
0
 10
16.1413
 20
143.585
 11
16.3403
 21
143.327
  0
LINE
  8
0
 10
16.3403
 20
143.327
 11
16.4819
 21
143.034
  0
LINE
  8
0
 10
16.4819
 20
143.034
 11
16.56
 21
142.717
  0
LINE
  8
0
 10
16.56
 20
142.717
 11
16.5712
 21
142.391
  0
LINE
  8
0
 10
16.5712
 20
142.391
 11
16.5152
 21
142.07
  0
LINE
  8
0
 10
16.5152
 20
142.07
 11
16.3942
 21
141.767
  0
LINE
  8
0
 10
16.3942
 20
141.767
 11
16.2135
 21
141.496
  0
LINE
  8
0
 10
16.2135
 20
141.496
 11
15.9809
 21
141.268
  0
LINE
  8
0
 10
15.9809
 20
141.268
 11
15.7062
 21
141.092
  0
LINE
  8
0
 10
15.7062
 20
141.092
 11
15.4013
 21
140.977
  0
LINE
  8
0
 10
15.4013
 20
140.977
 11
15.3048
 21
140.955
  0
LINE
  8
0
 10
15.3048
 20
140.955
 11
14.9802
 21
140.925
  0
LINE
  8
0
 10
14.9802
 20
140.925
 11
14.6564
 21
140.963
  0
LINE
  8
0
 10
134.656
 20
140.963
 11
134.347
 21
141.067
  0
LINE
  8
0
 10
134.347
 20
141.067
 11
134.066
 21
141.232
  0
LINE
  8
0
 10
134.066
 20
141.232
 11
133.825
 21
141.451
  0
LINE
  8
0
 10
133.825
 20
141.451
 11
133.634
 21
141.715
  0
LINE
  8
0
 10
133.634
 20
141.715
 11
133.502
 21
142.013
  0
LINE
  8
0
 10
133.502
 20
142.013
 11
133.434
 21
142.332
  0
LINE
  8
0
 10
133.434
 20
142.332
 11
133.433
 21
142.658
  0
LINE
  8
0
 10
133.433
 20
142.658
 11
133.499
 21
142.977
  0
LINE
  8
0
 10
133.499
 20
142.977
 11
133.629
 21
143.276
  0
LINE
  8
0
 10
133.629
 20
143.276
 11
133.819
 21
143.542
  0
LINE
  8
0
 10
133.819
 20
143.542
 11
134.058
 21
143.762
  0
LINE
  8
0
 10
134.058
 20
143.762
 11
134.338
 21
143.929
  0
LINE
  8
0
 10
134.338
 20
143.929
 11
134.647
 21
144.035
  0
LINE
  8
0
 10
134.647
 20
144.035
 11
134.97
 21
144.075
  0
LINE
  8
0
 10
134.97
 20
144.075
 11
135.295
 21
144.047
  0
LINE
  8
0
 10
135.295
 20
144.047
 11
135.607
 21
143.953
  0
LINE
  8
0
 10
135.607
 20
143.953
 11
135.893
 21
143.797
  0
LINE
  8
0
 10
135.893
 20
143.797
 11
136.141
 21
143.585
  0
LINE
  8
0
 10
136.141
 20
143.585
 11
136.34
 21
143.327
  0
LINE
  8
0
 10
136.34
 20
143.327
 11
136.482
 21
143.034
  0
LINE
  8
0
 10
136.482
 20
143.034
 11
136.56
 21
142.717
  0
LINE
  8
0
 10
136.56
 20
142.717
 11
136.571
 21
142.391
  0
LINE
  8
0
 10
136.571
 20
142.391
 11
136.515
 21
142.07
  0
LINE
  8
0
 10
136.515
 20
142.07
 11
136.394
 21
141.767
  0
LINE
  8
0
 10
136.394
 20
141.767
 11
136.214
 21
141.496
  0
LINE
  8
0
 10
136.214
 20
141.496
 11
135.981
 21
141.268
  0
LINE
  8
0
 10
135.981
 20
141.268
 11
135.706
 21
141.092
  0
LINE
  8
0
 10
135.706
 20
141.092
 11
135.401
 21
140.977
  0
LINE
  8
0
 10
135.401
 20
140.977
 11
135.305
 21
140.955
  0
LINE
  8
0
 10
135.305
 20
140.955
 11
134.98
 21
140.925
  0
LINE
  8
0
 10
134.98
 20
140.925
 11
134.656
 21
140.963
  0
LINE
  8
0
 10
104.656
 20
140.963
 11
104.347
 21
141.067
  0
LINE
  8
0
 10
104.347
 20
141.067
 11
104.066
 21
141.232
  0
LINE
  8
0
 10
104.066
 20
141.232
 11
103.825
 21
141.451
  0
LINE
  8
0
 10
103.825
 20
141.451
 11
103.634
 21
141.715
  0
LINE
  8
0
 10
103.634
 20
141.715
 11
103.502
 21
142.013
  0
LINE
  8
0
 10
103.502
 20
142.013
 11
103.434
 21
142.332
  0
LINE
  8
0
 10
103.434
 20
142.332
 11
103.433
 21
142.658
  0
LINE
  8
0
 10
103.433
 20
142.658
 11
103.499
 21
142.977
  0
LINE
  8
0
 10
103.499
 20
142.977
 11
103.629
 21
143.276
  0
LINE
  8
0
 10
103.629
 20
143.276
 11
103.819
 21
143.542
  0
LINE
  8
0
 10
103.819
 20
143.542
 11
104.058
 21
143.762
  0
LINE
  8
0
 10
104.058
 20
143.762
 11
104.338
 21
143.929
  0
LINE
  8
0
 10
104.338
 20
143.929
 11
104.647
 21
144.035
  0
LINE
  8
0
 10
104.647
 20
144.035
 11
104.97
 21
144.075
  0
LINE
  8
0
 10
104.97
 20
144.075
 11
105.295
 21
144.047
  0
LINE
  8
0
 10
105.295
 20
144.047
 11
105.607
 21
143.953
  0
LINE
  8
0
 10
105.607
 20
143.953
 11
105.893
 21
143.797
  0
LINE
  8
0
 10
105.893
 20
143.797
 11
106.141
 21
143.585
  0
LINE
  8
0
 10
106.141
 20
143.585
 11
106.34
 21
143.327
  0
LINE
  8
0
 10
106.34
 20
143.327
 11
106.482
 21
143.034
  0
LINE
  8
0
 10
106.482
 20
143.034
 11
106.56
 21
142.717
  0
LINE
  8
0
 10
106.56
 20
142.717
 11
106.571
 21
142.391
  0
LINE
  8
0
 10
106.571
 20
142.391
 11
106.515
 21
142.07
  0
LINE
  8
0
 10
106.515
 20
142.07
 11
106.394
 21
141.767
  0
LINE
  8
0
 10
106.394
 20
141.767
 11
106.214
 21
141.496
  0
LINE
  8
0
 10
106.214
 20
141.496
 11
105.981
 21
141.268
  0
LINE
  8
0
 10
105.981
 20
141.268
 11
105.706
 21
141.092
  0
LINE
  8
0
 10
105.706
 20
141.092
 11
105.401
 21
140.977
  0
LINE
  8
0
 10
105.401
 20
140.977
 11
105.305
 21
140.955
  0
LINE
  8
0
 10
105.305
 20
140.955
 11
104.98
 21
140.925
  0
LINE
  8
0
 10
104.98
 20
140.925
 11
104.656
 21
140.963
  0
LINE
  8
0
 10
74.6564
 20
140.963
 11
74.3474
 21
141.067
  0
LINE
  8
0
 10
74.3474
 20
141.067
 11
74.0662
 21
141.232
  0
LINE
  8
0
 10
74.0662
 20
141.232
 11
73.8251
 21
141.451
  0
LINE
  8
0
 10
73.8251
 20
141.451
 11
73.6344
 21
141.715
  0
LINE
  8
0
 10
73.6344
 20
141.715
 11
73.5021
 21
142.013
  0
LINE
  8
0
 10
73.5021
 20
142.013
 11
73.434
 21
142.332
  0
LINE
  8
0
 10
73.434
 20
142.332
 11
73.4329
 21
142.658
  0
LINE
  8
0
 10
73.4329
 20
142.658
 11
73.4991
 21
142.977
  0
LINE
  8
0
 10
73.4991
 20
142.977
 11
73.6295
 21
143.276
  0
LINE
  8
0
 10
73.6295
 20
143.276
 11
73.8186
 21
143.542
  0
LINE
  8
0
 10
73.8186
 20
143.542
 11
74.0583
 21
143.762
  0
LINE
  8
0
 10
74.0583
 20
143.762
 11
74.3384
 21
143.929
  0
LINE
  8
0
 10
74.3384
 20
143.929
 11
74.6468
 21
144.035
  0
LINE
  8
0
 10
74.6468
 20
144.035
 11
74.9703
 21
144.075
  0
LINE
  8
0
 10
74.9703
 20
144.075
 11
75.2951
 21
144.047
  0
LINE
  8
0
 10
75.2951
 20
144.047
 11
75.6073
 21
143.953
  0
LINE
  8
0
 10
75.6073
 20
143.953
 11
75.8934
 21
143.797
  0
LINE
  8
0
 10
75.8934
 20
143.797
 11
76.1413
 21
143.585
  0
LINE
  8
0
 10
76.1413
 20
143.585
 11
76.3403
 21
143.327
  0
LINE
  8
0
 10
76.3403
 20
143.327
 11
76.4819
 21
143.034
  0
LINE
  8
0
 10
76.4819
 20
143.034
 11
76.56
 21
142.717
  0
LINE
  8
0
 10
76.56
 20
142.717
 11
76.5712
 21
142.391
  0
LINE
  8
0
 10
76.5712
 20
142.391
 11
76.5152
 21
142.07
  0
LINE
  8
0
 10
76.5152
 20
142.07
 11
76.3942
 21
141.767
  0
LINE
  8
0
 10
76.3942
 20
141.767
 11
76.2135
 21
141.496
  0
LINE
  8
0
 10
76.2135
 20
141.496
 11
75.9809
 21
141.268
  0
LINE
  8
0
 10
75.9809
 20
141.268
 11
75.7062
 21
141.092
  0
LINE
  8
0
 10
75.7062
 20
141.092
 11
75.4013
 21
140.977
  0
LINE
  8
0
 10
75.4013
 20
140.977
 11
75.3048
 21
140.955
  0
LINE
  8
0
 10
75.3048
 20
140.955
 11
74.9802
 21
140.925
  0
LINE
  8
0
 10
74.9802
 20
140.925
 11
74.6564
 21
140.963
  0
LINE
  8
0
 10
44.6564
 20
140.963
 11
44.3474
 21
141.067
  0
LINE
  8
0
 10
44.3474
 20
141.067
 11
44.0662
 21
141.232
  0
LINE
  8
0
 10
44.0662
 20
141.232
 11
43.8251
 21
141.451
  0
LINE
  8
0
 10
43.8251
 20
141.451
 11
43.6344
 21
141.715
  0
LINE
  8
0
 10
43.6344
 20
141.715
 11
43.5021
 21
142.013
  0
LINE
  8
0
 10
43.5021
 20
142.013
 11
43.434
 21
142.332
  0
LINE
  8
0
 10
43.434
 20
142.332
 11
43.4329
 21
142.658
  0
LINE
  8
0
 10
43.4329
 20
142.658
 11
43.4991
 21
142.977
  0
LINE
  8
0
 10
43.4991
 20
142.977
 11
43.6295
 21
143.276
  0
LINE
  8
0
 10
43.6295
 20
143.276
 11
43.8186
 21
143.542
  0
LINE
  8
0
 10
43.8186
 20
143.542
 11
44.0583
 21
143.762
  0
LINE
  8
0
 10
44.0583
 20
143.762
 11
44.3384
 21
143.929
  0
LINE
  8
0
 10
44.3384
 20
143.929
 11
44.6468
 21
144.035
  0
LINE
  8
0
 10
44.6468
 20
144.035
 11
44.9703
 21
144.075
  0
LINE
  8
0
 10
44.9703
 20
144.075
 11
45.2951
 21
144.047
  0
LINE
  8
0
 10
45.2951
 20
144.047
 11
45.6073
 21
143.953
  0
LINE
  8
0
 10
45.6073
 20
143.953
 11
45.8934
 21
143.797
  0
LINE
  8
0
 10
45.8934
 20
143.797
 11
46.1413
 21
143.585
  0
LINE
  8
0
 10
46.1413
 20
143.585
 11
46.3403
 21
143.327
  0
LINE
  8
0
 10
46.3403
 20
143.327
 11
46.4819
 21
143.034
  0
LINE
  8
0
 10
46.4819
 20
143.034
 11
46.56
 21
142.717
  0
LINE
  8
0
 10
46.56
 20
142.717
 11
46.5712
 21
142.391
  0
LINE
  8
0
 10
46.5712
 20
142.391
 11
46.5152
 21
142.07
  0
LINE
  8
0
 10
46.5152
 20
142.07
 11
46.3942
 21
141.767
  0
LINE
  8
0
 10
46.3942
 20
141.767
 11
46.2135
 21
141.496
  0
LINE
  8
0
 10
46.2135
 20
141.496
 11
45.9809
 21
141.268
  0
LINE
  8
0
 10
45.9809
 20
141.268
 11
45.7062
 21
141.092
  0
LINE
  8
0
 10
45.7062
 20
141.092
 11
45.4013
 21
140.977
  0
LINE
  8
0
 10
45.4013
 20
140.977
 11
45.3048
 21
140.955
  0
LINE
  8
0
 10
45.3048
 20
140.955
 11
44.9802
 21
140.925
  0
LINE
  8
0
 10
44.9802
 20
140.925
 11
44.6564
 21
140.963
  0
LINE
  8
0
 10
59.6564
 20
140.963
 11
59.3474
 21
141.067
  0
LINE
  8
0
 10
59.3474
 20
141.067
 11
59.0662
 21
141.232
  0
LINE
  8
0
 10
59.0662
 20
141.232
 11
58.8251
 21
141.451
  0
LINE
  8
0
 10
58.8251
 20
141.451
 11
58.6344
 21
141.715
  0
LINE
  8
0
 10
58.6344
 20
141.715
 11
58.5021
 21
142.013
  0
LINE
  8
0
 10
58.5021
 20
142.013
 11
58.434
 21
142.332
  0
LINE
  8
0
 10
58.434
 20
142.332
 11
58.4329
 21
142.658
  0
LINE
  8
0
 10
58.4329
 20
142.658
 11
58.4991
 21
142.977
  0
LINE
  8
0
 10
58.4991
 20
142.977
 11
58.6295
 21
143.276
  0
LINE
  8
0
 10
58.6295
 20
143.276
 11
58.8186
 21
143.542
  0
LINE
  8
0
 10
58.8186
 20
143.542
 11
59.0583
 21
143.762
  0
LINE
  8
0
 10
59.0583
 20
143.762
 11
59.3384
 21
143.929
  0
LINE
  8
0
 10
59.3384
 20
143.929
 11
59.6468
 21
144.035
  0
LINE
  8
0
 10
59.6468
 20
144.035
 11
59.9703
 21
144.075
  0
LINE
  8
0
 10
59.9703
 20
144.075
 11
60.2951
 21
144.047
  0
LINE
  8
0
 10
60.2951
 20
144.047
 11
60.6073
 21
143.953
  0
LINE
  8
0
 10
60.6073
 20
143.953
 11
60.8934
 21
143.797
  0
LINE
  8
0
 10
60.8934
 20
143.797
 11
61.1413
 21
143.585
  0
LINE
  8
0
 10
61.1413
 20
143.585
 11
61.3403
 21
143.327
  0
LINE
  8
0
 10
61.3403
 20
143.327
 11
61.4819
 21
143.034
  0
LINE
  8
0
 10
61.4819
 20
143.034
 11
61.56
 21
142.717
  0
LINE
  8
0
 10
61.56
 20
142.717
 11
61.5712
 21
142.391
  0
LINE
  8
0
 10
61.5712
 20
142.391
 11
61.5152
 21
142.07
  0
LINE
  8
0
 10
61.5152
 20
142.07
 11
61.3942
 21
141.767
  0
LINE
  8
0
 10
61.3942
 20
141.767
 11
61.2135
 21
141.496
  0
LINE
  8
0
 10
61.2135
 20
141.496
 11
60.9809
 21
141.268
  0
LINE
  8
0
 10
60.9809
 20
141.268
 11
60.7062
 21
141.092
  0
LINE
  8
0
 10
60.7062
 20
141.092
 11
60.4013
 21
140.977
  0
LINE
  8
0
 10
60.4013
 20
140.977
 11
60.3048
 21
140.955
  0
LINE
  8
0
 10
60.3048
 20
140.955
 11
59.9802
 21
140.925
  0
LINE
  8
0
 10
59.9802
 20
140.925
 11
59.6564
 21
140.963
  0
LINE
  8
0
 10
89.6564
 20
140.963
 11
89.3474
 21
141.067
  0
LINE
  8
0
 10
89.3474
 20
141.067
 11
89.0662
 21
141.232
  0
LINE
  8
0
 10
89.0662
 20
141.232
 11
88.8251
 21
141.451
  0
LINE
  8
0
 10
88.8251
 20
141.451
 11
88.6344
 21
141.715
  0
LINE
  8
0
 10
88.6344
 20
141.715
 11
88.5021
 21
142.013
  0
LINE
  8
0
 10
88.5021
 20
142.013
 11
88.434
 21
142.332
  0
LINE
  8
0
 10
88.434
 20
142.332
 11
88.4329
 21
142.658
  0
LINE
  8
0
 10
88.4329
 20
142.658
 11
88.4991
 21
142.977
  0
LINE
  8
0
 10
88.4991
 20
142.977
 11
88.6295
 21
143.276
  0
LINE
  8
0
 10
88.6295
 20
143.276
 11
88.8186
 21
143.542
  0
LINE
  8
0
 10
88.8186
 20
143.542
 11
89.0583
 21
143.762
  0
LINE
  8
0
 10
89.0583
 20
143.762
 11
89.3384
 21
143.929
  0
LINE
  8
0
 10
89.3384
 20
143.929
 11
89.6468
 21
144.035
  0
LINE
  8
0
 10
89.6468
 20
144.035
 11
89.9703
 21
144.075
  0
LINE
  8
0
 10
89.9703
 20
144.075
 11
90.2951
 21
144.047
  0
LINE
  8
0
 10
90.2951
 20
144.047
 11
90.6073
 21
143.953
  0
LINE
  8
0
 10
90.6073
 20
143.953
 11
90.8934
 21
143.797
  0
LINE
  8
0
 10
90.8934
 20
143.797
 11
91.1413
 21
143.585
  0
LINE
  8
0
 10
91.1413
 20
143.585
 11
91.3403
 21
143.327
  0
LINE
  8
0
 10
91.3403
 20
143.327
 11
91.4819
 21
143.034
  0
LINE
  8
0
 10
91.4819
 20
143.034
 11
91.56
 21
142.717
  0
LINE
  8
0
 10
91.56
 20
142.717
 11
91.5712
 21
142.391
  0
LINE
  8
0
 10
91.5712
 20
142.391
 11
91.5152
 21
142.07
  0
LINE
  8
0
 10
91.5152
 20
142.07
 11
91.3942
 21
141.767
  0
LINE
  8
0
 10
91.3942
 20
141.767
 11
91.2135
 21
141.496
  0
LINE
  8
0
 10
91.2135
 20
141.496
 11
90.9809
 21
141.268
  0
LINE
  8
0
 10
90.9809
 20
141.268
 11
90.7062
 21
141.092
  0
LINE
  8
0
 10
90.7062
 20
141.092
 11
90.4013
 21
140.977
  0
LINE
  8
0
 10
90.4013
 20
140.977
 11
90.3048
 21
140.955
  0
LINE
  8
0
 10
90.3048
 20
140.955
 11
89.9802
 21
140.925
  0
LINE
  8
0
 10
89.9802
 20
140.925
 11
89.6564
 21
140.963
  0
LINE
  8
0
 10
142.156
 20
103.463
 11
141.847
 21
103.567
  0
LINE
  8
0
 10
141.847
 20
103.567
 11
141.566
 21
103.732
  0
LINE
  8
0
 10
141.566
 20
103.732
 11
141.325
 21
103.951
  0
LINE
  8
0
 10
141.325
 20
103.951
 11
141.134
 21
104.215
  0
LINE
  8
0
 10
141.134
 20
104.215
 11
141.002
 21
104.513
  0
LINE
  8
0
 10
141.002
 20
104.513
 11
140.934
 21
104.832
  0
LINE
  8
0
 10
140.934
 20
104.832
 11
140.933
 21
105.158
  0
LINE
  8
0
 10
140.933
 20
105.158
 11
140.999
 21
105.477
  0
LINE
  8
0
 10
140.999
 20
105.477
 11
141.129
 21
105.776
  0
LINE
  8
0
 10
141.129
 20
105.776
 11
141.319
 21
106.042
  0
LINE
  8
0
 10
141.319
 20
106.042
 11
141.558
 21
106.262
  0
LINE
  8
0
 10
141.558
 20
106.262
 11
141.838
 21
106.429
  0
LINE
  8
0
 10
141.838
 20
106.429
 11
142.147
 21
106.535
  0
LINE
  8
0
 10
142.147
 20
106.535
 11
142.47
 21
106.575
  0
LINE
  8
0
 10
142.47
 20
106.575
 11
142.795
 21
106.547
  0
LINE
  8
0
 10
142.795
 20
106.547
 11
143.107
 21
106.453
  0
LINE
  8
0
 10
143.107
 20
106.453
 11
143.393
 21
106.297
  0
LINE
  8
0
 10
143.393
 20
106.297
 11
143.641
 21
106.085
  0
LINE
  8
0
 10
143.641
 20
106.085
 11
143.84
 21
105.827
  0
LINE
  8
0
 10
143.84
 20
105.827
 11
143.982
 21
105.534
  0
LINE
  8
0
 10
143.982
 20
105.534
 11
144.06
 21
105.217
  0
LINE
  8
0
 10
144.06
 20
105.217
 11
144.071
 21
104.891
  0
LINE
  8
0
 10
144.071
 20
104.891
 11
144.015
 21
104.57
  0
LINE
  8
0
 10
144.015
 20
104.57
 11
143.894
 21
104.267
  0
LINE
  8
0
 10
143.894
 20
104.267
 11
143.714
 21
103.996
  0
LINE
  8
0
 10
143.714
 20
103.996
 11
143.481
 21
103.768
  0
LINE
  8
0
 10
143.481
 20
103.768
 11
143.206
 21
103.592
  0
LINE
  8
0
 10
143.206
 20
103.592
 11
142.901
 21
103.477
  0
LINE
  8
0
 10
142.901
 20
103.477
 11
142.805
 21
103.455
  0
LINE
  8
0
 10
142.805
 20
103.455
 11
142.48
 21
103.425
  0
LINE
  8
0
 10
142.48
 20
103.425
 11
142.156
 21
103.463
  0
LINE
  8
0
 10
7.15642
 20
103.463
 11
6.84735
 21
103.567
  0
LINE
  8
0
 10
6.84735
 20
103.567
 11
6.56624
 21
103.732
  0
LINE
  8
0
 10
6.56624
 20
103.732
 11
6.32513
 21
103.951
  0
LINE
  8
0
 10
6.32513
 20
103.951
 11
6.13435
 21
104.215
  0
LINE
  8
0
 10
6.13435
 20
104.215
 11
6.00208
 21
104.513
  0
LINE
  8
0
 10
6.00208
 20
104.513
 11
5.93398
 21
104.832
  0
LINE
  8
0
 10
5.93398
 20
104.832
 11
5.93294
 21
105.158
  0
LINE
  8
0
 10
5.93294
 20
105.158
 11
5.99905
 21
105.477
  0
LINE
  8
0
 10
5.99905
 20
105.477
 11
6.12946
 21
105.776
  0
LINE
  8
0
 10
6.12946
 20
105.776
 11
6.31857
 21
106.042
  0
LINE
  8
0
 10
6.31857
 20
106.042
 11
6.55829
 21
106.262
  0
LINE
  8
0
 10
6.55829
 20
106.262
 11
6.83836
 21
106.429
  0
LINE
  8
0
 10
6.83836
 20
106.429
 11
7.14676
 21
106.535
  0
LINE
  8
0
 10
7.14676
 20
106.535
 11
7.47031
 21
106.575
  0
LINE
  8
0
 10
7.47031
 20
106.575
 11
7.79512
 21
106.547
  0
LINE
  8
0
 10
7.79512
 20
106.547
 11
8.10728
 21
106.453
  0
LINE
  8
0
 10
8.10728
 20
106.453
 11
8.39345
 21
106.297
  0
LINE
  8
0
 10
8.39345
 20
106.297
 11
8.64133
 21
106.085
  0
LINE
  8
0
 10
8.64133
 20
106.085
 11
8.8403
 21
105.827
  0
LINE
  8
0
 10
8.8403
 20
105.827
 11
8.98187
 21
105.534
  0
LINE
  8
0
 10
8.98187
 20
105.534
 11
9.05997
 21
105.217
  0
LINE
  8
0
 10
9.05997
 20
105.217
 11
9.07123
 21
104.891
  0
LINE
  8
0
 10
9.07123
 20
104.891
 11
9.01518
 21
104.57
  0
LINE
  8
0
 10
9.01518
 20
104.57
 11
8.89423
 21
104.267
  0
LINE
  8
0
 10
8.89423
 20
104.267
 11
8.71355
 21
103.996
  0
LINE
  8
0
 10
8.71355
 20
103.996
 11
8.48088
 21
103.768
  0
LINE
  8
0
 10
8.48088
 20
103.768
 11
8.20619
 21
103.592
  0
LINE
  8
0
 10
8.20619
 20
103.592
 11
7.90126
 21
103.477
  0
LINE
  8
0
 10
7.90126
 20
103.477
 11
7.80484
 21
103.455
  0
LINE
  8
0
 10
7.80484
 20
103.455
 11
7.48019
 21
103.425
  0
LINE
  8
0
 10
7.48019
 20
103.425
 11
7.15642
 21
103.463
  0
LINE
  8
0
 10
29.6564
 20
93.4629
 11
29.3474
 21
93.5666
  0
LINE
  8
0
 10
29.3474
 20
93.5666
 11
29.0662
 21
93.7316
  0
LINE
  8
0
 10
29.0662
 20
93.7316
 11
28.8251
 21
93.951
  0
LINE
  8
0
 10
28.8251
 20
93.951
 11
28.6344
 21
94.2153
  0
LINE
  8
0
 10
28.6344
 20
94.2153
 11
28.5021
 21
94.5133
  0
LINE
  8
0
 10
28.5021
 20
94.5133
 11
28.434
 21
94.8321
  0
LINE
  8
0
 10
28.434
 20
94.8321
 11
28.4329
 21
95.1581
  0
LINE
  8
0
 10
28.4329
 20
95.1581
 11
28.4991
 21
95.4773
  0
LINE
  8
0
 10
28.4991
 20
95.4773
 11
28.6295
 21
95.776
  0
LINE
  8
0
 10
28.6295
 20
95.776
 11
28.8186
 21
96.0416
  0
LINE
  8
0
 10
28.8186
 20
96.0416
 11
29.0583
 21
96.2625
  0
LINE
  8
0
 10
29.0583
 20
96.2625
 11
29.3384
 21
96.4293
  0
LINE
  8
0
 10
29.3384
 20
96.4293
 11
29.6468
 21
96.5349
  0
LINE
  8
0
 10
29.6468
 20
96.5349
 11
29.9703
 21
96.5747
  0
LINE
  8
0
 10
29.9703
 20
96.5747
 11
30.2951
 21
96.5471
  0
LINE
  8
0
 10
30.2951
 20
96.5471
 11
30.6073
 21
96.4532
  0
LINE
  8
0
 10
30.6073
 20
96.4532
 11
30.8934
 21
96.2971
  0
LINE
  8
0
 10
30.8934
 20
96.2971
 11
31.1413
 21
96.0853
  0
LINE
  8
0
 10
31.1413
 20
96.0853
 11
31.3403
 21
95.8271
  0
LINE
  8
0
 10
31.3403
 20
95.8271
 11
31.4819
 21
95.5335
  0
LINE
  8
0
 10
31.4819
 20
95.5335
 11
31.56
 21
95.217
  0
LINE
  8
0
 10
31.56
 20
95.217
 11
31.5712
 21
94.8912
  0
LINE
  8
0
 10
31.5712
 20
94.8912
 11
31.5152
 21
94.5701
  0
LINE
  8
0
 10
31.5152
 20
94.5701
 11
31.3942
 21
94.2674
  0
LINE
  8
0
 10
31.3942
 20
94.2674
 11
31.2135
 21
93.996
  0
LINE
  8
0
 10
31.2135
 20
93.996
 11
30.9809
 21
93.7677
  0
LINE
  8
0
 10
30.9809
 20
93.7677
 11
30.7062
 21
93.5922
  0
LINE
  8
0
 10
30.7062
 20
93.5922
 11
30.4013
 21
93.477
  0
LINE
  8
0
 10
30.4013
 20
93.477
 11
30.3048
 21
93.4548
  0
LINE
  8
0
 10
30.3048
 20
93.4548
 11
29.9802
 21
93.4251
  0
LINE
  8
0
 10
29.9802
 20
93.4251
 11
29.6564
 21
93.4629
  0
LINE
  8
0
 10
123.156
 20
93.4629
 11
122.847
 21
93.5666
  0
LINE
  8
0
 10
122.847
 20
93.5666
 11
122.566
 21
93.7316
  0
LINE
  8
0
 10
122.566
 20
93.7316
 11
122.325
 21
93.951
  0
LINE
  8
0
 10
122.325
 20
93.951
 11
122.134
 21
94.2153
  0
LINE
  8
0
 10
122.134
 20
94.2153
 11
122.002
 21
94.5133
  0
LINE
  8
0
 10
122.002
 20
94.5133
 11
121.934
 21
94.8321
  0
LINE
  8
0
 10
121.934
 20
94.8321
 11
121.933
 21
95.1581
  0
LINE
  8
0
 10
121.933
 20
95.1581
 11
121.999
 21
95.4773
  0
LINE
  8
0
 10
121.999
 20
95.4773
 11
122.129
 21
95.776
  0
LINE
  8
0
 10
122.129
 20
95.776
 11
122.319
 21
96.0416
  0
LINE
  8
0
 10
122.319
 20
96.0416
 11
122.558
 21
96.2625
  0
LINE
  8
0
 10
122.558
 20
96.2625
 11
122.838
 21
96.4293
  0
LINE
  8
0
 10
122.838
 20
96.4293
 11
123.147
 21
96.5349
  0
LINE
  8
0
 10
123.147
 20
96.5349
 11
123.47
 21
96.5747
  0
LINE
  8
0
 10
123.47
 20
96.5747
 11
123.795
 21
96.5471
  0
LINE
  8
0
 10
123.795
 20
96.5471
 11
124.107
 21
96.4532
  0
LINE
  8
0
 10
124.107
 20
96.4532
 11
124.393
 21
96.2971
  0
LINE
  8
0
 10
124.393
 20
96.2971
 11
124.641
 21
96.0853
  0
LINE
  8
0
 10
124.641
 20
96.0853
 11
124.84
 21
95.8271
  0
LINE
  8
0
 10
124.84
 20
95.8271
 11
124.982
 21
95.5335
  0
LINE
  8
0
 10
124.982
 20
95.5335
 11
125.06
 21
95.217
  0
LINE
  8
0
 10
125.06
 20
95.217
 11
125.071
 21
94.8912
  0
LINE
  8
0
 10
125.071
 20
94.8912
 11
125.015
 21
94.5701
  0
LINE
  8
0
 10
125.015
 20
94.5701
 11
124.894
 21
94.2674
  0
LINE
  8
0
 10
124.894
 20
94.2674
 11
124.714
 21
93.996
  0
LINE
  8
0
 10
124.714
 20
93.996
 11
124.481
 21
93.7677
  0
LINE
  8
0
 10
124.481
 20
93.7677
 11
124.206
 21
93.5922
  0
LINE
  8
0
 10
124.206
 20
93.5922
 11
123.901
 21
93.477
  0
LINE
  8
0
 10
123.901
 20
93.477
 11
123.805
 21
93.4548
  0
LINE
  8
0
 10
123.805
 20
93.4548
 11
123.48
 21
93.4251
  0
LINE
  8
0
 10
123.48
 20
93.4251
 11
123.156
 21
93.4629
  0
LINE
  8
0
 10
100.656
 20
93.4629
 11
100.347
 21
93.5666
  0
LINE
  8
0
 10
100.347
 20
93.5666
 11
100.066
 21
93.7316
  0
LINE
  8
0
 10
100.066
 20
93.7316
 11
99.8251
 21
93.951
  0
LINE
  8
0
 10
99.8251
 20
93.951
 11
99.6344
 21
94.2153
  0
LINE
  8
0
 10
99.6344
 20
94.2153
 11
99.5021
 21
94.5133
  0
LINE
  8
0
 10
99.5021
 20
94.5133
 11
99.434
 21
94.8321
  0
LINE
  8
0
 10
99.434
 20
94.8321
 11
99.4329
 21
95.1581
  0
LINE
  8
0
 10
99.4329
 20
95.1581
 11
99.4991
 21
95.4773
  0
LINE
  8
0
 10
99.4991
 20
95.4773
 11
99.6295
 21
95.776
  0
LINE
  8
0
 10
99.6295
 20
95.776
 11
99.8186
 21
96.0416
  0
LINE
  8
0
 10
99.8186
 20
96.0416
 11
100.058
 21
96.2625
  0
LINE
  8
0
 10
100.058
 20
96.2625
 11
100.338
 21
96.4293
  0
LINE
  8
0
 10
100.338
 20
96.4293
 11
100.647
 21
96.5349
  0
LINE
  8
0
 10
100.647
 20
96.5349
 11
100.97
 21
96.5747
  0
LINE
  8
0
 10
100.97
 20
96.5747
 11
101.295
 21
96.5471
  0
LINE
  8
0
 10
101.295
 20
96.5471
 11
101.607
 21
96.4532
  0
LINE
  8
0
 10
101.607
 20
96.4532
 11
101.893
 21
96.2971
  0
LINE
  8
0
 10
101.893
 20
96.2971
 11
102.141
 21
96.0853
  0
LINE
  8
0
 10
102.141
 20
96.0853
 11
102.34
 21
95.8271
  0
LINE
  8
0
 10
102.34
 20
95.8271
 11
102.482
 21
95.5335
  0
LINE
  8
0
 10
102.482
 20
95.5335
 11
102.56
 21
95.217
  0
LINE
  8
0
 10
102.56
 20
95.217
 11
102.571
 21
94.8912
  0
LINE
  8
0
 10
102.571
 20
94.8912
 11
102.515
 21
94.5701
  0
LINE
  8
0
 10
102.515
 20
94.5701
 11
102.394
 21
94.2674
  0
LINE
  8
0
 10
102.394
 20
94.2674
 11
102.214
 21
93.996
  0
LINE
  8
0
 10
102.214
 20
93.996
 11
101.981
 21
93.7677
  0
LINE
  8
0
 10
101.981
 20
93.7677
 11
101.706
 21
93.5922
  0
LINE
  8
0
 10
101.706
 20
93.5922
 11
101.401
 21
93.477
  0
LINE
  8
0
 10
101.401
 20
93.477
 11
101.305
 21
93.4548
  0
LINE
  8
0
 10
101.305
 20
93.4548
 11
100.98
 21
93.4251
  0
LINE
  8
0
 10
100.98
 20
93.4251
 11
100.656
 21
93.4629
  0
LINE
  8
0
 10
35.1564
 20
93.4629
 11
34.8474
 21
93.5666
  0
LINE
  8
0
 10
34.8474
 20
93.5666
 11
34.5662
 21
93.7316
  0
LINE
  8
0
 10
34.5662
 20
93.7316
 11
34.3251
 21
93.951
  0
LINE
  8
0
 10
34.3251
 20
93.951
 11
34.1344
 21
94.2153
  0
LINE
  8
0
 10
34.1344
 20
94.2153
 11
34.0021
 21
94.5133
  0
LINE
  8
0
 10
34.0021
 20
94.5133
 11
33.934
 21
94.8321
  0
LINE
  8
0
 10
33.934
 20
94.8321
 11
33.9329
 21
95.1581
  0
LINE
  8
0
 10
33.9329
 20
95.1581
 11
33.9991
 21
95.4773
  0
LINE
  8
0
 10
33.9991
 20
95.4773
 11
34.1295
 21
95.776
  0
LINE
  8
0
 10
34.1295
 20
95.776
 11
34.3186
 21
96.0416
  0
LINE
  8
0
 10
34.3186
 20
96.0416
 11
34.5583
 21
96.2625
  0
LINE
  8
0
 10
34.5583
 20
96.2625
 11
34.8384
 21
96.4293
  0
LINE
  8
0
 10
34.8384
 20
96.4293
 11
35.1468
 21
96.5349
  0
LINE
  8
0
 10
35.1468
 20
96.5349
 11
35.4703
 21
96.5747
  0
LINE
  8
0
 10
35.4703
 20
96.5747
 11
35.7951
 21
96.5471
  0
LINE
  8
0
 10
35.7951
 20
96.5471
 11
36.1073
 21
96.4532
  0
LINE
  8
0
 10
36.1073
 20
96.4532
 11
36.3934
 21
96.2971
  0
LINE
  8
0
 10
36.3934
 20
96.2971
 11
36.6413
 21
96.0853
  0
LINE
  8
0
 10
36.6413
 20
96.0853
 11
36.8403
 21
95.8271
  0
LINE
  8
0
 10
36.8403
 20
95.8271
 11
36.9819
 21
95.5335
  0
LINE
  8
0
 10
36.9819
 20
95.5335
 11
37.06
 21
95.217
  0
LINE
  8
0
 10
37.06
 20
95.217
 11
37.0712
 21
94.8912
  0
LINE
  8
0
 10
37.0712
 20
94.8912
 11
37.0152
 21
94.5701
  0
LINE
  8
0
 10
37.0152
 20
94.5701
 11
36.8942
 21
94.2674
  0
LINE
  8
0
 10
36.8942
 20
94.2674
 11
36.7135
 21
93.996
  0
LINE
  8
0
 10
36.7135
 20
93.996
 11
36.4809
 21
93.7677
  0
LINE
  8
0
 10
36.4809
 20
93.7677
 11
36.2062
 21
93.5922
  0
LINE
  8
0
 10
36.2062
 20
93.5922
 11
35.9013
 21
93.477
  0
LINE
  8
0
 10
35.9013
 20
93.477
 11
35.8048
 21
93.4548
  0
LINE
  8
0
 10
35.8048
 20
93.4548
 11
35.4802
 21
93.4251
  0
LINE
  8
0
 10
35.4802
 20
93.4251
 11
35.1564
 21
93.4629
  0
LINE
  8
0
 10
142.156
 20
88.4629
 11
141.847
 21
88.5666
  0
LINE
  8
0
 10
141.847
 20
88.5666
 11
141.566
 21
88.7316
  0
LINE
  8
0
 10
141.566
 20
88.7316
 11
141.325
 21
88.951
  0
LINE
  8
0
 10
141.325
 20
88.951
 11
141.134
 21
89.2153
  0
LINE
  8
0
 10
141.134
 20
89.2153
 11
141.002
 21
89.5133
  0
LINE
  8
0
 10
141.002
 20
89.5133
 11
140.934
 21
89.8321
  0
LINE
  8
0
 10
140.934
 20
89.8321
 11
140.933
 21
90.1581
  0
LINE
  8
0
 10
140.933
 20
90.1581
 11
140.999
 21
90.4773
  0
LINE
  8
0
 10
140.999
 20
90.4773
 11
141.129
 21
90.776
  0
LINE
  8
0
 10
141.129
 20
90.776
 11
141.319
 21
91.0416
  0
LINE
  8
0
 10
141.319
 20
91.0416
 11
141.558
 21
91.2625
  0
LINE
  8
0
 10
141.558
 20
91.2625
 11
141.838
 21
91.4293
  0
LINE
  8
0
 10
141.838
 20
91.4293
 11
142.147
 21
91.5349
  0
LINE
  8
0
 10
142.147
 20
91.5349
 11
142.47
 21
91.5747
  0
LINE
  8
0
 10
142.47
 20
91.5747
 11
142.795
 21
91.5471
  0
LINE
  8
0
 10
142.795
 20
91.5471
 11
143.107
 21
91.4532
  0
LINE
  8
0
 10
143.107
 20
91.4532
 11
143.393
 21
91.2971
  0
LINE
  8
0
 10
143.393
 20
91.2971
 11
143.641
 21
91.0853
  0
LINE
  8
0
 10
143.641
 20
91.0853
 11
143.84
 21
90.8271
  0
LINE
  8
0
 10
143.84
 20
90.8271
 11
143.982
 21
90.5335
  0
LINE
  8
0
 10
143.982
 20
90.5335
 11
144.06
 21
90.217
  0
LINE
  8
0
 10
144.06
 20
90.217
 11
144.071
 21
89.8912
  0
LINE
  8
0
 10
144.071
 20
89.8912
 11
144.015
 21
89.5701
  0
LINE
  8
0
 10
144.015
 20
89.5701
 11
143.894
 21
89.2674
  0
LINE
  8
0
 10
143.894
 20
89.2674
 11
143.714
 21
88.996
  0
LINE
  8
0
 10
143.714
 20
88.996
 11
143.481
 21
88.7677
  0
LINE
  8
0
 10
143.481
 20
88.7677
 11
143.206
 21
88.5922
  0
LINE
  8
0
 10
143.206
 20
88.5922
 11
142.901
 21
88.477
  0
LINE
  8
0
 10
142.901
 20
88.477
 11
142.805
 21
88.4548
  0
LINE
  8
0
 10
142.805
 20
88.4548
 11
142.48
 21
88.4251
  0
LINE
  8
0
 10
142.48
 20
88.4251
 11
142.156
 21
88.4629
  0
LINE
  8
0
 10
7.15642
 20
88.4629
 11
6.84735
 21
88.5666
  0
LINE
  8
0
 10
6.84735
 20
88.5666
 11
6.56624
 21
88.7316
  0
LINE
  8
0
 10
6.56624
 20
88.7316
 11
6.32513
 21
88.951
  0
LINE
  8
0
 10
6.32513
 20
88.951
 11
6.13435
 21
89.2153
  0
LINE
  8
0
 10
6.13435
 20
89.2153
 11
6.00208
 21
89.5133
  0
LINE
  8
0
 10
6.00208
 20
89.5133
 11
5.93398
 21
89.8321
  0
LINE
  8
0
 10
5.93398
 20
89.8321
 11
5.93294
 21
90.1581
  0
LINE
  8
0
 10
5.93294
 20
90.1581
 11
5.99905
 21
90.4773
  0
LINE
  8
0
 10
5.99905
 20
90.4773
 11
6.12946
 21
90.776
  0
LINE
  8
0
 10
6.12946
 20
90.776
 11
6.31857
 21
91.0416
  0
LINE
  8
0
 10
6.31857
 20
91.0416
 11
6.55829
 21
91.2625
  0
LINE
  8
0
 10
6.55829
 20
91.2625
 11
6.83836
 21
91.4293
  0
LINE
  8
0
 10
6.83836
 20
91.4293
 11
7.14676
 21
91.5349
  0
LINE
  8
0
 10
7.14676
 20
91.5349
 11
7.47031
 21
91.5747
  0
LINE
  8
0
 10
7.47031
 20
91.5747
 11
7.79512
 21
91.5471
  0
LINE
  8
0
 10
7.79512
 20
91.5471
 11
8.10728
 21
91.4532
  0
LINE
  8
0
 10
8.10728
 20
91.4532
 11
8.39345
 21
91.2971
  0
LINE
  8
0
 10
8.39345
 20
91.2971
 11
8.64133
 21
91.0853
  0
LINE
  8
0
 10
8.64133
 20
91.0853
 11
8.8403
 21
90.8271
  0
LINE
  8
0
 10
8.8403
 20
90.8271
 11
8.98187
 21
90.5335
  0
LINE
  8
0
 10
8.98187
 20
90.5335
 11
9.05997
 21
90.217
  0
LINE
  8
0
 10
9.05997
 20
90.217
 11
9.07123
 21
89.8912
  0
LINE
  8
0
 10
9.07123
 20
89.8912
 11
9.01518
 21
89.5701
  0
LINE
  8
0
 10
9.01518
 20
89.5701
 11
8.89423
 21
89.2674
  0
LINE
  8
0
 10
8.89423
 20
89.2674
 11
8.71355
 21
88.996
  0
LINE
  8
0
 10
8.71355
 20
88.996
 11
8.48088
 21
88.7677
  0
LINE
  8
0
 10
8.48088
 20
88.7677
 11
8.20619
 21
88.5922
  0
LINE
  8
0
 10
8.20619
 20
88.5922
 11
7.90126
 21
88.477
  0
LINE
  8
0
 10
7.90126
 20
88.477
 11
7.80484
 21
88.4548
  0
LINE
  8
0
 10
7.80484
 20
88.4548
 11
7.48019
 21
88.4251
  0
LINE
  8
0
 10
7.48019
 20
88.4251
 11
7.15642
 21
88.4629
  0
LINE
  8
0
 10
37
 20
61
 11
37
 21
83
  0
LINE
  8
0
 10
37
 20
83
 11
105
 21
83
  0
LINE
  8
0
 10
105
 20
83
 11
105
 21
61
  0
LINE
  8
0
 10
105
 20
61
 11
37
 21
61
  0
LINE
  8
0
 10
142.156
 20
73.4629
 11
141.847
 21
73.5666
  0
LINE
  8
0
 10
141.847
 20
73.5666
 11
141.566
 21
73.7316
  0
LINE
  8
0
 10
141.566
 20
73.7316
 11
141.325
 21
73.951
  0
LINE
  8
0
 10
141.325
 20
73.951
 11
141.134
 21
74.2153
  0
LINE
  8
0
 10
141.134
 20
74.2153
 11
141.002
 21
74.5133
  0
LINE
  8
0
 10
141.002
 20
74.5133
 11
140.934
 21
74.8321
  0
LINE
  8
0
 10
140.934
 20
74.8321
 11
140.933
 21
75.1581
  0
LINE
  8
0
 10
140.933
 20
75.1581
 11
140.999
 21
75.4773
  0
LINE
  8
0
 10
140.999
 20
75.4773
 11
141.129
 21
75.776
  0
LINE
  8
0
 10
141.129
 20
75.776
 11
141.319
 21
76.0416
  0
LINE
  8
0
 10
141.319
 20
76.0416
 11
141.558
 21
76.2625
  0
LINE
  8
0
 10
141.558
 20
76.2625
 11
141.838
 21
76.4293
  0
LINE
  8
0
 10
141.838
 20
76.4293
 11
142.147
 21
76.5349
  0
LINE
  8
0
 10
142.147
 20
76.5349
 11
142.47
 21
76.5747
  0
LINE
  8
0
 10
142.47
 20
76.5747
 11
142.795
 21
76.5471
  0
LINE
  8
0
 10
142.795
 20
76.5471
 11
143.107
 21
76.4532
  0
LINE
  8
0
 10
143.107
 20
76.4532
 11
143.393
 21
76.2971
  0
LINE
  8
0
 10
143.393
 20
76.2971
 11
143.641
 21
76.0853
  0
LINE
  8
0
 10
143.641
 20
76.0853
 11
143.84
 21
75.8271
  0
LINE
  8
0
 10
143.84
 20
75.8271
 11
143.982
 21
75.5335
  0
LINE
  8
0
 10
143.982
 20
75.5335
 11
144.06
 21
75.217
  0
LINE
  8
0
 10
144.06
 20
75.217
 11
144.071
 21
74.8912
  0
LINE
  8
0
 10
144.071
 20
74.8912
 11
144.015
 21
74.5701
  0
LINE
  8
0
 10
144.015
 20
74.5701
 11
143.894
 21
74.2674
  0
LINE
  8
0
 10
143.894
 20
74.2674
 11
143.714
 21
73.996
  0
LINE
  8
0
 10
143.714
 20
73.996
 11
143.481
 21
73.7677
  0
LINE
  8
0
 10
143.481
 20
73.7677
 11
143.206
 21
73.5922
  0
LINE
  8
0
 10
143.206
 20
73.5922
 11
142.901
 21
73.477
  0
LINE
  8
0
 10
142.901
 20
73.477
 11
142.805
 21
73.4548
  0
LINE
  8
0
 10
142.805
 20
73.4548
 11
142.48
 21
73.4251
  0
LINE
  8
0
 10
142.48
 20
73.4251
 11
142.156
 21
73.4629
  0
LINE
  8
0
 10
7.15642
 20
73.4629
 11
6.84735
 21
73.5666
  0
LINE
  8
0
 10
6.84735
 20
73.5666
 11
6.56624
 21
73.7316
  0
LINE
  8
0
 10
6.56624
 20
73.7316
 11
6.32513
 21
73.951
  0
LINE
  8
0
 10
6.32513
 20
73.951
 11
6.13435
 21
74.2153
  0
LINE
  8
0
 10
6.13435
 20
74.2153
 11
6.00208
 21
74.5133
  0
LINE
  8
0
 10
6.00208
 20
74.5133
 11
5.93398
 21
74.8321
  0
LINE
  8
0
 10
5.93398
 20
74.8321
 11
5.93294
 21
75.1581
  0
LINE
  8
0
 10
5.93294
 20
75.1581
 11
5.99905
 21
75.4773
  0
LINE
  8
0
 10
5.99905
 20
75.4773
 11
6.12946
 21
75.776
  0
LINE
  8
0
 10
6.12946
 20
75.776
 11
6.31857
 21
76.0416
  0
LINE
  8
0
 10
6.31857
 20
76.0416
 11
6.55829
 21
76.2625
  0
LINE
  8
0
 10
6.55829
 20
76.2625
 11
6.83836
 21
76.4293
  0
LINE
  8
0
 10
6.83836
 20
76.4293
 11
7.14676
 21
76.5349
  0
LINE
  8
0
 10
7.14676
 20
76.5349
 11
7.47031
 21
76.5747
  0
LINE
  8
0
 10
7.47031
 20
76.5747
 11
7.79512
 21
76.5471
  0
LINE
  8
0
 10
7.79512
 20
76.5471
 11
8.10728
 21
76.4532
  0
LINE
  8
0
 10
8.10728
 20
76.4532
 11
8.39345
 21
76.2971
  0
LINE
  8
0
 10
8.39345
 20
76.2971
 11
8.64133
 21
76.0853
  0
LINE
  8
0
 10
8.64133
 20
76.0853
 11
8.8403
 21
75.8271
  0
LINE
  8
0
 10
8.8403
 20
75.8271
 11
8.98187
 21
75.5335
  0
LINE
  8
0
 10
8.98187
 20
75.5335
 11
9.05997
 21
75.217
  0
LINE
  8
0
 10
9.05997
 20
75.217
 11
9.07123
 21
74.8912
  0
LINE
  8
0
 10
9.07123
 20
74.8912
 11
9.01518
 21
74.5701
  0
LINE
  8
0
 10
9.01518
 20
74.5701
 11
8.89423
 21
74.2674
  0
LINE
  8
0
 10
8.89423
 20
74.2674
 11
8.71355
 21
73.996
  0
LINE
  8
0
 10
8.71355
 20
73.996
 11
8.48088
 21
73.7677
  0
LINE
  8
0
 10
8.48088
 20
73.7677
 11
8.20619
 21
73.5922
  0
LINE
  8
0
 10
8.20619
 20
73.5922
 11
7.90126
 21
73.477
  0
LINE
  8
0
 10
7.90126
 20
73.477
 11
7.80484
 21
73.4548
  0
LINE
  8
0
 10
7.80484
 20
73.4548
 11
7.48019
 21
73.4251
  0
LINE
  8
0
 10
7.48019
 20
73.4251
 11
7.15642
 21
73.4629
  0
LINE
  8
0
 10
142.156
 20
58.4629
 11
141.847
 21
58.5666
  0
LINE
  8
0
 10
141.847
 20
58.5666
 11
141.566
 21
58.7316
  0
LINE
  8
0
 10
141.566
 20
58.7316
 11
141.325
 21
58.951
  0
LINE
  8
0
 10
141.325
 20
58.951
 11
141.134
 21
59.2153
  0
LINE
  8
0
 10
141.134
 20
59.2153
 11
141.002
 21
59.5133
  0
LINE
  8
0
 10
141.002
 20
59.5133
 11
140.934
 21
59.8321
  0
LINE
  8
0
 10
140.934
 20
59.8321
 11
140.933
 21
60.1581
  0
LINE
  8
0
 10
140.933
 20
60.1581
 11
140.999
 21
60.4773
  0
LINE
  8
0
 10
140.999
 20
60.4773
 11
141.129
 21
60.776
  0
LINE
  8
0
 10
141.129
 20
60.776
 11
141.319
 21
61.0416
  0
LINE
  8
0
 10
141.319
 20
61.0416
 11
141.558
 21
61.2625
  0
LINE
  8
0
 10
141.558
 20
61.2625
 11
141.838
 21
61.4293
  0
LINE
  8
0
 10
141.838
 20
61.4293
 11
142.147
 21
61.5349
  0
LINE
  8
0
 10
142.147
 20
61.5349
 11
142.47
 21
61.5747
  0
LINE
  8
0
 10
142.47
 20
61.5747
 11
142.795
 21
61.5471
  0
LINE
  8
0
 10
142.795
 20
61.5471
 11
143.107
 21
61.4532
  0
LINE
  8
0
 10
143.107
 20
61.4532
 11
143.393
 21
61.2971
  0
LINE
  8
0
 10
143.393
 20
61.2971
 11
143.641
 21
61.0853
  0
LINE
  8
0
 10
143.641
 20
61.0853
 11
143.84
 21
60.8271
  0
LINE
  8
0
 10
143.84
 20
60.8271
 11
143.982
 21
60.5335
  0
LINE
  8
0
 10
143.982
 20
60.5335
 11
144.06
 21
60.217
  0
LINE
  8
0
 10
144.06
 20
60.217
 11
144.071
 21
59.8912
  0
LINE
  8
0
 10
144.071
 20
59.8912
 11
144.015
 21
59.5701
  0
LINE
  8
0
 10
144.015
 20
59.5701
 11
143.894
 21
59.2674
  0
LINE
  8
0
 10
143.894
 20
59.2674
 11
143.714
 21
58.996
  0
LINE
  8
0
 10
143.714
 20
58.996
 11
143.481
 21
58.7677
  0
LINE
  8
0
 10
143.481
 20
58.7677
 11
143.206
 21
58.5922
  0
LINE
  8
0
 10
143.206
 20
58.5922
 11
142.901
 21
58.477
  0
LINE
  8
0
 10
142.901
 20
58.477
 11
142.805
 21
58.4548
  0
LINE
  8
0
 10
142.805
 20
58.4548
 11
142.48
 21
58.4251
  0
LINE
  8
0
 10
142.48
 20
58.4251
 11
142.156
 21
58.4629
  0
LINE
  8
0
 10
7.15642
 20
58.4629
 11
6.84735
 21
58.5666
  0
LINE
  8
0
 10
6.84735
 20
58.5666
 11
6.56624
 21
58.7316
  0
LINE
  8
0
 10
6.56624
 20
58.7316
 11
6.32513
 21
58.951
  0
LINE
  8
0
 10
6.32513
 20
58.951
 11
6.13435
 21
59.2153
  0
LINE
  8
0
 10
6.13435
 20
59.2153
 11
6.00208
 21
59.5133
  0
LINE
  8
0
 10
6.00208
 20
59.5133
 11
5.93398
 21
59.8321
  0
LINE
  8
0
 10
5.93398
 20
59.8321
 11
5.93294
 21
60.1581
  0
LINE
  8
0
 10
5.93294
 20
60.1581
 11
5.99905
 21
60.4773
  0
LINE
  8
0
 10
5.99905
 20
60.4773
 11
6.12946
 21
60.776
  0
LINE
  8
0
 10
6.12946
 20
60.776
 11
6.31857
 21
61.0416
  0
LINE
  8
0
 10
6.31857
 20
61.0416
 11
6.55829
 21
61.2625
  0
LINE
  8
0
 10
6.55829
 20
61.2625
 11
6.83836
 21
61.4293
  0
LINE
  8
0
 10
6.83836
 20
61.4293
 11
7.14676
 21
61.5349
  0
LINE
  8
0
 10
7.14676
 20
61.5349
 11
7.47031
 21
61.5747
  0
LINE
  8
0
 10
7.47031
 20
61.5747
 11
7.79512
 21
61.5471
  0
LINE
  8
0
 10
7.79512
 20
61.5471
 11
8.10728
 21
61.4532
  0
LINE
  8
0
 10
8.10728
 20
61.4532
 11
8.39345
 21
61.2971
  0
LINE
  8
0
 10
8.39345
 20
61.2971
 11
8.64133
 21
61.0853
  0
LINE
  8
0
 10
8.64133
 20
61.0853
 11
8.8403
 21
60.8271
  0
LINE
  8
0
 10
8.8403
 20
60.8271
 11
8.98187
 21
60.5335
  0
LINE
  8
0
 10
8.98187
 20
60.5335
 11
9.05997
 21
60.217
  0
LINE
  8
0
 10
9.05997
 20
60.217
 11
9.07123
 21
59.8912
  0
LINE
  8
0
 10
9.07123
 20
59.8912
 11
9.01518
 21
59.5701
  0
LINE
  8
0
 10
9.01518
 20
59.5701
 11
8.89423
 21
59.2674
  0
LINE
  8
0
 10
8.89423
 20
59.2674
 11
8.71355
 21
58.996
  0
LINE
  8
0
 10
8.71355
 20
58.996
 11
8.48088
 21
58.7677
  0
LINE
  8
0
 10
8.48088
 20
58.7677
 11
8.20619
 21
58.5922
  0
LINE
  8
0
 10
8.20619
 20
58.5922
 11
7.90126
 21
58.477
  0
LINE
  8
0
 10
7.90126
 20
58.477
 11
7.80484
 21
58.4548
  0
LINE
  8
0
 10
7.80484
 20
58.4548
 11
7.48019
 21
58.4251
  0
LINE
  8
0
 10
7.48019
 20
58.4251
 11
7.15642
 21
58.4629
  0
LINE
  8
0
 10
142.156
 20
43.4629
 11
141.847
 21
43.5666
  0
LINE
  8
0
 10
141.847
 20
43.5666
 11
141.566
 21
43.7316
  0
LINE
  8
0
 10
141.566
 20
43.7316
 11
141.325
 21
43.951
  0
LINE
  8
0
 10
141.325
 20
43.951
 11
141.134
 21
44.2153
  0
LINE
  8
0
 10
141.134
 20
44.2153
 11
141.002
 21
44.5133
  0
LINE
  8
0
 10
141.002
 20
44.5133
 11
140.934
 21
44.8321
  0
LINE
  8
0
 10
140.934
 20
44.8321
 11
140.933
 21
45.1581
  0
LINE
  8
0
 10
140.933
 20
45.1581
 11
140.999
 21
45.4773
  0
LINE
  8
0
 10
140.999
 20
45.4773
 11
141.129
 21
45.776
  0
LINE
  8
0
 10
141.129
 20
45.776
 11
141.319
 21
46.0416
  0
LINE
  8
0
 10
141.319
 20
46.0416
 11
141.558
 21
46.2625
  0
LINE
  8
0
 10
141.558
 20
46.2625
 11
141.838
 21
46.4293
  0
LINE
  8
0
 10
141.838
 20
46.4293
 11
142.147
 21
46.5349
  0
LINE
  8
0
 10
142.147
 20
46.5349
 11
142.47
 21
46.5747
  0
LINE
  8
0
 10
142.47
 20
46.5747
 11
142.795
 21
46.5471
  0
LINE
  8
0
 10
142.795
 20
46.5471
 11
143.107
 21
46.4532
  0
LINE
  8
0
 10
143.107
 20
46.4532
 11
143.393
 21
46.2971
  0
LINE
  8
0
 10
143.393
 20
46.2971
 11
143.641
 21
46.0853
  0
LINE
  8
0
 10
143.641
 20
46.0853
 11
143.84
 21
45.8271
  0
LINE
  8
0
 10
143.84
 20
45.8271
 11
143.982
 21
45.5335
  0
LINE
  8
0
 10
143.982
 20
45.5335
 11
144.06
 21
45.217
  0
LINE
  8
0
 10
144.06
 20
45.217
 11
144.071
 21
44.8912
  0
LINE
  8
0
 10
144.071
 20
44.8912
 11
144.015
 21
44.5701
  0
LINE
  8
0
 10
144.015
 20
44.5701
 11
143.894
 21
44.2674
  0
LINE
  8
0
 10
143.894
 20
44.2674
 11
143.714
 21
43.996
  0
LINE
  8
0
 10
143.714
 20
43.996
 11
143.481
 21
43.7677
  0
LINE
  8
0
 10
143.481
 20
43.7677
 11
143.206
 21
43.5922
  0
LINE
  8
0
 10
143.206
 20
43.5922
 11
142.901
 21
43.477
  0
LINE
  8
0
 10
142.901
 20
43.477
 11
142.805
 21
43.4548
  0
LINE
  8
0
 10
142.805
 20
43.4548
 11
142.48
 21
43.4251
  0
LINE
  8
0
 10
142.48
 20
43.4251
 11
142.156
 21
43.4629
  0
LINE
  8
0
 10
7.15642
 20
43.4629
 11
6.84735
 21
43.5666
  0
LINE
  8
0
 10
6.84735
 20
43.5666
 11
6.56624
 21
43.7316
  0
LINE
  8
0
 10
6.56624
 20
43.7316
 11
6.32513
 21
43.951
  0
LINE
  8
0
 10
6.32513
 20
43.951
 11
6.13435
 21
44.2153
  0
LINE
  8
0
 10
6.13435
 20
44.2153
 11
6.00208
 21
44.5133
  0
LINE
  8
0
 10
6.00208
 20
44.5133
 11
5.93398
 21
44.8321
  0
LINE
  8
0
 10
5.93398
 20
44.8321
 11
5.93294
 21
45.1581
  0
LINE
  8
0
 10
5.93294
 20
45.1581
 11
5.99905
 21
45.4773
  0
LINE
  8
0
 10
5.99905
 20
45.4773
 11
6.12946
 21
45.776
  0
LINE
  8
0
 10
6.12946
 20
45.776
 11
6.31857
 21
46.0416
  0
LINE
  8
0
 10
6.31857
 20
46.0416
 11
6.55829
 21
46.2625
  0
LINE
  8
0
 10
6.55829
 20
46.2625
 11
6.83836
 21
46.4293
  0
LINE
  8
0
 10
6.83836
 20
46.4293
 11
7.14676
 21
46.5349
  0
LINE
  8
0
 10
7.14676
 20
46.5349
 11
7.47031
 21
46.5747
  0
LINE
  8
0
 10
7.47031
 20
46.5747
 11
7.79512
 21
46.5471
  0
LINE
  8
0
 10
7.79512
 20
46.5471
 11
8.10728
 21
46.4532
  0
LINE
  8
0
 10
8.10728
 20
46.4532
 11
8.39345
 21
46.2971
  0
LINE
  8
0
 10
8.39345
 20
46.2971
 11
8.64133
 21
46.0853
  0
LINE
  8
0
 10
8.64133
 20
46.0853
 11
8.8403
 21
45.8271
  0
LINE
  8
0
 10
8.8403
 20
45.8271
 11
8.98187
 21
45.5335
  0
LINE
  8
0
 10
8.98187
 20
45.5335
 11
9.05997
 21
45.217
  0
LINE
  8
0
 10
9.05997
 20
45.217
 11
9.07123
 21
44.8912
  0
LINE
  8
0
 10
9.07123
 20
44.8912
 11
9.01518
 21
44.5701
  0
LINE
  8
0
 10
9.01518
 20
44.5701
 11
8.89423
 21
44.2674
  0
LINE
  8
0
 10
8.89423
 20
44.2674
 11
8.71355
 21
43.996
  0
LINE
  8
0
 10
8.71355
 20
43.996
 11
8.48088
 21
43.7677
  0
LINE
  8
0
 10
8.48088
 20
43.7677
 11
8.20619
 21
43.5922
  0
LINE
  8
0
 10
8.20619
 20
43.5922
 11
7.90126
 21
43.477
  0
LINE
  8
0
 10
7.90126
 20
43.477
 11
7.80484
 21
43.4548
  0
LINE
  8
0
 10
7.80484
 20
43.4548
 11
7.48019
 21
43.4251
  0
LINE
  8
0
 10
7.48019
 20
43.4251
 11
7.15642
 21
43.4629
  0
LINE
  8
0
 10
301
 20
135
 11
261
 21
135
  0
LINE
  8
0
 10
261
 20
135
 11
261
 21
150
  0
LINE
  8
0
 10
261
 20
150
 11
191
 21
150
  0
LINE
  8
0
 10
191
 20
150
 11
191
 21
135
  0
LINE
  8
0
 10
191
 20
135
 11
151
 21
135
  0
LINE
  8
0
 10
151
 20
135
 11
151
 21
0
  0
LINE
  8
0
 10
151
 20
0
 11
301
 21
0
  0
LINE
  8
0
 10
301
 20
0
 11
301
 21
135
  0
LINE
  8
0
 10
240.656
 20
140.963
 11
240.347
 21
141.067
  0
LINE
  8
0
 10
240.347
 20
141.067
 11
240.066
 21
141.232
  0
LINE
  8
0
 10
240.066
 20
141.232
 11
239.825
 21
141.451
  0
LINE
  8
0
 10
239.825
 20
141.451
 11
239.634
 21
141.715
  0
LINE
  8
0
 10
239.634
 20
141.715
 11
239.502
 21
142.013
  0
LINE
  8
0
 10
239.502
 20
142.013
 11
239.434
 21
142.332
  0
LINE
  8
0
 10
239.434
 20
142.332
 11
239.433
 21
142.658
  0
LINE
  8
0
 10
239.433
 20
142.658
 11
239.499
 21
142.977
  0
LINE
  8
0
 10
239.499
 20
142.977
 11
239.629
 21
143.276
  0
LINE
  8
0
 10
239.629
 20
143.276
 11
239.819
 21
143.542
  0
LINE
  8
0
 10
239.819
 20
143.542
 11
240.058
 21
143.762
  0
LINE
  8
0
 10
240.058
 20
143.762
 11
240.338
 21
143.929
  0
LINE
  8
0
 10
240.338
 20
143.929
 11
240.647
 21
144.035
  0
LINE
  8
0
 10
240.647
 20
144.035
 11
240.97
 21
144.075
  0
LINE
  8
0
 10
240.97
 20
144.075
 11
241.295
 21
144.047
  0
LINE
  8
0
 10
241.295
 20
144.047
 11
241.607
 21
143.953
  0
LINE
  8
0
 10
241.607
 20
143.953
 11
241.893
 21
143.797
  0
LINE
  8
0
 10
241.893
 20
143.797
 11
242.141
 21
143.585
  0
LINE
  8
0
 10
242.141
 20
143.585
 11
242.34
 21
143.327
  0
LINE
  8
0
 10
242.34
 20
143.327
 11
242.482
 21
143.034
  0
LINE
  8
0
 10
242.482
 20
143.034
 11
242.56
 21
142.717
  0
LINE
  8
0
 10
242.56
 20
142.717
 11
242.571
 21
142.391
  0
LINE
  8
0
 10
242.571
 20
142.391
 11
242.515
 21
142.07
  0
LINE
  8
0
 10
242.515
 20
142.07
 11
242.394
 21
141.767
  0
LINE
  8
0
 10
242.394
 20
141.767
 11
242.214
 21
141.496
  0
LINE
  8
0
 10
242.214
 20
141.496
 11
241.981
 21
141.268
  0
LINE
  8
0
 10
241.981
 20
141.268
 11
241.706
 21
141.092
  0
LINE
  8
0
 10
241.706
 20
141.092
 11
241.401
 21
140.977
  0
LINE
  8
0
 10
241.401
 20
140.977
 11
241.305
 21
140.955
  0
LINE
  8
0
 10
241.305
 20
140.955
 11
240.98
 21
140.925
  0
LINE
  8
0
 10
240.98
 20
140.925
 11
240.656
 21
140.963
  0
LINE
  8
0
 10
210.656
 20
140.963
 11
210.347
 21
141.067
  0
LINE
  8
0
 10
210.347
 20
141.067
 11
210.066
 21
141.232
  0
LINE
  8
0
 10
210.066
 20
141.232
 11
209.825
 21
141.451
  0
LINE
  8
0
 10
209.825
 20
141.451
 11
209.634
 21
141.715
  0
LINE
  8
0
 10
209.634
 20
141.715
 11
209.502
 21
142.013
  0
LINE
  8
0
 10
209.502
 20
142.013
 11
209.434
 21
142.332
  0
LINE
  8
0
 10
209.434
 20
142.332
 11
209.433
 21
142.658
  0
LINE
  8
0
 10
209.433
 20
142.658
 11
209.499
 21
142.977
  0
LINE
  8
0
 10
209.499
 20
142.977
 11
209.629
 21
143.276
  0
LINE
  8
0
 10
209.629
 20
143.276
 11
209.819
 21
143.542
  0
LINE
  8
0
 10
209.819
 20
143.542
 11
210.058
 21
143.762
  0
LINE
  8
0
 10
210.058
 20
143.762
 11
210.338
 21
143.929
  0
LINE
  8
0
 10
210.338
 20
143.929
 11
210.647
 21
144.035
  0
LINE
  8
0
 10
210.647
 20
144.035
 11
210.97
 21
144.075
  0
LINE
  8
0
 10
210.97
 20
144.075
 11
211.295
 21
144.047
  0
LINE
  8
0
 10
211.295
 20
144.047
 11
211.607
 21
143.953
  0
LINE
  8
0
 10
211.607
 20
143.953
 11
211.893
 21
143.797
  0
LINE
  8
0
 10
211.893
 20
143.797
 11
212.141
 21
143.585
  0
LINE
  8
0
 10
212.141
 20
143.585
 11
212.34
 21
143.327
  0
LINE
  8
0
 10
212.34
 20
143.327
 11
212.482
 21
143.034
  0
LINE
  8
0
 10
212.482
 20
143.034
 11
212.56
 21
142.717
  0
LINE
  8
0
 10
212.56
 20
142.717
 11
212.571
 21
142.391
  0
LINE
  8
0
 10
212.571
 20
142.391
 11
212.515
 21
142.07
  0
LINE
  8
0
 10
212.515
 20
142.07
 11
212.394
 21
141.767
  0
LINE
  8
0
 10
212.394
 20
141.767
 11
212.214
 21
141.496
  0
LINE
  8
0
 10
212.214
 20
141.496
 11
211.981
 21
141.268
  0
LINE
  8
0
 10
211.981
 20
141.268
 11
211.706
 21
141.092
  0
LINE
  8
0
 10
211.706
 20
141.092
 11
211.401
 21
140.977
  0
LINE
  8
0
 10
211.401
 20
140.977
 11
211.305
 21
140.955
  0
LINE
  8
0
 10
211.305
 20
140.955
 11
210.98
 21
140.925
  0
LINE
  8
0
 10
210.98
 20
140.925
 11
210.656
 21
140.963
  0
LINE
  8
0
 10
195.656
 20
140.963
 11
195.347
 21
141.067
  0
LINE
  8
0
 10
195.347
 20
141.067
 11
195.066
 21
141.232
  0
LINE
  8
0
 10
195.066
 20
141.232
 11
194.825
 21
141.451
  0
LINE
  8
0
 10
194.825
 20
141.451
 11
194.634
 21
141.715
  0
LINE
  8
0
 10
194.634
 20
141.715
 11
194.502
 21
142.013
  0
LINE
  8
0
 10
194.502
 20
142.013
 11
194.434
 21
142.332
  0
LINE
  8
0
 10
194.434
 20
142.332
 11
194.433
 21
142.658
  0
LINE
  8
0
 10
194.433
 20
142.658
 11
194.499
 21
142.977
  0
LINE
  8
0
 10
194.499
 20
142.977
 11
194.629
 21
143.276
  0
LINE
  8
0
 10
194.629
 20
143.276
 11
194.819
 21
143.542
  0
LINE
  8
0
 10
194.819
 20
143.542
 11
195.058
 21
143.762
  0
LINE
  8
0
 10
195.058
 20
143.762
 11
195.338
 21
143.929
  0
LINE
  8
0
 10
195.338
 20
143.929
 11
195.647
 21
144.035
  0
LINE
  8
0
 10
195.647
 20
144.035
 11
195.97
 21
144.075
  0
LINE
  8
0
 10
195.97
 20
144.075
 11
196.295
 21
144.047
  0
LINE
  8
0
 10
196.295
 20
144.047
 11
196.607
 21
143.953
  0
LINE
  8
0
 10
196.607
 20
143.953
 11
196.893
 21
143.797
  0
LINE
  8
0
 10
196.893
 20
143.797
 11
197.141
 21
143.585
  0
LINE
  8
0
 10
197.141
 20
143.585
 11
197.34
 21
143.327
  0
LINE
  8
0
 10
197.34
 20
143.327
 11
197.482
 21
143.034
  0
LINE
  8
0
 10
197.482
 20
143.034
 11
197.56
 21
142.717
  0
LINE
  8
0
 10
197.56
 20
142.717
 11
197.571
 21
142.391
  0
LINE
  8
0
 10
197.571
 20
142.391
 11
197.515
 21
142.07
  0
LINE
  8
0
 10
197.515
 20
142.07
 11
197.394
 21
141.767
  0
LINE
  8
0
 10
197.394
 20
141.767
 11
197.214
 21
141.496
  0
LINE
  8
0
 10
197.214
 20
141.496
 11
196.981
 21
141.268
  0
LINE
  8
0
 10
196.981
 20
141.268
 11
196.706
 21
141.092
  0
LINE
  8
0
 10
196.706
 20
141.092
 11
196.401
 21
140.977
  0
LINE
  8
0
 10
196.401
 20
140.977
 11
196.305
 21
140.955
  0
LINE
  8
0
 10
196.305
 20
140.955
 11
195.98
 21
140.925
  0
LINE
  8
0
 10
195.98
 20
140.925
 11
195.656
 21
140.963
  0
LINE
  8
0
 10
225.656
 20
140.963
 11
225.347
 21
141.067
  0
LINE
  8
0
 10
225.347
 20
141.067
 11
225.066
 21
141.232
  0
LINE
  8
0
 10
225.066
 20
141.232
 11
224.825
 21
141.451
  0
LINE
  8
0
 10
224.825
 20
141.451
 11
224.634
 21
141.715
  0
LINE
  8
0
 10
224.634
 20
141.715
 11
224.502
 21
142.013
  0
LINE
  8
0
 10
224.502
 20
142.013
 11
224.434
 21
142.332
  0
LINE
  8
0
 10
224.434
 20
142.332
 11
224.433
 21
142.658
  0
LINE
  8
0
 10
224.433
 20
142.658
 11
224.499
 21
142.977
  0
LINE
  8
0
 10
224.499
 20
142.977
 11
224.629
 21
143.276
  0
LINE
  8
0
 10
224.629
 20
143.276
 11
224.819
 21
143.542
  0
LINE
  8
0
 10
224.819
 20
143.542
 11
225.058
 21
143.762
  0
LINE
  8
0
 10
225.058
 20
143.762
 11
225.338
 21
143.929
  0
LINE
  8
0
 10
225.338
 20
143.929
 11
225.647
 21
144.035
  0
LINE
  8
0
 10
225.647
 20
144.035
 11
225.97
 21
144.075
  0
LINE
  8
0
 10
225.97
 20
144.075
 11
226.295
 21
144.047
  0
LINE
  8
0
 10
226.295
 20
144.047
 11
226.607
 21
143.953
  0
LINE
  8
0
 10
226.607
 20
143.953
 11
226.893
 21
143.797
  0
LINE
  8
0
 10
226.893
 20
143.797
 11
227.141
 21
143.585
  0
LINE
  8
0
 10
227.141
 20
143.585
 11
227.34
 21
143.327
  0
LINE
  8
0
 10
227.34
 20
143.327
 11
227.482
 21
143.034
  0
LINE
  8
0
 10
227.482
 20
143.034
 11
227.56
 21
142.717
  0
LINE
  8
0
 10
227.56
 20
142.717
 11
227.571
 21
142.391
  0
LINE
  8
0
 10
227.571
 20
142.391
 11
227.515
 21
142.07
  0
LINE
  8
0
 10
227.515
 20
142.07
 11
227.394
 21
141.767
  0
LINE
  8
0
 10
227.394
 20
141.767
 11
227.214
 21
141.496
  0
LINE
  8
0
 10
227.214
 20
141.496
 11
226.981
 21
141.268
  0
LINE
  8
0
 10
226.981
 20
141.268
 11
226.706
 21
141.092
  0
LINE
  8
0
 10
226.706
 20
141.092
 11
226.401
 21
140.977
  0
LINE
  8
0
 10
226.401
 20
140.977
 11
226.305
 21
140.955
  0
LINE
  8
0
 10
226.305
 20
140.955
 11
225.98
 21
140.925
  0
LINE
  8
0
 10
225.98
 20
140.925
 11
225.656
 21
140.963
  0
LINE
  8
0
 10
255.656
 20
140.963
 11
255.347
 21
141.067
  0
LINE
  8
0
 10
255.347
 20
141.067
 11
255.066
 21
141.232
  0
LINE
  8
0
 10
255.066
 20
141.232
 11
254.825
 21
141.451
  0
LINE
  8
0
 10
254.825
 20
141.451
 11
254.634
 21
141.715
  0
LINE
  8
0
 10
254.634
 20
141.715
 11
254.502
 21
142.013
  0
LINE
  8
0
 10
254.502
 20
142.013
 11
254.434
 21
142.332
  0
LINE
  8
0
 10
254.434
 20
142.332
 11
254.433
 21
142.658
  0
LINE
  8
0
 10
254.433
 20
142.658
 11
254.499
 21
142.977
  0
LINE
  8
0
 10
254.499
 20
142.977
 11
254.629
 21
143.276
  0
LINE
  8
0
 10
254.629
 20
143.276
 11
254.819
 21
143.542
  0
LINE
  8
0
 10
254.819
 20
143.542
 11
255.058
 21
143.762
  0
LINE
  8
0
 10
255.058
 20
143.762
 11
255.338
 21
143.929
  0
LINE
  8
0
 10
255.338
 20
143.929
 11
255.647
 21
144.035
  0
LINE
  8
0
 10
255.647
 20
144.035
 11
255.97
 21
144.075
  0
LINE
  8
0
 10
255.97
 20
144.075
 11
256.295
 21
144.047
  0
LINE
  8
0
 10
256.295
 20
144.047
 11
256.607
 21
143.953
  0
LINE
  8
0
 10
256.607
 20
143.953
 11
256.893
 21
143.797
  0
LINE
  8
0
 10
256.893
 20
143.797
 11
257.141
 21
143.585
  0
LINE
  8
0
 10
257.141
 20
143.585
 11
257.34
 21
143.327
  0
LINE
  8
0
 10
257.34
 20
143.327
 11
257.482
 21
143.034
  0
LINE
  8
0
 10
257.482
 20
143.034
 11
257.56
 21
142.717
  0
LINE
  8
0
 10
257.56
 20
142.717
 11
257.571
 21
142.391
  0
LINE
  8
0
 10
257.571
 20
142.391
 11
257.515
 21
142.07
  0
LINE
  8
0
 10
257.515
 20
142.07
 11
257.394
 21
141.767
  0
LINE
  8
0
 10
257.394
 20
141.767
 11
257.214
 21
141.496
  0
LINE
  8
0
 10
257.214
 20
141.496
 11
256.981
 21
141.268
  0
LINE
  8
0
 10
256.981
 20
141.268
 11
256.706
 21
141.092
  0
LINE
  8
0
 10
256.706
 20
141.092
 11
256.401
 21
140.977
  0
LINE
  8
0
 10
256.401
 20
140.977
 11
256.305
 21
140.955
  0
LINE
  8
0
 10
256.305
 20
140.955
 11
255.98
 21
140.925
  0
LINE
  8
0
 10
255.98
 20
140.925
 11
255.656
 21
140.963
  0
LINE
  8
0
 10
158.156
 20
103.463
 11
157.847
 21
103.567
  0
LINE
  8
0
 10
157.847
 20
103.567
 11
157.566
 21
103.732
  0
LINE
  8
0
 10
157.566
 20
103.732
 11
157.325
 21
103.951
  0
LINE
  8
0
 10
157.325
 20
103.951
 11
157.134
 21
104.215
  0
LINE
  8
0
 10
157.134
 20
104.215
 11
157.002
 21
104.513
  0
LINE
  8
0
 10
157.002
 20
104.513
 11
156.934
 21
104.832
  0
LINE
  8
0
 10
156.934
 20
104.832
 11
156.933
 21
105.158
  0
LINE
  8
0
 10
156.933
 20
105.158
 11
156.999
 21
105.477
  0
LINE
  8
0
 10
156.999
 20
105.477
 11
157.129
 21
105.776
  0
LINE
  8
0
 10
157.129
 20
105.776
 11
157.319
 21
106.042
  0
LINE
  8
0
 10
157.319
 20
106.042
 11
157.558
 21
106.262
  0
LINE
  8
0
 10
157.558
 20
106.262
 11
157.838
 21
106.429
  0
LINE
  8
0
 10
157.838
 20
106.429
 11
158.147
 21
106.535
  0
LINE
  8
0
 10
158.147
 20
106.535
 11
158.47
 21
106.575
  0
LINE
  8
0
 10
158.47
 20
106.575
 11
158.795
 21
106.547
  0
LINE
  8
0
 10
158.795
 20
106.547
 11
159.107
 21
106.453
  0
LINE
  8
0
 10
159.107
 20
106.453
 11
159.393
 21
106.297
  0
LINE
  8
0
 10
159.393
 20
106.297
 11
159.641
 21
106.085
  0
LINE
  8
0
 10
159.641
 20
106.085
 11
159.84
 21
105.827
  0
LINE
  8
0
 10
159.84
 20
105.827
 11
159.982
 21
105.534
  0
LINE
  8
0
 10
159.982
 20
105.534
 11
160.06
 21
105.217
  0
LINE
  8
0
 10
160.06
 20
105.217
 11
160.071
 21
104.891
  0
LINE
  8
0
 10
160.071
 20
104.891
 11
160.015
 21
104.57
  0
LINE
  8
0
 10
160.015
 20
104.57
 11
159.894
 21
104.267
  0
LINE
  8
0
 10
159.894
 20
104.267
 11
159.714
 21
103.996
  0
LINE
  8
0
 10
159.714
 20
103.996
 11
159.481
 21
103.768
  0
LINE
  8
0
 10
159.481
 20
103.768
 11
159.206
 21
103.592
  0
LINE
  8
0
 10
159.206
 20
103.592
 11
158.901
 21
103.477
  0
LINE
  8
0
 10
158.901
 20
103.477
 11
158.805
 21
103.455
  0
LINE
  8
0
 10
158.805
 20
103.455
 11
158.48
 21
103.425
  0
LINE
  8
0
 10
158.48
 20
103.425
 11
158.156
 21
103.463
  0
LINE
  8
0
 10
293.156
 20
103.463
 11
292.847
 21
103.567
  0
LINE
  8
0
 10
292.847
 20
103.567
 11
292.566
 21
103.732
  0
LINE
  8
0
 10
292.566
 20
103.732
 11
292.325
 21
103.951
  0
LINE
  8
0
 10
292.325
 20
103.951
 11
292.134
 21
104.215
  0
LINE
  8
0
 10
292.134
 20
104.215
 11
292.002
 21
104.513
  0
LINE
  8
0
 10
292.002
 20
104.513
 11
291.934
 21
104.832
  0
LINE
  8
0
 10
291.934
 20
104.832
 11
291.933
 21
105.158
  0
LINE
  8
0
 10
291.933
 20
105.158
 11
291.999
 21
105.477
  0
LINE
  8
0
 10
291.999
 20
105.477
 11
292.129
 21
105.776
  0
LINE
  8
0
 10
292.129
 20
105.776
 11
292.319
 21
106.042
  0
LINE
  8
0
 10
292.319
 20
106.042
 11
292.558
 21
106.262
  0
LINE
  8
0
 10
292.558
 20
106.262
 11
292.838
 21
106.429
  0
LINE
  8
0
 10
292.838
 20
106.429
 11
293.147
 21
106.535
  0
LINE
  8
0
 10
293.147
 20
106.535
 11
293.47
 21
106.575
  0
LINE
  8
0
 10
293.47
 20
106.575
 11
293.795
 21
106.547
  0
LINE
  8
0
 10
293.795
 20
106.547
 11
294.107
 21
106.453
  0
LINE
  8
0
 10
294.107
 20
106.453
 11
294.393
 21
106.297
  0
LINE
  8
0
 10
294.393
 20
106.297
 11
294.641
 21
106.085
  0
LINE
  8
0
 10
294.641
 20
106.085
 11
294.84
 21
105.827
  0
LINE
  8
0
 10
294.84
 20
105.827
 11
294.982
 21
105.534
  0
LINE
  8
0
 10
294.982
 20
105.534
 11
295.06
 21
105.217
  0
LINE
  8
0
 10
295.06
 20
105.217
 11
295.071
 21
104.891
  0
LINE
  8
0
 10
295.071
 20
104.891
 11
295.015
 21
104.57
  0
LINE
  8
0
 10
295.015
 20
104.57
 11
294.894
 21
104.267
  0
LINE
  8
0
 10
294.894
 20
104.267
 11
294.714
 21
103.996
  0
LINE
  8
0
 10
294.714
 20
103.996
 11
294.481
 21
103.768
  0
LINE
  8
0
 10
294.481
 20
103.768
 11
294.206
 21
103.592
  0
LINE
  8
0
 10
294.206
 20
103.592
 11
293.901
 21
103.477
  0
LINE
  8
0
 10
293.901
 20
103.477
 11
293.805
 21
103.455
  0
LINE
  8
0
 10
293.805
 20
103.455
 11
293.48
 21
103.425
  0
LINE
  8
0
 10
293.48
 20
103.425
 11
293.156
 21
103.463
  0
LINE
  8
0
 10
180.656
 20
93.4629
 11
180.347
 21
93.5666
  0
LINE
  8
0
 10
180.347
 20
93.5666
 11
180.066
 21
93.7316
  0
LINE
  8
0
 10
180.066
 20
93.7316
 11
179.825
 21
93.951
  0
LINE
  8
0
 10
179.825
 20
93.951
 11
179.634
 21
94.2153
  0
LINE
  8
0
 10
179.634
 20
94.2153
 11
179.502
 21
94.5133
  0
LINE
  8
0
 10
179.502
 20
94.5133
 11
179.434
 21
94.8321
  0
LINE
  8
0
 10
179.434
 20
94.8321
 11
179.433
 21
95.1581
  0
LINE
  8
0
 10
179.433
 20
95.1581
 11
179.499
 21
95.4773
  0
LINE
  8
0
 10
179.499
 20
95.4773
 11
179.629
 21
95.776
  0
LINE
  8
0
 10
179.629
 20
95.776
 11
179.819
 21
96.0416
  0
LINE
  8
0
 10
179.819
 20
96.0416
 11
180.058
 21
96.2625
  0
LINE
  8
0
 10
180.058
 20
96.2625
 11
180.338
 21
96.4293
  0
LINE
  8
0
 10
180.338
 20
96.4293
 11
180.647
 21
96.5349
  0
LINE
  8
0
 10
180.647
 20
96.5349
 11
180.97
 21
96.5747
  0
LINE
  8
0
 10
180.97
 20
96.5747
 11
181.295
 21
96.5471
  0
LINE
  8
0
 10
181.295
 20
96.5471
 11
181.607
 21
96.4532
  0
LINE
  8
0
 10
181.607
 20
96.4532
 11
181.893
 21
96.2971
  0
LINE
  8
0
 10
181.893
 20
96.2971
 11
182.141
 21
96.0853
  0
LINE
  8
0
 10
182.141
 20
96.0853
 11
182.34
 21
95.8271
  0
LINE
  8
0
 10
182.34
 20
95.8271
 11
182.482
 21
95.5335
  0
LINE
  8
0
 10
182.482
 20
95.5335
 11
182.56
 21
95.217
  0
LINE
  8
0
 10
182.56
 20
95.217
 11
182.571
 21
94.8912
  0
LINE
  8
0
 10
182.571
 20
94.8912
 11
182.515
 21
94.5701
  0
LINE
  8
0
 10
182.515
 20
94.5701
 11
182.394
 21
94.2674
  0
LINE
  8
0
 10
182.394
 20
94.2674
 11
182.214
 21
93.996
  0
LINE
  8
0
 10
182.214
 20
93.996
 11
181.981
 21
93.7677
  0
LINE
  8
0
 10
181.981
 20
93.7677
 11
181.706
 21
93.5922
  0
LINE
  8
0
 10
181.706
 20
93.5922
 11
181.401
 21
93.477
  0
LINE
  8
0
 10
181.401
 20
93.477
 11
181.305
 21
93.4548
  0
LINE
  8
0
 10
181.305
 20
93.4548
 11
180.98
 21
93.4251
  0
LINE
  8
0
 10
180.98
 20
93.4251
 11
180.656
 21
93.4629
  0
LINE
  8
0
 10
274.156
 20
93.4629
 11
273.847
 21
93.5666
  0
LINE
  8
0
 10
273.847
 20
93.5666
 11
273.566
 21
93.7316
  0
LINE
  8
0
 10
273.566
 20
93.7316
 11
273.325
 21
93.951
  0
LINE
  8
0
 10
273.325
 20
93.951
 11
273.134
 21
94.2153
  0
LINE
  8
0
 10
273.134
 20
94.2153
 11
273.002
 21
94.5133
  0
LINE
  8
0
 10
273.002
 20
94.5133
 11
272.934
 21
94.8321
  0
LINE
  8
0
 10
272.934
 20
94.8321
 11
272.933
 21
95.1581
  0
LINE
  8
0
 10
272.933
 20
95.1581
 11
272.999
 21
95.4773
  0
LINE
  8
0
 10
272.999
 20
95.4773
 11
273.129
 21
95.776
  0
LINE
  8
0
 10
273.129
 20
95.776
 11
273.319
 21
96.0416
  0
LINE
  8
0
 10
273.319
 20
96.0416
 11
273.558
 21
96.2625
  0
LINE
  8
0
 10
273.558
 20
96.2625
 11
273.838
 21
96.4293
  0
LINE
  8
0
 10
273.838
 20
96.4293
 11
274.147
 21
96.5349
  0
LINE
  8
0
 10
274.147
 20
96.5349
 11
274.47
 21
96.5747
  0
LINE
  8
0
 10
274.47
 20
96.5747
 11
274.795
 21
96.5471
  0
LINE
  8
0
 10
274.795
 20
96.5471
 11
275.107
 21
96.4532
  0
LINE
  8
0
 10
275.107
 20
96.4532
 11
275.393
 21
96.2971
  0
LINE
  8
0
 10
275.393
 20
96.2971
 11
275.641
 21
96.0853
  0
LINE
  8
0
 10
275.641
 20
96.0853
 11
275.84
 21
95.8271
  0
LINE
  8
0
 10
275.84
 20
95.8271
 11
275.982
 21
95.5335
  0
LINE
  8
0
 10
275.982
 20
95.5335
 11
276.06
 21
95.217
  0
LINE
  8
0
 10
276.06
 20
95.217
 11
276.071
 21
94.8912
  0
LINE
  8
0
 10
276.071
 20
94.8912
 11
276.015
 21
94.5701
  0
LINE
  8
0
 10
276.015
 20
94.5701
 11
275.894
 21
94.2674
  0
LINE
  8
0
 10
275.894
 20
94.2674
 11
275.714
 21
93.996
  0
LINE
  8
0
 10
275.714
 20
93.996
 11
275.481
 21
93.7677
  0
LINE
  8
0
 10
275.481
 20
93.7677
 11
275.206
 21
93.5922
  0
LINE
  8
0
 10
275.206
 20
93.5922
 11
274.901
 21
93.477
  0
LINE
  8
0
 10
274.901
 20
93.477
 11
274.805
 21
93.4548
  0
LINE
  8
0
 10
274.805
 20
93.4548
 11
274.48
 21
93.4251
  0
LINE
  8
0
 10
274.48
 20
93.4251
 11
274.156
 21
93.4629
  0
LINE
  8
0
 10
251.656
 20
93.4629
 11
251.347
 21
93.5666
  0
LINE
  8
0
 10
251.347
 20
93.5666
 11
251.066
 21
93.7316
  0
LINE
  8
0
 10
251.066
 20
93.7316
 11
250.825
 21
93.951
  0
LINE
  8
0
 10
250.825
 20
93.951
 11
250.634
 21
94.2153
  0
LINE
  8
0
 10
250.634
 20
94.2153
 11
250.502
 21
94.5133
  0
LINE
  8
0
 10
250.502
 20
94.5133
 11
250.434
 21
94.8321
  0
LINE
  8
0
 10
250.434
 20
94.8321
 11
250.433
 21
95.1581
  0
LINE
  8
0
 10
250.433
 20
95.1581
 11
250.499
 21
95.4773
  0
LINE
  8
0
 10
250.499
 20
95.4773
 11
250.629
 21
95.776
  0
LINE
  8
0
 10
250.629
 20
95.776
 11
250.819
 21
96.0416
  0
LINE
  8
0
 10
250.819
 20
96.0416
 11
251.058
 21
96.2625
  0
LINE
  8
0
 10
251.058
 20
96.2625
 11
251.338
 21
96.4293
  0
LINE
  8
0
 10
251.338
 20
96.4293
 11
251.647
 21
96.5349
  0
LINE
  8
0
 10
251.647
 20
96.5349
 11
251.97
 21
96.5747
  0
LINE
  8
0
 10
251.97
 20
96.5747
 11
252.295
 21
96.5471
  0
LINE
  8
0
 10
252.295
 20
96.5471
 11
252.607
 21
96.4532
  0
LINE
  8
0
 10
252.607
 20
96.4532
 11
252.893
 21
96.2971
  0
LINE
  8
0
 10
252.893
 20
96.2971
 11
253.141
 21
96.0853
  0
LINE
  8
0
 10
253.141
 20
96.0853
 11
253.34
 21
95.8271
  0
LINE
  8
0
 10
253.34
 20
95.8271
 11
253.482
 21
95.5335
  0
LINE
  8
0
 10
253.482
 20
95.5335
 11
253.56
 21
95.217
  0
LINE
  8
0
 10
253.56
 20
95.217
 11
253.571
 21
94.8912
  0
LINE
  8
0
 10
253.571
 20
94.8912
 11
253.515
 21
94.5701
  0
LINE
  8
0
 10
253.515
 20
94.5701
 11
253.394
 21
94.2674
  0
LINE
  8
0
 10
253.394
 20
94.2674
 11
253.214
 21
93.996
  0
LINE
  8
0
 10
253.214
 20
93.996
 11
252.981
 21
93.7677
  0
LINE
  8
0
 10
252.981
 20
93.7677
 11
252.706
 21
93.5922
  0
LINE
  8
0
 10
252.706
 20
93.5922
 11
252.401
 21
93.477
  0
LINE
  8
0
 10
252.401
 20
93.477
 11
252.305
 21
93.4548
  0
LINE
  8
0
 10
252.305
 20
93.4548
 11
251.98
 21
93.4251
  0
LINE
  8
0
 10
251.98
 20
93.4251
 11
251.656
 21
93.4629
  0
LINE
  8
0
 10
186.156
 20
93.4629
 11
185.847
 21
93.5666
  0
LINE
  8
0
 10
185.847
 20
93.5666
 11
185.566
 21
93.7316
  0
LINE
  8
0
 10
185.566
 20
93.7316
 11
185.325
 21
93.951
  0
LINE
  8
0
 10
185.325
 20
93.951
 11
185.134
 21
94.2153
  0
LINE
  8
0
 10
185.134
 20
94.2153
 11
185.002
 21
94.5133
  0
LINE
  8
0
 10
185.002
 20
94.5133
 11
184.934
 21
94.8321
  0
LINE
  8
0
 10
184.934
 20
94.8321
 11
184.933
 21
95.1581
  0
LINE
  8
0
 10
184.933
 20
95.1581
 11
184.999
 21
95.4773
  0
LINE
  8
0
 10
184.999
 20
95.4773
 11
185.129
 21
95.776
  0
LINE
  8
0
 10
185.129
 20
95.776
 11
185.319
 21
96.0416
  0
LINE
  8
0
 10
185.319
 20
96.0416
 11
185.558
 21
96.2625
  0
LINE
  8
0
 10
185.558
 20
96.2625
 11
185.838
 21
96.4293
  0
LINE
  8
0
 10
185.838
 20
96.4293
 11
186.147
 21
96.5349
  0
LINE
  8
0
 10
186.147
 20
96.5349
 11
186.47
 21
96.5747
  0
LINE
  8
0
 10
186.47
 20
96.5747
 11
186.795
 21
96.5471
  0
LINE
  8
0
 10
186.795
 20
96.5471
 11
187.107
 21
96.4532
  0
LINE
  8
0
 10
187.107
 20
96.4532
 11
187.393
 21
96.2971
  0
LINE
  8
0
 10
187.393
 20
96.2971
 11
187.641
 21
96.0853
  0
LINE
  8
0
 10
187.641
 20
96.0853
 11
187.84
 21
95.8271
  0
LINE
  8
0
 10
187.84
 20
95.8271
 11
187.982
 21
95.5335
  0
LINE
  8
0
 10
187.982
 20
95.5335
 11
188.06
 21
95.217
  0
LINE
  8
0
 10
188.06
 20
95.217
 11
188.071
 21
94.8912
  0
LINE
  8
0
 10
188.071
 20
94.8912
 11
188.015
 21
94.5701
  0
LINE
  8
0
 10
188.015
 20
94.5701
 11
187.894
 21
94.2674
  0
LINE
  8
0
 10
187.894
 20
94.2674
 11
187.714
 21
93.996
  0
LINE
  8
0
 10
187.714
 20
93.996
 11
187.481
 21
93.7677
  0
LINE
  8
0
 10
187.481
 20
93.7677
 11
187.206
 21
93.5922
  0
LINE
  8
0
 10
187.206
 20
93.5922
 11
186.901
 21
93.477
  0
LINE
  8
0
 10
186.901
 20
93.477
 11
186.805
 21
93.4548
  0
LINE
  8
0
 10
186.805
 20
93.4548
 11
186.48
 21
93.4251
  0
LINE
  8
0
 10
186.48
 20
93.4251
 11
186.156
 21
93.4629
  0
LINE
  8
0
 10
293.156
 20
88.4629
 11
292.847
 21
88.5666
  0
LINE
  8
0
 10
292.847
 20
88.5666
 11
292.566
 21
88.7316
  0
LINE
  8
0
 10
292.566
 20
88.7316
 11
292.325
 21
88.951
  0
LINE
  8
0
 10
292.325
 20
88.951
 11
292.134
 21
89.2153
  0
LINE
  8
0
 10
292.134
 20
89.2153
 11
292.002
 21
89.5133
  0
LINE
  8
0
 10
292.002
 20
89.5133
 11
291.934
 21
89.8321
  0
LINE
  8
0
 10
291.934
 20
89.8321
 11
291.933
 21
90.1581
  0
LINE
  8
0
 10
291.933
 20
90.1581
 11
291.999
 21
90.4773
  0
LINE
  8
0
 10
291.999
 20
90.4773
 11
292.129
 21
90.776
  0
LINE
  8
0
 10
292.129
 20
90.776
 11
292.319
 21
91.0416
  0
LINE
  8
0
 10
292.319
 20
91.0416
 11
292.558
 21
91.2625
  0
LINE
  8
0
 10
292.558
 20
91.2625
 11
292.838
 21
91.4293
  0
LINE
  8
0
 10
292.838
 20
91.4293
 11
293.147
 21
91.5349
  0
LINE
  8
0
 10
293.147
 20
91.5349
 11
293.47
 21
91.5747
  0
LINE
  8
0
 10
293.47
 20
91.5747
 11
293.795
 21
91.5471
  0
LINE
  8
0
 10
293.795
 20
91.5471
 11
294.107
 21
91.4532
  0
LINE
  8
0
 10
294.107
 20
91.4532
 11
294.393
 21
91.2971
  0
LINE
  8
0
 10
294.393
 20
91.2971
 11
294.641
 21
91.0853
  0
LINE
  8
0
 10
294.641
 20
91.0853
 11
294.84
 21
90.8271
  0
LINE
  8
0
 10
294.84
 20
90.8271
 11
294.982
 21
90.5335
  0
LINE
  8
0
 10
294.982
 20
90.5335
 11
295.06
 21
90.217
  0
LINE
  8
0
 10
295.06
 20
90.217
 11
295.071
 21
89.8912
  0
LINE
  8
0
 10
295.071
 20
89.8912
 11
295.015
 21
89.5701
  0
LINE
  8
0
 10
295.015
 20
89.5701
 11
294.894
 21
89.2674
  0
LINE
  8
0
 10
294.894
 20
89.2674
 11
294.714
 21
88.996
  0
LINE
  8
0
 10
294.714
 20
88.996
 11
294.481
 21
88.7677
  0
LINE
  8
0
 10
294.481
 20
88.7677
 11
294.206
 21
88.5922
  0
LINE
  8
0
 10
294.206
 20
88.5922
 11
293.901
 21
88.477
  0
LINE
  8
0
 10
293.901
 20
88.477
 11
293.805
 21
88.4548
  0
LINE
  8
0
 10
293.805
 20
88.4548
 11
293.48
 21
88.4251
  0
LINE
  8
0
 10
293.48
 20
88.4251
 11
293.156
 21
88.4629
  0
LINE
  8
0
 10
158.156
 20
88.4629
 11
157.847
 21
88.5666
  0
LINE
  8
0
 10
157.847
 20
88.5666
 11
157.566
 21
88.7316
  0
LINE
  8
0
 10
157.566
 20
88.7316
 11
157.325
 21
88.951
  0
LINE
  8
0
 10
157.325
 20
88.951
 11
157.134
 21
89.2153
  0
LINE
  8
0
 10
157.134
 20
89.2153
 11
157.002
 21
89.5133
  0
LINE
  8
0
 10
157.002
 20
89.5133
 11
156.934
 21
89.8321
  0
LINE
  8
0
 10
156.934
 20
89.8321
 11
156.933
 21
90.1581
  0
LINE
  8
0
 10
156.933
 20
90.1581
 11
156.999
 21
90.4773
  0
LINE
  8
0
 10
156.999
 20
90.4773
 11
157.129
 21
90.776
  0
LINE
  8
0
 10
157.129
 20
90.776
 11
157.319
 21
91.0416
  0
LINE
  8
0
 10
157.319
 20
91.0416
 11
157.558
 21
91.2625
  0
LINE
  8
0
 10
157.558
 20
91.2625
 11
157.838
 21
91.4293
  0
LINE
  8
0
 10
157.838
 20
91.4293
 11
158.147
 21
91.5349
  0
LINE
  8
0
 10
158.147
 20
91.5349
 11
158.47
 21
91.5747
  0
LINE
  8
0
 10
158.47
 20
91.5747
 11
158.795
 21
91.5471
  0
LINE
  8
0
 10
158.795
 20
91.5471
 11
159.107
 21
91.4532
  0
LINE
  8
0
 10
159.107
 20
91.4532
 11
159.393
 21
91.2971
  0
LINE
  8
0
 10
159.393
 20
91.2971
 11
159.641
 21
91.0853
  0
LINE
  8
0
 10
159.641
 20
91.0853
 11
159.84
 21
90.8271
  0
LINE
  8
0
 10
159.84
 20
90.8271
 11
159.982
 21
90.5335
  0
LINE
  8
0
 10
159.982
 20
90.5335
 11
160.06
 21
90.217
  0
LINE
  8
0
 10
160.06
 20
90.217
 11
160.071
 21
89.8912
  0
LINE
  8
0
 10
160.071
 20
89.8912
 11
160.015
 21
89.5701
  0
LINE
  8
0
 10
160.015
 20
89.5701
 11
159.894
 21
89.2674
  0
LINE
  8
0
 10
159.894
 20
89.2674
 11
159.714
 21
88.996
  0
LINE
  8
0
 10
159.714
 20
88.996
 11
159.481
 21
88.7677
  0
LINE
  8
0
 10
159.481
 20
88.7677
 11
159.206
 21
88.5922
  0
LINE
  8
0
 10
159.206
 20
88.5922
 11
158.901
 21
88.477
  0
LINE
  8
0
 10
158.901
 20
88.477
 11
158.805
 21
88.4548
  0
LINE
  8
0
 10
158.805
 20
88.4548
 11
158.48
 21
88.4251
  0
LINE
  8
0
 10
158.48
 20
88.4251
 11
158.156
 21
88.4629
  0
LINE
  8
0
 10
188
 20
61
 11
188
 21
83
  0
LINE
  8
0
 10
188
 20
83
 11
256
 21
83
  0
LINE
  8
0
 10
256
 20
83
 11
256
 21
61
  0
LINE
  8
0
 10
256
 20
61
 11
188
 21
61
  0
LINE
  8
0
 10
158.156
 20
73.4629
 11
157.847
 21
73.5666
  0
LINE
  8
0
 10
157.847
 20
73.5666
 11
157.566
 21
73.7316
  0
LINE
  8
0
 10
157.566
 20
73.7316
 11
157.325
 21
73.951
  0
LINE
  8
0
 10
157.325
 20
73.951
 11
157.134
 21
74.2153
  0
LINE
  8
0
 10
157.134
 20
74.2153
 11
157.002
 21
74.5133
  0
LINE
  8
0
 10
157.002
 20
74.5133
 11
156.934
 21
74.8321
  0
LINE
  8
0
 10
156.934
 20
74.8321
 11
156.933
 21
75.1581
  0
LINE
  8
0
 10
156.933
 20
75.1581
 11
156.999
 21
75.4773
  0
LINE
  8
0
 10
156.999
 20
75.4773
 11
157.129
 21
75.776
  0
LINE
  8
0
 10
157.129
 20
75.776
 11
157.319
 21
76.0416
  0
LINE
  8
0
 10
157.319
 20
76.0416
 11
157.558
 21
76.2625
  0
LINE
  8
0
 10
157.558
 20
76.2625
 11
157.838
 21
76.4293
  0
LINE
  8
0
 10
157.838
 20
76.4293
 11
158.147
 21
76.5349
  0
LINE
  8
0
 10
158.147
 20
76.5349
 11
158.47
 21
76.5747
  0
LINE
  8
0
 10
158.47
 20
76.5747
 11
158.795
 21
76.5471
  0
LINE
  8
0
 10
158.795
 20
76.5471
 11
159.107
 21
76.4532
  0
LINE
  8
0
 10
159.107
 20
76.4532
 11
159.393
 21
76.2971
  0
LINE
  8
0
 10
159.393
 20
76.2971
 11
159.641
 21
76.0853
  0
LINE
  8
0
 10
159.641
 20
76.0853
 11
159.84
 21
75.8271
  0
LINE
  8
0
 10
159.84
 20
75.8271
 11
159.982
 21
75.5335
  0
LINE
  8
0
 10
159.982
 20
75.5335
 11
160.06
 21
75.217
  0
LINE
  8
0
 10
160.06
 20
75.217
 11
160.071
 21
74.8912
  0
LINE
  8
0
 10
160.071
 20
74.8912
 11
160.015
 21
74.5701
  0
LINE
  8
0
 10
160.015
 20
74.5701
 11
159.894
 21
74.2674
  0
LINE
  8
0
 10
159.894
 20
74.2674
 11
159.714
 21
73.996
  0
LINE
  8
0
 10
159.714
 20
73.996
 11
159.481
 21
73.7677
  0
LINE
  8
0
 10
159.481
 20
73.7677
 11
159.206
 21
73.5922
  0
LINE
  8
0
 10
159.206
 20
73.5922
 11
158.901
 21
73.477
  0
LINE
  8
0
 10
158.901
 20
73.477
 11
158.805
 21
73.4548
  0
LINE
  8
0
 10
158.805
 20
73.4548
 11
158.48
 21
73.4251
  0
LINE
  8
0
 10
158.48
 20
73.4251
 11
158.156
 21
73.4629
  0
LINE
  8
0
 10
293.156
 20
73.4629
 11
292.847
 21
73.5666
  0
LINE
  8
0
 10
292.847
 20
73.5666
 11
292.566
 21
73.7316
  0
LINE
  8
0
 10
292.566
 20
73.7316
 11
292.325
 21
73.951
  0
LINE
  8
0
 10
292.325
 20
73.951
 11
292.134
 21
74.2153
  0
LINE
  8
0
 10
292.134
 20
74.2153
 11
292.002
 21
74.5133
  0
LINE
  8
0
 10
292.002
 20
74.5133
 11
291.934
 21
74.8321
  0
LINE
  8
0
 10
291.934
 20
74.8321
 11
291.933
 21
75.1581
  0
LINE
  8
0
 10
291.933
 20
75.1581
 11
291.999
 21
75.4773
  0
LINE
  8
0
 10
291.999
 20
75.4773
 11
292.129
 21
75.776
  0
LINE
  8
0
 10
292.129
 20
75.776
 11
292.319
 21
76.0416
  0
LINE
  8
0
 10
292.319
 20
76.0416
 11
292.558
 21
76.2625
  0
LINE
  8
0
 10
292.558
 20
76.2625
 11
292.838
 21
76.4293
  0
LINE
  8
0
 10
292.838
 20
76.4293
 11
293.147
 21
76.5349
  0
LINE
  8
0
 10
293.147
 20
76.5349
 11
293.47
 21
76.5747
  0
LINE
  8
0
 10
293.47
 20
76.5747
 11
293.795
 21
76.5471
  0
LINE
  8
0
 10
293.795
 20
76.5471
 11
294.107
 21
76.4532
  0
LINE
  8
0
 10
294.107
 20
76.4532
 11
294.393
 21
76.2971
  0
LINE
  8
0
 10
294.393
 20
76.2971
 11
294.641
 21
76.0853
  0
LINE
  8
0
 10
294.641
 20
76.0853
 11
294.84
 21
75.8271
  0
LINE
  8
0
 10
294.84
 20
75.8271
 11
294.982
 21
75.5335
  0
LINE
  8
0
 10
294.982
 20
75.5335
 11
295.06
 21
75.217
  0
LINE
  8
0
 10
295.06
 20
75.217
 11
295.071
 21
74.8912
  0
LINE
  8
0
 10
295.071
 20
74.8912
 11
295.015
 21
74.5701
  0
LINE
  8
0
 10
295.015
 20
74.5701
 11
294.894
 21
74.2674
  0
LINE
  8
0
 10
294.894
 20
74.2674
 11
294.714
 21
73.996
  0
LINE
  8
0
 10
294.714
 20
73.996
 11
294.481
 21
73.7677
  0
LINE
  8
0
 10
294.481
 20
73.7677
 11
294.206
 21
73.5922
  0
LINE
  8
0
 10
294.206
 20
73.5922
 11
293.901
 21
73.477
  0
LINE
  8
0
 10
293.901
 20
73.477
 11
293.805
 21
73.4548
  0
LINE
  8
0
 10
293.805
 20
73.4548
 11
293.48
 21
73.4251
  0
LINE
  8
0
 10
293.48
 20
73.4251
 11
293.156
 21
73.4629
  0
LINE
  8
0
 10
158.156
 20
58.4629
 11
157.847
 21
58.5666
  0
LINE
  8
0
 10
157.847
 20
58.5666
 11
157.566
 21
58.7316
  0
LINE
  8
0
 10
157.566
 20
58.7316
 11
157.325
 21
58.951
  0
LINE
  8
0
 10
157.325
 20
58.951
 11
157.134
 21
59.2153
  0
LINE
  8
0
 10
157.134
 20
59.2153
 11
157.002
 21
59.5133
  0
LINE
  8
0
 10
157.002
 20
59.5133
 11
156.934
 21
59.8321
  0
LINE
  8
0
 10
156.934
 20
59.8321
 11
156.933
 21
60.1581
  0
LINE
  8
0
 10
156.933
 20
60.1581
 11
156.999
 21
60.4773
  0
LINE
  8
0
 10
156.999
 20
60.4773
 11
157.129
 21
60.776
  0
LINE
  8
0
 10
157.129
 20
60.776
 11
157.319
 21
61.0416
  0
LINE
  8
0
 10
157.319
 20
61.0416
 11
157.558
 21
61.2625
  0
LINE
  8
0
 10
157.558
 20
61.2625
 11
157.838
 21
61.4293
  0
LINE
  8
0
 10
157.838
 20
61.4293
 11
158.147
 21
61.5349
  0
LINE
  8
0
 10
158.147
 20
61.5349
 11
158.47
 21
61.5747
  0
LINE
  8
0
 10
158.47
 20
61.5747
 11
158.795
 21
61.5471
  0
LINE
  8
0
 10
158.795
 20
61.5471
 11
159.107
 21
61.4532
  0
LINE
  8
0
 10
159.107
 20
61.4532
 11
159.393
 21
61.2971
  0
LINE
  8
0
 10
159.393
 20
61.2971
 11
159.641
 21
61.0853
  0
LINE
  8
0
 10
159.641
 20
61.0853
 11
159.84
 21
60.8271
  0
LINE
  8
0
 10
159.84
 20
60.8271
 11
159.982
 21
60.5335
  0
LINE
  8
0
 10
159.982
 20
60.5335
 11
160.06
 21
60.217
  0
LINE
  8
0
 10
160.06
 20
60.217
 11
160.071
 21
59.8912
  0
LINE
  8
0
 10
160.071
 20
59.8912
 11
160.015
 21
59.5701
  0
LINE
  8
0
 10
160.015
 20
59.5701
 11
159.894
 21
59.2674
  0
LINE
  8
0
 10
159.894
 20
59.2674
 11
159.714
 21
58.996
  0
LINE
  8
0
 10
159.714
 20
58.996
 11
159.481
 21
58.7677
  0
LINE
  8
0
 10
159.481
 20
58.7677
 11
159.206
 21
58.5922
  0
LINE
  8
0
 10
159.206
 20
58.5922
 11
158.901
 21
58.477
  0
LINE
  8
0
 10
158.901
 20
58.477
 11
158.805
 21
58.4548
  0
LINE
  8
0
 10
158.805
 20
58.4548
 11
158.48
 21
58.4251
  0
LINE
  8
0
 10
158.48
 20
58.4251
 11
158.156
 21
58.4629
  0
LINE
  8
0
 10
293.156
 20
58.4629
 11
292.847
 21
58.5666
  0
LINE
  8
0
 10
292.847
 20
58.5666
 11
292.566
 21
58.7316
  0
LINE
  8
0
 10
292.566
 20
58.7316
 11
292.325
 21
58.951
  0
LINE
  8
0
 10
292.325
 20
58.951
 11
292.134
 21
59.2153
  0
LINE
  8
0
 10
292.134
 20
59.2153
 11
292.002
 21
59.5133
  0
LINE
  8
0
 10
292.002
 20
59.5133
 11
291.934
 21
59.8321
  0
LINE
  8
0
 10
291.934
 20
59.8321
 11
291.933
 21
60.1581
  0
LINE
  8
0
 10
291.933
 20
60.1581
 11
291.999
 21
60.4773
  0
LINE
  8
0
 10
291.999
 20
60.4773
 11
292.129
 21
60.776
  0
LINE
  8
0
 10
292.129
 20
60.776
 11
292.319
 21
61.0416
  0
LINE
  8
0
 10
292.319
 20
61.0416
 11
292.558
 21
61.2625
  0
LINE
  8
0
 10
292.558
 20
61.2625
 11
292.838
 21
61.4293
  0
LINE
  8
0
 10
292.838
 20
61.4293
 11
293.147
 21
61.5349
  0
LINE
  8
0
 10
293.147
 20
61.5349
 11
293.47
 21
61.5747
  0
LINE
  8
0
 10
293.47
 20
61.5747
 11
293.795
 21
61.5471
  0
LINE
  8
0
 10
293.795
 20
61.5471
 11
294.107
 21
61.4532
  0
LINE
  8
0
 10
294.107
 20
61.4532
 11
294.393
 21
61.2971
  0
LINE
  8
0
 10
294.393
 20
61.2971
 11
294.641
 21
61.0853
  0
LINE
  8
0
 10
294.641
 20
61.0853
 11
294.84
 21
60.8271
  0
LINE
  8
0
 10
294.84
 20
60.8271
 11
294.982
 21
60.5335
  0
LINE
  8
0
 10
294.982
 20
60.5335
 11
295.06
 21
60.217
  0
LINE
  8
0
 10
295.06
 20
60.217
 11
295.071
 21
59.8912
  0
LINE
  8
0
 10
295.071
 20
59.8912
 11
295.015
 21
59.5701
  0
LINE
  8
0
 10
295.015
 20
59.5701
 11
294.894
 21
59.2674
  0
LINE
  8
0
 10
294.894
 20
59.2674
 11
294.714
 21
58.996
  0
LINE
  8
0
 10
294.714
 20
58.996
 11
294.481
 21
58.7677
  0
LINE
  8
0
 10
294.481
 20
58.7677
 11
294.206
 21
58.5922
  0
LINE
  8
0
 10
294.206
 20
58.5922
 11
293.901
 21
58.477
  0
LINE
  8
0
 10
293.901
 20
58.477
 11
293.805
 21
58.4548
  0
LINE
  8
0
 10
293.805
 20
58.4548
 11
293.48
 21
58.4251
  0
LINE
  8
0
 10
293.48
 20
58.4251
 11
293.156
 21
58.4629
  0
LINE
  8
0
 10
158.156
 20
43.4629
 11
157.847
 21
43.5666
  0
LINE
  8
0
 10
157.847
 20
43.5666
 11
157.566
 21
43.7316
  0
LINE
  8
0
 10
157.566
 20
43.7316
 11
157.325
 21
43.951
  0
LINE
  8
0
 10
157.325
 20
43.951
 11
157.134
 21
44.2153
  0
LINE
  8
0
 10
157.134
 20
44.2153
 11
157.002
 21
44.5133
  0
LINE
  8
0
 10
157.002
 20
44.5133
 11
156.934
 21
44.8321
  0
LINE
  8
0
 10
156.934
 20
44.8321
 11
156.933
 21
45.1581
  0
LINE
  8
0
 10
156.933
 20
45.1581
 11
156.999
 21
45.4773
  0
LINE
  8
0
 10
156.999
 20
45.4773
 11
157.129
 21
45.776
  0
LINE
  8
0
 10
157.129
 20
45.776
 11
157.319
 21
46.0416
  0
LINE
  8
0
 10
157.319
 20
46.0416
 11
157.558
 21
46.2625
  0
LINE
  8
0
 10
157.558
 20
46.2625
 11
157.838
 21
46.4293
  0
LINE
  8
0
 10
157.838
 20
46.4293
 11
158.147
 21
46.5349
  0
LINE
  8
0
 10
158.147
 20
46.5349
 11
158.47
 21
46.5747
  0
LINE
  8
0
 10
158.47
 20
46.5747
 11
158.795
 21
46.5471
  0
LINE
  8
0
 10
158.795
 20
46.5471
 11
159.107
 21
46.4532
  0
LINE
  8
0
 10
159.107
 20
46.4532
 11
159.393
 21
46.2971
  0
LINE
  8
0
 10
159.393
 20
46.2971
 11
159.641
 21
46.0853
  0
LINE
  8
0
 10
159.641
 20
46.0853
 11
159.84
 21
45.8271
  0
LINE
  8
0
 10
159.84
 20
45.8271
 11
159.982
 21
45.5335
  0
LINE
  8
0
 10
159.982
 20
45.5335
 11
160.06
 21
45.217
  0
LINE
  8
0
 10
160.06
 20
45.217
 11
160.071
 21
44.8912
  0
LINE
  8
0
 10
160.071
 20
44.8912
 11
160.015
 21
44.5701
  0
LINE
  8
0
 10
160.015
 20
44.5701
 11
159.894
 21
44.2674
  0
LINE
  8
0
 10
159.894
 20
44.2674
 11
159.714
 21
43.996
  0
LINE
  8
0
 10
159.714
 20
43.996
 11
159.481
 21
43.7677
  0
LINE
  8
0
 10
159.481
 20
43.7677
 11
159.206
 21
43.5922
  0
LINE
  8
0
 10
159.206
 20
43.5922
 11
158.901
 21
43.477
  0
LINE
  8
0
 10
158.901
 20
43.477
 11
158.805
 21
43.4548
  0
LINE
  8
0
 10
158.805
 20
43.4548
 11
158.48
 21
43.4251
  0
LINE
  8
0
 10
158.48
 20
43.4251
 11
158.156
 21
43.4629
  0
LINE
  8
0
 10
293.156
 20
43.4629
 11
292.847
 21
43.5666
  0
LINE
  8
0
 10
292.847
 20
43.5666
 11
292.566
 21
43.7316
  0
LINE
  8
0
 10
292.566
 20
43.7316
 11
292.325
 21
43.951
  0
LINE
  8
0
 10
292.325
 20
43.951
 11
292.134
 21
44.2153
  0
LINE
  8
0
 10
292.134
 20
44.2153
 11
292.002
 21
44.5133
  0
LINE
  8
0
 10
292.002
 20
44.5133
 11
291.934
 21
44.8321
  0
LINE
  8
0
 10
291.934
 20
44.8321
 11
291.933
 21
45.1581
  0
LINE
  8
0
 10
291.933
 20
45.1581
 11
291.999
 21
45.4773
  0
LINE
  8
0
 10
291.999
 20
45.4773
 11
292.129
 21
45.776
  0
LINE
  8
0
 10
292.129
 20
45.776
 11
292.319
 21
46.0416
  0
LINE
  8
0
 10
292.319
 20
46.0416
 11
292.558
 21
46.2625
  0
LINE
  8
0
 10
292.558
 20
46.2625
 11
292.838
 21
46.4293
  0
LINE
  8
0
 10
292.838
 20
46.4293
 11
293.147
 21
46.5349
  0
LINE
  8
0
 10
293.147
 20
46.5349
 11
293.47
 21
46.5747
  0
LINE
  8
0
 10
293.47
 20
46.5747
 11
293.795
 21
46.5471
  0
LINE
  8
0
 10
293.795
 20
46.5471
 11
294.107
 21
46.4532
  0
LINE
  8
0
 10
294.107
 20
46.4532
 11
294.393
 21
46.2971
  0
LINE
  8
0
 10
294.393
 20
46.2971
 11
294.641
 21
46.0853
  0
LINE
  8
0
 10
294.641
 20
46.0853
 11
294.84
 21
45.8271
  0
LINE
  8
0
 10
294.84
 20
45.8271
 11
294.982
 21
45.5335
  0
LINE
  8
0
 10
294.982
 20
45.5335
 11
295.06
 21
45.217
  0
LINE
  8
0
 10
295.06
 20
45.217
 11
295.071
 21
44.8912
  0
LINE
  8
0
 10
295.071
 20
44.8912
 11
295.015
 21
44.5701
  0
LINE
  8
0
 10
295.015
 20
44.5701
 11
294.894
 21
44.2674
  0
LINE
  8
0
 10
294.894
 20
44.2674
 11
294.714
 21
43.996
  0
LINE
  8
0
 10
294.714
 20
43.996
 11
294.481
 21
43.7677
  0
LINE
  8
0
 10
294.481
 20
43.7677
 11
294.206
 21
43.5922
  0
LINE
  8
0
 10
294.206
 20
43.5922
 11
293.901
 21
43.477
  0
LINE
  8
0
 10
293.901
 20
43.477
 11
293.805
 21
43.4548
  0
LINE
  8
0
 10
293.805
 20
43.4548
 11
293.48
 21
43.4251
  0
LINE
  8
0
 10
293.48
 20
43.4251
 11
293.156
 21
43.4629
  0
ENDSEC
  0
SECTION
  2
OBJECTS
  0
DICTIONARY
  0
ENDSEC
  0
EOF
