  0
SECTION
  2
BLOCKS
  0
ENDSEC
  0
SECTION
  2
ENTITIES
  0
LINE
  8
0
 10
201
 20
201
 11
101
 21
201
  0
LINE
  8
0
 10
101
 20
201
 11
101
 21
101
  0
LINE
  8
0
 10
101
 20
101
 11
201
 21
101
  0
LINE
  8
0
 10
201
 20
101
 11
201
 21
201
  0
LINE
  8
0
 10
108.156
 20
171.963
 11
107.847
 21
172.067
  0
LINE
  8
0
 10
107.847
 20
172.067
 11
107.566
 21
172.232
  0
LINE
  8
0
 10
107.566
 20
172.232
 11
107.325
 21
172.451
  0
LINE
  8
0
 10
107.325
 20
172.451
 11
107.134
 21
172.715
  0
LINE
  8
0
 10
107.134
 20
172.715
 11
107.002
 21
173.013
  0
LINE
  8
0
 10
107.002
 20
173.013
 11
106.934
 21
173.332
  0
LINE
  8
0
 10
106.934
 20
173.332
 11
106.933
 21
173.658
  0
LINE
  8
0
 10
106.933
 20
173.658
 11
106.999
 21
173.977
  0
LINE
  8
0
 10
106.999
 20
173.977
 11
107.129
 21
174.276
  0
LINE
  8
0
 10
107.129
 20
174.276
 11
107.319
 21
174.542
  0
LINE
  8
0
 10
107.319
 20
174.542
 11
107.558
 21
174.762
  0
LINE
  8
0
 10
107.558
 20
174.762
 11
107.838
 21
174.929
  0
LINE
  8
0
 10
107.838
 20
174.929
 11
108.147
 21
175.035
  0
LINE
  8
0
 10
108.147
 20
175.035
 11
108.47
 21
175.075
  0
LINE
  8
0
 10
108.47
 20
175.075
 11
108.795
 21
175.047
  0
LINE
  8
0
 10
108.795
 20
175.047
 11
109.107
 21
174.953
  0
LINE
  8
0
 10
109.107
 20
174.953
 11
109.393
 21
174.797
  0
LINE
  8
0
 10
109.393
 20
174.797
 11
109.641
 21
174.585
  0
LINE
  8
0
 10
109.641
 20
174.585
 11
109.84
 21
174.327
  0
LINE
  8
0
 10
109.84
 20
174.327
 11
109.982
 21
174.034
  0
LINE
  8
0
 10
109.982
 20
174.034
 11
110.06
 21
173.717
  0
LINE
  8
0
 10
110.06
 20
173.717
 11
110.071
 21
173.391
  0
LINE
  8
0
 10
110.071
 20
173.391
 11
110.015
 21
173.07
  0
LINE
  8
0
 10
110.015
 20
173.07
 11
109.894
 21
172.767
  0
LINE
  8
0
 10
109.894
 20
172.767
 11
109.714
 21
172.496
  0
LINE
  8
0
 10
109.714
 20
172.496
 11
109.481
 21
172.268
  0
LINE
  8
0
 10
109.481
 20
172.268
 11
109.206
 21
172.092
  0
LINE
  8
0
 10
109.206
 20
172.092
 11
108.901
 21
171.977
  0
LINE
  8
0
 10
108.901
 20
171.977
 11
108.805
 21
171.955
  0
LINE
  8
0
 10
108.805
 20
171.955
 11
108.48
 21
171.925
  0
LINE
  8
0
 10
108.48
 20
171.925
 11
108.156
 21
171.963
  0
LINE
  8
0
 10
193.156
 20
171.963
 11
192.847
 21
172.067
  0
LINE
  8
0
 10
192.847
 20
172.067
 11
192.566
 21
172.232
  0
LINE
  8
0
 10
192.566
 20
172.232
 11
192.325
 21
172.451
  0
LINE
  8
0
 10
192.325
 20
172.451
 11
192.134
 21
172.715
  0
LINE
  8
0
 10
192.134
 20
172.715
 11
192.002
 21
173.013
  0
LINE
  8
0
 10
192.002
 20
173.013
 11
191.934
 21
173.332
  0
LINE
  8
0
 10
191.934
 20
173.332
 11
191.933
 21
173.658
  0
LINE
  8
0
 10
191.933
 20
173.658
 11
191.999
 21
173.977
  0
LINE
  8
0
 10
191.999
 20
173.977
 11
192.129
 21
174.276
  0
LINE
  8
0
 10
192.129
 20
174.276
 11
192.319
 21
174.542
  0
LINE
  8
0
 10
192.319
 20
174.542
 11
192.558
 21
174.762
  0
LINE
  8
0
 10
192.558
 20
174.762
 11
192.838
 21
174.929
  0
LINE
  8
0
 10
192.838
 20
174.929
 11
193.147
 21
175.035
  0
LINE
  8
0
 10
193.147
 20
175.035
 11
193.47
 21
175.075
  0
LINE
  8
0
 10
193.47
 20
175.075
 11
193.795
 21
175.047
  0
LINE
  8
0
 10
193.795
 20
175.047
 11
194.107
 21
174.953
  0
LINE
  8
0
 10
194.107
 20
174.953
 11
194.393
 21
174.797
  0
LINE
  8
0
 10
194.393
 20
174.797
 11
194.641
 21
174.585
  0
LINE
  8
0
 10
194.641
 20
174.585
 11
194.84
 21
174.327
  0
LINE
  8
0
 10
194.84
 20
174.327
 11
194.982
 21
174.034
  0
LINE
  8
0
 10
194.982
 20
174.034
 11
195.06
 21
173.717
  0
LINE
  8
0
 10
195.06
 20
173.717
 11
195.071
 21
173.391
  0
LINE
  8
0
 10
195.071
 20
173.391
 11
195.015
 21
173.07
  0
LINE
  8
0
 10
195.015
 20
173.07
 11
194.894
 21
172.767
  0
LINE
  8
0
 10
194.894
 20
172.767
 11
194.714
 21
172.496
  0
LINE
  8
0
 10
194.714
 20
172.496
 11
194.481
 21
172.268
  0
LINE
  8
0
 10
194.481
 20
172.268
 11
194.206
 21
172.092
  0
LINE
  8
0
 10
194.206
 20
172.092
 11
193.901
 21
171.977
  0
LINE
  8
0
 10
193.901
 20
171.977
 11
193.805
 21
171.955
  0
LINE
  8
0
 10
193.805
 20
171.955
 11
193.48
 21
171.925
  0
LINE
  8
0
 10
193.48
 20
171.925
 11
193.156
 21
171.963
  0
LINE
  8
0
 10
193.156
 20
156.963
 11
192.847
 21
157.067
  0
LINE
  8
0
 10
192.847
 20
157.067
 11
192.566
 21
157.232
  0
LINE
  8
0
 10
192.566
 20
157.232
 11
192.325
 21
157.451
  0
LINE
  8
0
 10
192.325
 20
157.451
 11
192.134
 21
157.715
  0
LINE
  8
0
 10
192.134
 20
157.715
 11
192.002
 21
158.013
  0
LINE
  8
0
 10
192.002
 20
158.013
 11
191.934
 21
158.332
  0
LINE
  8
0
 10
191.934
 20
158.332
 11
191.933
 21
158.658
  0
LINE
  8
0
 10
191.933
 20
158.658
 11
191.999
 21
158.977
  0
LINE
  8
0
 10
191.999
 20
158.977
 11
192.129
 21
159.276
  0
LINE
  8
0
 10
192.129
 20
159.276
 11
192.319
 21
159.542
  0
LINE
  8
0
 10
192.319
 20
159.542
 11
192.558
 21
159.762
  0
LINE
  8
0
 10
192.558
 20
159.762
 11
192.838
 21
159.929
  0
LINE
  8
0
 10
192.838
 20
159.929
 11
193.147
 21
160.035
  0
LINE
  8
0
 10
193.147
 20
160.035
 11
193.47
 21
160.075
  0
LINE
  8
0
 10
193.47
 20
160.075
 11
193.795
 21
160.047
  0
LINE
  8
0
 10
193.795
 20
160.047
 11
194.107
 21
159.953
  0
LINE
  8
0
 10
194.107
 20
159.953
 11
194.393
 21
159.797
  0
LINE
  8
0
 10
194.393
 20
159.797
 11
194.641
 21
159.585
  0
LINE
  8
0
 10
194.641
 20
159.585
 11
194.84
 21
159.327
  0
LINE
  8
0
 10
194.84
 20
159.327
 11
194.982
 21
159.034
  0
LINE
  8
0
 10
194.982
 20
159.034
 11
195.06
 21
158.717
  0
LINE
  8
0
 10
195.06
 20
158.717
 11
195.071
 21
158.391
  0
LINE
  8
0
 10
195.071
 20
158.391
 11
195.015
 21
158.07
  0
LINE
  8
0
 10
195.015
 20
158.07
 11
194.894
 21
157.767
  0
LINE
  8
0
 10
194.894
 20
157.767
 11
194.714
 21
157.496
  0
LINE
  8
0
 10
194.714
 20
157.496
 11
194.481
 21
157.268
  0
LINE
  8
0
 10
194.481
 20
157.268
 11
194.206
 21
157.092
  0
LINE
  8
0
 10
194.206
 20
157.092
 11
193.901
 21
156.977
  0
LINE
  8
0
 10
193.901
 20
156.977
 11
193.805
 21
156.955
  0
LINE
  8
0
 10
193.805
 20
156.955
 11
193.48
 21
156.925
  0
LINE
  8
0
 10
193.48
 20
156.925
 11
193.156
 21
156.963
  0
LINE
  8
0
 10
108.156
 20
156.963
 11
107.847
 21
157.067
  0
LINE
  8
0
 10
107.847
 20
157.067
 11
107.566
 21
157.232
  0
LINE
  8
0
 10
107.566
 20
157.232
 11
107.325
 21
157.451
  0
LINE
  8
0
 10
107.325
 20
157.451
 11
107.134
 21
157.715
  0
LINE
  8
0
 10
107.134
 20
157.715
 11
107.002
 21
158.013
  0
LINE
  8
0
 10
107.002
 20
158.013
 11
106.934
 21
158.332
  0
LINE
  8
0
 10
106.934
 20
158.332
 11
106.933
 21
158.658
  0
LINE
  8
0
 10
106.933
 20
158.658
 11
106.999
 21
158.977
  0
LINE
  8
0
 10
106.999
 20
158.977
 11
107.129
 21
159.276
  0
LINE
  8
0
 10
107.129
 20
159.276
 11
107.319
 21
159.542
  0
LINE
  8
0
 10
107.319
 20
159.542
 11
107.558
 21
159.762
  0
LINE
  8
0
 10
107.558
 20
159.762
 11
107.838
 21
159.929
  0
LINE
  8
0
 10
107.838
 20
159.929
 11
108.147
 21
160.035
  0
LINE
  8
0
 10
108.147
 20
160.035
 11
108.47
 21
160.075
  0
LINE
  8
0
 10
108.47
 20
160.075
 11
108.795
 21
160.047
  0
LINE
  8
0
 10
108.795
 20
160.047
 11
109.107
 21
159.953
  0
LINE
  8
0
 10
109.107
 20
159.953
 11
109.393
 21
159.797
  0
LINE
  8
0
 10
109.393
 20
159.797
 11
109.641
 21
159.585
  0
LINE
  8
0
 10
109.641
 20
159.585
 11
109.84
 21
159.327
  0
LINE
  8
0
 10
109.84
 20
159.327
 11
109.982
 21
159.034
  0
LINE
  8
0
 10
109.982
 20
159.034
 11
110.06
 21
158.717
  0
LINE
  8
0
 10
110.06
 20
158.717
 11
110.071
 21
158.391
  0
LINE
  8
0
 10
110.071
 20
158.391
 11
110.015
 21
158.07
  0
LINE
  8
0
 10
110.015
 20
158.07
 11
109.894
 21
157.767
  0
LINE
  8
0
 10
109.894
 20
157.767
 11
109.714
 21
157.496
  0
LINE
  8
0
 10
109.714
 20
157.496
 11
109.481
 21
157.268
  0
LINE
  8
0
 10
109.481
 20
157.268
 11
109.206
 21
157.092
  0
LINE
  8
0
 10
109.206
 20
157.092
 11
108.901
 21
156.977
  0
LINE
  8
0
 10
108.901
 20
156.977
 11
108.805
 21
156.955
  0
LINE
  8
0
 10
108.805
 20
156.955
 11
108.48
 21
156.925
  0
LINE
  8
0
 10
108.48
 20
156.925
 11
108.156
 21
156.963
  0
LINE
  8
0
 10
159.156
 20
154.463
 11
158.847
 21
154.567
  0
LINE
  8
0
 10
158.847
 20
154.567
 11
158.566
 21
154.732
  0
LINE
  8
0
 10
158.566
 20
154.732
 11
158.325
 21
154.951
  0
LINE
  8
0
 10
158.325
 20
154.951
 11
158.134
 21
155.215
  0
LINE
  8
0
 10
158.134
 20
155.215
 11
158.002
 21
155.513
  0
LINE
  8
0
 10
158.002
 20
155.513
 11
157.934
 21
155.832
  0
LINE
  8
0
 10
157.934
 20
155.832
 11
157.933
 21
156.158
  0
LINE
  8
0
 10
157.933
 20
156.158
 11
157.999
 21
156.477
  0
LINE
  8
0
 10
157.999
 20
156.477
 11
158.129
 21
156.776
  0
LINE
  8
0
 10
158.129
 20
156.776
 11
158.319
 21
157.042
  0
LINE
  8
0
 10
158.319
 20
157.042
 11
158.558
 21
157.262
  0
LINE
  8
0
 10
158.558
 20
157.262
 11
158.838
 21
157.429
  0
LINE
  8
0
 10
158.838
 20
157.429
 11
159.147
 21
157.535
  0
LINE
  8
0
 10
159.147
 20
157.535
 11
159.47
 21
157.575
  0
LINE
  8
0
 10
159.47
 20
157.575
 11
159.795
 21
157.547
  0
LINE
  8
0
 10
159.795
 20
157.547
 11
160.107
 21
157.453
  0
LINE
  8
0
 10
160.107
 20
157.453
 11
160.393
 21
157.297
  0
LINE
  8
0
 10
160.393
 20
157.297
 11
160.641
 21
157.085
  0
LINE
  8
0
 10
160.641
 20
157.085
 11
160.84
 21
156.827
  0
LINE
  8
0
 10
160.84
 20
156.827
 11
160.982
 21
156.534
  0
LINE
  8
0
 10
160.982
 20
156.534
 11
161.06
 21
156.217
  0
LINE
  8
0
 10
161.06
 20
156.217
 11
161.071
 21
155.891
  0
LINE
  8
0
 10
161.071
 20
155.891
 11
161.015
 21
155.57
  0
LINE
  8
0
 10
161.015
 20
155.57
 11
160.894
 21
155.267
  0
LINE
  8
0
 10
160.894
 20
155.267
 11
160.714
 21
154.996
  0
LINE
  8
0
 10
160.714
 20
154.996
 11
160.481
 21
154.768
  0
LINE
  8
0
 10
160.481
 20
154.768
 11
160.206
 21
154.592
  0
LINE
  8
0
 10
160.206
 20
154.592
 11
159.901
 21
154.477
  0
LINE
  8
0
 10
159.901
 20
154.477
 11
159.805
 21
154.455
  0
LINE
  8
0
 10
159.805
 20
154.455
 11
159.48
 21
154.425
  0
LINE
  8
0
 10
159.48
 20
154.425
 11
159.156
 21
154.463
  0
LINE
  8
0
 10
174.156
 20
154.463
 11
173.847
 21
154.567
  0
LINE
  8
0
 10
173.847
 20
154.567
 11
173.566
 21
154.732
  0
LINE
  8
0
 10
173.566
 20
154.732
 11
173.325
 21
154.951
  0
LINE
  8
0
 10
173.325
 20
154.951
 11
173.134
 21
155.215
  0
LINE
  8
0
 10
173.134
 20
155.215
 11
173.002
 21
155.513
  0
LINE
  8
0
 10
173.002
 20
155.513
 11
172.934
 21
155.832
  0
LINE
  8
0
 10
172.934
 20
155.832
 11
172.933
 21
156.158
  0
LINE
  8
0
 10
172.933
 20
156.158
 11
172.999
 21
156.477
  0
LINE
  8
0
 10
172.999
 20
156.477
 11
173.129
 21
156.776
  0
LINE
  8
0
 10
173.129
 20
156.776
 11
173.319
 21
157.042
  0
LINE
  8
0
 10
173.319
 20
157.042
 11
173.558
 21
157.262
  0
LINE
  8
0
 10
173.558
 20
157.262
 11
173.838
 21
157.429
  0
LINE
  8
0
 10
173.838
 20
157.429
 11
174.147
 21
157.535
  0
LINE
  8
0
 10
174.147
 20
157.535
 11
174.47
 21
157.575
  0
LINE
  8
0
 10
174.47
 20
157.575
 11
174.795
 21
157.547
  0
LINE
  8
0
 10
174.795
 20
157.547
 11
175.107
 21
157.453
  0
LINE
  8
0
 10
175.107
 20
157.453
 11
175.393
 21
157.297
  0
LINE
  8
0
 10
175.393
 20
157.297
 11
175.641
 21
157.085
  0
LINE
  8
0
 10
175.641
 20
157.085
 11
175.84
 21
156.827
  0
LINE
  8
0
 10
175.84
 20
156.827
 11
175.982
 21
156.534
  0
LINE
  8
0
 10
175.982
 20
156.534
 11
176.06
 21
156.217
  0
LINE
  8
0
 10
176.06
 20
156.217
 11
176.071
 21
155.891
  0
LINE
  8
0
 10
176.071
 20
155.891
 11
176.015
 21
155.57
  0
LINE
  8
0
 10
176.015
 20
155.57
 11
175.894
 21
155.267
  0
LINE
  8
0
 10
175.894
 20
155.267
 11
175.714
 21
154.996
  0
LINE
  8
0
 10
175.714
 20
154.996
 11
175.481
 21
154.768
  0
LINE
  8
0
 10
175.481
 20
154.768
 11
175.206
 21
154.592
  0
LINE
  8
0
 10
175.206
 20
154.592
 11
174.901
 21
154.477
  0
LINE
  8
0
 10
174.901
 20
154.477
 11
174.805
 21
154.455
  0
LINE
  8
0
 10
174.805
 20
154.455
 11
174.48
 21
154.425
  0
LINE
  8
0
 10
174.48
 20
154.425
 11
174.156
 21
154.463
  0
LINE
  8
0
 10
126.895
 20
148.45
 11
126.578
 21
148.514
  0
LINE
  8
0
 10
126.578
 20
148.514
 11
126.272
 21
148.618
  0
LINE
  8
0
 10
126.272
 20
148.618
 11
125.981
 21
148.759
  0
LINE
  8
0
 10
125.981
 20
148.759
 11
125.71
 21
148.936
  0
LINE
  8
0
 10
125.71
 20
148.936
 11
125.464
 21
149.145
  0
LINE
  8
0
 10
125.464
 20
149.145
 11
125.245
 21
149.384
  0
LINE
  8
0
 10
125.245
 20
149.384
 11
125.059
 21
149.648
  0
LINE
  8
0
 10
125.059
 20
149.648
 11
124.906
 21
149.933
  0
LINE
  8
0
 10
124.906
 20
149.933
 11
124.791
 21
150.235
  0
LINE
  8
0
 10
124.791
 20
150.235
 11
124.715
 21
150.549
  0
LINE
  8
0
 10
124.715
 20
150.549
 11
124.678
 21
150.871
  0
LINE
  8
0
 10
124.678
 20
150.871
 11
124.682
 21
151.194
  0
LINE
  8
0
 10
124.682
 20
151.194
 11
124.727
 21
151.514
  0
LINE
  8
0
 10
124.727
 20
151.514
 11
124.811
 21
151.826
  0
LINE
  8
0
 10
124.811
 20
151.826
 11
124.934
 21
152.126
  0
LINE
  8
0
 10
124.934
 20
152.126
 11
125.093
 21
152.407
  0
LINE
  8
0
 10
125.093
 20
152.407
 11
125.287
 21
152.666
  0
LINE
  8
0
 10
125.287
 20
152.666
 11
125.511
 21
152.899
  0
LINE
  8
0
 10
125.511
 20
152.899
 11
125.763
 21
153.102
  0
LINE
  8
0
 10
125.763
 20
153.102
 11
126.038
 21
153.272
  0
LINE
  8
0
 10
126.038
 20
153.272
 11
126.332
 21
153.406
  0
LINE
  8
0
 10
126.332
 20
153.406
 11
126.641
 21
153.502
  0
LINE
  8
0
 10
126.641
 20
153.502
 11
126.959
 21
153.559
  0
LINE
  8
0
 10
126.959
 20
153.559
 11
127.282
 21
153.575
  0
LINE
  8
0
 10
127.282
 20
153.575
 11
127.605
 21
153.55
  0
LINE
  8
0
 10
127.605
 20
153.55
 11
127.922
 21
153.486
  0
LINE
  8
0
 10
127.922
 20
153.486
 11
128.228
 21
153.382
  0
LINE
  8
0
 10
128.228
 20
153.382
 11
128.519
 21
153.241
  0
LINE
  8
0
 10
128.519
 20
153.241
 11
128.79
 21
153.064
  0
LINE
  8
0
 10
128.79
 20
153.064
 11
129.036
 21
152.855
  0
LINE
  8
0
 10
129.036
 20
152.855
 11
129.255
 21
152.616
  0
LINE
  8
0
 10
129.255
 20
152.616
 11
129.441
 21
152.352
  0
LINE
  8
0
 10
129.441
 20
152.352
 11
129.594
 21
152.067
  0
LINE
  8
0
 10
129.594
 20
152.067
 11
129.709
 21
151.765
  0
LINE
  8
0
 10
129.709
 20
151.765
 11
129.785
 21
151.451
  0
LINE
  8
0
 10
129.785
 20
151.451
 11
129.822
 21
151.129
  0
LINE
  8
0
 10
129.822
 20
151.129
 11
129.818
 21
150.806
  0
LINE
  8
0
 10
129.818
 20
150.806
 11
129.773
 21
150.486
  0
LINE
  8
0
 10
129.773
 20
150.486
 11
129.689
 21
150.174
  0
LINE
  8
0
 10
129.689
 20
150.174
 11
129.566
 21
149.874
  0
LINE
  8
0
 10
129.566
 20
149.874
 11
129.407
 21
149.593
  0
LINE
  8
0
 10
129.407
 20
149.593
 11
129.213
 21
149.334
  0
LINE
  8
0
 10
129.213
 20
149.334
 11
128.989
 21
149.101
  0
LINE
  8
0
 10
128.989
 20
149.101
 11
128.737
 21
148.898
  0
LINE
  8
0
 10
128.737
 20
148.898
 11
128.462
 21
148.728
  0
LINE
  8
0
 10
128.462
 20
148.728
 11
128.168
 21
148.594
  0
LINE
  8
0
 10
128.168
 20
148.594
 11
127.859
 21
148.498
  0
LINE
  8
0
 10
127.859
 20
148.498
 11
127.541
 21
148.441
  0
LINE
  8
0
 10
127.541
 20
148.441
 11
127.218
 21
148.425
  0
LINE
  8
0
 10
127.218
 20
148.425
 11
126.895
 21
148.45
  0
LINE
  8
0
 10
146.895
 20
148.45
 11
146.578
 21
148.514
  0
LINE
  8
0
 10
146.578
 20
148.514
 11
146.272
 21
148.618
  0
LINE
  8
0
 10
146.272
 20
148.618
 11
145.981
 21
148.759
  0
LINE
  8
0
 10
145.981
 20
148.759
 11
145.71
 21
148.936
  0
LINE
  8
0
 10
145.71
 20
148.936
 11
145.464
 21
149.145
  0
LINE
  8
0
 10
145.464
 20
149.145
 11
145.245
 21
149.384
  0
LINE
  8
0
 10
145.245
 20
149.384
 11
145.059
 21
149.648
  0
LINE
  8
0
 10
145.059
 20
149.648
 11
144.906
 21
149.933
  0
LINE
  8
0
 10
144.906
 20
149.933
 11
144.791
 21
150.235
  0
LINE
  8
0
 10
144.791
 20
150.235
 11
144.715
 21
150.549
  0
LINE
  8
0
 10
144.715
 20
150.549
 11
144.678
 21
150.871
  0
LINE
  8
0
 10
144.678
 20
150.871
 11
144.682
 21
151.194
  0
LINE
  8
0
 10
144.682
 20
151.194
 11
144.727
 21
151.514
  0
LINE
  8
0
 10
144.727
 20
151.514
 11
144.811
 21
151.826
  0
LINE
  8
0
 10
144.811
 20
151.826
 11
144.934
 21
152.126
  0
LINE
  8
0
 10
144.934
 20
152.126
 11
145.093
 21
152.407
  0
LINE
  8
0
 10
145.093
 20
152.407
 11
145.287
 21
152.666
  0
LINE
  8
0
 10
145.287
 20
152.666
 11
145.511
 21
152.899
  0
LINE
  8
0
 10
145.511
 20
152.899
 11
145.763
 21
153.102
  0
LINE
  8
0
 10
145.763
 20
153.102
 11
146.038
 21
153.272
  0
LINE
  8
0
 10
146.038
 20
153.272
 11
146.332
 21
153.406
  0
LINE
  8
0
 10
146.332
 20
153.406
 11
146.641
 21
153.502
  0
LINE
  8
0
 10
146.641
 20
153.502
 11
146.959
 21
153.559
  0
LINE
  8
0
 10
146.959
 20
153.559
 11
147.282
 21
153.575
  0
LINE
  8
0
 10
147.282
 20
153.575
 11
147.605
 21
153.55
  0
LINE
  8
0
 10
147.605
 20
153.55
 11
147.922
 21
153.486
  0
LINE
  8
0
 10
147.922
 20
153.486
 11
148.228
 21
153.382
  0
LINE
  8
0
 10
148.228
 20
153.382
 11
148.519
 21
153.241
  0
LINE
  8
0
 10
148.519
 20
153.241
 11
148.79
 21
153.064
  0
LINE
  8
0
 10
148.79
 20
153.064
 11
149.036
 21
152.855
  0
LINE
  8
0
 10
149.036
 20
152.855
 11
149.255
 21
152.616
  0
LINE
  8
0
 10
149.255
 20
152.616
 11
149.441
 21
152.352
  0
LINE
  8
0
 10
149.441
 20
152.352
 11
149.594
 21
152.067
  0
LINE
  8
0
 10
149.594
 20
152.067
 11
149.709
 21
151.765
  0
LINE
  8
0
 10
149.709
 20
151.765
 11
149.785
 21
151.451
  0
LINE
  8
0
 10
149.785
 20
151.451
 11
149.822
 21
151.129
  0
LINE
  8
0
 10
149.822
 20
151.129
 11
149.818
 21
150.806
  0
LINE
  8
0
 10
149.818
 20
150.806
 11
149.773
 21
150.486
  0
LINE
  8
0
 10
149.773
 20
150.486
 11
149.689
 21
150.174
  0
LINE
  8
0
 10
149.689
 20
150.174
 11
149.566
 21
149.874
  0
LINE
  8
0
 10
149.566
 20
149.874
 11
149.407
 21
149.593
  0
LINE
  8
0
 10
149.407
 20
149.593
 11
149.213
 21
149.334
  0
LINE
  8
0
 10
149.213
 20
149.334
 11
148.989
 21
149.101
  0
LINE
  8
0
 10
148.989
 20
149.101
 11
148.737
 21
148.898
  0
LINE
  8
0
 10
148.737
 20
148.898
 11
148.462
 21
148.728
  0
LINE
  8
0
 10
148.462
 20
148.728
 11
148.168
 21
148.594
  0
LINE
  8
0
 10
148.168
 20
148.594
 11
147.859
 21
148.498
  0
LINE
  8
0
 10
147.859
 20
148.498
 11
147.541
 21
148.441
  0
LINE
  8
0
 10
147.541
 20
148.441
 11
147.218
 21
148.425
  0
LINE
  8
0
 10
147.218
 20
148.425
 11
146.895
 21
148.45
  0
LINE
  8
0
 10
174.156
 20
144.463
 11
173.847
 21
144.567
  0
LINE
  8
0
 10
173.847
 20
144.567
 11
173.566
 21
144.732
  0
LINE
  8
0
 10
173.566
 20
144.732
 11
173.325
 21
144.951
  0
LINE
  8
0
 10
173.325
 20
144.951
 11
173.134
 21
145.215
  0
LINE
  8
0
 10
173.134
 20
145.215
 11
173.002
 21
145.513
  0
LINE
  8
0
 10
173.002
 20
145.513
 11
172.934
 21
145.832
  0
LINE
  8
0
 10
172.934
 20
145.832
 11
172.933
 21
146.158
  0
LINE
  8
0
 10
172.933
 20
146.158
 11
172.999
 21
146.477
  0
LINE
  8
0
 10
172.999
 20
146.477
 11
173.129
 21
146.776
  0
LINE
  8
0
 10
173.129
 20
146.776
 11
173.319
 21
147.042
  0
LINE
  8
0
 10
173.319
 20
147.042
 11
173.558
 21
147.262
  0
LINE
  8
0
 10
173.558
 20
147.262
 11
173.838
 21
147.429
  0
LINE
  8
0
 10
173.838
 20
147.429
 11
174.147
 21
147.535
  0
LINE
  8
0
 10
174.147
 20
147.535
 11
174.47
 21
147.575
  0
LINE
  8
0
 10
174.47
 20
147.575
 11
174.795
 21
147.547
  0
LINE
  8
0
 10
174.795
 20
147.547
 11
175.107
 21
147.453
  0
LINE
  8
0
 10
175.107
 20
147.453
 11
175.393
 21
147.297
  0
LINE
  8
0
 10
175.393
 20
147.297
 11
175.641
 21
147.085
  0
LINE
  8
0
 10
175.641
 20
147.085
 11
175.84
 21
146.827
  0
LINE
  8
0
 10
175.84
 20
146.827
 11
175.982
 21
146.534
  0
LINE
  8
0
 10
175.982
 20
146.534
 11
176.06
 21
146.217
  0
LINE
  8
0
 10
176.06
 20
146.217
 11
176.071
 21
145.891
  0
LINE
  8
0
 10
176.071
 20
145.891
 11
176.015
 21
145.57
  0
LINE
  8
0
 10
176.015
 20
145.57
 11
175.894
 21
145.267
  0
LINE
  8
0
 10
175.894
 20
145.267
 11
175.714
 21
144.996
  0
LINE
  8
0
 10
175.714
 20
144.996
 11
175.481
 21
144.768
  0
LINE
  8
0
 10
175.481
 20
144.768
 11
175.206
 21
144.592
  0
LINE
  8
0
 10
175.206
 20
144.592
 11
174.901
 21
144.477
  0
LINE
  8
0
 10
174.901
 20
144.477
 11
174.805
 21
144.455
  0
LINE
  8
0
 10
174.805
 20
144.455
 11
174.48
 21
144.425
  0
LINE
  8
0
 10
174.48
 20
144.425
 11
174.156
 21
144.463
  0
LINE
  8
0
 10
159.156
 20
144.463
 11
158.847
 21
144.567
  0
LINE
  8
0
 10
158.847
 20
144.567
 11
158.566
 21
144.732
  0
LINE
  8
0
 10
158.566
 20
144.732
 11
158.325
 21
144.951
  0
LINE
  8
0
 10
158.325
 20
144.951
 11
158.134
 21
145.215
  0
LINE
  8
0
 10
158.134
 20
145.215
 11
158.002
 21
145.513
  0
LINE
  8
0
 10
158.002
 20
145.513
 11
157.934
 21
145.832
  0
LINE
  8
0
 10
157.934
 20
145.832
 11
157.933
 21
146.158
  0
LINE
  8
0
 10
157.933
 20
146.158
 11
157.999
 21
146.477
  0
LINE
  8
0
 10
157.999
 20
146.477
 11
158.129
 21
146.776
  0
LINE
  8
0
 10
158.129
 20
146.776
 11
158.319
 21
147.042
  0
LINE
  8
0
 10
158.319
 20
147.042
 11
158.558
 21
147.262
  0
LINE
  8
0
 10
158.558
 20
147.262
 11
158.838
 21
147.429
  0
LINE
  8
0
 10
158.838
 20
147.429
 11
159.147
 21
147.535
  0
LINE
  8
0
 10
159.147
 20
147.535
 11
159.47
 21
147.575
  0
LINE
  8
0
 10
159.47
 20
147.575
 11
159.795
 21
147.547
  0
LINE
  8
0
 10
159.795
 20
147.547
 11
160.107
 21
147.453
  0
LINE
  8
0
 10
160.107
 20
147.453
 11
160.393
 21
147.297
  0
LINE
  8
0
 10
160.393
 20
147.297
 11
160.641
 21
147.085
  0
LINE
  8
0
 10
160.641
 20
147.085
 11
160.84
 21
146.827
  0
LINE
  8
0
 10
160.84
 20
146.827
 11
160.982
 21
146.534
  0
LINE
  8
0
 10
160.982
 20
146.534
 11
161.06
 21
146.217
  0
LINE
  8
0
 10
161.06
 20
146.217
 11
161.071
 21
145.891
  0
LINE
  8
0
 10
161.071
 20
145.891
 11
161.015
 21
145.57
  0
LINE
  8
0
 10
161.015
 20
145.57
 11
160.894
 21
145.267
  0
LINE
  8
0
 10
160.894
 20
145.267
 11
160.714
 21
144.996
  0
LINE
  8
0
 10
160.714
 20
144.996
 11
160.481
 21
144.768
  0
LINE
  8
0
 10
160.481
 20
144.768
 11
160.206
 21
144.592
  0
LINE
  8
0
 10
160.206
 20
144.592
 11
159.901
 21
144.477
  0
LINE
  8
0
 10
159.901
 20
144.477
 11
159.805
 21
144.455
  0
LINE
  8
0
 10
159.805
 20
144.455
 11
159.48
 21
144.425
  0
LINE
  8
0
 10
159.48
 20
144.425
 11
159.156
 21
144.463
  0
LINE
  8
0
 10
108.156
 20
141.963
 11
107.847
 21
142.067
  0
LINE
  8
0
 10
107.847
 20
142.067
 11
107.566
 21
142.232
  0
LINE
  8
0
 10
107.566
 20
142.232
 11
107.325
 21
142.451
  0
LINE
  8
0
 10
107.325
 20
142.451
 11
107.134
 21
142.715
  0
LINE
  8
0
 10
107.134
 20
142.715
 11
107.002
 21
143.013
  0
LINE
  8
0
 10
107.002
 20
143.013
 11
106.934
 21
143.332
  0
LINE
  8
0
 10
106.934
 20
143.332
 11
106.933
 21
143.658
  0
LINE
  8
0
 10
106.933
 20
143.658
 11
106.999
 21
143.977
  0
LINE
  8
0
 10
106.999
 20
143.977
 11
107.129
 21
144.276
  0
LINE
  8
0
 10
107.129
 20
144.276
 11
107.319
 21
144.542
  0
LINE
  8
0
 10
107.319
 20
144.542
 11
107.558
 21
144.762
  0
LINE
  8
0
 10
107.558
 20
144.762
 11
107.838
 21
144.929
  0
LINE
  8
0
 10
107.838
 20
144.929
 11
108.147
 21
145.035
  0
LINE
  8
0
 10
108.147
 20
145.035
 11
108.47
 21
145.075
  0
LINE
  8
0
 10
108.47
 20
145.075
 11
108.795
 21
145.047
  0
LINE
  8
0
 10
108.795
 20
145.047
 11
109.107
 21
144.953
  0
LINE
  8
0
 10
109.107
 20
144.953
 11
109.393
 21
144.797
  0
LINE
  8
0
 10
109.393
 20
144.797
 11
109.641
 21
144.585
  0
LINE
  8
0
 10
109.641
 20
144.585
 11
109.84
 21
144.327
  0
LINE
  8
0
 10
109.84
 20
144.327
 11
109.982
 21
144.034
  0
LINE
  8
0
 10
109.982
 20
144.034
 11
110.06
 21
143.717
  0
LINE
  8
0
 10
110.06
 20
143.717
 11
110.071
 21
143.391
  0
LINE
  8
0
 10
110.071
 20
143.391
 11
110.015
 21
143.07
  0
LINE
  8
0
 10
110.015
 20
143.07
 11
109.894
 21
142.767
  0
LINE
  8
0
 10
109.894
 20
142.767
 11
109.714
 21
142.496
  0
LINE
  8
0
 10
109.714
 20
142.496
 11
109.481
 21
142.268
  0
LINE
  8
0
 10
109.481
 20
142.268
 11
109.206
 21
142.092
  0
LINE
  8
0
 10
109.206
 20
142.092
 11
108.901
 21
141.977
  0
LINE
  8
0
 10
108.901
 20
141.977
 11
108.805
 21
141.955
  0
LINE
  8
0
 10
108.805
 20
141.955
 11
108.48
 21
141.925
  0
LINE
  8
0
 10
108.48
 20
141.925
 11
108.156
 21
141.963
  0
LINE
  8
0
 10
193.156
 20
141.963
 11
192.847
 21
142.067
  0
LINE
  8
0
 10
192.847
 20
142.067
 11
192.566
 21
142.232
  0
LINE
  8
0
 10
192.566
 20
142.232
 11
192.325
 21
142.451
  0
LINE
  8
0
 10
192.325
 20
142.451
 11
192.134
 21
142.715
  0
LINE
  8
0
 10
192.134
 20
142.715
 11
192.002
 21
143.013
  0
LINE
  8
0
 10
192.002
 20
143.013
 11
191.934
 21
143.332
  0
LINE
  8
0
 10
191.934
 20
143.332
 11
191.933
 21
143.658
  0
LINE
  8
0
 10
191.933
 20
143.658
 11
191.999
 21
143.977
  0
LINE
  8
0
 10
191.999
 20
143.977
 11
192.129
 21
144.276
  0
LINE
  8
0
 10
192.129
 20
144.276
 11
192.319
 21
144.542
  0
LINE
  8
0
 10
192.319
 20
144.542
 11
192.558
 21
144.762
  0
LINE
  8
0
 10
192.558
 20
144.762
 11
192.838
 21
144.929
  0
LINE
  8
0
 10
192.838
 20
144.929
 11
193.147
 21
145.035
  0
LINE
  8
0
 10
193.147
 20
145.035
 11
193.47
 21
145.075
  0
LINE
  8
0
 10
193.47
 20
145.075
 11
193.795
 21
145.047
  0
LINE
  8
0
 10
193.795
 20
145.047
 11
194.107
 21
144.953
  0
LINE
  8
0
 10
194.107
 20
144.953
 11
194.393
 21
144.797
  0
LINE
  8
0
 10
194.393
 20
144.797
 11
194.641
 21
144.585
  0
LINE
  8
0
 10
194.641
 20
144.585
 11
194.84
 21
144.327
  0
LINE
  8
0
 10
194.84
 20
144.327
 11
194.982
 21
144.034
  0
LINE
  8
0
 10
194.982
 20
144.034
 11
195.06
 21
143.717
  0
LINE
  8
0
 10
195.06
 20
143.717
 11
195.071
 21
143.391
  0
LINE
  8
0
 10
195.071
 20
143.391
 11
195.015
 21
143.07
  0
LINE
  8
0
 10
195.015
 20
143.07
 11
194.894
 21
142.767
  0
LINE
  8
0
 10
194.894
 20
142.767
 11
194.714
 21
142.496
  0
LINE
  8
0
 10
194.714
 20
142.496
 11
194.481
 21
142.268
  0
LINE
  8
0
 10
194.481
 20
142.268
 11
194.206
 21
142.092
  0
LINE
  8
0
 10
194.206
 20
142.092
 11
193.901
 21
141.977
  0
LINE
  8
0
 10
193.901
 20
141.977
 11
193.805
 21
141.955
  0
LINE
  8
0
 10
193.805
 20
141.955
 11
193.48
 21
141.925
  0
LINE
  8
0
 10
193.48
 20
141.925
 11
193.156
 21
141.963
  0
LINE
  8
0
 10
108.156
 20
126.963
 11
107.847
 21
127.067
  0
LINE
  8
0
 10
107.847
 20
127.067
 11
107.566
 21
127.232
  0
LINE
  8
0
 10
107.566
 20
127.232
 11
107.325
 21
127.451
  0
LINE
  8
0
 10
107.325
 20
127.451
 11
107.134
 21
127.715
  0
LINE
  8
0
 10
107.134
 20
127.715
 11
107.002
 21
128.013
  0
LINE
  8
0
 10
107.002
 20
128.013
 11
106.934
 21
128.332
  0
LINE
  8
0
 10
106.934
 20
128.332
 11
106.933
 21
128.658
  0
LINE
  8
0
 10
106.933
 20
128.658
 11
106.999
 21
128.977
  0
LINE
  8
0
 10
106.999
 20
128.977
 11
107.129
 21
129.276
  0
LINE
  8
0
 10
107.129
 20
129.276
 11
107.319
 21
129.542
  0
LINE
  8
0
 10
107.319
 20
129.542
 11
107.558
 21
129.762
  0
LINE
  8
0
 10
107.558
 20
129.762
 11
107.838
 21
129.929
  0
LINE
  8
0
 10
107.838
 20
129.929
 11
108.147
 21
130.035
  0
LINE
  8
0
 10
108.147
 20
130.035
 11
108.47
 21
130.075
  0
LINE
  8
0
 10
108.47
 20
130.075
 11
108.795
 21
130.047
  0
LINE
  8
0
 10
108.795
 20
130.047
 11
109.107
 21
129.953
  0
LINE
  8
0
 10
109.107
 20
129.953
 11
109.393
 21
129.797
  0
LINE
  8
0
 10
109.393
 20
129.797
 11
109.641
 21
129.585
  0
LINE
  8
0
 10
109.641
 20
129.585
 11
109.84
 21
129.327
  0
LINE
  8
0
 10
109.84
 20
129.327
 11
109.982
 21
129.034
  0
LINE
  8
0
 10
109.982
 20
129.034
 11
110.06
 21
128.717
  0
LINE
  8
0
 10
110.06
 20
128.717
 11
110.071
 21
128.391
  0
LINE
  8
0
 10
110.071
 20
128.391
 11
110.015
 21
128.07
  0
LINE
  8
0
 10
110.015
 20
128.07
 11
109.894
 21
127.767
  0
LINE
  8
0
 10
109.894
 20
127.767
 11
109.714
 21
127.496
  0
LINE
  8
0
 10
109.714
 20
127.496
 11
109.481
 21
127.268
  0
LINE
  8
0
 10
109.481
 20
127.268
 11
109.206
 21
127.092
  0
LINE
  8
0
 10
109.206
 20
127.092
 11
108.901
 21
126.977
  0
LINE
  8
0
 10
108.901
 20
126.977
 11
108.805
 21
126.955
  0
LINE
  8
0
 10
108.805
 20
126.955
 11
108.48
 21
126.925
  0
LINE
  8
0
 10
108.48
 20
126.925
 11
108.156
 21
126.963
  0
LINE
  8
0
 10
193.156
 20
126.963
 11
192.847
 21
127.067
  0
LINE
  8
0
 10
192.847
 20
127.067
 11
192.566
 21
127.232
  0
LINE
  8
0
 10
192.566
 20
127.232
 11
192.325
 21
127.451
  0
LINE
  8
0
 10
192.325
 20
127.451
 11
192.134
 21
127.715
  0
LINE
  8
0
 10
192.134
 20
127.715
 11
192.002
 21
128.013
  0
LINE
  8
0
 10
192.002
 20
128.013
 11
191.934
 21
128.332
  0
LINE
  8
0
 10
191.934
 20
128.332
 11
191.933
 21
128.658
  0
LINE
  8
0
 10
191.933
 20
128.658
 11
191.999
 21
128.977
  0
LINE
  8
0
 10
191.999
 20
128.977
 11
192.129
 21
129.276
  0
LINE
  8
0
 10
192.129
 20
129.276
 11
192.319
 21
129.542
  0
LINE
  8
0
 10
192.319
 20
129.542
 11
192.558
 21
129.762
  0
LINE
  8
0
 10
192.558
 20
129.762
 11
192.838
 21
129.929
  0
LINE
  8
0
 10
192.838
 20
129.929
 11
193.147
 21
130.035
  0
LINE
  8
0
 10
193.147
 20
130.035
 11
193.47
 21
130.075
  0
LINE
  8
0
 10
193.47
 20
130.075
 11
193.795
 21
130.047
  0
LINE
  8
0
 10
193.795
 20
130.047
 11
194.107
 21
129.953
  0
LINE
  8
0
 10
194.107
 20
129.953
 11
194.393
 21
129.797
  0
LINE
  8
0
 10
194.393
 20
129.797
 11
194.641
 21
129.585
  0
LINE
  8
0
 10
194.641
 20
129.585
 11
194.84
 21
129.327
  0
LINE
  8
0
 10
194.84
 20
129.327
 11
194.982
 21
129.034
  0
LINE
  8
0
 10
194.982
 20
129.034
 11
195.06
 21
128.717
  0
LINE
  8
0
 10
195.06
 20
128.717
 11
195.071
 21
128.391
  0
LINE
  8
0
 10
195.071
 20
128.391
 11
195.015
 21
128.07
  0
LINE
  8
0
 10
195.015
 20
128.07
 11
194.894
 21
127.767
  0
LINE
  8
0
 10
194.894
 20
127.767
 11
194.714
 21
127.496
  0
LINE
  8
0
 10
194.714
 20
127.496
 11
194.481
 21
127.268
  0
LINE
  8
0
 10
194.481
 20
127.268
 11
194.206
 21
127.092
  0
LINE
  8
0
 10
194.206
 20
127.092
 11
193.901
 21
126.977
  0
LINE
  8
0
 10
193.901
 20
126.977
 11
193.805
 21
126.955
  0
LINE
  8
0
 10
193.805
 20
126.955
 11
193.48
 21
126.925
  0
LINE
  8
0
 10
193.48
 20
126.925
 11
193.156
 21
126.963
  0
LINE
  8
0
 10
100
 20
201
 11
0
 21
201
  0
LINE
  8
0
 10
0
 20
201
 11
0
 21
101
  0
LINE
  8
0
 10
0
 20
101
 11
100
 21
101
  0
LINE
  8
0
 10
100
 20
101
 11
100
 21
201
  0
LINE
  8
0
 10
92.1564
 20
171.963
 11
91.8474
 21
172.067
  0
LINE
  8
0
 10
91.8474
 20
172.067
 11
91.5662
 21
172.232
  0
LINE
  8
0
 10
91.5662
 20
172.232
 11
91.3251
 21
172.451
  0
LINE
  8
0
 10
91.3251
 20
172.451
 11
91.1344
 21
172.715
  0
LINE
  8
0
 10
91.1344
 20
172.715
 11
91.0021
 21
173.013
  0
LINE
  8
0
 10
91.0021
 20
173.013
 11
90.934
 21
173.332
  0
LINE
  8
0
 10
90.934
 20
173.332
 11
90.9329
 21
173.658
  0
LINE
  8
0
 10
90.9329
 20
173.658
 11
90.9991
 21
173.977
  0
LINE
  8
0
 10
90.9991
 20
173.977
 11
91.1295
 21
174.276
  0
LINE
  8
0
 10
91.1295
 20
174.276
 11
91.3186
 21
174.542
  0
LINE
  8
0
 10
91.3186
 20
174.542
 11
91.5583
 21
174.762
  0
LINE
  8
0
 10
91.5583
 20
174.762
 11
91.8384
 21
174.929
  0
LINE
  8
0
 10
91.8384
 20
174.929
 11
92.1468
 21
175.035
  0
LINE
  8
0
 10
92.1468
 20
175.035
 11
92.4703
 21
175.075
  0
LINE
  8
0
 10
92.4703
 20
175.075
 11
92.7951
 21
175.047
  0
LINE
  8
0
 10
92.7951
 20
175.047
 11
93.1073
 21
174.953
  0
LINE
  8
0
 10
93.1073
 20
174.953
 11
93.3934
 21
174.797
  0
LINE
  8
0
 10
93.3934
 20
174.797
 11
93.6413
 21
174.585
  0
LINE
  8
0
 10
93.6413
 20
174.585
 11
93.8403
 21
174.327
  0
LINE
  8
0
 10
93.8403
 20
174.327
 11
93.9819
 21
174.034
  0
LINE
  8
0
 10
93.9819
 20
174.034
 11
94.06
 21
173.717
  0
LINE
  8
0
 10
94.06
 20
173.717
 11
94.0712
 21
173.391
  0
LINE
  8
0
 10
94.0712
 20
173.391
 11
94.0152
 21
173.07
  0
LINE
  8
0
 10
94.0152
 20
173.07
 11
93.8942
 21
172.767
  0
LINE
  8
0
 10
93.8942
 20
172.767
 11
93.7135
 21
172.496
  0
LINE
  8
0
 10
93.7135
 20
172.496
 11
93.4809
 21
172.268
  0
LINE
  8
0
 10
93.4809
 20
172.268
 11
93.2062
 21
172.092
  0
LINE
  8
0
 10
93.2062
 20
172.092
 11
92.9013
 21
171.977
  0
LINE
  8
0
 10
92.9013
 20
171.977
 11
92.8048
 21
171.955
  0
LINE
  8
0
 10
92.8048
 20
171.955
 11
92.4802
 21
171.925
  0
LINE
  8
0
 10
92.4802
 20
171.925
 11
92.1564
 21
171.963
  0
LINE
  8
0
 10
7.15642
 20
171.963
 11
6.84735
 21
172.067
  0
LINE
  8
0
 10
6.84735
 20
172.067
 11
6.56624
 21
172.232
  0
LINE
  8
0
 10
6.56624
 20
172.232
 11
6.32513
 21
172.451
  0
LINE
  8
0
 10
6.32513
 20
172.451
 11
6.13435
 21
172.715
  0
LINE
  8
0
 10
6.13435
 20
172.715
 11
6.00208
 21
173.013
  0
LINE
  8
0
 10
6.00208
 20
173.013
 11
5.93398
 21
173.332
  0
LINE
  8
0
 10
5.93398
 20
173.332
 11
5.93294
 21
173.658
  0
LINE
  8
0
 10
5.93294
 20
173.658
 11
5.99905
 21
173.977
  0
LINE
  8
0
 10
5.99905
 20
173.977
 11
6.12946
 21
174.276
  0
LINE
  8
0
 10
6.12946
 20
174.276
 11
6.31857
 21
174.542
  0
LINE
  8
0
 10
6.31857
 20
174.542
 11
6.55829
 21
174.762
  0
LINE
  8
0
 10
6.55829
 20
174.762
 11
6.83836
 21
174.929
  0
LINE
  8
0
 10
6.83836
 20
174.929
 11
7.14676
 21
175.035
  0
LINE
  8
0
 10
7.14676
 20
175.035
 11
7.47031
 21
175.075
  0
LINE
  8
0
 10
7.47031
 20
175.075
 11
7.79512
 21
175.047
  0
LINE
  8
0
 10
7.79512
 20
175.047
 11
8.10728
 21
174.953
  0
LINE
  8
0
 10
8.10728
 20
174.953
 11
8.39345
 21
174.797
  0
LINE
  8
0
 10
8.39345
 20
174.797
 11
8.64133
 21
174.585
  0
LINE
  8
0
 10
8.64133
 20
174.585
 11
8.8403
 21
174.327
  0
LINE
  8
0
 10
8.8403
 20
174.327
 11
8.98187
 21
174.034
  0
LINE
  8
0
 10
8.98187
 20
174.034
 11
9.05997
 21
173.717
  0
LINE
  8
0
 10
9.05997
 20
173.717
 11
9.07123
 21
173.391
  0
LINE
  8
0
 10
9.07123
 20
173.391
 11
9.01518
 21
173.07
  0
LINE
  8
0
 10
9.01518
 20
173.07
 11
8.89423
 21
172.767
  0
LINE
  8
0
 10
8.89423
 20
172.767
 11
8.71355
 21
172.496
  0
LINE
  8
0
 10
8.71355
 20
172.496
 11
8.48088
 21
172.268
  0
LINE
  8
0
 10
8.48088
 20
172.268
 11
8.20619
 21
172.092
  0
LINE
  8
0
 10
8.20619
 20
172.092
 11
7.90126
 21
171.977
  0
LINE
  8
0
 10
7.90126
 20
171.977
 11
7.80484
 21
171.955
  0
LINE
  8
0
 10
7.80484
 20
171.955
 11
7.48019
 21
171.925
  0
LINE
  8
0
 10
7.48019
 20
171.925
 11
7.15642
 21
171.963
  0
LINE
  8
0
 10
7.15642
 20
156.963
 11
6.84735
 21
157.067
  0
LINE
  8
0
 10
6.84735
 20
157.067
 11
6.56624
 21
157.232
  0
LINE
  8
0
 10
6.56624
 20
157.232
 11
6.32513
 21
157.451
  0
LINE
  8
0
 10
6.32513
 20
157.451
 11
6.13435
 21
157.715
  0
LINE
  8
0
 10
6.13435
 20
157.715
 11
6.00208
 21
158.013
  0
LINE
  8
0
 10
6.00208
 20
158.013
 11
5.93398
 21
158.332
  0
LINE
  8
0
 10
5.93398
 20
158.332
 11
5.93294
 21
158.658
  0
LINE
  8
0
 10
5.93294
 20
158.658
 11
5.99905
 21
158.977
  0
LINE
  8
0
 10
5.99905
 20
158.977
 11
6.12946
 21
159.276
  0
LINE
  8
0
 10
6.12946
 20
159.276
 11
6.31857
 21
159.542
  0
LINE
  8
0
 10
6.31857
 20
159.542
 11
6.55829
 21
159.762
  0
LINE
  8
0
 10
6.55829
 20
159.762
 11
6.83836
 21
159.929
  0
LINE
  8
0
 10
6.83836
 20
159.929
 11
7.14676
 21
160.035
  0
LINE
  8
0
 10
7.14676
 20
160.035
 11
7.47031
 21
160.075
  0
LINE
  8
0
 10
7.47031
 20
160.075
 11
7.79512
 21
160.047
  0
LINE
  8
0
 10
7.79512
 20
160.047
 11
8.10728
 21
159.953
  0
LINE
  8
0
 10
8.10728
 20
159.953
 11
8.39345
 21
159.797
  0
LINE
  8
0
 10
8.39345
 20
159.797
 11
8.64133
 21
159.585
  0
LINE
  8
0
 10
8.64133
 20
159.585
 11
8.8403
 21
159.327
  0
LINE
  8
0
 10
8.8403
 20
159.327
 11
8.98187
 21
159.034
  0
LINE
  8
0
 10
8.98187
 20
159.034
 11
9.05997
 21
158.717
  0
LINE
  8
0
 10
9.05997
 20
158.717
 11
9.07123
 21
158.391
  0
LINE
  8
0
 10
9.07123
 20
158.391
 11
9.01518
 21
158.07
  0
LINE
  8
0
 10
9.01518
 20
158.07
 11
8.89423
 21
157.767
  0
LINE
  8
0
 10
8.89423
 20
157.767
 11
8.71355
 21
157.496
  0
LINE
  8
0
 10
8.71355
 20
157.496
 11
8.48088
 21
157.268
  0
LINE
  8
0
 10
8.48088
 20
157.268
 11
8.20619
 21
157.092
  0
LINE
  8
0
 10
8.20619
 20
157.092
 11
7.90126
 21
156.977
  0
LINE
  8
0
 10
7.90126
 20
156.977
 11
7.80484
 21
156.955
  0
LINE
  8
0
 10
7.80484
 20
156.955
 11
7.48019
 21
156.925
  0
LINE
  8
0
 10
7.48019
 20
156.925
 11
7.15642
 21
156.963
  0
LINE
  8
0
 10
92.1564
 20
156.963
 11
91.8474
 21
157.067
  0
LINE
  8
0
 10
91.8474
 20
157.067
 11
91.5662
 21
157.232
  0
LINE
  8
0
 10
91.5662
 20
157.232
 11
91.3251
 21
157.451
  0
LINE
  8
0
 10
91.3251
 20
157.451
 11
91.1344
 21
157.715
  0
LINE
  8
0
 10
91.1344
 20
157.715
 11
91.0021
 21
158.013
  0
LINE
  8
0
 10
91.0021
 20
158.013
 11
90.934
 21
158.332
  0
LINE
  8
0
 10
90.934
 20
158.332
 11
90.9329
 21
158.658
  0
LINE
  8
0
 10
90.9329
 20
158.658
 11
90.9991
 21
158.977
  0
LINE
  8
0
 10
90.9991
 20
158.977
 11
91.1295
 21
159.276
  0
LINE
  8
0
 10
91.1295
 20
159.276
 11
91.3186
 21
159.542
  0
LINE
  8
0
 10
91.3186
 20
159.542
 11
91.5583
 21
159.762
  0
LINE
  8
0
 10
91.5583
 20
159.762
 11
91.8384
 21
159.929
  0
LINE
  8
0
 10
91.8384
 20
159.929
 11
92.1468
 21
160.035
  0
LINE
  8
0
 10
92.1468
 20
160.035
 11
92.4703
 21
160.075
  0
LINE
  8
0
 10
92.4703
 20
160.075
 11
92.7951
 21
160.047
  0
LINE
  8
0
 10
92.7951
 20
160.047
 11
93.1073
 21
159.953
  0
LINE
  8
0
 10
93.1073
 20
159.953
 11
93.3934
 21
159.797
  0
LINE
  8
0
 10
93.3934
 20
159.797
 11
93.6413
 21
159.585
  0
LINE
  8
0
 10
93.6413
 20
159.585
 11
93.8403
 21
159.327
  0
LINE
  8
0
 10
93.8403
 20
159.327
 11
93.9819
 21
159.034
  0
LINE
  8
0
 10
93.9819
 20
159.034
 11
94.06
 21
158.717
  0
LINE
  8
0
 10
94.06
 20
158.717
 11
94.0712
 21
158.391
  0
LINE
  8
0
 10
94.0712
 20
158.391
 11
94.0152
 21
158.07
  0
LINE
  8
0
 10
94.0152
 20
158.07
 11
93.8942
 21
157.767
  0
LINE
  8
0
 10
93.8942
 20
157.767
 11
93.7135
 21
157.496
  0
LINE
  8
0
 10
93.7135
 20
157.496
 11
93.4809
 21
157.268
  0
LINE
  8
0
 10
93.4809
 20
157.268
 11
93.2062
 21
157.092
  0
LINE
  8
0
 10
93.2062
 20
157.092
 11
92.9013
 21
156.977
  0
LINE
  8
0
 10
92.9013
 20
156.977
 11
92.8048
 21
156.955
  0
LINE
  8
0
 10
92.8048
 20
156.955
 11
92.4802
 21
156.925
  0
LINE
  8
0
 10
92.4802
 20
156.925
 11
92.1564
 21
156.963
  0
LINE
  8
0
 10
73.1564
 20
154.463
 11
72.8474
 21
154.567
  0
LINE
  8
0
 10
72.8474
 20
154.567
 11
72.5662
 21
154.732
  0
LINE
  8
0
 10
72.5662
 20
154.732
 11
72.3251
 21
154.951
  0
LINE
  8
0
 10
72.3251
 20
154.951
 11
72.1344
 21
155.215
  0
LINE
  8
0
 10
72.1344
 20
155.215
 11
72.0021
 21
155.513
  0
LINE
  8
0
 10
72.0021
 20
155.513
 11
71.934
 21
155.832
  0
LINE
  8
0
 10
71.934
 20
155.832
 11
71.9329
 21
156.158
  0
LINE
  8
0
 10
71.9329
 20
156.158
 11
71.9991
 21
156.477
  0
LINE
  8
0
 10
71.9991
 20
156.477
 11
72.1295
 21
156.776
  0
LINE
  8
0
 10
72.1295
 20
156.776
 11
72.3186
 21
157.042
  0
LINE
  8
0
 10
72.3186
 20
157.042
 11
72.5583
 21
157.262
  0
LINE
  8
0
 10
72.5583
 20
157.262
 11
72.8384
 21
157.429
  0
LINE
  8
0
 10
72.8384
 20
157.429
 11
73.1468
 21
157.535
  0
LINE
  8
0
 10
73.1468
 20
157.535
 11
73.4703
 21
157.575
  0
LINE
  8
0
 10
73.4703
 20
157.575
 11
73.7951
 21
157.547
  0
LINE
  8
0
 10
73.7951
 20
157.547
 11
74.1073
 21
157.453
  0
LINE
  8
0
 10
74.1073
 20
157.453
 11
74.3934
 21
157.297
  0
LINE
  8
0
 10
74.3934
 20
157.297
 11
74.6413
 21
157.085
  0
LINE
  8
0
 10
74.6413
 20
157.085
 11
74.8403
 21
156.827
  0
LINE
  8
0
 10
74.8403
 20
156.827
 11
74.9819
 21
156.534
  0
LINE
  8
0
 10
74.9819
 20
156.534
 11
75.06
 21
156.217
  0
LINE
  8
0
 10
75.06
 20
156.217
 11
75.0712
 21
155.891
  0
LINE
  8
0
 10
75.0712
 20
155.891
 11
75.0152
 21
155.57
  0
LINE
  8
0
 10
75.0152
 20
155.57
 11
74.8942
 21
155.267
  0
LINE
  8
0
 10
74.8942
 20
155.267
 11
74.7135
 21
154.996
  0
LINE
  8
0
 10
74.7135
 20
154.996
 11
74.4809
 21
154.768
  0
LINE
  8
0
 10
74.4809
 20
154.768
 11
74.2062
 21
154.592
  0
LINE
  8
0
 10
74.2062
 20
154.592
 11
73.9013
 21
154.477
  0
LINE
  8
0
 10
73.9013
 20
154.477
 11
73.8048
 21
154.455
  0
LINE
  8
0
 10
73.8048
 20
154.455
 11
73.4802
 21
154.425
  0
LINE
  8
0
 10
73.4802
 20
154.425
 11
73.1564
 21
154.463
  0
LINE
  8
0
 10
58.1564
 20
154.463
 11
57.8474
 21
154.567
  0
LINE
  8
0
 10
57.8474
 20
154.567
 11
57.5662
 21
154.732
  0
LINE
  8
0
 10
57.5662
 20
154.732
 11
57.3251
 21
154.951
  0
LINE
  8
0
 10
57.3251
 20
154.951
 11
57.1344
 21
155.215
  0
LINE
  8
0
 10
57.1344
 20
155.215
 11
57.0021
 21
155.513
  0
LINE
  8
0
 10
57.0021
 20
155.513
 11
56.934
 21
155.832
  0
LINE
  8
0
 10
56.934
 20
155.832
 11
56.9329
 21
156.158
  0
LINE
  8
0
 10
56.9329
 20
156.158
 11
56.9991
 21
156.477
  0
LINE
  8
0
 10
56.9991
 20
156.477
 11
57.1295
 21
156.776
  0
LINE
  8
0
 10
57.1295
 20
156.776
 11
57.3186
 21
157.042
  0
LINE
  8
0
 10
57.3186
 20
157.042
 11
57.5583
 21
157.262
  0
LINE
  8
0
 10
57.5583
 20
157.262
 11
57.8384
 21
157.429
  0
LINE
  8
0
 10
57.8384
 20
157.429
 11
58.1468
 21
157.535
  0
LINE
  8
0
 10
58.1468
 20
157.535
 11
58.4703
 21
157.575
  0
LINE
  8
0
 10
58.4703
 20
157.575
 11
58.7951
 21
157.547
  0
LINE
  8
0
 10
58.7951
 20
157.547
 11
59.1073
 21
157.453
  0
LINE
  8
0
 10
59.1073
 20
157.453
 11
59.3934
 21
157.297
  0
LINE
  8
0
 10
59.3934
 20
157.297
 11
59.6413
 21
157.085
  0
LINE
  8
0
 10
59.6413
 20
157.085
 11
59.8403
 21
156.827
  0
LINE
  8
0
 10
59.8403
 20
156.827
 11
59.9819
 21
156.534
  0
LINE
  8
0
 10
59.9819
 20
156.534
 11
60.06
 21
156.217
  0
LINE
  8
0
 10
60.06
 20
156.217
 11
60.0712
 21
155.891
  0
LINE
  8
0
 10
60.0712
 20
155.891
 11
60.0152
 21
155.57
  0
LINE
  8
0
 10
60.0152
 20
155.57
 11
59.8942
 21
155.267
  0
LINE
  8
0
 10
59.8942
 20
155.267
 11
59.7135
 21
154.996
  0
LINE
  8
0
 10
59.7135
 20
154.996
 11
59.4809
 21
154.768
  0
LINE
  8
0
 10
59.4809
 20
154.768
 11
59.2062
 21
154.592
  0
LINE
  8
0
 10
59.2062
 20
154.592
 11
58.9013
 21
154.477
  0
LINE
  8
0
 10
58.9013
 20
154.477
 11
58.8048
 21
154.455
  0
LINE
  8
0
 10
58.8048
 20
154.455
 11
58.4802
 21
154.425
  0
LINE
  8
0
 10
58.4802
 20
154.425
 11
58.1564
 21
154.463
  0
LINE
  8
0
 10
25.8952
 20
148.45
 11
25.5783
 21
148.514
  0
LINE
  8
0
 10
25.5783
 20
148.514
 11
25.2721
 21
148.618
  0
LINE
  8
0
 10
25.2721
 20
148.618
 11
24.9812
 21
148.759
  0
LINE
  8
0
 10
24.9812
 20
148.759
 11
24.7104
 21
148.936
  0
LINE
  8
0
 10
24.7104
 20
148.936
 11
24.4638
 21
149.145
  0
LINE
  8
0
 10
24.4638
 20
149.145
 11
24.2455
 21
149.384
  0
LINE
  8
0
 10
24.2455
 20
149.384
 11
24.0587
 21
149.648
  0
LINE
  8
0
 10
24.0587
 20
149.648
 11
23.9065
 21
149.933
  0
LINE
  8
0
 10
23.9065
 20
149.933
 11
23.7912
 21
150.235
  0
LINE
  8
0
 10
23.7912
 20
150.235
 11
23.7147
 21
150.549
  0
LINE
  8
0
 10
23.7147
 20
150.549
 11
23.6782
 21
150.871
  0
LINE
  8
0
 10
23.6782
 20
150.871
 11
23.6823
 21
151.194
  0
LINE
  8
0
 10
23.6823
 20
151.194
 11
23.7269
 21
151.514
  0
LINE
  8
0
 10
23.7269
 20
151.514
 11
23.8112
 21
151.826
  0
LINE
  8
0
 10
23.8112
 20
151.826
 11
23.934
 21
152.126
  0
LINE
  8
0
 10
23.934
 20
152.126
 11
24.0934
 21
152.407
  0
LINE
  8
0
 10
24.0934
 20
152.407
 11
24.2867
 21
152.666
  0
LINE
  8
0
 10
24.2867
 20
152.666
 11
24.511
 21
152.899
  0
LINE
  8
0
 10
24.511
 20
152.899
 11
24.7627
 21
153.102
  0
LINE
  8
0
 10
24.7627
 20
153.102
 11
25.0379
 21
153.272
  0
LINE
  8
0
 10
25.0379
 20
153.272
 11
25.3322
 21
153.406
  0
LINE
  8
0
 10
25.3322
 20
153.406
 11
25.641
 21
153.502
  0
LINE
  8
0
 10
25.641
 20
153.502
 11
25.9594
 21
153.559
  0
LINE
  8
0
 10
25.9594
 20
153.559
 11
26.2823
 21
153.575
  0
LINE
  8
0
 10
26.2823
 20
153.575
 11
26.6048
 21
153.55
  0
LINE
  8
0
 10
26.6048
 20
153.55
 11
26.9217
 21
153.486
  0
LINE
  8
0
 10
26.9217
 20
153.486
 11
27.2279
 21
153.382
  0
LINE
  8
0
 10
27.2279
 20
153.382
 11
27.5188
 21
153.241
  0
LINE
  8
0
 10
27.5188
 20
153.241
 11
27.7896
 21
153.064
  0
LINE
  8
0
 10
27.7896
 20
153.064
 11
28.0361
 21
152.855
  0
LINE
  8
0
 10
28.0361
 20
152.855
 11
28.2545
 21
152.616
  0
LINE
  8
0
 10
28.2545
 20
152.616
 11
28.4413
 21
152.352
  0
LINE
  8
0
 10
28.4413
 20
152.352
 11
28.5935
 21
152.067
  0
LINE
  8
0
 10
28.5935
 20
152.067
 11
28.7088
 21
151.765
  0
LINE
  8
0
 10
28.7088
 20
151.765
 11
28.7852
 21
151.451
  0
LINE
  8
0
 10
28.7852
 20
151.451
 11
28.8217
 21
151.129
  0
LINE
  8
0
 10
28.8217
 20
151.129
 11
28.8177
 21
150.806
  0
LINE
  8
0
 10
28.8177
 20
150.806
 11
28.7731
 21
150.486
  0
LINE
  8
0
 10
28.7731
 20
150.486
 11
28.6888
 21
150.174
  0
LINE
  8
0
 10
28.6888
 20
150.174
 11
28.566
 21
149.874
  0
LINE
  8
0
 10
28.566
 20
149.874
 11
28.4066
 21
149.593
  0
LINE
  8
0
 10
28.4066
 20
149.593
 11
28.2133
 21
149.334
  0
LINE
  8
0
 10
28.2133
 20
149.334
 11
27.989
 21
149.101
  0
LINE
  8
0
 10
27.989
 20
149.101
 11
27.7372
 21
148.898
  0
LINE
  8
0
 10
27.7372
 20
148.898
 11
27.4621
 21
148.728
  0
LINE
  8
0
 10
27.4621
 20
148.728
 11
27.1678
 21
148.594
  0
LINE
  8
0
 10
27.1678
 20
148.594
 11
26.859
 21
148.498
  0
LINE
  8
0
 10
26.859
 20
148.498
 11
26.5406
 21
148.441
  0
LINE
  8
0
 10
26.5406
 20
148.441
 11
26.2176
 21
148.425
  0
LINE
  8
0
 10
26.2176
 20
148.425
 11
25.8952
 21
148.45
  0
LINE
  8
0
 10
45.8952
 20
148.45
 11
45.5783
 21
148.514
  0
LINE
  8
0
 10
45.5783
 20
148.514
 11
45.2721
 21
148.618
  0
LINE
  8
0
 10
45.2721
 20
148.618
 11
44.9812
 21
148.759
  0
LINE
  8
0
 10
44.9812
 20
148.759
 11
44.7104
 21
148.936
  0
LINE
  8
0
 10
44.7104
 20
148.936
 11
44.4638
 21
149.145
  0
LINE
  8
0
 10
44.4638
 20
149.145
 11
44.2455
 21
149.384
  0
LINE
  8
0
 10
44.2455
 20
149.384
 11
44.0587
 21
149.648
  0
LINE
  8
0
 10
44.0587
 20
149.648
 11
43.9065
 21
149.933
  0
LINE
  8
0
 10
43.9065
 20
149.933
 11
43.7912
 21
150.235
  0
LINE
  8
0
 10
43.7912
 20
150.235
 11
43.7147
 21
150.549
  0
LINE
  8
0
 10
43.7147
 20
150.549
 11
43.6782
 21
150.871
  0
LINE
  8
0
 10
43.6782
 20
150.871
 11
43.6823
 21
151.194
  0
LINE
  8
0
 10
43.6823
 20
151.194
 11
43.7269
 21
151.514
  0
LINE
  8
0
 10
43.7269
 20
151.514
 11
43.8112
 21
151.826
  0
LINE
  8
0
 10
43.8112
 20
151.826
 11
43.934
 21
152.126
  0
LINE
  8
0
 10
43.934
 20
152.126
 11
44.0934
 21
152.407
  0
LINE
  8
0
 10
44.0934
 20
152.407
 11
44.2867
 21
152.666
  0
LINE
  8
0
 10
44.2867
 20
152.666
 11
44.511
 21
152.899
  0
LINE
  8
0
 10
44.511
 20
152.899
 11
44.7627
 21
153.102
  0
LINE
  8
0
 10
44.7627
 20
153.102
 11
45.0379
 21
153.272
  0
LINE
  8
0
 10
45.0379
 20
153.272
 11
45.3322
 21
153.406
  0
LINE
  8
0
 10
45.3322
 20
153.406
 11
45.641
 21
153.502
  0
LINE
  8
0
 10
45.641
 20
153.502
 11
45.9594
 21
153.559
  0
LINE
  8
0
 10
45.9594
 20
153.559
 11
46.2823
 21
153.575
  0
LINE
  8
0
 10
46.2823
 20
153.575
 11
46.6048
 21
153.55
  0
LINE
  8
0
 10
46.6048
 20
153.55
 11
46.9217
 21
153.486
  0
LINE
  8
0
 10
46.9217
 20
153.486
 11
47.2279
 21
153.382
  0
LINE
  8
0
 10
47.2279
 20
153.382
 11
47.5188
 21
153.241
  0
LINE
  8
0
 10
47.5188
 20
153.241
 11
47.7896
 21
153.064
  0
LINE
  8
0
 10
47.7896
 20
153.064
 11
48.0361
 21
152.855
  0
LINE
  8
0
 10
48.0361
 20
152.855
 11
48.2545
 21
152.616
  0
LINE
  8
0
 10
48.2545
 20
152.616
 11
48.4413
 21
152.352
  0
LINE
  8
0
 10
48.4413
 20
152.352
 11
48.5935
 21
152.067
  0
LINE
  8
0
 10
48.5935
 20
152.067
 11
48.7088
 21
151.765
  0
LINE
  8
0
 10
48.7088
 20
151.765
 11
48.7852
 21
151.451
  0
LINE
  8
0
 10
48.7852
 20
151.451
 11
48.8217
 21
151.129
  0
LINE
  8
0
 10
48.8217
 20
151.129
 11
48.8177
 21
150.806
  0
LINE
  8
0
 10
48.8177
 20
150.806
 11
48.7731
 21
150.486
  0
LINE
  8
0
 10
48.7731
 20
150.486
 11
48.6888
 21
150.174
  0
LINE
  8
0
 10
48.6888
 20
150.174
 11
48.566
 21
149.874
  0
LINE
  8
0
 10
48.566
 20
149.874
 11
48.4066
 21
149.593
  0
LINE
  8
0
 10
48.4066
 20
149.593
 11
48.2133
 21
149.334
  0
LINE
  8
0
 10
48.2133
 20
149.334
 11
47.989
 21
149.101
  0
LINE
  8
0
 10
47.989
 20
149.101
 11
47.7372
 21
148.898
  0
LINE
  8
0
 10
47.7372
 20
148.898
 11
47.4621
 21
148.728
  0
LINE
  8
0
 10
47.4621
 20
148.728
 11
47.1678
 21
148.594
  0
LINE
  8
0
 10
47.1678
 20
148.594
 11
46.859
 21
148.498
  0
LINE
  8
0
 10
46.859
 20
148.498
 11
46.5406
 21
148.441
  0
LINE
  8
0
 10
46.5406
 20
148.441
 11
46.2176
 21
148.425
  0
LINE
  8
0
 10
46.2176
 20
148.425
 11
45.8952
 21
148.45
  0
LINE
  8
0
 10
73.1564
 20
144.463
 11
72.8474
 21
144.567
  0
LINE
  8
0
 10
72.8474
 20
144.567
 11
72.5662
 21
144.732
  0
LINE
  8
0
 10
72.5662
 20
144.732
 11
72.3251
 21
144.951
  0
LINE
  8
0
 10
72.3251
 20
144.951
 11
72.1344
 21
145.215
  0
LINE
  8
0
 10
72.1344
 20
145.215
 11
72.0021
 21
145.513
  0
LINE
  8
0
 10
72.0021
 20
145.513
 11
71.934
 21
145.832
  0
LINE
  8
0
 10
71.934
 20
145.832
 11
71.9329
 21
146.158
  0
LINE
  8
0
 10
71.9329
 20
146.158
 11
71.9991
 21
146.477
  0
LINE
  8
0
 10
71.9991
 20
146.477
 11
72.1295
 21
146.776
  0
LINE
  8
0
 10
72.1295
 20
146.776
 11
72.3186
 21
147.042
  0
LINE
  8
0
 10
72.3186
 20
147.042
 11
72.5583
 21
147.262
  0
LINE
  8
0
 10
72.5583
 20
147.262
 11
72.8384
 21
147.429
  0
LINE
  8
0
 10
72.8384
 20
147.429
 11
73.1468
 21
147.535
  0
LINE
  8
0
 10
73.1468
 20
147.535
 11
73.4703
 21
147.575
  0
LINE
  8
0
 10
73.4703
 20
147.575
 11
73.7951
 21
147.547
  0
LINE
  8
0
 10
73.7951
 20
147.547
 11
74.1073
 21
147.453
  0
LINE
  8
0
 10
74.1073
 20
147.453
 11
74.3934
 21
147.297
  0
LINE
  8
0
 10
74.3934
 20
147.297
 11
74.6413
 21
147.085
  0
LINE
  8
0
 10
74.6413
 20
147.085
 11
74.8403
 21
146.827
  0
LINE
  8
0
 10
74.8403
 20
146.827
 11
74.9819
 21
146.534
  0
LINE
  8
0
 10
74.9819
 20
146.534
 11
75.06
 21
146.217
  0
LINE
  8
0
 10
75.06
 20
146.217
 11
75.0712
 21
145.891
  0
LINE
  8
0
 10
75.0712
 20
145.891
 11
75.0152
 21
145.57
  0
LINE
  8
0
 10
75.0152
 20
145.57
 11
74.8942
 21
145.267
  0
LINE
  8
0
 10
74.8942
 20
145.267
 11
74.7135
 21
144.996
  0
LINE
  8
0
 10
74.7135
 20
144.996
 11
74.4809
 21
144.768
  0
LINE
  8
0
 10
74.4809
 20
144.768
 11
74.2062
 21
144.592
  0
LINE
  8
0
 10
74.2062
 20
144.592
 11
73.9013
 21
144.477
  0
LINE
  8
0
 10
73.9013
 20
144.477
 11
73.8048
 21
144.455
  0
LINE
  8
0
 10
73.8048
 20
144.455
 11
73.4802
 21
144.425
  0
LINE
  8
0
 10
73.4802
 20
144.425
 11
73.1564
 21
144.463
  0
LINE
  8
0
 10
58.1564
 20
144.463
 11
57.8474
 21
144.567
  0
LINE
  8
0
 10
57.8474
 20
144.567
 11
57.5662
 21
144.732
  0
LINE
  8
0
 10
57.5662
 20
144.732
 11
57.3251
 21
144.951
  0
LINE
  8
0
 10
57.3251
 20
144.951
 11
57.1344
 21
145.215
  0
LINE
  8
0
 10
57.1344
 20
145.215
 11
57.0021
 21
145.513
  0
LINE
  8
0
 10
57.0021
 20
145.513
 11
56.934
 21
145.832
  0
LINE
  8
0
 10
56.934
 20
145.832
 11
56.9329
 21
146.158
  0
LINE
  8
0
 10
56.9329
 20
146.158
 11
56.9991
 21
146.477
  0
LINE
  8
0
 10
56.9991
 20
146.477
 11
57.1295
 21
146.776
  0
LINE
  8
0
 10
57.1295
 20
146.776
 11
57.3186
 21
147.042
  0
LINE
  8
0
 10
57.3186
 20
147.042
 11
57.5583
 21
147.262
  0
LINE
  8
0
 10
57.5583
 20
147.262
 11
57.8384
 21
147.429
  0
LINE
  8
0
 10
57.8384
 20
147.429
 11
58.1468
 21
147.535
  0
LINE
  8
0
 10
58.1468
 20
147.535
 11
58.4703
 21
147.575
  0
LINE
  8
0
 10
58.4703
 20
147.575
 11
58.7951
 21
147.547
  0
LINE
  8
0
 10
58.7951
 20
147.547
 11
59.1073
 21
147.453
  0
LINE
  8
0
 10
59.1073
 20
147.453
 11
59.3934
 21
147.297
  0
LINE
  8
0
 10
59.3934
 20
147.297
 11
59.6413
 21
147.085
  0
LINE
  8
0
 10
59.6413
 20
147.085
 11
59.8403
 21
146.827
  0
LINE
  8
0
 10
59.8403
 20
146.827
 11
59.9819
 21
146.534
  0
LINE
  8
0
 10
59.9819
 20
146.534
 11
60.06
 21
146.217
  0
LINE
  8
0
 10
60.06
 20
146.217
 11
60.0712
 21
145.891
  0
LINE
  8
0
 10
60.0712
 20
145.891
 11
60.0152
 21
145.57
  0
LINE
  8
0
 10
60.0152
 20
145.57
 11
59.8942
 21
145.267
  0
LINE
  8
0
 10
59.8942
 20
145.267
 11
59.7135
 21
144.996
  0
LINE
  8
0
 10
59.7135
 20
144.996
 11
59.4809
 21
144.768
  0
LINE
  8
0
 10
59.4809
 20
144.768
 11
59.2062
 21
144.592
  0
LINE
  8
0
 10
59.2062
 20
144.592
 11
58.9013
 21
144.477
  0
LINE
  8
0
 10
58.9013
 20
144.477
 11
58.8048
 21
144.455
  0
LINE
  8
0
 10
58.8048
 20
144.455
 11
58.4802
 21
144.425
  0
LINE
  8
0
 10
58.4802
 20
144.425
 11
58.1564
 21
144.463
  0
LINE
  8
0
 10
7.15642
 20
141.963
 11
6.84735
 21
142.067
  0
LINE
  8
0
 10
6.84735
 20
142.067
 11
6.56624
 21
142.232
  0
LINE
  8
0
 10
6.56624
 20
142.232
 11
6.32513
 21
142.451
  0
LINE
  8
0
 10
6.32513
 20
142.451
 11
6.13435
 21
142.715
  0
LINE
  8
0
 10
6.13435
 20
142.715
 11
6.00208
 21
143.013
  0
LINE
  8
0
 10
6.00208
 20
143.013
 11
5.93398
 21
143.332
  0
LINE
  8
0
 10
5.93398
 20
143.332
 11
5.93294
 21
143.658
  0
LINE
  8
0
 10
5.93294
 20
143.658
 11
5.99905
 21
143.977
  0
LINE
  8
0
 10
5.99905
 20
143.977
 11
6.12946
 21
144.276
  0
LINE
  8
0
 10
6.12946
 20
144.276
 11
6.31857
 21
144.542
  0
LINE
  8
0
 10
6.31857
 20
144.542
 11
6.55829
 21
144.762
  0
LINE
  8
0
 10
6.55829
 20
144.762
 11
6.83836
 21
144.929
  0
LINE
  8
0
 10
6.83836
 20
144.929
 11
7.14676
 21
145.035
  0
LINE
  8
0
 10
7.14676
 20
145.035
 11
7.47031
 21
145.075
  0
LINE
  8
0
 10
7.47031
 20
145.075
 11
7.79512
 21
145.047
  0
LINE
  8
0
 10
7.79512
 20
145.047
 11
8.10728
 21
144.953
  0
LINE
  8
0
 10
8.10728
 20
144.953
 11
8.39345
 21
144.797
  0
LINE
  8
0
 10
8.39345
 20
144.797
 11
8.64133
 21
144.585
  0
LINE
  8
0
 10
8.64133
 20
144.585
 11
8.8403
 21
144.327
  0
LINE
  8
0
 10
8.8403
 20
144.327
 11
8.98187
 21
144.034
  0
LINE
  8
0
 10
8.98187
 20
144.034
 11
9.05997
 21
143.717
  0
LINE
  8
0
 10
9.05997
 20
143.717
 11
9.07123
 21
143.391
  0
LINE
  8
0
 10
9.07123
 20
143.391
 11
9.01518
 21
143.07
  0
LINE
  8
0
 10
9.01518
 20
143.07
 11
8.89423
 21
142.767
  0
LINE
  8
0
 10
8.89423
 20
142.767
 11
8.71355
 21
142.496
  0
LINE
  8
0
 10
8.71355
 20
142.496
 11
8.48088
 21
142.268
  0
LINE
  8
0
 10
8.48088
 20
142.268
 11
8.20619
 21
142.092
  0
LINE
  8
0
 10
8.20619
 20
142.092
 11
7.90126
 21
141.977
  0
LINE
  8
0
 10
7.90126
 20
141.977
 11
7.80484
 21
141.955
  0
LINE
  8
0
 10
7.80484
 20
141.955
 11
7.48019
 21
141.925
  0
LINE
  8
0
 10
7.48019
 20
141.925
 11
7.15642
 21
141.963
  0
LINE
  8
0
 10
92.1564
 20
141.963
 11
91.8474
 21
142.067
  0
LINE
  8
0
 10
91.8474
 20
142.067
 11
91.5662
 21
142.232
  0
LINE
  8
0
 10
91.5662
 20
142.232
 11
91.3251
 21
142.451
  0
LINE
  8
0
 10
91.3251
 20
142.451
 11
91.1344
 21
142.715
  0
LINE
  8
0
 10
91.1344
 20
142.715
 11
91.0021
 21
143.013
  0
LINE
  8
0
 10
91.0021
 20
143.013
 11
90.934
 21
143.332
  0
LINE
  8
0
 10
90.934
 20
143.332
 11
90.9329
 21
143.658
  0
LINE
  8
0
 10
90.9329
 20
143.658
 11
90.9991
 21
143.977
  0
LINE
  8
0
 10
90.9991
 20
143.977
 11
91.1295
 21
144.276
  0
LINE
  8
0
 10
91.1295
 20
144.276
 11
91.3186
 21
144.542
  0
LINE
  8
0
 10
91.3186
 20
144.542
 11
91.5583
 21
144.762
  0
LINE
  8
0
 10
91.5583
 20
144.762
 11
91.8384
 21
144.929
  0
LINE
  8
0
 10
91.8384
 20
144.929
 11
92.1468
 21
145.035
  0
LINE
  8
0
 10
92.1468
 20
145.035
 11
92.4703
 21
145.075
  0
LINE
  8
0
 10
92.4703
 20
145.075
 11
92.7951
 21
145.047
  0
LINE
  8
0
 10
92.7951
 20
145.047
 11
93.1073
 21
144.953
  0
LINE
  8
0
 10
93.1073
 20
144.953
 11
93.3934
 21
144.797
  0
LINE
  8
0
 10
93.3934
 20
144.797
 11
93.6413
 21
144.585
  0
LINE
  8
0
 10
93.6413
 20
144.585
 11
93.8403
 21
144.327
  0
LINE
  8
0
 10
93.8403
 20
144.327
 11
93.9819
 21
144.034
  0
LINE
  8
0
 10
93.9819
 20
144.034
 11
94.06
 21
143.717
  0
LINE
  8
0
 10
94.06
 20
143.717
 11
94.0712
 21
143.391
  0
LINE
  8
0
 10
94.0712
 20
143.391
 11
94.0152
 21
143.07
  0
LINE
  8
0
 10
94.0152
 20
143.07
 11
93.8942
 21
142.767
  0
LINE
  8
0
 10
93.8942
 20
142.767
 11
93.7135
 21
142.496
  0
LINE
  8
0
 10
93.7135
 20
142.496
 11
93.4809
 21
142.268
  0
LINE
  8
0
 10
93.4809
 20
142.268
 11
93.2062
 21
142.092
  0
LINE
  8
0
 10
93.2062
 20
142.092
 11
92.9013
 21
141.977
  0
LINE
  8
0
 10
92.9013
 20
141.977
 11
92.8048
 21
141.955
  0
LINE
  8
0
 10
92.8048
 20
141.955
 11
92.4802
 21
141.925
  0
LINE
  8
0
 10
92.4802
 20
141.925
 11
92.1564
 21
141.963
  0
LINE
  8
0
 10
7.15642
 20
126.963
 11
6.84735
 21
127.067
  0
LINE
  8
0
 10
6.84735
 20
127.067
 11
6.56624
 21
127.232
  0
LINE
  8
0
 10
6.56624
 20
127.232
 11
6.32513
 21
127.451
  0
LINE
  8
0
 10
6.32513
 20
127.451
 11
6.13435
 21
127.715
  0
LINE
  8
0
 10
6.13435
 20
127.715
 11
6.00208
 21
128.013
  0
LINE
  8
0
 10
6.00208
 20
128.013
 11
5.93398
 21
128.332
  0
LINE
  8
0
 10
5.93398
 20
128.332
 11
5.93294
 21
128.658
  0
LINE
  8
0
 10
5.93294
 20
128.658
 11
5.99905
 21
128.977
  0
LINE
  8
0
 10
5.99905
 20
128.977
 11
6.12946
 21
129.276
  0
LINE
  8
0
 10
6.12946
 20
129.276
 11
6.31857
 21
129.542
  0
LINE
  8
0
 10
6.31857
 20
129.542
 11
6.55829
 21
129.762
  0
LINE
  8
0
 10
6.55829
 20
129.762
 11
6.83836
 21
129.929
  0
LINE
  8
0
 10
6.83836
 20
129.929
 11
7.14676
 21
130.035
  0
LINE
  8
0
 10
7.14676
 20
130.035
 11
7.47031
 21
130.075
  0
LINE
  8
0
 10
7.47031
 20
130.075
 11
7.79512
 21
130.047
  0
LINE
  8
0
 10
7.79512
 20
130.047
 11
8.10728
 21
129.953
  0
LINE
  8
0
 10
8.10728
 20
129.953
 11
8.39345
 21
129.797
  0
LINE
  8
0
 10
8.39345
 20
129.797
 11
8.64133
 21
129.585
  0
LINE
  8
0
 10
8.64133
 20
129.585
 11
8.8403
 21
129.327
  0
LINE
  8
0
 10
8.8403
 20
129.327
 11
8.98187
 21
129.034
  0
LINE
  8
0
 10
8.98187
 20
129.034
 11
9.05997
 21
128.717
  0
LINE
  8
0
 10
9.05997
 20
128.717
 11
9.07123
 21
128.391
  0
LINE
  8
0
 10
9.07123
 20
128.391
 11
9.01518
 21
128.07
  0
LINE
  8
0
 10
9.01518
 20
128.07
 11
8.89423
 21
127.767
  0
LINE
  8
0
 10
8.89423
 20
127.767
 11
8.71355
 21
127.496
  0
LINE
  8
0
 10
8.71355
 20
127.496
 11
8.48088
 21
127.268
  0
LINE
  8
0
 10
8.48088
 20
127.268
 11
8.20619
 21
127.092
  0
LINE
  8
0
 10
8.20619
 20
127.092
 11
7.90126
 21
126.977
  0
LINE
  8
0
 10
7.90126
 20
126.977
 11
7.80484
 21
126.955
  0
LINE
  8
0
 10
7.80484
 20
126.955
 11
7.48019
 21
126.925
  0
LINE
  8
0
 10
7.48019
 20
126.925
 11
7.15642
 21
126.963
  0
LINE
  8
0
 10
92.1564
 20
126.963
 11
91.8474
 21
127.067
  0
LINE
  8
0
 10
91.8474
 20
127.067
 11
91.5662
 21
127.232
  0
LINE
  8
0
 10
91.5662
 20
127.232
 11
91.3251
 21
127.451
  0
LINE
  8
0
 10
91.3251
 20
127.451
 11
91.1344
 21
127.715
  0
LINE
  8
0
 10
91.1344
 20
127.715
 11
91.0021
 21
128.013
  0
LINE
  8
0
 10
91.0021
 20
128.013
 11
90.934
 21
128.332
  0
LINE
  8
0
 10
90.934
 20
128.332
 11
90.9329
 21
128.658
  0
LINE
  8
0
 10
90.9329
 20
128.658
 11
90.9991
 21
128.977
  0
LINE
  8
0
 10
90.9991
 20
128.977
 11
91.1295
 21
129.276
  0
LINE
  8
0
 10
91.1295
 20
129.276
 11
91.3186
 21
129.542
  0
LINE
  8
0
 10
91.3186
 20
129.542
 11
91.5583
 21
129.762
  0
LINE
  8
0
 10
91.5583
 20
129.762
 11
91.8384
 21
129.929
  0
LINE
  8
0
 10
91.8384
 20
129.929
 11
92.1468
 21
130.035
  0
LINE
  8
0
 10
92.1468
 20
130.035
 11
92.4703
 21
130.075
  0
LINE
  8
0
 10
92.4703
 20
130.075
 11
92.7951
 21
130.047
  0
LINE
  8
0
 10
92.7951
 20
130.047
 11
93.1073
 21
129.953
  0
LINE
  8
0
 10
93.1073
 20
129.953
 11
93.3934
 21
129.797
  0
LINE
  8
0
 10
93.3934
 20
129.797
 11
93.6413
 21
129.585
  0
LINE
  8
0
 10
93.6413
 20
129.585
 11
93.8403
 21
129.327
  0
LINE
  8
0
 10
93.8403
 20
129.327
 11
93.9819
 21
129.034
  0
LINE
  8
0
 10
93.9819
 20
129.034
 11
94.06
 21
128.717
  0
LINE
  8
0
 10
94.06
 20
128.717
 11
94.0712
 21
128.391
  0
LINE
  8
0
 10
94.0712
 20
128.391
 11
94.0152
 21
128.07
  0
LINE
  8
0
 10
94.0152
 20
128.07
 11
93.8942
 21
127.767
  0
LINE
  8
0
 10
93.8942
 20
127.767
 11
93.7135
 21
127.496
  0
LINE
  8
0
 10
93.7135
 20
127.496
 11
93.4809
 21
127.268
  0
LINE
  8
0
 10
93.4809
 20
127.268
 11
93.2062
 21
127.092
  0
LINE
  8
0
 10
93.2062
 20
127.092
 11
92.9013
 21
126.977
  0
LINE
  8
0
 10
92.9013
 20
126.977
 11
92.8048
 21
126.955
  0
LINE
  8
0
 10
92.8048
 20
126.955
 11
92.4802
 21
126.925
  0
LINE
  8
0
 10
92.4802
 20
126.925
 11
92.1564
 21
126.963
  0
LINE
  8
0
 10
100
 20
100
 11
0
 21
100
  0
LINE
  8
0
 10
0
 20
100
 11
0
 21
0
  0
LINE
  8
0
 10
0
 20
0
 11
100
 21
0
  0
LINE
  8
0
 10
100
 20
0
 11
100
 21
100
  0
LINE
  8
0
 10
7.15642
 20
70.9629
 11
6.84735
 21
71.0666
  0
LINE
  8
0
 10
6.84735
 20
71.0666
 11
6.56624
 21
71.2316
  0
LINE
  8
0
 10
6.56624
 20
71.2316
 11
6.32513
 21
71.451
  0
LINE
  8
0
 10
6.32513
 20
71.451
 11
6.13435
 21
71.7153
  0
LINE
  8
0
 10
6.13435
 20
71.7153
 11
6.00208
 21
72.0133
  0
LINE
  8
0
 10
6.00208
 20
72.0133
 11
5.93398
 21
72.3321
  0
LINE
  8
0
 10
5.93398
 20
72.3321
 11
5.93294
 21
72.6581
  0
LINE
  8
0
 10
5.93294
 20
72.6581
 11
5.99905
 21
72.9773
  0
LINE
  8
0
 10
5.99905
 20
72.9773
 11
6.12946
 21
73.276
  0
LINE
  8
0
 10
6.12946
 20
73.276
 11
6.31857
 21
73.5416
  0
LINE
  8
0
 10
6.31857
 20
73.5416
 11
6.55829
 21
73.7625
  0
LINE
  8
0
 10
6.55829
 20
73.7625
 11
6.83836
 21
73.9293
  0
LINE
  8
0
 10
6.83836
 20
73.9293
 11
7.14676
 21
74.0349
  0
LINE
  8
0
 10
7.14676
 20
74.0349
 11
7.47031
 21
74.0747
  0
LINE
  8
0
 10
7.47031
 20
74.0747
 11
7.79512
 21
74.0471
  0
LINE
  8
0
 10
7.79512
 20
74.0471
 11
8.10728
 21
73.9532
  0
LINE
  8
0
 10
8.10728
 20
73.9532
 11
8.39345
 21
73.7971
  0
LINE
  8
0
 10
8.39345
 20
73.7971
 11
8.64133
 21
73.5853
  0
LINE
  8
0
 10
8.64133
 20
73.5853
 11
8.8403
 21
73.3271
  0
LINE
  8
0
 10
8.8403
 20
73.3271
 11
8.98187
 21
73.0335
  0
LINE
  8
0
 10
8.98187
 20
73.0335
 11
9.05997
 21
72.717
  0
LINE
  8
0
 10
9.05997
 20
72.717
 11
9.07123
 21
72.3912
  0
LINE
  8
0
 10
9.07123
 20
72.3912
 11
9.01518
 21
72.0701
  0
LINE
  8
0
 10
9.01518
 20
72.0701
 11
8.89423
 21
71.7674
  0
LINE
  8
0
 10
8.89423
 20
71.7674
 11
8.71355
 21
71.496
  0
LINE
  8
0
 10
8.71355
 20
71.496
 11
8.48088
 21
71.2677
  0
LINE
  8
0
 10
8.48088
 20
71.2677
 11
8.20619
 21
71.0922
  0
LINE
  8
0
 10
8.20619
 20
71.0922
 11
7.90126
 21
70.977
  0
LINE
  8
0
 10
7.90126
 20
70.977
 11
7.80484
 21
70.9548
  0
LINE
  8
0
 10
7.80484
 20
70.9548
 11
7.48019
 21
70.9251
  0
LINE
  8
0
 10
7.48019
 20
70.9251
 11
7.15642
 21
70.9629
  0
LINE
  8
0
 10
92.1564
 20
70.9629
 11
91.8474
 21
71.0666
  0
LINE
  8
0
 10
91.8474
 20
71.0666
 11
91.5662
 21
71.2316
  0
LINE
  8
0
 10
91.5662
 20
71.2316
 11
91.3251
 21
71.451
  0
LINE
  8
0
 10
91.3251
 20
71.451
 11
91.1344
 21
71.7153
  0
LINE
  8
0
 10
91.1344
 20
71.7153
 11
91.0021
 21
72.0133
  0
LINE
  8
0
 10
91.0021
 20
72.0133
 11
90.934
 21
72.3321
  0
LINE
  8
0
 10
90.934
 20
72.3321
 11
90.9329
 21
72.6581
  0
LINE
  8
0
 10
90.9329
 20
72.6581
 11
90.9991
 21
72.9773
  0
LINE
  8
0
 10
90.9991
 20
72.9773
 11
91.1295
 21
73.276
  0
LINE
  8
0
 10
91.1295
 20
73.276
 11
91.3186
 21
73.5416
  0
LINE
  8
0
 10
91.3186
 20
73.5416
 11
91.5583
 21
73.7625
  0
LINE
  8
0
 10
91.5583
 20
73.7625
 11
91.8384
 21
73.9293
  0
LINE
  8
0
 10
91.8384
 20
73.9293
 11
92.1468
 21
74.0349
  0
LINE
  8
0
 10
92.1468
 20
74.0349
 11
92.4703
 21
74.0747
  0
LINE
  8
0
 10
92.4703
 20
74.0747
 11
92.7951
 21
74.0471
  0
LINE
  8
0
 10
92.7951
 20
74.0471
 11
93.1073
 21
73.9532
  0
LINE
  8
0
 10
93.1073
 20
73.9532
 11
93.3934
 21
73.7971
  0
LINE
  8
0
 10
93.3934
 20
73.7971
 11
93.6413
 21
73.5853
  0
LINE
  8
0
 10
93.6413
 20
73.5853
 11
93.8403
 21
73.3271
  0
LINE
  8
0
 10
93.8403
 20
73.3271
 11
93.9819
 21
73.0335
  0
LINE
  8
0
 10
93.9819
 20
73.0335
 11
94.06
 21
72.717
  0
LINE
  8
0
 10
94.06
 20
72.717
 11
94.0712
 21
72.3912
  0
LINE
  8
0
 10
94.0712
 20
72.3912
 11
94.0152
 21
72.0701
  0
LINE
  8
0
 10
94.0152
 20
72.0701
 11
93.8942
 21
71.7674
  0
LINE
  8
0
 10
93.8942
 20
71.7674
 11
93.7135
 21
71.496
  0
LINE
  8
0
 10
93.7135
 20
71.496
 11
93.4809
 21
71.2677
  0
LINE
  8
0
 10
93.4809
 20
71.2677
 11
93.2062
 21
71.0922
  0
LINE
  8
0
 10
93.2062
 20
71.0922
 11
92.9013
 21
70.977
  0
LINE
  8
0
 10
92.9013
 20
70.977
 11
92.8048
 21
70.9548
  0
LINE
  8
0
 10
92.8048
 20
70.9548
 11
92.4802
 21
70.9251
  0
LINE
  8
0
 10
92.4802
 20
70.9251
 11
92.1564
 21
70.9629
  0
LINE
  8
0
 10
92.1564
 20
55.9629
 11
91.8474
 21
56.0666
  0
LINE
  8
0
 10
91.8474
 20
56.0666
 11
91.5662
 21
56.2316
  0
LINE
  8
0
 10
91.5662
 20
56.2316
 11
91.3251
 21
56.451
  0
LINE
  8
0
 10
91.3251
 20
56.451
 11
91.1344
 21
56.7153
  0
LINE
  8
0
 10
91.1344
 20
56.7153
 11
91.0021
 21
57.0133
  0
LINE
  8
0
 10
91.0021
 20
57.0133
 11
90.934
 21
57.3321
  0
LINE
  8
0
 10
90.934
 20
57.3321
 11
90.9329
 21
57.6581
  0
LINE
  8
0
 10
90.9329
 20
57.6581
 11
90.9991
 21
57.9773
  0
LINE
  8
0
 10
90.9991
 20
57.9773
 11
91.1295
 21
58.276
  0
LINE
  8
0
 10
91.1295
 20
58.276
 11
91.3186
 21
58.5416
  0
LINE
  8
0
 10
91.3186
 20
58.5416
 11
91.5583
 21
58.7625
  0
LINE
  8
0
 10
91.5583
 20
58.7625
 11
91.8384
 21
58.9293
  0
LINE
  8
0
 10
91.8384
 20
58.9293
 11
92.1468
 21
59.0349
  0
LINE
  8
0
 10
92.1468
 20
59.0349
 11
92.4703
 21
59.0747
  0
LINE
  8
0
 10
92.4703
 20
59.0747
 11
92.7951
 21
59.0471
  0
LINE
  8
0
 10
92.7951
 20
59.0471
 11
93.1073
 21
58.9532
  0
LINE
  8
0
 10
93.1073
 20
58.9532
 11
93.3934
 21
58.7971
  0
LINE
  8
0
 10
93.3934
 20
58.7971
 11
93.6413
 21
58.5853
  0
LINE
  8
0
 10
93.6413
 20
58.5853
 11
93.8403
 21
58.3271
  0
LINE
  8
0
 10
93.8403
 20
58.3271
 11
93.9819
 21
58.0335
  0
LINE
  8
0
 10
93.9819
 20
58.0335
 11
94.06
 21
57.717
  0
LINE
  8
0
 10
94.06
 20
57.717
 11
94.0712
 21
57.3912
  0
LINE
  8
0
 10
94.0712
 20
57.3912
 11
94.0152
 21
57.0701
  0
LINE
  8
0
 10
94.0152
 20
57.0701
 11
93.8942
 21
56.7674
  0
LINE
  8
0
 10
93.8942
 20
56.7674
 11
93.7135
 21
56.496
  0
LINE
  8
0
 10
93.7135
 20
56.496
 11
93.4809
 21
56.2677
  0
LINE
  8
0
 10
93.4809
 20
56.2677
 11
93.2062
 21
56.0922
  0
LINE
  8
0
 10
93.2062
 20
56.0922
 11
92.9013
 21
55.977
  0
LINE
  8
0
 10
92.9013
 20
55.977
 11
92.8048
 21
55.9548
  0
LINE
  8
0
 10
92.8048
 20
55.9548
 11
92.4802
 21
55.9251
  0
LINE
  8
0
 10
92.4802
 20
55.9251
 11
92.1564
 21
55.9629
  0
LINE
  8
0
 10
7.15642
 20
55.9629
 11
6.84735
 21
56.0666
  0
LINE
  8
0
 10
6.84735
 20
56.0666
 11
6.56624
 21
56.2316
  0
LINE
  8
0
 10
6.56624
 20
56.2316
 11
6.32513
 21
56.451
  0
LINE
  8
0
 10
6.32513
 20
56.451
 11
6.13435
 21
56.7153
  0
LINE
  8
0
 10
6.13435
 20
56.7153
 11
6.00208
 21
57.0133
  0
LINE
  8
0
 10
6.00208
 20
57.0133
 11
5.93398
 21
57.3321
  0
LINE
  8
0
 10
5.93398
 20
57.3321
 11
5.93294
 21
57.6581
  0
LINE
  8
0
 10
5.93294
 20
57.6581
 11
5.99905
 21
57.9773
  0
LINE
  8
0
 10
5.99905
 20
57.9773
 11
6.12946
 21
58.276
  0
LINE
  8
0
 10
6.12946
 20
58.276
 11
6.31857
 21
58.5416
  0
LINE
  8
0
 10
6.31857
 20
58.5416
 11
6.55829
 21
58.7625
  0
LINE
  8
0
 10
6.55829
 20
58.7625
 11
6.83836
 21
58.9293
  0
LINE
  8
0
 10
6.83836
 20
58.9293
 11
7.14676
 21
59.0349
  0
LINE
  8
0
 10
7.14676
 20
59.0349
 11
7.47031
 21
59.0747
  0
LINE
  8
0
 10
7.47031
 20
59.0747
 11
7.79512
 21
59.0471
  0
LINE
  8
0
 10
7.79512
 20
59.0471
 11
8.10728
 21
58.9532
  0
LINE
  8
0
 10
8.10728
 20
58.9532
 11
8.39345
 21
58.7971
  0
LINE
  8
0
 10
8.39345
 20
58.7971
 11
8.64133
 21
58.5853
  0
LINE
  8
0
 10
8.64133
 20
58.5853
 11
8.8403
 21
58.3271
  0
LINE
  8
0
 10
8.8403
 20
58.3271
 11
8.98187
 21
58.0335
  0
LINE
  8
0
 10
8.98187
 20
58.0335
 11
9.05997
 21
57.717
  0
LINE
  8
0
 10
9.05997
 20
57.717
 11
9.07123
 21
57.3912
  0
LINE
  8
0
 10
9.07123
 20
57.3912
 11
9.01518
 21
57.0701
  0
LINE
  8
0
 10
9.01518
 20
57.0701
 11
8.89423
 21
56.7674
  0
LINE
  8
0
 10
8.89423
 20
56.7674
 11
8.71355
 21
56.496
  0
LINE
  8
0
 10
8.71355
 20
56.496
 11
8.48088
 21
56.2677
  0
LINE
  8
0
 10
8.48088
 20
56.2677
 11
8.20619
 21
56.0922
  0
LINE
  8
0
 10
8.20619
 20
56.0922
 11
7.90126
 21
55.977
  0
LINE
  8
0
 10
7.90126
 20
55.977
 11
7.80484
 21
55.9548
  0
LINE
  8
0
 10
7.80484
 20
55.9548
 11
7.48019
 21
55.9251
  0
LINE
  8
0
 10
7.48019
 20
55.9251
 11
7.15642
 21
55.9629
  0
LINE
  8
0
 10
58.1564
 20
53.4629
 11
57.8474
 21
53.5666
  0
LINE
  8
0
 10
57.8474
 20
53.5666
 11
57.5662
 21
53.7316
  0
LINE
  8
0
 10
57.5662
 20
53.7316
 11
57.3251
 21
53.951
  0
LINE
  8
0
 10
57.3251
 20
53.951
 11
57.1344
 21
54.2153
  0
LINE
  8
0
 10
57.1344
 20
54.2153
 11
57.0021
 21
54.5133
  0
LINE
  8
0
 10
57.0021
 20
54.5133
 11
56.934
 21
54.8321
  0
LINE
  8
0
 10
56.934
 20
54.8321
 11
56.9329
 21
55.1581
  0
LINE
  8
0
 10
56.9329
 20
55.1581
 11
56.9991
 21
55.4773
  0
LINE
  8
0
 10
56.9991
 20
55.4773
 11
57.1295
 21
55.776
  0
LINE
  8
0
 10
57.1295
 20
55.776
 11
57.3186
 21
56.0416
  0
LINE
  8
0
 10
57.3186
 20
56.0416
 11
57.5583
 21
56.2625
  0
LINE
  8
0
 10
57.5583
 20
56.2625
 11
57.8384
 21
56.4293
  0
LINE
  8
0
 10
57.8384
 20
56.4293
 11
58.1468
 21
56.5349
  0
LINE
  8
0
 10
58.1468
 20
56.5349
 11
58.4703
 21
56.5747
  0
LINE
  8
0
 10
58.4703
 20
56.5747
 11
58.7951
 21
56.5471
  0
LINE
  8
0
 10
58.7951
 20
56.5471
 11
59.1073
 21
56.4532
  0
LINE
  8
0
 10
59.1073
 20
56.4532
 11
59.3934
 21
56.2971
  0
LINE
  8
0
 10
59.3934
 20
56.2971
 11
59.6413
 21
56.0853
  0
LINE
  8
0
 10
59.6413
 20
56.0853
 11
59.8403
 21
55.8271
  0
LINE
  8
0
 10
59.8403
 20
55.8271
 11
59.9819
 21
55.5335
  0
LINE
  8
0
 10
59.9819
 20
55.5335
 11
60.06
 21
55.217
  0
LINE
  8
0
 10
60.06
 20
55.217
 11
60.0712
 21
54.8912
  0
LINE
  8
0
 10
60.0712
 20
54.8912
 11
60.0152
 21
54.5701
  0
LINE
  8
0
 10
60.0152
 20
54.5701
 11
59.8942
 21
54.2674
  0
LINE
  8
0
 10
59.8942
 20
54.2674
 11
59.7135
 21
53.996
  0
LINE
  8
0
 10
59.7135
 20
53.996
 11
59.4809
 21
53.7677
  0
LINE
  8
0
 10
59.4809
 20
53.7677
 11
59.2062
 21
53.5922
  0
LINE
  8
0
 10
59.2062
 20
53.5922
 11
58.9013
 21
53.477
  0
LINE
  8
0
 10
58.9013
 20
53.477
 11
58.8048
 21
53.4548
  0
LINE
  8
0
 10
58.8048
 20
53.4548
 11
58.4802
 21
53.4251
  0
LINE
  8
0
 10
58.4802
 20
53.4251
 11
58.1564
 21
53.4629
  0
LINE
  8
0
 10
73.1564
 20
53.4629
 11
72.8474
 21
53.5666
  0
LINE
  8
0
 10
72.8474
 20
53.5666
 11
72.5662
 21
53.7316
  0
LINE
  8
0
 10
72.5662
 20
53.7316
 11
72.3251
 21
53.951
  0
LINE
  8
0
 10
72.3251
 20
53.951
 11
72.1344
 21
54.2153
  0
LINE
  8
0
 10
72.1344
 20
54.2153
 11
72.0021
 21
54.5133
  0
LINE
  8
0
 10
72.0021
 20
54.5133
 11
71.934
 21
54.8321
  0
LINE
  8
0
 10
71.934
 20
54.8321
 11
71.9329
 21
55.1581
  0
LINE
  8
0
 10
71.9329
 20
55.1581
 11
71.9991
 21
55.4773
  0
LINE
  8
0
 10
71.9991
 20
55.4773
 11
72.1295
 21
55.776
  0
LINE
  8
0
 10
72.1295
 20
55.776
 11
72.3186
 21
56.0416
  0
LINE
  8
0
 10
72.3186
 20
56.0416
 11
72.5583
 21
56.2625
  0
LINE
  8
0
 10
72.5583
 20
56.2625
 11
72.8384
 21
56.4293
  0
LINE
  8
0
 10
72.8384
 20
56.4293
 11
73.1468
 21
56.5349
  0
LINE
  8
0
 10
73.1468
 20
56.5349
 11
73.4703
 21
56.5747
  0
LINE
  8
0
 10
73.4703
 20
56.5747
 11
73.7951
 21
56.5471
  0
LINE
  8
0
 10
73.7951
 20
56.5471
 11
74.1073
 21
56.4532
  0
LINE
  8
0
 10
74.1073
 20
56.4532
 11
74.3934
 21
56.2971
  0
LINE
  8
0
 10
74.3934
 20
56.2971
 11
74.6413
 21
56.0853
  0
LINE
  8
0
 10
74.6413
 20
56.0853
 11
74.8403
 21
55.8271
  0
LINE
  8
0
 10
74.8403
 20
55.8271
 11
74.9819
 21
55.5335
  0
LINE
  8
0
 10
74.9819
 20
55.5335
 11
75.06
 21
55.217
  0
LINE
  8
0
 10
75.06
 20
55.217
 11
75.0712
 21
54.8912
  0
LINE
  8
0
 10
75.0712
 20
54.8912
 11
75.0152
 21
54.5701
  0
LINE
  8
0
 10
75.0152
 20
54.5701
 11
74.8942
 21
54.2674
  0
LINE
  8
0
 10
74.8942
 20
54.2674
 11
74.7135
 21
53.996
  0
LINE
  8
0
 10
74.7135
 20
53.996
 11
74.4809
 21
53.7677
  0
LINE
  8
0
 10
74.4809
 20
53.7677
 11
74.2062
 21
53.5922
  0
LINE
  8
0
 10
74.2062
 20
53.5922
 11
73.9013
 21
53.477
  0
LINE
  8
0
 10
73.9013
 20
53.477
 11
73.8048
 21
53.4548
  0
LINE
  8
0
 10
73.8048
 20
53.4548
 11
73.4802
 21
53.4251
  0
LINE
  8
0
 10
73.4802
 20
53.4251
 11
73.1564
 21
53.4629
  0
LINE
  8
0
 10
25.8952
 20
47.4496
 11
25.5783
 21
47.5141
  0
LINE
  8
0
 10
25.5783
 20
47.5141
 11
25.2721
 21
47.6179
  0
LINE
  8
0
 10
25.2721
 20
47.6179
 11
24.9812
 21
47.7593
  0
LINE
  8
0
 10
24.9812
 20
47.7593
 11
24.7104
 21
47.936
  0
LINE
  8
0
 10
24.7104
 20
47.936
 11
24.4638
 21
48.1452
  0
LINE
  8
0
 10
24.4638
 20
48.1452
 11
24.2455
 21
48.3837
  0
LINE
  8
0
 10
24.2455
 20
48.3837
 11
24.0587
 21
48.6477
  0
LINE
  8
0
 10
24.0587
 20
48.6477
 11
23.9065
 21
48.933
  0
LINE
  8
0
 10
23.9065
 20
48.933
 11
23.7912
 21
49.2351
  0
LINE
  8
0
 10
23.7912
 20
49.2351
 11
23.7147
 21
49.5493
  0
LINE
  8
0
 10
23.7147
 20
49.5493
 11
23.6782
 21
49.8706
  0
LINE
  8
0
 10
23.6782
 20
49.8706
 11
23.6823
 21
50.194
  0
LINE
  8
0
 10
23.6823
 20
50.194
 11
23.7269
 21
50.5143
  0
LINE
  8
0
 10
23.7269
 20
50.5143
 11
23.8112
 21
50.8264
  0
LINE
  8
0
 10
23.8112
 20
50.8264
 11
23.934
 21
51.1256
  0
LINE
  8
0
 10
23.934
 20
51.1256
 11
24.0934
 21
51.407
  0
LINE
  8
0
 10
24.0934
 20
51.407
 11
24.2867
 21
51.6662
  0
LINE
  8
0
 10
24.2867
 20
51.6662
 11
24.511
 21
51.8991
  0
LINE
  8
0
 10
24.511
 20
51.8991
 11
24.7627
 21
52.1021
  0
LINE
  8
0
 10
24.7627
 20
52.1021
 11
25.0379
 21
52.2719
  0
LINE
  8
0
 10
25.0379
 20
52.2719
 11
25.3322
 21
52.4059
  0
LINE
  8
0
 10
25.3322
 20
52.4059
 11
25.641
 21
52.5019
  0
LINE
  8
0
 10
25.641
 20
52.5019
 11
25.9594
 21
52.5585
  0
LINE
  8
0
 10
25.9594
 20
52.5585
 11
26.2823
 21
52.5748
  0
LINE
  8
0
 10
26.2823
 20
52.5748
 11
26.6048
 21
52.5504
  0
LINE
  8
0
 10
26.6048
 20
52.5504
 11
26.9217
 21
52.4859
  0
LINE
  8
0
 10
26.9217
 20
52.4859
 11
27.2279
 21
52.3821
  0
LINE
  8
0
 10
27.2279
 20
52.3821
 11
27.5188
 21
52.2407
  0
LINE
  8
0
 10
27.5188
 20
52.2407
 11
27.7896
 21
52.064
  0
LINE
  8
0
 10
27.7896
 20
52.064
 11
28.0361
 21
51.8548
  0
LINE
  8
0
 10
28.0361
 20
51.8548
 11
28.2545
 21
51.6163
  0
LINE
  8
0
 10
28.2545
 20
51.6163
 11
28.4413
 21
51.3523
  0
LINE
  8
0
 10
28.4413
 20
51.3523
 11
28.5935
 21
51.067
  0
LINE
  8
0
 10
28.5935
 20
51.067
 11
28.7088
 21
50.7649
  0
LINE
  8
0
 10
28.7088
 20
50.7649
 11
28.7852
 21
50.4507
  0
LINE
  8
0
 10
28.7852
 20
50.4507
 11
28.8217
 21
50.1294
  0
LINE
  8
0
 10
28.8217
 20
50.1294
 11
28.8177
 21
49.806
  0
LINE
  8
0
 10
28.8177
 20
49.806
 11
28.7731
 21
49.4857
  0
LINE
  8
0
 10
28.7731
 20
49.4857
 11
28.6888
 21
49.1736
  0
LINE
  8
0
 10
28.6888
 20
49.1736
 11
28.566
 21
48.8744
  0
LINE
  8
0
 10
28.566
 20
48.8744
 11
28.4066
 21
48.593
  0
LINE
  8
0
 10
28.4066
 20
48.593
 11
28.2133
 21
48.3338
  0
LINE
  8
0
 10
28.2133
 20
48.3338
 11
27.989
 21
48.1009
  0
LINE
  8
0
 10
27.989
 20
48.1009
 11
27.7372
 21
47.8979
  0
LINE
  8
0
 10
27.7372
 20
47.8979
 11
27.4621
 21
47.7281
  0
LINE
  8
0
 10
27.4621
 20
47.7281
 11
27.1678
 21
47.5941
  0
LINE
  8
0
 10
27.1678
 20
47.5941
 11
26.859
 21
47.498
  0
LINE
  8
0
 10
26.859
 20
47.498
 11
26.5406
 21
47.4414
  0
LINE
  8
0
 10
26.5406
 20
47.4414
 11
26.2176
 21
47.4252
  0
LINE
  8
0
 10
26.2176
 20
47.4252
 11
25.8952
 21
47.4496
  0
LINE
  8
0
 10
45.8952
 20
47.4496
 11
45.5783
 21
47.5141
  0
LINE
  8
0
 10
45.5783
 20
47.5141
 11
45.2721
 21
47.6179
  0
LINE
  8
0
 10
45.2721
 20
47.6179
 11
44.9812
 21
47.7593
  0
LINE
  8
0
 10
44.9812
 20
47.7593
 11
44.7104
 21
47.936
  0
LINE
  8
0
 10
44.7104
 20
47.936
 11
44.4638
 21
48.1452
  0
LINE
  8
0
 10
44.4638
 20
48.1452
 11
44.2455
 21
48.3837
  0
LINE
  8
0
 10
44.2455
 20
48.3837
 11
44.0587
 21
48.6477
  0
LINE
  8
0
 10
44.0587
 20
48.6477
 11
43.9065
 21
48.933
  0
LINE
  8
0
 10
43.9065
 20
48.933
 11
43.7912
 21
49.2351
  0
LINE
  8
0
 10
43.7912
 20
49.2351
 11
43.7147
 21
49.5493
  0
LINE
  8
0
 10
43.7147
 20
49.5493
 11
43.6782
 21
49.8706
  0
LINE
  8
0
 10
43.6782
 20
49.8706
 11
43.6823
 21
50.194
  0
LINE
  8
0
 10
43.6823
 20
50.194
 11
43.7269
 21
50.5143
  0
LINE
  8
0
 10
43.7269
 20
50.5143
 11
43.8112
 21
50.8264
  0
LINE
  8
0
 10
43.8112
 20
50.8264
 11
43.934
 21
51.1256
  0
LINE
  8
0
 10
43.934
 20
51.1256
 11
44.0934
 21
51.407
  0
LINE
  8
0
 10
44.0934
 20
51.407
 11
44.2867
 21
51.6662
  0
LINE
  8
0
 10
44.2867
 20
51.6662
 11
44.511
 21
51.8991
  0
LINE
  8
0
 10
44.511
 20
51.8991
 11
44.7627
 21
52.1021
  0
LINE
  8
0
 10
44.7627
 20
52.1021
 11
45.0379
 21
52.2719
  0
LINE
  8
0
 10
45.0379
 20
52.2719
 11
45.3322
 21
52.4059
  0
LINE
  8
0
 10
45.3322
 20
52.4059
 11
45.641
 21
52.5019
  0
LINE
  8
0
 10
45.641
 20
52.5019
 11
45.9594
 21
52.5585
  0
LINE
  8
0
 10
45.9594
 20
52.5585
 11
46.2823
 21
52.5748
  0
LINE
  8
0
 10
46.2823
 20
52.5748
 11
46.6048
 21
52.5504
  0
LINE
  8
0
 10
46.6048
 20
52.5504
 11
46.9217
 21
52.4859
  0
LINE
  8
0
 10
46.9217
 20
52.4859
 11
47.2279
 21
52.3821
  0
LINE
  8
0
 10
47.2279
 20
52.3821
 11
47.5188
 21
52.2407
  0
LINE
  8
0
 10
47.5188
 20
52.2407
 11
47.7896
 21
52.064
  0
LINE
  8
0
 10
47.7896
 20
52.064
 11
48.0361
 21
51.8548
  0
LINE
  8
0
 10
48.0361
 20
51.8548
 11
48.2545
 21
51.6163
  0
LINE
  8
0
 10
48.2545
 20
51.6163
 11
48.4413
 21
51.3523
  0
LINE
  8
0
 10
48.4413
 20
51.3523
 11
48.5935
 21
51.067
  0
LINE
  8
0
 10
48.5935
 20
51.067
 11
48.7088
 21
50.7649
  0
LINE
  8
0
 10
48.7088
 20
50.7649
 11
48.7852
 21
50.4507
  0
LINE
  8
0
 10
48.7852
 20
50.4507
 11
48.8217
 21
50.1294
  0
LINE
  8
0
 10
48.8217
 20
50.1294
 11
48.8177
 21
49.806
  0
LINE
  8
0
 10
48.8177
 20
49.806
 11
48.7731
 21
49.4857
  0
LINE
  8
0
 10
48.7731
 20
49.4857
 11
48.6888
 21
49.1736
  0
LINE
  8
0
 10
48.6888
 20
49.1736
 11
48.566
 21
48.8744
  0
LINE
  8
0
 10
48.566
 20
48.8744
 11
48.4066
 21
48.593
  0
LINE
  8
0
 10
48.4066
 20
48.593
 11
48.2133
 21
48.3338
  0
LINE
  8
0
 10
48.2133
 20
48.3338
 11
47.989
 21
48.1009
  0
LINE
  8
0
 10
47.989
 20
48.1009
 11
47.7372
 21
47.8979
  0
LINE
  8
0
 10
47.7372
 20
47.8979
 11
47.4621
 21
47.7281
  0
LINE
  8
0
 10
47.4621
 20
47.7281
 11
47.1678
 21
47.5941
  0
LINE
  8
0
 10
47.1678
 20
47.5941
 11
46.859
 21
47.498
  0
LINE
  8
0
 10
46.859
 20
47.498
 11
46.5406
 21
47.4414
  0
LINE
  8
0
 10
46.5406
 20
47.4414
 11
46.2176
 21
47.4252
  0
LINE
  8
0
 10
46.2176
 20
47.4252
 11
45.8952
 21
47.4496
  0
LINE
  8
0
 10
73.1564
 20
43.4629
 11
72.8474
 21
43.5666
  0
LINE
  8
0
 10
72.8474
 20
43.5666
 11
72.5662
 21
43.7316
  0
LINE
  8
0
 10
72.5662
 20
43.7316
 11
72.3251
 21
43.951
  0
LINE
  8
0
 10
72.3251
 20
43.951
 11
72.1344
 21
44.2153
  0
LINE
  8
0
 10
72.1344
 20
44.2153
 11
72.0021
 21
44.5133
  0
LINE
  8
0
 10
72.0021
 20
44.5133
 11
71.934
 21
44.8321
  0
LINE
  8
0
 10
71.934
 20
44.8321
 11
71.9329
 21
45.1581
  0
LINE
  8
0
 10
71.9329
 20
45.1581
 11
71.9991
 21
45.4773
  0
LINE
  8
0
 10
71.9991
 20
45.4773
 11
72.1295
 21
45.776
  0
LINE
  8
0
 10
72.1295
 20
45.776
 11
72.3186
 21
46.0416
  0
LINE
  8
0
 10
72.3186
 20
46.0416
 11
72.5583
 21
46.2625
  0
LINE
  8
0
 10
72.5583
 20
46.2625
 11
72.8384
 21
46.4293
  0
LINE
  8
0
 10
72.8384
 20
46.4293
 11
73.1468
 21
46.5349
  0
LINE
  8
0
 10
73.1468
 20
46.5349
 11
73.4703
 21
46.5747
  0
LINE
  8
0
 10
73.4703
 20
46.5747
 11
73.7951
 21
46.5471
  0
LINE
  8
0
 10
73.7951
 20
46.5471
 11
74.1073
 21
46.4532
  0
LINE
  8
0
 10
74.1073
 20
46.4532
 11
74.3934
 21
46.2971
  0
LINE
  8
0
 10
74.3934
 20
46.2971
 11
74.6413
 21
46.0853
  0
LINE
  8
0
 10
74.6413
 20
46.0853
 11
74.8403
 21
45.8271
  0
LINE
  8
0
 10
74.8403
 20
45.8271
 11
74.9819
 21
45.5335
  0
LINE
  8
0
 10
74.9819
 20
45.5335
 11
75.06
 21
45.217
  0
LINE
  8
0
 10
75.06
 20
45.217
 11
75.0712
 21
44.8912
  0
LINE
  8
0
 10
75.0712
 20
44.8912
 11
75.0152
 21
44.5701
  0
LINE
  8
0
 10
75.0152
 20
44.5701
 11
74.8942
 21
44.2674
  0
LINE
  8
0
 10
74.8942
 20
44.2674
 11
74.7135
 21
43.996
  0
LINE
  8
0
 10
74.7135
 20
43.996
 11
74.4809
 21
43.7677
  0
LINE
  8
0
 10
74.4809
 20
43.7677
 11
74.2062
 21
43.5922
  0
LINE
  8
0
 10
74.2062
 20
43.5922
 11
73.9013
 21
43.477
  0
LINE
  8
0
 10
73.9013
 20
43.477
 11
73.8048
 21
43.4548
  0
LINE
  8
0
 10
73.8048
 20
43.4548
 11
73.4802
 21
43.4251
  0
LINE
  8
0
 10
73.4802
 20
43.4251
 11
73.1564
 21
43.4629
  0
LINE
  8
0
 10
58.1564
 20
43.4629
 11
57.8474
 21
43.5666
  0
LINE
  8
0
 10
57.8474
 20
43.5666
 11
57.5662
 21
43.7316
  0
LINE
  8
0
 10
57.5662
 20
43.7316
 11
57.3251
 21
43.951
  0
LINE
  8
0
 10
57.3251
 20
43.951
 11
57.1344
 21
44.2153
  0
LINE
  8
0
 10
57.1344
 20
44.2153
 11
57.0021
 21
44.5133
  0
LINE
  8
0
 10
57.0021
 20
44.5133
 11
56.934
 21
44.8321
  0
LINE
  8
0
 10
56.934
 20
44.8321
 11
56.9329
 21
45.1581
  0
LINE
  8
0
 10
56.9329
 20
45.1581
 11
56.9991
 21
45.4773
  0
LINE
  8
0
 10
56.9991
 20
45.4773
 11
57.1295
 21
45.776
  0
LINE
  8
0
 10
57.1295
 20
45.776
 11
57.3186
 21
46.0416
  0
LINE
  8
0
 10
57.3186
 20
46.0416
 11
57.5583
 21
46.2625
  0
LINE
  8
0
 10
57.5583
 20
46.2625
 11
57.8384
 21
46.4293
  0
LINE
  8
0
 10
57.8384
 20
46.4293
 11
58.1468
 21
46.5349
  0
LINE
  8
0
 10
58.1468
 20
46.5349
 11
58.4703
 21
46.5747
  0
LINE
  8
0
 10
58.4703
 20
46.5747
 11
58.7951
 21
46.5471
  0
LINE
  8
0
 10
58.7951
 20
46.5471
 11
59.1073
 21
46.4532
  0
LINE
  8
0
 10
59.1073
 20
46.4532
 11
59.3934
 21
46.2971
  0
LINE
  8
0
 10
59.3934
 20
46.2971
 11
59.6413
 21
46.0853
  0
LINE
  8
0
 10
59.6413
 20
46.0853
 11
59.8403
 21
45.8271
  0
LINE
  8
0
 10
59.8403
 20
45.8271
 11
59.9819
 21
45.5335
  0
LINE
  8
0
 10
59.9819
 20
45.5335
 11
60.06
 21
45.217
  0
LINE
  8
0
 10
60.06
 20
45.217
 11
60.0712
 21
44.8912
  0
LINE
  8
0
 10
60.0712
 20
44.8912
 11
60.0152
 21
44.5701
  0
LINE
  8
0
 10
60.0152
 20
44.5701
 11
59.8942
 21
44.2674
  0
LINE
  8
0
 10
59.8942
 20
44.2674
 11
59.7135
 21
43.996
  0
LINE
  8
0
 10
59.7135
 20
43.996
 11
59.4809
 21
43.7677
  0
LINE
  8
0
 10
59.4809
 20
43.7677
 11
59.2062
 21
43.5922
  0
LINE
  8
0
 10
59.2062
 20
43.5922
 11
58.9013
 21
43.477
  0
LINE
  8
0
 10
58.9013
 20
43.477
 11
58.8048
 21
43.4548
  0
LINE
  8
0
 10
58.8048
 20
43.4548
 11
58.4802
 21
43.4251
  0
LINE
  8
0
 10
58.4802
 20
43.4251
 11
58.1564
 21
43.4629
  0
LINE
  8
0
 10
7.15642
 20
40.9629
 11
6.84735
 21
41.0666
  0
LINE
  8
0
 10
6.84735
 20
41.0666
 11
6.56624
 21
41.2316
  0
LINE
  8
0
 10
6.56624
 20
41.2316
 11
6.32513
 21
41.451
  0
LINE
  8
0
 10
6.32513
 20
41.451
 11
6.13435
 21
41.7153
  0
LINE
  8
0
 10
6.13435
 20
41.7153
 11
6.00208
 21
42.0133
  0
LINE
  8
0
 10
6.00208
 20
42.0133
 11
5.93398
 21
42.3321
  0
LINE
  8
0
 10
5.93398
 20
42.3321
 11
5.93294
 21
42.6581
  0
LINE
  8
0
 10
5.93294
 20
42.6581
 11
5.99905
 21
42.9773
  0
LINE
  8
0
 10
5.99905
 20
42.9773
 11
6.12946
 21
43.276
  0
LINE
  8
0
 10
6.12946
 20
43.276
 11
6.31857
 21
43.5416
  0
LINE
  8
0
 10
6.31857
 20
43.5416
 11
6.55829
 21
43.7625
  0
LINE
  8
0
 10
6.55829
 20
43.7625
 11
6.83836
 21
43.9293
  0
LINE
  8
0
 10
6.83836
 20
43.9293
 11
7.14676
 21
44.0349
  0
LINE
  8
0
 10
7.14676
 20
44.0349
 11
7.47031
 21
44.0747
  0
LINE
  8
0
 10
7.47031
 20
44.0747
 11
7.79512
 21
44.0471
  0
LINE
  8
0
 10
7.79512
 20
44.0471
 11
8.10728
 21
43.9532
  0
LINE
  8
0
 10
8.10728
 20
43.9532
 11
8.39345
 21
43.7971
  0
LINE
  8
0
 10
8.39345
 20
43.7971
 11
8.64133
 21
43.5853
  0
LINE
  8
0
 10
8.64133
 20
43.5853
 11
8.8403
 21
43.3271
  0
LINE
  8
0
 10
8.8403
 20
43.3271
 11
8.98187
 21
43.0335
  0
LINE
  8
0
 10
8.98187
 20
43.0335
 11
9.05997
 21
42.717
  0
LINE
  8
0
 10
9.05997
 20
42.717
 11
9.07123
 21
42.3912
  0
LINE
  8
0
 10
9.07123
 20
42.3912
 11
9.01518
 21
42.0701
  0
LINE
  8
0
 10
9.01518
 20
42.0701
 11
8.89423
 21
41.7674
  0
LINE
  8
0
 10
8.89423
 20
41.7674
 11
8.71355
 21
41.496
  0
LINE
  8
0
 10
8.71355
 20
41.496
 11
8.48088
 21
41.2677
  0
LINE
  8
0
 10
8.48088
 20
41.2677
 11
8.20619
 21
41.0922
  0
LINE
  8
0
 10
8.20619
 20
41.0922
 11
7.90126
 21
40.977
  0
LINE
  8
0
 10
7.90126
 20
40.977
 11
7.80484
 21
40.9548
  0
LINE
  8
0
 10
7.80484
 20
40.9548
 11
7.48019
 21
40.9251
  0
LINE
  8
0
 10
7.48019
 20
40.9251
 11
7.15642
 21
40.9629
  0
LINE
  8
0
 10
92.1564
 20
40.9629
 11
91.8474
 21
41.0666
  0
LINE
  8
0
 10
91.8474
 20
41.0666
 11
91.5662
 21
41.2316
  0
LINE
  8
0
 10
91.5662
 20
41.2316
 11
91.3251
 21
41.451
  0
LINE
  8
0
 10
91.3251
 20
41.451
 11
91.1344
 21
41.7153
  0
LINE
  8
0
 10
91.1344
 20
41.7153
 11
91.0021
 21
42.0133
  0
LINE
  8
0
 10
91.0021
 20
42.0133
 11
90.934
 21
42.3321
  0
LINE
  8
0
 10
90.934
 20
42.3321
 11
90.9329
 21
42.6581
  0
LINE
  8
0
 10
90.9329
 20
42.6581
 11
90.9991
 21
42.9773
  0
LINE
  8
0
 10
90.9991
 20
42.9773
 11
91.1295
 21
43.276
  0
LINE
  8
0
 10
91.1295
 20
43.276
 11
91.3186
 21
43.5416
  0
LINE
  8
0
 10
91.3186
 20
43.5416
 11
91.5583
 21
43.7625
  0
LINE
  8
0
 10
91.5583
 20
43.7625
 11
91.8384
 21
43.9293
  0
LINE
  8
0
 10
91.8384
 20
43.9293
 11
92.1468
 21
44.0349
  0
LINE
  8
0
 10
92.1468
 20
44.0349
 11
92.4703
 21
44.0747
  0
LINE
  8
0
 10
92.4703
 20
44.0747
 11
92.7951
 21
44.0471
  0
LINE
  8
0
 10
92.7951
 20
44.0471
 11
93.1073
 21
43.9532
  0
LINE
  8
0
 10
93.1073
 20
43.9532
 11
93.3934
 21
43.7971
  0
LINE
  8
0
 10
93.3934
 20
43.7971
 11
93.6413
 21
43.5853
  0
LINE
  8
0
 10
93.6413
 20
43.5853
 11
93.8403
 21
43.3271
  0
LINE
  8
0
 10
93.8403
 20
43.3271
 11
93.9819
 21
43.0335
  0
LINE
  8
0
 10
93.9819
 20
43.0335
 11
94.06
 21
42.717
  0
LINE
  8
0
 10
94.06
 20
42.717
 11
94.0712
 21
42.3912
  0
LINE
  8
0
 10
94.0712
 20
42.3912
 11
94.0152
 21
42.0701
  0
LINE
  8
0
 10
94.0152
 20
42.0701
 11
93.8942
 21
41.7674
  0
LINE
  8
0
 10
93.8942
 20
41.7674
 11
93.7135
 21
41.496
  0
LINE
  8
0
 10
93.7135
 20
41.496
 11
93.4809
 21
41.2677
  0
LINE
  8
0
 10
93.4809
 20
41.2677
 11
93.2062
 21
41.0922
  0
LINE
  8
0
 10
93.2062
 20
41.0922
 11
92.9013
 21
40.977
  0
LINE
  8
0
 10
92.9013
 20
40.977
 11
92.8048
 21
40.9548
  0
LINE
  8
0
 10
92.8048
 20
40.9548
 11
92.4802
 21
40.9251
  0
LINE
  8
0
 10
92.4802
 20
40.9251
 11
92.1564
 21
40.9629
  0
LINE
  8
0
 10
7.15642
 20
25.9629
 11
6.84735
 21
26.0666
  0
LINE
  8
0
 10
6.84735
 20
26.0666
 11
6.56624
 21
26.2316
  0
LINE
  8
0
 10
6.56624
 20
26.2316
 11
6.32513
 21
26.451
  0
LINE
  8
0
 10
6.32513
 20
26.451
 11
6.13435
 21
26.7153
  0
LINE
  8
0
 10
6.13435
 20
26.7153
 11
6.00208
 21
27.0133
  0
LINE
  8
0
 10
6.00208
 20
27.0133
 11
5.93398
 21
27.3321
  0
LINE
  8
0
 10
5.93398
 20
27.3321
 11
5.93294
 21
27.6581
  0
LINE
  8
0
 10
5.93294
 20
27.6581
 11
5.99905
 21
27.9773
  0
LINE
  8
0
 10
5.99905
 20
27.9773
 11
6.12946
 21
28.276
  0
LINE
  8
0
 10
6.12946
 20
28.276
 11
6.31857
 21
28.5416
  0
LINE
  8
0
 10
6.31857
 20
28.5416
 11
6.55829
 21
28.7625
  0
LINE
  8
0
 10
6.55829
 20
28.7625
 11
6.83836
 21
28.9293
  0
LINE
  8
0
 10
6.83836
 20
28.9293
 11
7.14676
 21
29.0349
  0
LINE
  8
0
 10
7.14676
 20
29.0349
 11
7.47031
 21
29.0747
  0
LINE
  8
0
 10
7.47031
 20
29.0747
 11
7.79512
 21
29.0471
  0
LINE
  8
0
 10
7.79512
 20
29.0471
 11
8.10728
 21
28.9532
  0
LINE
  8
0
 10
8.10728
 20
28.9532
 11
8.39345
 21
28.7971
  0
LINE
  8
0
 10
8.39345
 20
28.7971
 11
8.64133
 21
28.5853
  0
LINE
  8
0
 10
8.64133
 20
28.5853
 11
8.8403
 21
28.3271
  0
LINE
  8
0
 10
8.8403
 20
28.3271
 11
8.98187
 21
28.0335
  0
LINE
  8
0
 10
8.98187
 20
28.0335
 11
9.05997
 21
27.717
  0
LINE
  8
0
 10
9.05997
 20
27.717
 11
9.07123
 21
27.3912
  0
LINE
  8
0
 10
9.07123
 20
27.3912
 11
9.01518
 21
27.0701
  0
LINE
  8
0
 10
9.01518
 20
27.0701
 11
8.89423
 21
26.7674
  0
LINE
  8
0
 10
8.89423
 20
26.7674
 11
8.71355
 21
26.496
  0
LINE
  8
0
 10
8.71355
 20
26.496
 11
8.48088
 21
26.2677
  0
LINE
  8
0
 10
8.48088
 20
26.2677
 11
8.20619
 21
26.0922
  0
LINE
  8
0
 10
8.20619
 20
26.0922
 11
7.90126
 21
25.977
  0
LINE
  8
0
 10
7.90126
 20
25.977
 11
7.80484
 21
25.9548
  0
LINE
  8
0
 10
7.80484
 20
25.9548
 11
7.48019
 21
25.9251
  0
LINE
  8
0
 10
7.48019
 20
25.9251
 11
7.15642
 21
25.9629
  0
LINE
  8
0
 10
92.1564
 20
25.9629
 11
91.8474
 21
26.0666
  0
LINE
  8
0
 10
91.8474
 20
26.0666
 11
91.5662
 21
26.2316
  0
LINE
  8
0
 10
91.5662
 20
26.2316
 11
91.3251
 21
26.451
  0
LINE
  8
0
 10
91.3251
 20
26.451
 11
91.1344
 21
26.7153
  0
LINE
  8
0
 10
91.1344
 20
26.7153
 11
91.0021
 21
27.0133
  0
LINE
  8
0
 10
91.0021
 20
27.0133
 11
90.934
 21
27.3321
  0
LINE
  8
0
 10
90.934
 20
27.3321
 11
90.9329
 21
27.6581
  0
LINE
  8
0
 10
90.9329
 20
27.6581
 11
90.9991
 21
27.9773
  0
LINE
  8
0
 10
90.9991
 20
27.9773
 11
91.1295
 21
28.276
  0
LINE
  8
0
 10
91.1295
 20
28.276
 11
91.3186
 21
28.5416
  0
LINE
  8
0
 10
91.3186
 20
28.5416
 11
91.5583
 21
28.7625
  0
LINE
  8
0
 10
91.5583
 20
28.7625
 11
91.8384
 21
28.9293
  0
LINE
  8
0
 10
91.8384
 20
28.9293
 11
92.1468
 21
29.0349
  0
LINE
  8
0
 10
92.1468
 20
29.0349
 11
92.4703
 21
29.0747
  0
LINE
  8
0
 10
92.4703
 20
29.0747
 11
92.7951
 21
29.0471
  0
LINE
  8
0
 10
92.7951
 20
29.0471
 11
93.1073
 21
28.9532
  0
LINE
  8
0
 10
93.1073
 20
28.9532
 11
93.3934
 21
28.7971
  0
LINE
  8
0
 10
93.3934
 20
28.7971
 11
93.6413
 21
28.5853
  0
LINE
  8
0
 10
93.6413
 20
28.5853
 11
93.8403
 21
28.3271
  0
LINE
  8
0
 10
93.8403
 20
28.3271
 11
93.9819
 21
28.0335
  0
LINE
  8
0
 10
93.9819
 20
28.0335
 11
94.06
 21
27.717
  0
LINE
  8
0
 10
94.06
 20
27.717
 11
94.0712
 21
27.3912
  0
LINE
  8
0
 10
94.0712
 20
27.3912
 11
94.0152
 21
27.0701
  0
LINE
  8
0
 10
94.0152
 20
27.0701
 11
93.8942
 21
26.7674
  0
LINE
  8
0
 10
93.8942
 20
26.7674
 11
93.7135
 21
26.496
  0
LINE
  8
0
 10
93.7135
 20
26.496
 11
93.4809
 21
26.2677
  0
LINE
  8
0
 10
93.4809
 20
26.2677
 11
93.2062
 21
26.0922
  0
LINE
  8
0
 10
93.2062
 20
26.0922
 11
92.9013
 21
25.977
  0
LINE
  8
0
 10
92.9013
 20
25.977
 11
92.8048
 21
25.9548
  0
LINE
  8
0
 10
92.8048
 20
25.9548
 11
92.4802
 21
25.9251
  0
LINE
  8
0
 10
92.4802
 20
25.9251
 11
92.1564
 21
25.9629
  0
LINE
  8
0
 10
201
 20
100
 11
101
 21
100
  0
LINE
  8
0
 10
101
 20
100
 11
101
 21
0
  0
LINE
  8
0
 10
101
 20
0
 11
201
 21
0
  0
LINE
  8
0
 10
201
 20
0
 11
201
 21
100
  0
LINE
  8
0
 10
193.156
 20
70.9629
 11
192.847
 21
71.0666
  0
LINE
  8
0
 10
192.847
 20
71.0666
 11
192.566
 21
71.2316
  0
LINE
  8
0
 10
192.566
 20
71.2316
 11
192.325
 21
71.451
  0
LINE
  8
0
 10
192.325
 20
71.451
 11
192.134
 21
71.7153
  0
LINE
  8
0
 10
192.134
 20
71.7153
 11
192.002
 21
72.0133
  0
LINE
  8
0
 10
192.002
 20
72.0133
 11
191.934
 21
72.3321
  0
LINE
  8
0
 10
191.934
 20
72.3321
 11
191.933
 21
72.6581
  0
LINE
  8
0
 10
191.933
 20
72.6581
 11
191.999
 21
72.9773
  0
LINE
  8
0
 10
191.999
 20
72.9773
 11
192.129
 21
73.276
  0
LINE
  8
0
 10
192.129
 20
73.276
 11
192.319
 21
73.5416
  0
LINE
  8
0
 10
192.319
 20
73.5416
 11
192.558
 21
73.7625
  0
LINE
  8
0
 10
192.558
 20
73.7625
 11
192.838
 21
73.9293
  0
LINE
  8
0
 10
192.838
 20
73.9293
 11
193.147
 21
74.0349
  0
LINE
  8
0
 10
193.147
 20
74.0349
 11
193.47
 21
74.0747
  0
LINE
  8
0
 10
193.47
 20
74.0747
 11
193.795
 21
74.0471
  0
LINE
  8
0
 10
193.795
 20
74.0471
 11
194.107
 21
73.9532
  0
LINE
  8
0
 10
194.107
 20
73.9532
 11
194.393
 21
73.7971
  0
LINE
  8
0
 10
194.393
 20
73.7971
 11
194.641
 21
73.5853
  0
LINE
  8
0
 10
194.641
 20
73.5853
 11
194.84
 21
73.3271
  0
LINE
  8
0
 10
194.84
 20
73.3271
 11
194.982
 21
73.0335
  0
LINE
  8
0
 10
194.982
 20
73.0335
 11
195.06
 21
72.717
  0
LINE
  8
0
 10
195.06
 20
72.717
 11
195.071
 21
72.3912
  0
LINE
  8
0
 10
195.071
 20
72.3912
 11
195.015
 21
72.0701
  0
LINE
  8
0
 10
195.015
 20
72.0701
 11
194.894
 21
71.7674
  0
LINE
  8
0
 10
194.894
 20
71.7674
 11
194.714
 21
71.496
  0
LINE
  8
0
 10
194.714
 20
71.496
 11
194.481
 21
71.2677
  0
LINE
  8
0
 10
194.481
 20
71.2677
 11
194.206
 21
71.0922
  0
LINE
  8
0
 10
194.206
 20
71.0922
 11
193.901
 21
70.977
  0
LINE
  8
0
 10
193.901
 20
70.977
 11
193.805
 21
70.9548
  0
LINE
  8
0
 10
193.805
 20
70.9548
 11
193.48
 21
70.9251
  0
LINE
  8
0
 10
193.48
 20
70.9251
 11
193.156
 21
70.9629
  0
LINE
  8
0
 10
108.156
 20
70.9629
 11
107.847
 21
71.0666
  0
LINE
  8
0
 10
107.847
 20
71.0666
 11
107.566
 21
71.2316
  0
LINE
  8
0
 10
107.566
 20
71.2316
 11
107.325
 21
71.451
  0
LINE
  8
0
 10
107.325
 20
71.451
 11
107.134
 21
71.7153
  0
LINE
  8
0
 10
107.134
 20
71.7153
 11
107.002
 21
72.0133
  0
LINE
  8
0
 10
107.002
 20
72.0133
 11
106.934
 21
72.3321
  0
LINE
  8
0
 10
106.934
 20
72.3321
 11
106.933
 21
72.6581
  0
LINE
  8
0
 10
106.933
 20
72.6581
 11
106.999
 21
72.9773
  0
LINE
  8
0
 10
106.999
 20
72.9773
 11
107.129
 21
73.276
  0
LINE
  8
0
 10
107.129
 20
73.276
 11
107.319
 21
73.5416
  0
LINE
  8
0
 10
107.319
 20
73.5416
 11
107.558
 21
73.7625
  0
LINE
  8
0
 10
107.558
 20
73.7625
 11
107.838
 21
73.9293
  0
LINE
  8
0
 10
107.838
 20
73.9293
 11
108.147
 21
74.0349
  0
LINE
  8
0
 10
108.147
 20
74.0349
 11
108.47
 21
74.0747
  0
LINE
  8
0
 10
108.47
 20
74.0747
 11
108.795
 21
74.0471
  0
LINE
  8
0
 10
108.795
 20
74.0471
 11
109.107
 21
73.9532
  0
LINE
  8
0
 10
109.107
 20
73.9532
 11
109.393
 21
73.7971
  0
LINE
  8
0
 10
109.393
 20
73.7971
 11
109.641
 21
73.5853
  0
LINE
  8
0
 10
109.641
 20
73.5853
 11
109.84
 21
73.3271
  0
LINE
  8
0
 10
109.84
 20
73.3271
 11
109.982
 21
73.0335
  0
LINE
  8
0
 10
109.982
 20
73.0335
 11
110.06
 21
72.717
  0
LINE
  8
0
 10
110.06
 20
72.717
 11
110.071
 21
72.3912
  0
LINE
  8
0
 10
110.071
 20
72.3912
 11
110.015
 21
72.0701
  0
LINE
  8
0
 10
110.015
 20
72.0701
 11
109.894
 21
71.7674
  0
LINE
  8
0
 10
109.894
 20
71.7674
 11
109.714
 21
71.496
  0
LINE
  8
0
 10
109.714
 20
71.496
 11
109.481
 21
71.2677
  0
LINE
  8
0
 10
109.481
 20
71.2677
 11
109.206
 21
71.0922
  0
LINE
  8
0
 10
109.206
 20
71.0922
 11
108.901
 21
70.977
  0
LINE
  8
0
 10
108.901
 20
70.977
 11
108.805
 21
70.9548
  0
LINE
  8
0
 10
108.805
 20
70.9548
 11
108.48
 21
70.9251
  0
LINE
  8
0
 10
108.48
 20
70.9251
 11
108.156
 21
70.9629
  0
LINE
  8
0
 10
108.156
 20
55.9629
 11
107.847
 21
56.0666
  0
LINE
  8
0
 10
107.847
 20
56.0666
 11
107.566
 21
56.2316
  0
LINE
  8
0
 10
107.566
 20
56.2316
 11
107.325
 21
56.451
  0
LINE
  8
0
 10
107.325
 20
56.451
 11
107.134
 21
56.7153
  0
LINE
  8
0
 10
107.134
 20
56.7153
 11
107.002
 21
57.0133
  0
LINE
  8
0
 10
107.002
 20
57.0133
 11
106.934
 21
57.3321
  0
LINE
  8
0
 10
106.934
 20
57.3321
 11
106.933
 21
57.6581
  0
LINE
  8
0
 10
106.933
 20
57.6581
 11
106.999
 21
57.9773
  0
LINE
  8
0
 10
106.999
 20
57.9773
 11
107.129
 21
58.276
  0
LINE
  8
0
 10
107.129
 20
58.276
 11
107.319
 21
58.5416
  0
LINE
  8
0
 10
107.319
 20
58.5416
 11
107.558
 21
58.7625
  0
LINE
  8
0
 10
107.558
 20
58.7625
 11
107.838
 21
58.9293
  0
LINE
  8
0
 10
107.838
 20
58.9293
 11
108.147
 21
59.0349
  0
LINE
  8
0
 10
108.147
 20
59.0349
 11
108.47
 21
59.0747
  0
LINE
  8
0
 10
108.47
 20
59.0747
 11
108.795
 21
59.0471
  0
LINE
  8
0
 10
108.795
 20
59.0471
 11
109.107
 21
58.9532
  0
LINE
  8
0
 10
109.107
 20
58.9532
 11
109.393
 21
58.7971
  0
LINE
  8
0
 10
109.393
 20
58.7971
 11
109.641
 21
58.5853
  0
LINE
  8
0
 10
109.641
 20
58.5853
 11
109.84
 21
58.3271
  0
LINE
  8
0
 10
109.84
 20
58.3271
 11
109.982
 21
58.0335
  0
LINE
  8
0
 10
109.982
 20
58.0335
 11
110.06
 21
57.717
  0
LINE
  8
0
 10
110.06
 20
57.717
 11
110.071
 21
57.3912
  0
LINE
  8
0
 10
110.071
 20
57.3912
 11
110.015
 21
57.0701
  0
LINE
  8
0
 10
110.015
 20
57.0701
 11
109.894
 21
56.7674
  0
LINE
  8
0
 10
109.894
 20
56.7674
 11
109.714
 21
56.496
  0
LINE
  8
0
 10
109.714
 20
56.496
 11
109.481
 21
56.2677
  0
LINE
  8
0
 10
109.481
 20
56.2677
 11
109.206
 21
56.0922
  0
LINE
  8
0
 10
109.206
 20
56.0922
 11
108.901
 21
55.977
  0
LINE
  8
0
 10
108.901
 20
55.977
 11
108.805
 21
55.9548
  0
LINE
  8
0
 10
108.805
 20
55.9548
 11
108.48
 21
55.9251
  0
LINE
  8
0
 10
108.48
 20
55.9251
 11
108.156
 21
55.9629
  0
LINE
  8
0
 10
193.156
 20
55.9629
 11
192.847
 21
56.0666
  0
LINE
  8
0
 10
192.847
 20
56.0666
 11
192.566
 21
56.2316
  0
LINE
  8
0
 10
192.566
 20
56.2316
 11
192.325
 21
56.451
  0
LINE
  8
0
 10
192.325
 20
56.451
 11
192.134
 21
56.7153
  0
LINE
  8
0
 10
192.134
 20
56.7153
 11
192.002
 21
57.0133
  0
LINE
  8
0
 10
192.002
 20
57.0133
 11
191.934
 21
57.3321
  0
LINE
  8
0
 10
191.934
 20
57.3321
 11
191.933
 21
57.6581
  0
LINE
  8
0
 10
191.933
 20
57.6581
 11
191.999
 21
57.9773
  0
LINE
  8
0
 10
191.999
 20
57.9773
 11
192.129
 21
58.276
  0
LINE
  8
0
 10
192.129
 20
58.276
 11
192.319
 21
58.5416
  0
LINE
  8
0
 10
192.319
 20
58.5416
 11
192.558
 21
58.7625
  0
LINE
  8
0
 10
192.558
 20
58.7625
 11
192.838
 21
58.9293
  0
LINE
  8
0
 10
192.838
 20
58.9293
 11
193.147
 21
59.0349
  0
LINE
  8
0
 10
193.147
 20
59.0349
 11
193.47
 21
59.0747
  0
LINE
  8
0
 10
193.47
 20
59.0747
 11
193.795
 21
59.0471
  0
LINE
  8
0
 10
193.795
 20
59.0471
 11
194.107
 21
58.9532
  0
LINE
  8
0
 10
194.107
 20
58.9532
 11
194.393
 21
58.7971
  0
LINE
  8
0
 10
194.393
 20
58.7971
 11
194.641
 21
58.5853
  0
LINE
  8
0
 10
194.641
 20
58.5853
 11
194.84
 21
58.3271
  0
LINE
  8
0
 10
194.84
 20
58.3271
 11
194.982
 21
58.0335
  0
LINE
  8
0
 10
194.982
 20
58.0335
 11
195.06
 21
57.717
  0
LINE
  8
0
 10
195.06
 20
57.717
 11
195.071
 21
57.3912
  0
LINE
  8
0
 10
195.071
 20
57.3912
 11
195.015
 21
57.0701
  0
LINE
  8
0
 10
195.015
 20
57.0701
 11
194.894
 21
56.7674
  0
LINE
  8
0
 10
194.894
 20
56.7674
 11
194.714
 21
56.496
  0
LINE
  8
0
 10
194.714
 20
56.496
 11
194.481
 21
56.2677
  0
LINE
  8
0
 10
194.481
 20
56.2677
 11
194.206
 21
56.0922
  0
LINE
  8
0
 10
194.206
 20
56.0922
 11
193.901
 21
55.977
  0
LINE
  8
0
 10
193.901
 20
55.977
 11
193.805
 21
55.9548
  0
LINE
  8
0
 10
193.805
 20
55.9548
 11
193.48
 21
55.9251
  0
LINE
  8
0
 10
193.48
 20
55.9251
 11
193.156
 21
55.9629
  0
LINE
  8
0
 10
174.156
 20
53.4629
 11
173.847
 21
53.5666
  0
LINE
  8
0
 10
173.847
 20
53.5666
 11
173.566
 21
53.7316
  0
LINE
  8
0
 10
173.566
 20
53.7316
 11
173.325
 21
53.951
  0
LINE
  8
0
 10
173.325
 20
53.951
 11
173.134
 21
54.2153
  0
LINE
  8
0
 10
173.134
 20
54.2153
 11
173.002
 21
54.5133
  0
LINE
  8
0
 10
173.002
 20
54.5133
 11
172.934
 21
54.8321
  0
LINE
  8
0
 10
172.934
 20
54.8321
 11
172.933
 21
55.1581
  0
LINE
  8
0
 10
172.933
 20
55.1581
 11
172.999
 21
55.4773
  0
LINE
  8
0
 10
172.999
 20
55.4773
 11
173.129
 21
55.776
  0
LINE
  8
0
 10
173.129
 20
55.776
 11
173.319
 21
56.0416
  0
LINE
  8
0
 10
173.319
 20
56.0416
 11
173.558
 21
56.2625
  0
LINE
  8
0
 10
173.558
 20
56.2625
 11
173.838
 21
56.4293
  0
LINE
  8
0
 10
173.838
 20
56.4293
 11
174.147
 21
56.5349
  0
LINE
  8
0
 10
174.147
 20
56.5349
 11
174.47
 21
56.5747
  0
LINE
  8
0
 10
174.47
 20
56.5747
 11
174.795
 21
56.5471
  0
LINE
  8
0
 10
174.795
 20
56.5471
 11
175.107
 21
56.4532
  0
LINE
  8
0
 10
175.107
 20
56.4532
 11
175.393
 21
56.2971
  0
LINE
  8
0
 10
175.393
 20
56.2971
 11
175.641
 21
56.0853
  0
LINE
  8
0
 10
175.641
 20
56.0853
 11
175.84
 21
55.8271
  0
LINE
  8
0
 10
175.84
 20
55.8271
 11
175.982
 21
55.5335
  0
LINE
  8
0
 10
175.982
 20
55.5335
 11
176.06
 21
55.217
  0
LINE
  8
0
 10
176.06
 20
55.217
 11
176.071
 21
54.8912
  0
LINE
  8
0
 10
176.071
 20
54.8912
 11
176.015
 21
54.5701
  0
LINE
  8
0
 10
176.015
 20
54.5701
 11
175.894
 21
54.2674
  0
LINE
  8
0
 10
175.894
 20
54.2674
 11
175.714
 21
53.996
  0
LINE
  8
0
 10
175.714
 20
53.996
 11
175.481
 21
53.7677
  0
LINE
  8
0
 10
175.481
 20
53.7677
 11
175.206
 21
53.5922
  0
LINE
  8
0
 10
175.206
 20
53.5922
 11
174.901
 21
53.477
  0
LINE
  8
0
 10
174.901
 20
53.477
 11
174.805
 21
53.4548
  0
LINE
  8
0
 10
174.805
 20
53.4548
 11
174.48
 21
53.4251
  0
LINE
  8
0
 10
174.48
 20
53.4251
 11
174.156
 21
53.4629
  0
LINE
  8
0
 10
159.156
 20
53.4629
 11
158.847
 21
53.5666
  0
LINE
  8
0
 10
158.847
 20
53.5666
 11
158.566
 21
53.7316
  0
LINE
  8
0
 10
158.566
 20
53.7316
 11
158.325
 21
53.951
  0
LINE
  8
0
 10
158.325
 20
53.951
 11
158.134
 21
54.2153
  0
LINE
  8
0
 10
158.134
 20
54.2153
 11
158.002
 21
54.5133
  0
LINE
  8
0
 10
158.002
 20
54.5133
 11
157.934
 21
54.8321
  0
LINE
  8
0
 10
157.934
 20
54.8321
 11
157.933
 21
55.1581
  0
LINE
  8
0
 10
157.933
 20
55.1581
 11
157.999
 21
55.4773
  0
LINE
  8
0
 10
157.999
 20
55.4773
 11
158.129
 21
55.776
  0
LINE
  8
0
 10
158.129
 20
55.776
 11
158.319
 21
56.0416
  0
LINE
  8
0
 10
158.319
 20
56.0416
 11
158.558
 21
56.2625
  0
LINE
  8
0
 10
158.558
 20
56.2625
 11
158.838
 21
56.4293
  0
LINE
  8
0
 10
158.838
 20
56.4293
 11
159.147
 21
56.5349
  0
LINE
  8
0
 10
159.147
 20
56.5349
 11
159.47
 21
56.5747
  0
LINE
  8
0
 10
159.47
 20
56.5747
 11
159.795
 21
56.5471
  0
LINE
  8
0
 10
159.795
 20
56.5471
 11
160.107
 21
56.4532
  0
LINE
  8
0
 10
160.107
 20
56.4532
 11
160.393
 21
56.2971
  0
LINE
  8
0
 10
160.393
 20
56.2971
 11
160.641
 21
56.0853
  0
LINE
  8
0
 10
160.641
 20
56.0853
 11
160.84
 21
55.8271
  0
LINE
  8
0
 10
160.84
 20
55.8271
 11
160.982
 21
55.5335
  0
LINE
  8
0
 10
160.982
 20
55.5335
 11
161.06
 21
55.217
  0
LINE
  8
0
 10
161.06
 20
55.217
 11
161.071
 21
54.8912
  0
LINE
  8
0
 10
161.071
 20
54.8912
 11
161.015
 21
54.5701
  0
LINE
  8
0
 10
161.015
 20
54.5701
 11
160.894
 21
54.2674
  0
LINE
  8
0
 10
160.894
 20
54.2674
 11
160.714
 21
53.996
  0
LINE
  8
0
 10
160.714
 20
53.996
 11
160.481
 21
53.7677
  0
LINE
  8
0
 10
160.481
 20
53.7677
 11
160.206
 21
53.5922
  0
LINE
  8
0
 10
160.206
 20
53.5922
 11
159.901
 21
53.477
  0
LINE
  8
0
 10
159.901
 20
53.477
 11
159.805
 21
53.4548
  0
LINE
  8
0
 10
159.805
 20
53.4548
 11
159.48
 21
53.4251
  0
LINE
  8
0
 10
159.48
 20
53.4251
 11
159.156
 21
53.4629
  0
LINE
  8
0
 10
126.895
 20
47.4496
 11
126.578
 21
47.5141
  0
LINE
  8
0
 10
126.578
 20
47.5141
 11
126.272
 21
47.6179
  0
LINE
  8
0
 10
126.272
 20
47.6179
 11
125.981
 21
47.7593
  0
LINE
  8
0
 10
125.981
 20
47.7593
 11
125.71
 21
47.936
  0
LINE
  8
0
 10
125.71
 20
47.936
 11
125.464
 21
48.1452
  0
LINE
  8
0
 10
125.464
 20
48.1452
 11
125.245
 21
48.3837
  0
LINE
  8
0
 10
125.245
 20
48.3837
 11
125.059
 21
48.6477
  0
LINE
  8
0
 10
125.059
 20
48.6477
 11
124.906
 21
48.933
  0
LINE
  8
0
 10
124.906
 20
48.933
 11
124.791
 21
49.2351
  0
LINE
  8
0
 10
124.791
 20
49.2351
 11
124.715
 21
49.5493
  0
LINE
  8
0
 10
124.715
 20
49.5493
 11
124.678
 21
49.8706
  0
LINE
  8
0
 10
124.678
 20
49.8706
 11
124.682
 21
50.194
  0
LINE
  8
0
 10
124.682
 20
50.194
 11
124.727
 21
50.5143
  0
LINE
  8
0
 10
124.727
 20
50.5143
 11
124.811
 21
50.8264
  0
LINE
  8
0
 10
124.811
 20
50.8264
 11
124.934
 21
51.1256
  0
LINE
  8
0
 10
124.934
 20
51.1256
 11
125.093
 21
51.407
  0
LINE
  8
0
 10
125.093
 20
51.407
 11
125.287
 21
51.6662
  0
LINE
  8
0
 10
125.287
 20
51.6662
 11
125.511
 21
51.8991
  0
LINE
  8
0
 10
125.511
 20
51.8991
 11
125.763
 21
52.1021
  0
LINE
  8
0
 10
125.763
 20
52.1021
 11
126.038
 21
52.2719
  0
LINE
  8
0
 10
126.038
 20
52.2719
 11
126.332
 21
52.4059
  0
LINE
  8
0
 10
126.332
 20
52.4059
 11
126.641
 21
52.5019
  0
LINE
  8
0
 10
126.641
 20
52.5019
 11
126.959
 21
52.5585
  0
LINE
  8
0
 10
126.959
 20
52.5585
 11
127.282
 21
52.5748
  0
LINE
  8
0
 10
127.282
 20
52.5748
 11
127.605
 21
52.5504
  0
LINE
  8
0
 10
127.605
 20
52.5504
 11
127.922
 21
52.4859
  0
LINE
  8
0
 10
127.922
 20
52.4859
 11
128.228
 21
52.3821
  0
LINE
  8
0
 10
128.228
 20
52.3821
 11
128.519
 21
52.2407
  0
LINE
  8
0
 10
128.519
 20
52.2407
 11
128.79
 21
52.064
  0
LINE
  8
0
 10
128.79
 20
52.064
 11
129.036
 21
51.8548
  0
LINE
  8
0
 10
129.036
 20
51.8548
 11
129.255
 21
51.6163
  0
LINE
  8
0
 10
129.255
 20
51.6163
 11
129.441
 21
51.3523
  0
LINE
  8
0
 10
129.441
 20
51.3523
 11
129.594
 21
51.067
  0
LINE
  8
0
 10
129.594
 20
51.067
 11
129.709
 21
50.7649
  0
LINE
  8
0
 10
129.709
 20
50.7649
 11
129.785
 21
50.4507
  0
LINE
  8
0
 10
129.785
 20
50.4507
 11
129.822
 21
50.1294
  0
LINE
  8
0
 10
129.822
 20
50.1294
 11
129.818
 21
49.806
  0
LINE
  8
0
 10
129.818
 20
49.806
 11
129.773
 21
49.4857
  0
LINE
  8
0
 10
129.773
 20
49.4857
 11
129.689
 21
49.1736
  0
LINE
  8
0
 10
129.689
 20
49.1736
 11
129.566
 21
48.8744
  0
LINE
  8
0
 10
129.566
 20
48.8744
 11
129.407
 21
48.593
  0
LINE
  8
0
 10
129.407
 20
48.593
 11
129.213
 21
48.3338
  0
LINE
  8
0
 10
129.213
 20
48.3338
 11
128.989
 21
48.1009
  0
LINE
  8
0
 10
128.989
 20
48.1009
 11
128.737
 21
47.8979
  0
LINE
  8
0
 10
128.737
 20
47.8979
 11
128.462
 21
47.7281
  0
LINE
  8
0
 10
128.462
 20
47.7281
 11
128.168
 21
47.5941
  0
LINE
  8
0
 10
128.168
 20
47.5941
 11
127.859
 21
47.498
  0
LINE
  8
0
 10
127.859
 20
47.498
 11
127.541
 21
47.4414
  0
LINE
  8
0
 10
127.541
 20
47.4414
 11
127.218
 21
47.4252
  0
LINE
  8
0
 10
127.218
 20
47.4252
 11
126.895
 21
47.4496
  0
LINE
  8
0
 10
146.895
 20
47.4496
 11
146.578
 21
47.5141
  0
LINE
  8
0
 10
146.578
 20
47.5141
 11
146.272
 21
47.6179
  0
LINE
  8
0
 10
146.272
 20
47.6179
 11
145.981
 21
47.7593
  0
LINE
  8
0
 10
145.981
 20
47.7593
 11
145.71
 21
47.936
  0
LINE
  8
0
 10
145.71
 20
47.936
 11
145.464
 21
48.1452
  0
LINE
  8
0
 10
145.464
 20
48.1452
 11
145.245
 21
48.3837
  0
LINE
  8
0
 10
145.245
 20
48.3837
 11
145.059
 21
48.6477
  0
LINE
  8
0
 10
145.059
 20
48.6477
 11
144.906
 21
48.933
  0
LINE
  8
0
 10
144.906
 20
48.933
 11
144.791
 21
49.2351
  0
LINE
  8
0
 10
144.791
 20
49.2351
 11
144.715
 21
49.5493
  0
LINE
  8
0
 10
144.715
 20
49.5493
 11
144.678
 21
49.8706
  0
LINE
  8
0
 10
144.678
 20
49.8706
 11
144.682
 21
50.194
  0
LINE
  8
0
 10
144.682
 20
50.194
 11
144.727
 21
50.5143
  0
LINE
  8
0
 10
144.727
 20
50.5143
 11
144.811
 21
50.8264
  0
LINE
  8
0
 10
144.811
 20
50.8264
 11
144.934
 21
51.1256
  0
LINE
  8
0
 10
144.934
 20
51.1256
 11
145.093
 21
51.407
  0
LINE
  8
0
 10
145.093
 20
51.407
 11
145.287
 21
51.6662
  0
LINE
  8
0
 10
145.287
 20
51.6662
 11
145.511
 21
51.8991
  0
LINE
  8
0
 10
145.511
 20
51.8991
 11
145.763
 21
52.1021
  0
LINE
  8
0
 10
145.763
 20
52.1021
 11
146.038
 21
52.2719
  0
LINE
  8
0
 10
146.038
 20
52.2719
 11
146.332
 21
52.4059
  0
LINE
  8
0
 10
146.332
 20
52.4059
 11
146.641
 21
52.5019
  0
LINE
  8
0
 10
146.641
 20
52.5019
 11
146.959
 21
52.5585
  0
LINE
  8
0
 10
146.959
 20
52.5585
 11
147.282
 21
52.5748
  0
LINE
  8
0
 10
147.282
 20
52.5748
 11
147.605
 21
52.5504
  0
LINE
  8
0
 10
147.605
 20
52.5504
 11
147.922
 21
52.4859
  0
LINE
  8
0
 10
147.922
 20
52.4859
 11
148.228
 21
52.3821
  0
LINE
  8
0
 10
148.228
 20
52.3821
 11
148.519
 21
52.2407
  0
LINE
  8
0
 10
148.519
 20
52.2407
 11
148.79
 21
52.064
  0
LINE
  8
0
 10
148.79
 20
52.064
 11
149.036
 21
51.8548
  0
LINE
  8
0
 10
149.036
 20
51.8548
 11
149.255
 21
51.6163
  0
LINE
  8
0
 10
149.255
 20
51.6163
 11
149.441
 21
51.3523
  0
LINE
  8
0
 10
149.441
 20
51.3523
 11
149.594
 21
51.067
  0
LINE
  8
0
 10
149.594
 20
51.067
 11
149.709
 21
50.7649
  0
LINE
  8
0
 10
149.709
 20
50.7649
 11
149.785
 21
50.4507
  0
LINE
  8
0
 10
149.785
 20
50.4507
 11
149.822
 21
50.1294
  0
LINE
  8
0
 10
149.822
 20
50.1294
 11
149.818
 21
49.806
  0
LINE
  8
0
 10
149.818
 20
49.806
 11
149.773
 21
49.4857
  0
LINE
  8
0
 10
149.773
 20
49.4857
 11
149.689
 21
49.1736
  0
LINE
  8
0
 10
149.689
 20
49.1736
 11
149.566
 21
48.8744
  0
LINE
  8
0
 10
149.566
 20
48.8744
 11
149.407
 21
48.593
  0
LINE
  8
0
 10
149.407
 20
48.593
 11
149.213
 21
48.3338
  0
LINE
  8
0
 10
149.213
 20
48.3338
 11
148.989
 21
48.1009
  0
LINE
  8
0
 10
148.989
 20
48.1009
 11
148.737
 21
47.8979
  0
LINE
  8
0
 10
148.737
 20
47.8979
 11
148.462
 21
47.7281
  0
LINE
  8
0
 10
148.462
 20
47.7281
 11
148.168
 21
47.5941
  0
LINE
  8
0
 10
148.168
 20
47.5941
 11
147.859
 21
47.498
  0
LINE
  8
0
 10
147.859
 20
47.498
 11
147.541
 21
47.4414
  0
LINE
  8
0
 10
147.541
 20
47.4414
 11
147.218
 21
47.4252
  0
LINE
  8
0
 10
147.218
 20
47.4252
 11
146.895
 21
47.4496
  0
LINE
  8
0
 10
174.156
 20
43.4629
 11
173.847
 21
43.5666
  0
LINE
  8
0
 10
173.847
 20
43.5666
 11
173.566
 21
43.7316
  0
LINE
  8
0
 10
173.566
 20
43.7316
 11
173.325
 21
43.951
  0
LINE
  8
0
 10
173.325
 20
43.951
 11
173.134
 21
44.2153
  0
LINE
  8
0
 10
173.134
 20
44.2153
 11
173.002
 21
44.5133
  0
LINE
  8
0
 10
173.002
 20
44.5133
 11
172.934
 21
44.8321
  0
LINE
  8
0
 10
172.934
 20
44.8321
 11
172.933
 21
45.1581
  0
LINE
  8
0
 10
172.933
 20
45.1581
 11
172.999
 21
45.4773
  0
LINE
  8
0
 10
172.999
 20
45.4773
 11
173.129
 21
45.776
  0
LINE
  8
0
 10
173.129
 20
45.776
 11
173.319
 21
46.0416
  0
LINE
  8
0
 10
173.319
 20
46.0416
 11
173.558
 21
46.2625
  0
LINE
  8
0
 10
173.558
 20
46.2625
 11
173.838
 21
46.4293
  0
LINE
  8
0
 10
173.838
 20
46.4293
 11
174.147
 21
46.5349
  0
LINE
  8
0
 10
174.147
 20
46.5349
 11
174.47
 21
46.5747
  0
LINE
  8
0
 10
174.47
 20
46.5747
 11
174.795
 21
46.5471
  0
LINE
  8
0
 10
174.795
 20
46.5471
 11
175.107
 21
46.4532
  0
LINE
  8
0
 10
175.107
 20
46.4532
 11
175.393
 21
46.2971
  0
LINE
  8
0
 10
175.393
 20
46.2971
 11
175.641
 21
46.0853
  0
LINE
  8
0
 10
175.641
 20
46.0853
 11
175.84
 21
45.8271
  0
LINE
  8
0
 10
175.84
 20
45.8271
 11
175.982
 21
45.5335
  0
LINE
  8
0
 10
175.982
 20
45.5335
 11
176.06
 21
45.217
  0
LINE
  8
0
 10
176.06
 20
45.217
 11
176.071
 21
44.8912
  0
LINE
  8
0
 10
176.071
 20
44.8912
 11
176.015
 21
44.5701
  0
LINE
  8
0
 10
176.015
 20
44.5701
 11
175.894
 21
44.2674
  0
LINE
  8
0
 10
175.894
 20
44.2674
 11
175.714
 21
43.996
  0
LINE
  8
0
 10
175.714
 20
43.996
 11
175.481
 21
43.7677
  0
LINE
  8
0
 10
175.481
 20
43.7677
 11
175.206
 21
43.5922
  0
LINE
  8
0
 10
175.206
 20
43.5922
 11
174.901
 21
43.477
  0
LINE
  8
0
 10
174.901
 20
43.477
 11
174.805
 21
43.4548
  0
LINE
  8
0
 10
174.805
 20
43.4548
 11
174.48
 21
43.4251
  0
LINE
  8
0
 10
174.48
 20
43.4251
 11
174.156
 21
43.4629
  0
LINE
  8
0
 10
159.156
 20
43.4629
 11
158.847
 21
43.5666
  0
LINE
  8
0
 10
158.847
 20
43.5666
 11
158.566
 21
43.7316
  0
LINE
  8
0
 10
158.566
 20
43.7316
 11
158.325
 21
43.951
  0
LINE
  8
0
 10
158.325
 20
43.951
 11
158.134
 21
44.2153
  0
LINE
  8
0
 10
158.134
 20
44.2153
 11
158.002
 21
44.5133
  0
LINE
  8
0
 10
158.002
 20
44.5133
 11
157.934
 21
44.8321
  0
LINE
  8
0
 10
157.934
 20
44.8321
 11
157.933
 21
45.1581
  0
LINE
  8
0
 10
157.933
 20
45.1581
 11
157.999
 21
45.4773
  0
LINE
  8
0
 10
157.999
 20
45.4773
 11
158.129
 21
45.776
  0
LINE
  8
0
 10
158.129
 20
45.776
 11
158.319
 21
46.0416
  0
LINE
  8
0
 10
158.319
 20
46.0416
 11
158.558
 21
46.2625
  0
LINE
  8
0
 10
158.558
 20
46.2625
 11
158.838
 21
46.4293
  0
LINE
  8
0
 10
158.838
 20
46.4293
 11
159.147
 21
46.5349
  0
LINE
  8
0
 10
159.147
 20
46.5349
 11
159.47
 21
46.5747
  0
LINE
  8
0
 10
159.47
 20
46.5747
 11
159.795
 21
46.5471
  0
LINE
  8
0
 10
159.795
 20
46.5471
 11
160.107
 21
46.4532
  0
LINE
  8
0
 10
160.107
 20
46.4532
 11
160.393
 21
46.2971
  0
LINE
  8
0
 10
160.393
 20
46.2971
 11
160.641
 21
46.0853
  0
LINE
  8
0
 10
160.641
 20
46.0853
 11
160.84
 21
45.8271
  0
LINE
  8
0
 10
160.84
 20
45.8271
 11
160.982
 21
45.5335
  0
LINE
  8
0
 10
160.982
 20
45.5335
 11
161.06
 21
45.217
  0
LINE
  8
0
 10
161.06
 20
45.217
 11
161.071
 21
44.8912
  0
LINE
  8
0
 10
161.071
 20
44.8912
 11
161.015
 21
44.5701
  0
LINE
  8
0
 10
161.015
 20
44.5701
 11
160.894
 21
44.2674
  0
LINE
  8
0
 10
160.894
 20
44.2674
 11
160.714
 21
43.996
  0
LINE
  8
0
 10
160.714
 20
43.996
 11
160.481
 21
43.7677
  0
LINE
  8
0
 10
160.481
 20
43.7677
 11
160.206
 21
43.5922
  0
LINE
  8
0
 10
160.206
 20
43.5922
 11
159.901
 21
43.477
  0
LINE
  8
0
 10
159.901
 20
43.477
 11
159.805
 21
43.4548
  0
LINE
  8
0
 10
159.805
 20
43.4548
 11
159.48
 21
43.4251
  0
LINE
  8
0
 10
159.48
 20
43.4251
 11
159.156
 21
43.4629
  0
LINE
  8
0
 10
108.156
 20
40.9629
 11
107.847
 21
41.0666
  0
LINE
  8
0
 10
107.847
 20
41.0666
 11
107.566
 21
41.2316
  0
LINE
  8
0
 10
107.566
 20
41.2316
 11
107.325
 21
41.451
  0
LINE
  8
0
 10
107.325
 20
41.451
 11
107.134
 21
41.7153
  0
LINE
  8
0
 10
107.134
 20
41.7153
 11
107.002
 21
42.0133
  0
LINE
  8
0
 10
107.002
 20
42.0133
 11
106.934
 21
42.3321
  0
LINE
  8
0
 10
106.934
 20
42.3321
 11
106.933
 21
42.6581
  0
LINE
  8
0
 10
106.933
 20
42.6581
 11
106.999
 21
42.9773
  0
LINE
  8
0
 10
106.999
 20
42.9773
 11
107.129
 21
43.276
  0
LINE
  8
0
 10
107.129
 20
43.276
 11
107.319
 21
43.5416
  0
LINE
  8
0
 10
107.319
 20
43.5416
 11
107.558
 21
43.7625
  0
LINE
  8
0
 10
107.558
 20
43.7625
 11
107.838
 21
43.9293
  0
LINE
  8
0
 10
107.838
 20
43.9293
 11
108.147
 21
44.0349
  0
LINE
  8
0
 10
108.147
 20
44.0349
 11
108.47
 21
44.0747
  0
LINE
  8
0
 10
108.47
 20
44.0747
 11
108.795
 21
44.0471
  0
LINE
  8
0
 10
108.795
 20
44.0471
 11
109.107
 21
43.9532
  0
LINE
  8
0
 10
109.107
 20
43.9532
 11
109.393
 21
43.7971
  0
LINE
  8
0
 10
109.393
 20
43.7971
 11
109.641
 21
43.5853
  0
LINE
  8
0
 10
109.641
 20
43.5853
 11
109.84
 21
43.3271
  0
LINE
  8
0
 10
109.84
 20
43.3271
 11
109.982
 21
43.0335
  0
LINE
  8
0
 10
109.982
 20
43.0335
 11
110.06
 21
42.717
  0
LINE
  8
0
 10
110.06
 20
42.717
 11
110.071
 21
42.3912
  0
LINE
  8
0
 10
110.071
 20
42.3912
 11
110.015
 21
42.0701
  0
LINE
  8
0
 10
110.015
 20
42.0701
 11
109.894
 21
41.7674
  0
LINE
  8
0
 10
109.894
 20
41.7674
 11
109.714
 21
41.496
  0
LINE
  8
0
 10
109.714
 20
41.496
 11
109.481
 21
41.2677
  0
LINE
  8
0
 10
109.481
 20
41.2677
 11
109.206
 21
41.0922
  0
LINE
  8
0
 10
109.206
 20
41.0922
 11
108.901
 21
40.977
  0
LINE
  8
0
 10
108.901
 20
40.977
 11
108.805
 21
40.9548
  0
LINE
  8
0
 10
108.805
 20
40.9548
 11
108.48
 21
40.9251
  0
LINE
  8
0
 10
108.48
 20
40.9251
 11
108.156
 21
40.9629
  0
LINE
  8
0
 10
193.156
 20
40.9629
 11
192.847
 21
41.0666
  0
LINE
  8
0
 10
192.847
 20
41.0666
 11
192.566
 21
41.2316
  0
LINE
  8
0
 10
192.566
 20
41.2316
 11
192.325
 21
41.451
  0
LINE
  8
0
 10
192.325
 20
41.451
 11
192.134
 21
41.7153
  0
LINE
  8
0
 10
192.134
 20
41.7153
 11
192.002
 21
42.0133
  0
LINE
  8
0
 10
192.002
 20
42.0133
 11
191.934
 21
42.3321
  0
LINE
  8
0
 10
191.934
 20
42.3321
 11
191.933
 21
42.6581
  0
LINE
  8
0
 10
191.933
 20
42.6581
 11
191.999
 21
42.9773
  0
LINE
  8
0
 10
191.999
 20
42.9773
 11
192.129
 21
43.276
  0
LINE
  8
0
 10
192.129
 20
43.276
 11
192.319
 21
43.5416
  0
LINE
  8
0
 10
192.319
 20
43.5416
 11
192.558
 21
43.7625
  0
LINE
  8
0
 10
192.558
 20
43.7625
 11
192.838
 21
43.9293
  0
LINE
  8
0
 10
192.838
 20
43.9293
 11
193.147
 21
44.0349
  0
LINE
  8
0
 10
193.147
 20
44.0349
 11
193.47
 21
44.0747
  0
LINE
  8
0
 10
193.47
 20
44.0747
 11
193.795
 21
44.0471
  0
LINE
  8
0
 10
193.795
 20
44.0471
 11
194.107
 21
43.9532
  0
LINE
  8
0
 10
194.107
 20
43.9532
 11
194.393
 21
43.7971
  0
LINE
  8
0
 10
194.393
 20
43.7971
 11
194.641
 21
43.5853
  0
LINE
  8
0
 10
194.641
 20
43.5853
 11
194.84
 21
43.3271
  0
LINE
  8
0
 10
194.84
 20
43.3271
 11
194.982
 21
43.0335
  0
LINE
  8
0
 10
194.982
 20
43.0335
 11
195.06
 21
42.717
  0
LINE
  8
0
 10
195.06
 20
42.717
 11
195.071
 21
42.3912
  0
LINE
  8
0
 10
195.071
 20
42.3912
 11
195.015
 21
42.0701
  0
LINE
  8
0
 10
195.015
 20
42.0701
 11
194.894
 21
41.7674
  0
LINE
  8
0
 10
194.894
 20
41.7674
 11
194.714
 21
41.496
  0
LINE
  8
0
 10
194.714
 20
41.496
 11
194.481
 21
41.2677
  0
LINE
  8
0
 10
194.481
 20
41.2677
 11
194.206
 21
41.0922
  0
LINE
  8
0
 10
194.206
 20
41.0922
 11
193.901
 21
40.977
  0
LINE
  8
0
 10
193.901
 20
40.977
 11
193.805
 21
40.9548
  0
LINE
  8
0
 10
193.805
 20
40.9548
 11
193.48
 21
40.9251
  0
LINE
  8
0
 10
193.48
 20
40.9251
 11
193.156
 21
40.9629
  0
LINE
  8
0
 10
108.156
 20
25.9629
 11
107.847
 21
26.0666
  0
LINE
  8
0
 10
107.847
 20
26.0666
 11
107.566
 21
26.2316
  0
LINE
  8
0
 10
107.566
 20
26.2316
 11
107.325
 21
26.451
  0
LINE
  8
0
 10
107.325
 20
26.451
 11
107.134
 21
26.7153
  0
LINE
  8
0
 10
107.134
 20
26.7153
 11
107.002
 21
27.0133
  0
LINE
  8
0
 10
107.002
 20
27.0133
 11
106.934
 21
27.3321
  0
LINE
  8
0
 10
106.934
 20
27.3321
 11
106.933
 21
27.6581
  0
LINE
  8
0
 10
106.933
 20
27.6581
 11
106.999
 21
27.9773
  0
LINE
  8
0
 10
106.999
 20
27.9773
 11
107.129
 21
28.276
  0
LINE
  8
0
 10
107.129
 20
28.276
 11
107.319
 21
28.5416
  0
LINE
  8
0
 10
107.319
 20
28.5416
 11
107.558
 21
28.7625
  0
LINE
  8
0
 10
107.558
 20
28.7625
 11
107.838
 21
28.9293
  0
LINE
  8
0
 10
107.838
 20
28.9293
 11
108.147
 21
29.0349
  0
LINE
  8
0
 10
108.147
 20
29.0349
 11
108.47
 21
29.0747
  0
LINE
  8
0
 10
108.47
 20
29.0747
 11
108.795
 21
29.0471
  0
LINE
  8
0
 10
108.795
 20
29.0471
 11
109.107
 21
28.9532
  0
LINE
  8
0
 10
109.107
 20
28.9532
 11
109.393
 21
28.7971
  0
LINE
  8
0
 10
109.393
 20
28.7971
 11
109.641
 21
28.5853
  0
LINE
  8
0
 10
109.641
 20
28.5853
 11
109.84
 21
28.3271
  0
LINE
  8
0
 10
109.84
 20
28.3271
 11
109.982
 21
28.0335
  0
LINE
  8
0
 10
109.982
 20
28.0335
 11
110.06
 21
27.717
  0
LINE
  8
0
 10
110.06
 20
27.717
 11
110.071
 21
27.3912
  0
LINE
  8
0
 10
110.071
 20
27.3912
 11
110.015
 21
27.0701
  0
LINE
  8
0
 10
110.015
 20
27.0701
 11
109.894
 21
26.7674
  0
LINE
  8
0
 10
109.894
 20
26.7674
 11
109.714
 21
26.496
  0
LINE
  8
0
 10
109.714
 20
26.496
 11
109.481
 21
26.2677
  0
LINE
  8
0
 10
109.481
 20
26.2677
 11
109.206
 21
26.0922
  0
LINE
  8
0
 10
109.206
 20
26.0922
 11
108.901
 21
25.977
  0
LINE
  8
0
 10
108.901
 20
25.977
 11
108.805
 21
25.9548
  0
LINE
  8
0
 10
108.805
 20
25.9548
 11
108.48
 21
25.9251
  0
LINE
  8
0
 10
108.48
 20
25.9251
 11
108.156
 21
25.9629
  0
LINE
  8
0
 10
193.156
 20
25.9629
 11
192.847
 21
26.0666
  0
LINE
  8
0
 10
192.847
 20
26.0666
 11
192.566
 21
26.2316
  0
LINE
  8
0
 10
192.566
 20
26.2316
 11
192.325
 21
26.451
  0
LINE
  8
0
 10
192.325
 20
26.451
 11
192.134
 21
26.7153
  0
LINE
  8
0
 10
192.134
 20
26.7153
 11
192.002
 21
27.0133
  0
LINE
  8
0
 10
192.002
 20
27.0133
 11
191.934
 21
27.3321
  0
LINE
  8
0
 10
191.934
 20
27.3321
 11
191.933
 21
27.6581
  0
LINE
  8
0
 10
191.933
 20
27.6581
 11
191.999
 21
27.9773
  0
LINE
  8
0
 10
191.999
 20
27.9773
 11
192.129
 21
28.276
  0
LINE
  8
0
 10
192.129
 20
28.276
 11
192.319
 21
28.5416
  0
LINE
  8
0
 10
192.319
 20
28.5416
 11
192.558
 21
28.7625
  0
LINE
  8
0
 10
192.558
 20
28.7625
 11
192.838
 21
28.9293
  0
LINE
  8
0
 10
192.838
 20
28.9293
 11
193.147
 21
29.0349
  0
LINE
  8
0
 10
193.147
 20
29.0349
 11
193.47
 21
29.0747
  0
LINE
  8
0
 10
193.47
 20
29.0747
 11
193.795
 21
29.0471
  0
LINE
  8
0
 10
193.795
 20
29.0471
 11
194.107
 21
28.9532
  0
LINE
  8
0
 10
194.107
 20
28.9532
 11
194.393
 21
28.7971
  0
LINE
  8
0
 10
194.393
 20
28.7971
 11
194.641
 21
28.5853
  0
LINE
  8
0
 10
194.641
 20
28.5853
 11
194.84
 21
28.3271
  0
LINE
  8
0
 10
194.84
 20
28.3271
 11
194.982
 21
28.0335
  0
LINE
  8
0
 10
194.982
 20
28.0335
 11
195.06
 21
27.717
  0
LINE
  8
0
 10
195.06
 20
27.717
 11
195.071
 21
27.3912
  0
LINE
  8
0
 10
195.071
 20
27.3912
 11
195.015
 21
27.0701
  0
LINE
  8
0
 10
195.015
 20
27.0701
 11
194.894
 21
26.7674
  0
LINE
  8
0
 10
194.894
 20
26.7674
 11
194.714
 21
26.496
  0
LINE
  8
0
 10
194.714
 20
26.496
 11
194.481
 21
26.2677
  0
LINE
  8
0
 10
194.481
 20
26.2677
 11
194.206
 21
26.0922
  0
LINE
  8
0
 10
194.206
 20
26.0922
 11
193.901
 21
25.977
  0
LINE
  8
0
 10
193.901
 20
25.977
 11
193.805
 21
25.9548
  0
LINE
  8
0
 10
193.805
 20
25.9548
 11
193.48
 21
25.9251
  0
LINE
  8
0
 10
193.48
 20
25.9251
 11
193.156
 21
25.9629
  0
ENDSEC
  0
SECTION
  2
OBJECTS
  0
DICTIONARY
  0
ENDSEC
  0
EOF
