<?xml version="1.0" standalone="no"?>
<!DOCTYPE svg PUBLIC "-//W3C//DTD SVG 1.1//EN" "http://www.w3.org/Graphics/SVG/1.1/DTD/svg11.dtd">
<svg width="201" height="201" viewBox="0 -201 201 201" xmlns="http://www.w3.org/2000/svg" version="1.1">
<title>OpenSCAD Model</title>
<path d="
M 201,-201 L 101,-201 L 101,-101 L 201,-101 z
M 193.401,-171.928 L 193.303,-171.937 L 193.205,-171.953 L 193.108,-171.974 L 193.013,-172.002 L 192.92,-172.036
 L 192.829,-172.075 L 192.741,-172.12 L 192.656,-172.17 L 192.574,-172.226 L 192.496,-172.286 L 192.422,-172.352
 L 192.352,-172.422 L 192.286,-172.496 L 192.226,-172.574 L 192.17,-172.656 L 192.12,-172.741 L 192.075,-172.829
 L 192.036,-172.92 L 192.002,-173.013 L 191.974,-173.108 L 191.953,-173.205 L 191.937,-173.303 L 191.928,-173.401
 L 191.925,-173.5 L 191.928,-173.599 L 191.937,-173.697 L 191.953,-173.795 L 191.974,-173.892 L 192.002,-173.987
 L 192.036,-174.08 L 192.075,-174.171 L 192.12,-174.259 L 192.17,-174.344 L 192.226,-174.426 L 192.286,-174.504
 L 192.352,-174.578 L 192.422,-174.648 L 192.496,-174.714 L 192.574,-174.774 L 192.656,-174.83 L 192.741,-174.88
 L 192.829,-174.925 L 192.92,-174.964 L 193.013,-174.998 L 193.108,-175.026 L 193.205,-175.047 L 193.303,-175.063
 L 193.401,-175.072 L 193.5,-175.075 L 193.599,-175.072 L 193.697,-175.063 L 193.795,-175.047 L 193.892,-175.026
 L 193.987,-174.998 L 194.08,-174.964 L 194.171,-174.925 L 194.259,-174.88 L 194.344,-174.83 L 194.426,-174.774
 L 194.504,-174.714 L 194.578,-174.648 L 194.648,-174.578 L 194.714,-174.504 L 194.774,-174.426 L 194.83,-174.344
 L 194.88,-174.259 L 194.925,-174.171 L 194.964,-174.08 L 194.998,-173.987 L 195.026,-173.892 L 195.047,-173.795
 L 195.063,-173.697 L 195.072,-173.599 L 195.075,-173.5 L 195.072,-173.401 L 195.063,-173.303 L 195.047,-173.205
 L 195.026,-173.108 L 194.998,-173.013 L 194.964,-172.92 L 194.925,-172.829 L 194.88,-172.741 L 194.83,-172.656
 L 194.774,-172.574 L 194.714,-172.496 L 194.648,-172.422 L 194.578,-172.352 L 194.504,-172.286 L 194.426,-172.226
 L 194.344,-172.17 L 194.259,-172.12 L 194.171,-172.075 L 194.08,-172.036 L 193.987,-172.002 L 193.892,-171.974
 L 193.795,-171.953 L 193.697,-171.937 L 193.599,-171.928 L 193.5,-171.925 z
M 108.401,-171.928 L 108.303,-171.937 L 108.205,-171.953 L 108.108,-171.974 L 108.013,-172.002 L 107.92,-172.036
 L 107.829,-172.075 L 107.741,-172.12 L 107.656,-172.17 L 107.574,-172.226 L 107.496,-172.286 L 107.422,-172.352
 L 107.352,-172.422 L 107.286,-172.496 L 107.226,-172.574 L 107.17,-172.656 L 107.12,-172.741 L 107.075,-172.829
 L 107.036,-172.92 L 107.002,-173.013 L 106.974,-173.108 L 106.953,-173.205 L 106.937,-173.303 L 106.928,-173.401
 L 106.925,-173.5 L 106.928,-173.599 L 106.937,-173.697 L 106.953,-173.795 L 106.974,-173.892 L 107.002,-173.987
 L 107.036,-174.08 L 107.075,-174.171 L 107.12,-174.259 L 107.17,-174.344 L 107.226,-174.426 L 107.286,-174.504
 L 107.352,-174.578 L 107.422,-174.648 L 107.496,-174.714 L 107.574,-174.774 L 107.656,-174.83 L 107.741,-174.88
 L 107.829,-174.925 L 107.92,-174.964 L 108.013,-174.998 L 108.108,-175.026 L 108.205,-175.047 L 108.303,-175.063
 L 108.401,-175.072 L 108.5,-175.075 L 108.599,-175.072 L 108.697,-175.063 L 108.795,-175.047 L 108.892,-175.026
 L 108.987,-174.998 L 109.08,-174.964 L 109.171,-174.925 L 109.259,-174.88 L 109.344,-174.83 L 109.426,-174.774
 L 109.504,-174.714 L 109.578,-174.648 L 109.648,-174.578 L 109.714,-174.504 L 109.774,-174.426 L 109.83,-174.344
 L 109.88,-174.259 L 109.925,-174.171 L 109.964,-174.08 L 109.998,-173.987 L 110.026,-173.892 L 110.047,-173.795
 L 110.063,-173.697 L 110.072,-173.599 L 110.075,-173.5 L 110.072,-173.401 L 110.063,-173.303 L 110.047,-173.205
 L 110.026,-173.108 L 109.998,-173.013 L 109.964,-172.92 L 109.925,-172.829 L 109.88,-172.741 L 109.83,-172.656
 L 109.774,-172.574 L 109.714,-172.496 L 109.648,-172.422 L 109.578,-172.352 L 109.504,-172.286 L 109.426,-172.226
 L 109.344,-172.17 L 109.259,-172.12 L 109.171,-172.075 L 109.08,-172.036 L 108.987,-172.002 L 108.892,-171.974
 L 108.795,-171.953 L 108.697,-171.937 L 108.599,-171.928 L 108.5,-171.925 z
M 150.053,-135.955 L 149.111,-136.044 L 148.175,-136.192 L 147.251,-136.399 L 146.342,-136.663 L 145.451,-136.984
 L 144.581,-137.36 L 143.738,-137.79 L 142.922,-138.272 L 142.139,-138.804 L 141.391,-139.385 L 140.68,-140.011
 L 140.011,-140.68 L 139.385,-141.391 L 138.804,-142.139 L 138.272,-142.922 L 137.79,-143.738 L 137.36,-144.581
 L 136.984,-145.451 L 136.663,-146.342 L 136.399,-147.251 L 136.192,-148.175 L 136.044,-149.111 L 135.955,-150.053
 L 135.925,-151 L 135.955,-151.947 L 136.044,-152.889 L 136.192,-153.825 L 136.399,-154.749 L 136.663,-155.658
 L 136.984,-156.549 L 137.36,-157.419 L 137.79,-158.262 L 138.272,-159.078 L 138.804,-159.861 L 139.385,-160.609
 L 140.011,-161.32 L 140.68,-161.989 L 141.391,-162.615 L 142.139,-163.196 L 142.922,-163.728 L 143.738,-164.21
 L 144.581,-164.64 L 145.451,-165.016 L 146.342,-165.337 L 147.251,-165.601 L 148.175,-165.808 L 149.111,-165.956
 L 150.053,-166.045 L 151,-166.075 L 151.947,-166.045 L 152.889,-165.956 L 153.825,-165.808 L 154.749,-165.601
 L 155.658,-165.337 L 156.549,-165.016 L 157.419,-164.64 L 158.262,-164.21 L 159.078,-163.728 L 159.861,-163.196
 L 160.609,-162.615 L 161.32,-161.989 L 161.989,-161.32 L 162.615,-160.609 L 163.196,-159.861 L 163.728,-159.078
 L 164.21,-158.262 L 164.64,-157.419 L 165.016,-156.549 L 165.337,-155.658 L 165.601,-154.749 L 165.808,-153.825
 L 165.956,-152.889 L 166.045,-151.947 L 166.075,-151 L 166.045,-150.053 L 165.956,-149.111 L 165.808,-148.175
 L 165.601,-147.251 L 165.337,-146.342 L 165.016,-145.451 L 164.64,-144.581 L 164.21,-143.738 L 163.728,-142.922
 L 163.196,-142.139 L 162.615,-141.391 L 161.989,-140.68 L 161.32,-140.011 L 160.609,-139.385 L 159.861,-138.804
 L 159.078,-138.272 L 158.262,-137.79 L 157.419,-137.36 L 156.549,-136.984 L 155.658,-136.663 L 154.749,-136.399
 L 153.825,-136.192 L 152.889,-136.044 L 151.947,-135.955 L 151,-135.925 z
M 193.401,-156.928 L 193.303,-156.937 L 193.205,-156.953 L 193.108,-156.974 L 193.013,-157.002 L 192.92,-157.036
 L 192.829,-157.075 L 192.741,-157.12 L 192.656,-157.17 L 192.574,-157.226 L 192.496,-157.286 L 192.422,-157.352
 L 192.352,-157.422 L 192.286,-157.496 L 192.226,-157.574 L 192.17,-157.656 L 192.12,-157.741 L 192.075,-157.829
 L 192.036,-157.92 L 192.002,-158.013 L 191.974,-158.108 L 191.953,-158.205 L 191.937,-158.303 L 191.928,-158.401
 L 191.925,-158.5 L 191.928,-158.599 L 191.937,-158.697 L 191.953,-158.795 L 191.974,-158.892 L 192.002,-158.987
 L 192.036,-159.08 L 192.075,-159.171 L 192.12,-159.259 L 192.17,-159.344 L 192.226,-159.426 L 192.286,-159.504
 L 192.352,-159.578 L 192.422,-159.648 L 192.496,-159.714 L 192.574,-159.774 L 192.656,-159.83 L 192.741,-159.88
 L 192.829,-159.925 L 192.92,-159.964 L 193.013,-159.998 L 193.108,-160.026 L 193.205,-160.047 L 193.303,-160.063
 L 193.401,-160.072 L 193.5,-160.075 L 193.599,-160.072 L 193.697,-160.063 L 193.795,-160.047 L 193.892,-160.026
 L 193.987,-159.998 L 194.08,-159.964 L 194.171,-159.925 L 194.259,-159.88 L 194.344,-159.83 L 194.426,-159.774
 L 194.504,-159.714 L 194.578,-159.648 L 194.648,-159.578 L 194.714,-159.504 L 194.774,-159.426 L 194.83,-159.344
 L 194.88,-159.259 L 194.925,-159.171 L 194.964,-159.08 L 194.998,-158.987 L 195.026,-158.892 L 195.047,-158.795
 L 195.063,-158.697 L 195.072,-158.599 L 195.075,-158.5 L 195.072,-158.401 L 195.063,-158.303 L 195.047,-158.205
 L 195.026,-158.108 L 194.998,-158.013 L 194.964,-157.92 L 194.925,-157.829 L 194.88,-157.741 L 194.83,-157.656
 L 194.774,-157.574 L 194.714,-157.496 L 194.648,-157.422 L 194.578,-157.352 L 194.504,-157.286 L 194.426,-157.226
 L 194.344,-157.17 L 194.259,-157.12 L 194.171,-157.075 L 194.08,-157.036 L 193.987,-157.002 L 193.892,-156.974
 L 193.795,-156.953 L 193.697,-156.937 L 193.599,-156.928 L 193.5,-156.925 z
M 108.401,-156.928 L 108.303,-156.937 L 108.205,-156.953 L 108.108,-156.974 L 108.013,-157.002 L 107.92,-157.036
 L 107.829,-157.075 L 107.741,-157.12 L 107.656,-157.17 L 107.574,-157.226 L 107.496,-157.286 L 107.422,-157.352
 L 107.352,-157.422 L 107.286,-157.496 L 107.226,-157.574 L 107.17,-157.656 L 107.12,-157.741 L 107.075,-157.829
 L 107.036,-157.92 L 107.002,-158.013 L 106.974,-158.108 L 106.953,-158.205 L 106.937,-158.303 L 106.928,-158.401
 L 106.925,-158.5 L 106.928,-158.599 L 106.937,-158.697 L 106.953,-158.795 L 106.974,-158.892 L 107.002,-158.987
 L 107.036,-159.08 L 107.075,-159.171 L 107.12,-159.259 L 107.17,-159.344 L 107.226,-159.426 L 107.286,-159.504
 L 107.352,-159.578 L 107.422,-159.648 L 107.496,-159.714 L 107.574,-159.774 L 107.656,-159.83 L 107.741,-159.88
 L 107.829,-159.925 L 107.92,-159.964 L 108.013,-159.998 L 108.108,-160.026 L 108.205,-160.047 L 108.303,-160.063
 L 108.401,-160.072 L 108.5,-160.075 L 108.599,-160.072 L 108.697,-160.063 L 108.795,-160.047 L 108.892,-160.026
 L 108.987,-159.998 L 109.08,-159.964 L 109.171,-159.925 L 109.259,-159.88 L 109.344,-159.83 L 109.426,-159.774
 L 109.504,-159.714 L 109.578,-159.648 L 109.648,-159.578 L 109.714,-159.504 L 109.774,-159.426 L 109.83,-159.344
 L 109.88,-159.259 L 109.925,-159.171 L 109.964,-159.08 L 109.998,-158.987 L 110.026,-158.892 L 110.047,-158.795
 L 110.063,-158.697 L 110.072,-158.599 L 110.075,-158.5 L 110.072,-158.401 L 110.063,-158.303 L 110.047,-158.205
 L 110.026,-158.108 L 109.998,-158.013 L 109.964,-157.92 L 109.925,-157.829 L 109.88,-157.741 L 109.83,-157.656
 L 109.774,-157.574 L 109.714,-157.496 L 109.648,-157.422 L 109.578,-157.352 L 109.504,-157.286 L 109.426,-157.226
 L 109.344,-157.17 L 109.259,-157.12 L 109.171,-157.075 L 109.08,-157.036 L 108.987,-157.002 L 108.892,-156.974
 L 108.795,-156.953 L 108.697,-156.937 L 108.599,-156.928 L 108.5,-156.925 z
M 193.401,-141.928 L 193.303,-141.937 L 193.205,-141.953 L 193.108,-141.974 L 193.013,-142.002 L 192.92,-142.036
 L 192.829,-142.075 L 192.741,-142.12 L 192.656,-142.17 L 192.574,-142.226 L 192.496,-142.286 L 192.422,-142.352
 L 192.352,-142.422 L 192.286,-142.496 L 192.226,-142.574 L 192.17,-142.656 L 192.12,-142.741 L 192.075,-142.829
 L 192.036,-142.92 L 192.002,-143.013 L 191.974,-143.108 L 191.953,-143.205 L 191.937,-143.303 L 191.928,-143.401
 L 191.925,-143.5 L 191.928,-143.599 L 191.937,-143.697 L 191.953,-143.795 L 191.974,-143.892 L 192.002,-143.987
 L 192.036,-144.08 L 192.075,-144.171 L 192.12,-144.259 L 192.17,-144.344 L 192.226,-144.426 L 192.286,-144.504
 L 192.352,-144.578 L 192.422,-144.648 L 192.496,-144.714 L 192.574,-144.774 L 192.656,-144.83 L 192.741,-144.88
 L 192.829,-144.925 L 192.92,-144.964 L 193.013,-144.998 L 193.108,-145.026 L 193.205,-145.047 L 193.303,-145.063
 L 193.401,-145.072 L 193.5,-145.075 L 193.599,-145.072 L 193.697,-145.063 L 193.795,-145.047 L 193.892,-145.026
 L 193.987,-144.998 L 194.08,-144.964 L 194.171,-144.925 L 194.259,-144.88 L 194.344,-144.83 L 194.426,-144.774
 L 194.504,-144.714 L 194.578,-144.648 L 194.648,-144.578 L 194.714,-144.504 L 194.774,-144.426 L 194.83,-144.344
 L 194.88,-144.259 L 194.925,-144.171 L 194.964,-144.08 L 194.998,-143.987 L 195.026,-143.892 L 195.047,-143.795
 L 195.063,-143.697 L 195.072,-143.599 L 195.075,-143.5 L 195.072,-143.401 L 195.063,-143.303 L 195.047,-143.205
 L 195.026,-143.108 L 194.998,-143.013 L 194.964,-142.92 L 194.925,-142.829 L 194.88,-142.741 L 194.83,-142.656
 L 194.774,-142.574 L 194.714,-142.496 L 194.648,-142.422 L 194.578,-142.352 L 194.504,-142.286 L 194.426,-142.226
 L 194.344,-142.17 L 194.259,-142.12 L 194.171,-142.075 L 194.08,-142.036 L 193.987,-142.002 L 193.892,-141.974
 L 193.795,-141.953 L 193.697,-141.937 L 193.599,-141.928 L 193.5,-141.925 z
M 108.401,-141.928 L 108.303,-141.937 L 108.205,-141.953 L 108.108,-141.974 L 108.013,-142.002 L 107.92,-142.036
 L 107.829,-142.075 L 107.741,-142.12 L 107.656,-142.17 L 107.574,-142.226 L 107.496,-142.286 L 107.422,-142.352
 L 107.352,-142.422 L 107.286,-142.496 L 107.226,-142.574 L 107.17,-142.656 L 107.12,-142.741 L 107.075,-142.829
 L 107.036,-142.92 L 107.002,-143.013 L 106.974,-143.108 L 106.953,-143.205 L 106.937,-143.303 L 106.928,-143.401
 L 106.925,-143.5 L 106.928,-143.599 L 106.937,-143.697 L 106.953,-143.795 L 106.974,-143.892 L 107.002,-143.987
 L 107.036,-144.08 L 107.075,-144.171 L 107.12,-144.259 L 107.17,-144.344 L 107.226,-144.426 L 107.286,-144.504
 L 107.352,-144.578 L 107.422,-144.648 L 107.496,-144.714 L 107.574,-144.774 L 107.656,-144.83 L 107.741,-144.88
 L 107.829,-144.925 L 107.92,-144.964 L 108.013,-144.998 L 108.108,-145.026 L 108.205,-145.047 L 108.303,-145.063
 L 108.401,-145.072 L 108.5,-145.075 L 108.599,-145.072 L 108.697,-145.063 L 108.795,-145.047 L 108.892,-145.026
 L 108.987,-144.998 L 109.08,-144.964 L 109.171,-144.925 L 109.259,-144.88 L 109.344,-144.83 L 109.426,-144.774
 L 109.504,-144.714 L 109.578,-144.648 L 109.648,-144.578 L 109.714,-144.504 L 109.774,-144.426 L 109.83,-144.344
 L 109.88,-144.259 L 109.925,-144.171 L 109.964,-144.08 L 109.998,-143.987 L 110.026,-143.892 L 110.047,-143.795
 L 110.063,-143.697 L 110.072,-143.599 L 110.075,-143.5 L 110.072,-143.401 L 110.063,-143.303 L 110.047,-143.205
 L 110.026,-143.108 L 109.998,-143.013 L 109.964,-142.92 L 109.925,-142.829 L 109.88,-142.741 L 109.83,-142.656
 L 109.774,-142.574 L 109.714,-142.496 L 109.648,-142.422 L 109.578,-142.352 L 109.504,-142.286 L 109.426,-142.226
 L 109.344,-142.17 L 109.259,-142.12 L 109.171,-142.075 L 109.08,-142.036 L 108.987,-142.002 L 108.892,-141.974
 L 108.795,-141.953 L 108.697,-141.937 L 108.599,-141.928 L 108.5,-141.925 z
M 193.401,-126.928 L 193.303,-126.937 L 193.205,-126.953 L 193.108,-126.974 L 193.013,-127.002 L 192.92,-127.036
 L 192.829,-127.075 L 192.741,-127.12 L 192.656,-127.17 L 192.574,-127.226 L 192.496,-127.286 L 192.422,-127.352
 L 192.352,-127.422 L 192.286,-127.496 L 192.226,-127.574 L 192.17,-127.656 L 192.12,-127.741 L 192.075,-127.829
 L 192.036,-127.92 L 192.002,-128.013 L 191.974,-128.108 L 191.953,-128.205 L 191.937,-128.303 L 191.928,-128.401
 L 191.925,-128.5 L 191.928,-128.599 L 191.937,-128.697 L 191.953,-128.795 L 191.974,-128.892 L 192.002,-128.987
 L 192.036,-129.08 L 192.075,-129.171 L 192.12,-129.259 L 192.17,-129.344 L 192.226,-129.426 L 192.286,-129.504
 L 192.352,-129.578 L 192.422,-129.648 L 192.496,-129.714 L 192.574,-129.774 L 192.656,-129.83 L 192.741,-129.88
 L 192.829,-129.925 L 192.92,-129.964 L 193.013,-129.998 L 193.108,-130.026 L 193.205,-130.047 L 193.303,-130.063
 L 193.401,-130.072 L 193.5,-130.075 L 193.599,-130.072 L 193.697,-130.063 L 193.795,-130.047 L 193.892,-130.026
 L 193.987,-129.998 L 194.08,-129.964 L 194.171,-129.925 L 194.259,-129.88 L 194.344,-129.83 L 194.426,-129.774
 L 194.504,-129.714 L 194.578,-129.648 L 194.648,-129.578 L 194.714,-129.504 L 194.774,-129.426 L 194.83,-129.344
 L 194.88,-129.259 L 194.925,-129.171 L 194.964,-129.08 L 194.998,-128.987 L 195.026,-128.892 L 195.047,-128.795
 L 195.063,-128.697 L 195.072,-128.599 L 195.075,-128.5 L 195.072,-128.401 L 195.063,-128.303 L 195.047,-128.205
 L 195.026,-128.108 L 194.998,-128.013 L 194.964,-127.92 L 194.925,-127.829 L 194.88,-127.741 L 194.83,-127.656
 L 194.774,-127.574 L 194.714,-127.496 L 194.648,-127.422 L 194.578,-127.352 L 194.504,-127.286 L 194.426,-127.226
 L 194.344,-127.17 L 194.259,-127.12 L 194.171,-127.075 L 194.08,-127.036 L 193.987,-127.002 L 193.892,-126.974
 L 193.795,-126.953 L 193.697,-126.937 L 193.599,-126.928 L 193.5,-126.925 z
M 108.401,-126.928 L 108.303,-126.937 L 108.205,-126.953 L 108.108,-126.974 L 108.013,-127.002 L 107.92,-127.036
 L 107.829,-127.075 L 107.741,-127.12 L 107.656,-127.17 L 107.574,-127.226 L 107.496,-127.286 L 107.422,-127.352
 L 107.352,-127.422 L 107.286,-127.496 L 107.226,-127.574 L 107.17,-127.656 L 107.12,-127.741 L 107.075,-127.829
 L 107.036,-127.92 L 107.002,-128.013 L 106.974,-128.108 L 106.953,-128.205 L 106.937,-128.303 L 106.928,-128.401
 L 106.925,-128.5 L 106.928,-128.599 L 106.937,-128.697 L 106.953,-128.795 L 106.974,-128.892 L 107.002,-128.987
 L 107.036,-129.08 L 107.075,-129.171 L 107.12,-129.259 L 107.17,-129.344 L 107.226,-129.426 L 107.286,-129.504
 L 107.352,-129.578 L 107.422,-129.648 L 107.496,-129.714 L 107.574,-129.774 L 107.656,-129.83 L 107.741,-129.88
 L 107.829,-129.925 L 107.92,-129.964 L 108.013,-129.998 L 108.108,-130.026 L 108.205,-130.047 L 108.303,-130.063
 L 108.401,-130.072 L 108.5,-130.075 L 108.599,-130.072 L 108.697,-130.063 L 108.795,-130.047 L 108.892,-130.026
 L 108.987,-129.998 L 109.08,-129.964 L 109.171,-129.925 L 109.259,-129.88 L 109.344,-129.83 L 109.426,-129.774
 L 109.504,-129.714 L 109.578,-129.648 L 109.648,-129.578 L 109.714,-129.504 L 109.774,-129.426 L 109.83,-129.344
 L 109.88,-129.259 L 109.925,-129.171 L 109.964,-129.08 L 109.998,-128.987 L 110.026,-128.892 L 110.047,-128.795
 L 110.063,-128.697 L 110.072,-128.599 L 110.075,-128.5 L 110.072,-128.401 L 110.063,-128.303 L 110.047,-128.205
 L 110.026,-128.108 L 109.998,-128.013 L 109.964,-127.92 L 109.925,-127.829 L 109.88,-127.741 L 109.83,-127.656
 L 109.774,-127.574 L 109.714,-127.496 L 109.648,-127.422 L 109.578,-127.352 L 109.504,-127.286 L 109.426,-127.226
 L 109.344,-127.17 L 109.259,-127.12 L 109.171,-127.075 L 109.08,-127.036 L 108.987,-127.002 L 108.892,-126.974
 L 108.795,-126.953 L 108.697,-126.937 L 108.599,-126.928 L 108.5,-126.925 z
M 100,-201 L 0,-201 L 0,-101 L 100,-101 z
M 7.40109,-171.928 L 7.3026,-171.937 L 7.20486,-171.953 L 7.10831,-171.974 L 7.01329,-172.002 L 6.9202,-172.036
 L 6.82939,-172.075 L 6.74123,-172.12 L 6.65607,-172.17 L 6.57423,-172.226 L 6.49605,-172.286 L 6.42183,-172.352
 L 6.35187,-172.422 L 6.28644,-172.496 L 6.22578,-172.574 L 6.17018,-172.656 L 6.11981,-172.741 L 6.07489,-172.829
 L 6.0356,-172.92 L 6.00208,-173.013 L 5.97447,-173.108 L 5.9529,-173.205 L 5.93741,-173.303 L 5.9281,-173.401
 L 5.92499,-173.5 L 5.9281,-173.599 L 5.93741,-173.697 L 5.9529,-173.795 L 5.97447,-173.892 L 6.00208,-173.987
 L 6.0356,-174.08 L 6.07489,-174.171 L 6.11981,-174.259 L 6.17018,-174.344 L 6.22578,-174.426 L 6.28644,-174.504
 L 6.35187,-174.578 L 6.42183,-174.648 L 6.49605,-174.714 L 6.57423,-174.774 L 6.65607,-174.83 L 6.74123,-174.88
 L 6.82939,-174.925 L 6.9202,-174.964 L 7.01329,-174.998 L 7.10831,-175.026 L 7.20486,-175.047 L 7.3026,-175.063
 L 7.40109,-175.072 L 7.5,-175.075 L 7.59889,-175.072 L 7.69739,-175.063 L 7.79512,-175.047 L 7.89168,-175.026
 L 7.98669,-174.998 L 8.07979,-174.964 L 8.17059,-174.925 L 8.25876,-174.88 L 8.34392,-174.83 L 8.42575,-174.774
 L 8.50394,-174.714 L 8.57816,-174.648 L 8.64812,-174.578 L 8.71355,-174.504 L 8.7742,-174.426 L 8.8298,-174.344
 L 8.88017,-174.259 L 8.92509,-174.171 L 8.96439,-174.08 L 8.99791,-173.987 L 9.02551,-173.892 L 9.04709,-173.795
 L 9.06258,-173.697 L 9.07188,-173.599 L 9.075,-173.5 L 9.07188,-173.401 L 9.06258,-173.303 L 9.04709,-173.205
 L 9.02551,-173.108 L 8.99791,-173.013 L 8.96439,-172.92 L 8.92509,-172.829 L 8.88017,-172.741 L 8.8298,-172.656
 L 8.7742,-172.574 L 8.71355,-172.496 L 8.64812,-172.422 L 8.57816,-172.352 L 8.50394,-172.286 L 8.42575,-172.226
 L 8.34392,-172.17 L 8.25876,-172.12 L 8.17059,-172.075 L 8.07979,-172.036 L 7.98669,-172.002 L 7.89168,-171.974
 L 7.79512,-171.953 L 7.69739,-171.937 L 7.59889,-171.928 L 7.5,-171.925 z
M 92.4011,-171.928 L 92.3026,-171.937 L 92.2049,-171.953 L 92.1083,-171.974 L 92.0133,-172.002 L 91.9202,-172.036
 L 91.8294,-172.075 L 91.7412,-172.12 L 91.6561,-172.17 L 91.5742,-172.226 L 91.496,-172.286 L 91.4218,-172.352
 L 91.3519,-172.422 L 91.2864,-172.496 L 91.2258,-172.574 L 91.1702,-172.656 L 91.1198,-172.741 L 91.0749,-172.829
 L 91.0356,-172.92 L 91.0021,-173.013 L 90.9745,-173.108 L 90.9529,-173.205 L 90.9374,-173.303 L 90.9281,-173.401
 L 90.925,-173.5 L 90.9281,-173.599 L 90.9374,-173.697 L 90.9529,-173.795 L 90.9745,-173.892 L 91.0021,-173.987
 L 91.0356,-174.08 L 91.0749,-174.171 L 91.1198,-174.259 L 91.1702,-174.344 L 91.2258,-174.426 L 91.2864,-174.504
 L 91.3519,-174.578 L 91.4218,-174.648 L 91.496,-174.714 L 91.5742,-174.774 L 91.6561,-174.83 L 91.7412,-174.88
 L 91.8294,-174.925 L 91.9202,-174.964 L 92.0133,-174.998 L 92.1083,-175.026 L 92.2049,-175.047 L 92.3026,-175.063
 L 92.4011,-175.072 L 92.5,-175.075 L 92.5989,-175.072 L 92.6974,-175.063 L 92.7951,-175.047 L 92.8917,-175.026
 L 92.9867,-174.998 L 93.0798,-174.964 L 93.1706,-174.925 L 93.2588,-174.88 L 93.3439,-174.83 L 93.4258,-174.774
 L 93.5039,-174.714 L 93.5782,-174.648 L 93.6481,-174.578 L 93.7135,-174.504 L 93.7742,-174.426 L 93.8298,-174.344
 L 93.8802,-174.259 L 93.9251,-174.171 L 93.9644,-174.08 L 93.9979,-173.987 L 94.0255,-173.892 L 94.0471,-173.795
 L 94.0626,-173.697 L 94.0719,-173.599 L 94.075,-173.5 L 94.0719,-173.401 L 94.0626,-173.303 L 94.0471,-173.205
 L 94.0255,-173.108 L 93.9979,-173.013 L 93.9644,-172.92 L 93.9251,-172.829 L 93.8802,-172.741 L 93.8298,-172.656
 L 93.7742,-172.574 L 93.7135,-172.496 L 93.6481,-172.422 L 93.5782,-172.352 L 93.5039,-172.286 L 93.4258,-172.226
 L 93.3439,-172.17 L 93.2588,-172.12 L 93.1706,-172.075 L 93.0798,-172.036 L 92.9867,-172.002 L 92.8917,-171.974
 L 92.7951,-171.953 L 92.6974,-171.937 L 92.5989,-171.928 L 92.5,-171.925 z
M 7.40109,-156.928 L 7.3026,-156.937 L 7.20486,-156.953 L 7.10831,-156.974 L 7.01329,-157.002 L 6.9202,-157.036
 L 6.82939,-157.075 L 6.74123,-157.12 L 6.65607,-157.17 L 6.57423,-157.226 L 6.49605,-157.286 L 6.42183,-157.352
 L 6.35187,-157.422 L 6.28644,-157.496 L 6.22578,-157.574 L 6.17018,-157.656 L 6.11981,-157.741 L 6.07489,-157.829
 L 6.0356,-157.92 L 6.00208,-158.013 L 5.97447,-158.108 L 5.9529,-158.205 L 5.93741,-158.303 L 5.9281,-158.401
 L 5.92499,-158.5 L 5.9281,-158.599 L 5.93741,-158.697 L 5.9529,-158.795 L 5.97447,-158.892 L 6.00208,-158.987
 L 6.0356,-159.08 L 6.07489,-159.171 L 6.11981,-159.259 L 6.17018,-159.344 L 6.22578,-159.426 L 6.28644,-159.504
 L 6.35187,-159.578 L 6.42183,-159.648 L 6.49605,-159.714 L 6.57423,-159.774 L 6.65607,-159.83 L 6.74123,-159.88
 L 6.82939,-159.925 L 6.9202,-159.964 L 7.01329,-159.998 L 7.10831,-160.026 L 7.20486,-160.047 L 7.3026,-160.063
 L 7.40109,-160.072 L 7.5,-160.075 L 7.59889,-160.072 L 7.69739,-160.063 L 7.79512,-160.047 L 7.89168,-160.026
 L 7.98669,-159.998 L 8.07979,-159.964 L 8.17059,-159.925 L 8.25876,-159.88 L 8.34392,-159.83 L 8.42575,-159.774
 L 8.50394,-159.714 L 8.57816,-159.648 L 8.64812,-159.578 L 8.71355,-159.504 L 8.7742,-159.426 L 8.8298,-159.344
 L 8.88017,-159.259 L 8.92509,-159.171 L 8.96439,-159.08 L 8.99791,-158.987 L 9.02551,-158.892 L 9.04709,-158.795
 L 9.06258,-158.697 L 9.07188,-158.599 L 9.075,-158.5 L 9.07188,-158.401 L 9.06258,-158.303 L 9.04709,-158.205
 L 9.02551,-158.108 L 8.99791,-158.013 L 8.96439,-157.92 L 8.92509,-157.829 L 8.88017,-157.741 L 8.8298,-157.656
 L 8.7742,-157.574 L 8.71355,-157.496 L 8.64812,-157.422 L 8.57816,-157.352 L 8.50394,-157.286 L 8.42575,-157.226
 L 8.34392,-157.17 L 8.25876,-157.12 L 8.17059,-157.075 L 8.07979,-157.036 L 7.98669,-157.002 L 7.89168,-156.974
 L 7.79512,-156.953 L 7.69739,-156.937 L 7.59889,-156.928 L 7.5,-156.925 z
M 92.4011,-156.928 L 92.3026,-156.937 L 92.2049,-156.953 L 92.1083,-156.974 L 92.0133,-157.002 L 91.9202,-157.036
 L 91.8294,-157.075 L 91.7412,-157.12 L 91.6561,-157.17 L 91.5742,-157.226 L 91.496,-157.286 L 91.4218,-157.352
 L 91.3519,-157.422 L 91.2864,-157.496 L 91.2258,-157.574 L 91.1702,-157.656 L 91.1198,-157.741 L 91.0749,-157.829
 L 91.0356,-157.92 L 91.0021,-158.013 L 90.9745,-158.108 L 90.9529,-158.205 L 90.9374,-158.303 L 90.9281,-158.401
 L 90.925,-158.5 L 90.9281,-158.599 L 90.9374,-158.697 L 90.9529,-158.795 L 90.9745,-158.892 L 91.0021,-158.987
 L 91.0356,-159.08 L 91.0749,-159.171 L 91.1198,-159.259 L 91.1702,-159.344 L 91.2258,-159.426 L 91.2864,-159.504
 L 91.3519,-159.578 L 91.4218,-159.648 L 91.496,-159.714 L 91.5742,-159.774 L 91.6561,-159.83 L 91.7412,-159.88
 L 91.8294,-159.925 L 91.9202,-159.964 L 92.0133,-159.998 L 92.1083,-160.026 L 92.2049,-160.047 L 92.3026,-160.063
 L 92.4011,-160.072 L 92.5,-160.075 L 92.5989,-160.072 L 92.6974,-160.063 L 92.7951,-160.047 L 92.8917,-160.026
 L 92.9867,-159.998 L 93.0798,-159.964 L 93.1706,-159.925 L 93.2588,-159.88 L 93.3439,-159.83 L 93.4258,-159.774
 L 93.5039,-159.714 L 93.5782,-159.648 L 93.6481,-159.578 L 93.7135,-159.504 L 93.7742,-159.426 L 93.8298,-159.344
 L 93.8802,-159.259 L 93.9251,-159.171 L 93.9644,-159.08 L 93.9979,-158.987 L 94.0255,-158.892 L 94.0471,-158.795
 L 94.0626,-158.697 L 94.0719,-158.599 L 94.075,-158.5 L 94.0719,-158.401 L 94.0626,-158.303 L 94.0471,-158.205
 L 94.0255,-158.108 L 93.9979,-158.013 L 93.9644,-157.92 L 93.9251,-157.829 L 93.8802,-157.741 L 93.8298,-157.656
 L 93.7742,-157.574 L 93.7135,-157.496 L 93.6481,-157.422 L 93.5782,-157.352 L 93.5039,-157.286 L 93.4258,-157.226
 L 93.3439,-157.17 L 93.2588,-157.12 L 93.1706,-157.075 L 93.0798,-157.036 L 92.9867,-157.002 L 92.8917,-156.974
 L 92.7951,-156.953 L 92.6974,-156.937 L 92.5989,-156.928 L 92.5,-156.925 z
M 73.4011,-154.428 L 73.3026,-154.437 L 73.2049,-154.453 L 73.1083,-154.474 L 73.0133,-154.502 L 72.9202,-154.536
 L 72.8294,-154.575 L 72.7412,-154.62 L 72.6561,-154.67 L 72.5742,-154.726 L 72.496,-154.786 L 72.4218,-154.852
 L 72.3519,-154.922 L 72.2864,-154.996 L 72.2258,-155.074 L 72.1702,-155.156 L 72.1198,-155.241 L 72.0749,-155.329
 L 72.0356,-155.42 L 72.0021,-155.513 L 71.9745,-155.608 L 71.9529,-155.705 L 71.9374,-155.803 L 71.9281,-155.901
 L 71.925,-156 L 71.9281,-156.099 L 71.9374,-156.197 L 71.9529,-156.295 L 71.9745,-156.392 L 72.0021,-156.487
 L 72.0356,-156.58 L 72.0749,-156.671 L 72.1198,-156.759 L 72.1702,-156.844 L 72.2258,-156.926 L 72.2864,-157.004
 L 72.3519,-157.078 L 72.4218,-157.148 L 72.496,-157.214 L 72.5742,-157.274 L 72.6561,-157.33 L 72.7412,-157.38
 L 72.8294,-157.425 L 72.9202,-157.464 L 73.0133,-157.498 L 73.1083,-157.526 L 73.2049,-157.547 L 73.3026,-157.563
 L 73.4011,-157.572 L 73.5,-157.575 L 73.5989,-157.572 L 73.6974,-157.563 L 73.7951,-157.547 L 73.8917,-157.526
 L 73.9867,-157.498 L 74.0798,-157.464 L 74.1706,-157.425 L 74.2588,-157.38 L 74.3439,-157.33 L 74.4258,-157.274
 L 74.5039,-157.214 L 74.5782,-157.148 L 74.6481,-157.078 L 74.7135,-157.004 L 74.7742,-156.926 L 74.8298,-156.844
 L 74.8802,-156.759 L 74.9251,-156.671 L 74.9644,-156.58 L 74.9979,-156.487 L 75.0255,-156.392 L 75.0471,-156.295
 L 75.0626,-156.197 L 75.0719,-156.099 L 75.075,-156 L 75.0719,-155.901 L 75.0626,-155.803 L 75.0471,-155.705
 L 75.0255,-155.608 L 74.9979,-155.513 L 74.9644,-155.42 L 74.9251,-155.329 L 74.8802,-155.241 L 74.8298,-155.156
 L 74.7742,-155.074 L 74.7135,-154.996 L 74.6481,-154.922 L 74.5782,-154.852 L 74.5039,-154.786 L 74.4258,-154.726
 L 74.3439,-154.67 L 74.2588,-154.62 L 74.1706,-154.575 L 74.0798,-154.536 L 73.9867,-154.502 L 73.8917,-154.474
 L 73.7951,-154.453 L 73.6974,-154.437 L 73.5989,-154.428 L 73.5,-154.425 z
M 58.4011,-154.428 L 58.3026,-154.437 L 58.2049,-154.453 L 58.1083,-154.474 L 58.0133,-154.502 L 57.9202,-154.536
 L 57.8294,-154.575 L 57.7412,-154.62 L 57.6561,-154.67 L 57.5742,-154.726 L 57.496,-154.786 L 57.4218,-154.852
 L 57.3519,-154.922 L 57.2864,-154.996 L 57.2258,-155.074 L 57.1702,-155.156 L 57.1198,-155.241 L 57.0749,-155.329
 L 57.0356,-155.42 L 57.0021,-155.513 L 56.9745,-155.608 L 56.9529,-155.705 L 56.9374,-155.803 L 56.9281,-155.901
 L 56.925,-156 L 56.9281,-156.099 L 56.9374,-156.197 L 56.9529,-156.295 L 56.9745,-156.392 L 57.0021,-156.487
 L 57.0356,-156.58 L 57.0749,-156.671 L 57.1198,-156.759 L 57.1702,-156.844 L 57.2258,-156.926 L 57.2864,-157.004
 L 57.3519,-157.078 L 57.4218,-157.148 L 57.496,-157.214 L 57.5742,-157.274 L 57.6561,-157.33 L 57.7412,-157.38
 L 57.8294,-157.425 L 57.9202,-157.464 L 58.0133,-157.498 L 58.1083,-157.526 L 58.2049,-157.547 L 58.3026,-157.563
 L 58.4011,-157.572 L 58.5,-157.575 L 58.5989,-157.572 L 58.6974,-157.563 L 58.7951,-157.547 L 58.8917,-157.526
 L 58.9867,-157.498 L 59.0798,-157.464 L 59.1706,-157.425 L 59.2588,-157.38 L 59.3439,-157.33 L 59.4258,-157.274
 L 59.5039,-157.214 L 59.5782,-157.148 L 59.6481,-157.078 L 59.7135,-157.004 L 59.7742,-156.926 L 59.8298,-156.844
 L 59.8802,-156.759 L 59.9251,-156.671 L 59.9644,-156.58 L 59.9979,-156.487 L 60.0255,-156.392 L 60.0471,-156.295
 L 60.0626,-156.197 L 60.0719,-156.099 L 60.075,-156 L 60.0719,-155.901 L 60.0626,-155.803 L 60.0471,-155.705
 L 60.0255,-155.608 L 59.9979,-155.513 L 59.9644,-155.42 L 59.9251,-155.329 L 59.8802,-155.241 L 59.8298,-155.156
 L 59.7742,-155.074 L 59.7135,-154.996 L 59.6481,-154.922 L 59.5782,-154.852 L 59.5039,-154.786 L 59.4258,-154.726
 L 59.3439,-154.67 L 59.2588,-154.62 L 59.1706,-154.575 L 59.0798,-154.536 L 58.9867,-154.502 L 58.8917,-154.474
 L 58.7951,-154.453 L 58.6974,-154.437 L 58.5989,-154.428 L 58.5,-154.425 z
M 46.0883,-148.43 L 45.9273,-148.445 L 45.7675,-148.471 L 45.6096,-148.506 L 45.4543,-148.551 L 45.3021,-148.606
 L 45.1536,-148.67 L 45.0095,-148.743 L 44.8702,-148.826 L 44.7365,-148.917 L 44.6086,-149.016 L 44.4873,-149.123
 L 44.3729,-149.237 L 44.2659,-149.359 L 44.1668,-149.486 L 44.0759,-149.62 L 43.9935,-149.759 L 43.9201,-149.904
 L 43.8558,-150.052 L 43.801,-150.204 L 43.7559,-150.36 L 43.7206,-150.517 L 43.6953,-150.677 L 43.6801,-150.838
 L 43.675,-151 L 43.6801,-151.162 L 43.6953,-151.323 L 43.7206,-151.482 L 43.7559,-151.64 L 43.801,-151.796
 L 43.8558,-151.948 L 43.9201,-152.096 L 43.9935,-152.241 L 44.0759,-152.38 L 44.1668,-152.514 L 44.2659,-152.641
 L 44.3729,-152.763 L 44.4873,-152.877 L 44.6086,-152.984 L 44.7365,-153.083 L 44.8702,-153.174 L 45.0095,-153.256
 L 45.1536,-153.33 L 45.3021,-153.394 L 45.4543,-153.449 L 45.6096,-153.494 L 45.7675,-153.529 L 45.9273,-153.555
 L 46.0883,-153.57 L 46.25,-153.575 L 46.4117,-153.57 L 46.5727,-153.555 L 46.7325,-153.529 L 46.8904,-153.494
 L 47.0457,-153.449 L 47.1979,-153.394 L 47.3464,-153.33 L 47.4905,-153.256 L 47.6297,-153.174 L 47.7635,-153.083
 L 47.8914,-152.984 L 48.0127,-152.877 L 48.1271,-152.763 L 48.2341,-152.641 L 48.3332,-152.514 L 48.4241,-152.38
 L 48.5065,-152.241 L 48.5799,-152.096 L 48.6442,-151.948 L 48.699,-151.796 L 48.7441,-151.64 L 48.7794,-151.482
 L 48.8047,-151.323 L 48.8199,-151.162 L 48.825,-151 L 48.8199,-150.838 L 48.8047,-150.677 L 48.7794,-150.517
 L 48.7441,-150.36 L 48.699,-150.204 L 48.6442,-150.052 L 48.5799,-149.904 L 48.5065,-149.759 L 48.4241,-149.62
 L 48.3332,-149.486 L 48.2341,-149.359 L 48.1271,-149.237 L 48.0127,-149.123 L 47.8914,-149.016 L 47.7635,-148.917
 L 47.6297,-148.826 L 47.4905,-148.743 L 47.3464,-148.67 L 47.1979,-148.606 L 47.0457,-148.551 L 46.8904,-148.506
 L 46.7325,-148.471 L 46.5727,-148.445 L 46.4117,-148.43 L 46.25,-148.425 z
M 26.0883,-148.43 L 25.9273,-148.445 L 25.7675,-148.471 L 25.6096,-148.506 L 25.4543,-148.551 L 25.3021,-148.606
 L 25.1536,-148.67 L 25.0095,-148.743 L 24.8702,-148.826 L 24.7365,-148.917 L 24.6086,-149.016 L 24.4873,-149.123
 L 24.3729,-149.237 L 24.2659,-149.359 L 24.1668,-149.486 L 24.0759,-149.62 L 23.9935,-149.759 L 23.9201,-149.904
 L 23.8558,-150.052 L 23.801,-150.204 L 23.7559,-150.36 L 23.7206,-150.517 L 23.6953,-150.677 L 23.6801,-150.838
 L 23.675,-151 L 23.6801,-151.162 L 23.6953,-151.323 L 23.7206,-151.482 L 23.7559,-151.64 L 23.801,-151.796
 L 23.8558,-151.948 L 23.9201,-152.096 L 23.9935,-152.241 L 24.0759,-152.38 L 24.1668,-152.514 L 24.2659,-152.641
 L 24.3729,-152.763 L 24.4873,-152.877 L 24.6086,-152.984 L 24.7365,-153.083 L 24.8702,-153.174 L 25.0095,-153.256
 L 25.1536,-153.33 L 25.3021,-153.394 L 25.4543,-153.449 L 25.6096,-153.494 L 25.7675,-153.529 L 25.9273,-153.555
 L 26.0883,-153.57 L 26.25,-153.575 L 26.4117,-153.57 L 26.5727,-153.555 L 26.7325,-153.529 L 26.8904,-153.494
 L 27.0457,-153.449 L 27.1979,-153.394 L 27.3464,-153.33 L 27.4905,-153.256 L 27.6297,-153.174 L 27.7635,-153.083
 L 27.8914,-152.984 L 28.0127,-152.877 L 28.1271,-152.763 L 28.2341,-152.641 L 28.3332,-152.514 L 28.4241,-152.38
 L 28.5065,-152.241 L 28.5799,-152.096 L 28.6442,-151.948 L 28.699,-151.796 L 28.7441,-151.64 L 28.7794,-151.482
 L 28.8047,-151.323 L 28.8199,-151.162 L 28.825,-151 L 28.8199,-150.838 L 28.8047,-150.677 L 28.7794,-150.517
 L 28.7441,-150.36 L 28.699,-150.204 L 28.6442,-150.052 L 28.5799,-149.904 L 28.5065,-149.759 L 28.4241,-149.62
 L 28.3332,-149.486 L 28.2341,-149.359 L 28.1271,-149.237 L 28.0127,-149.123 L 27.8914,-149.016 L 27.7635,-148.917
 L 27.6297,-148.826 L 27.4905,-148.743 L 27.3464,-148.67 L 27.1979,-148.606 L 27.0457,-148.551 L 26.8904,-148.506
 L 26.7325,-148.471 L 26.5727,-148.445 L 26.4117,-148.43 L 26.25,-148.425 z
M 58.4011,-144.428 L 58.3026,-144.437 L 58.2049,-144.453 L 58.1083,-144.474 L 58.0133,-144.502 L 57.9202,-144.536
 L 57.8294,-144.575 L 57.7412,-144.62 L 57.6561,-144.67 L 57.5742,-144.726 L 57.496,-144.786 L 57.4218,-144.852
 L 57.3519,-144.922 L 57.2864,-144.996 L 57.2258,-145.074 L 57.1702,-145.156 L 57.1198,-145.241 L 57.0749,-145.329
 L 57.0356,-145.42 L 57.0021,-145.513 L 56.9745,-145.608 L 56.9529,-145.705 L 56.9374,-145.803 L 56.9281,-145.901
 L 56.925,-146 L 56.9281,-146.099 L 56.9374,-146.197 L 56.9529,-146.295 L 56.9745,-146.392 L 57.0021,-146.487
 L 57.0356,-146.58 L 57.0749,-146.671 L 57.1198,-146.759 L 57.1702,-146.844 L 57.2258,-146.926 L 57.2864,-147.004
 L 57.3519,-147.078 L 57.4218,-147.148 L 57.496,-147.214 L 57.5742,-147.274 L 57.6561,-147.33 L 57.7412,-147.38
 L 57.8294,-147.425 L 57.9202,-147.464 L 58.0133,-147.498 L 58.1083,-147.526 L 58.2049,-147.547 L 58.3026,-147.563
 L 58.4011,-147.572 L 58.5,-147.575 L 58.5989,-147.572 L 58.6974,-147.563 L 58.7951,-147.547 L 58.8917,-147.526
 L 58.9867,-147.498 L 59.0798,-147.464 L 59.1706,-147.425 L 59.2588,-147.38 L 59.3439,-147.33 L 59.4258,-147.274
 L 59.5039,-147.214 L 59.5782,-147.148 L 59.6481,-147.078 L 59.7135,-147.004 L 59.7742,-146.926 L 59.8298,-146.844
 L 59.8802,-146.759 L 59.9251,-146.671 L 59.9644,-146.58 L 59.9979,-146.487 L 60.0255,-146.392 L 60.0471,-146.295
 L 60.0626,-146.197 L 60.0719,-146.099 L 60.075,-146 L 60.0719,-145.901 L 60.0626,-145.803 L 60.0471,-145.705
 L 60.0255,-145.608 L 59.9979,-145.513 L 59.9644,-145.42 L 59.9251,-145.329 L 59.8802,-145.241 L 59.8298,-145.156
 L 59.7742,-145.074 L 59.7135,-144.996 L 59.6481,-144.922 L 59.5782,-144.852 L 59.5039,-144.786 L 59.4258,-144.726
 L 59.3439,-144.67 L 59.2588,-144.62 L 59.1706,-144.575 L 59.0798,-144.536 L 58.9867,-144.502 L 58.8917,-144.474
 L 58.7951,-144.453 L 58.6974,-144.437 L 58.5989,-144.428 L 58.5,-144.425 z
M 73.4011,-144.428 L 73.3026,-144.437 L 73.2049,-144.453 L 73.1083,-144.474 L 73.0133,-144.502 L 72.9202,-144.536
 L 72.8294,-144.575 L 72.7412,-144.62 L 72.6561,-144.67 L 72.5742,-144.726 L 72.496,-144.786 L 72.4218,-144.852
 L 72.3519,-144.922 L 72.2864,-144.996 L 72.2258,-145.074 L 72.1702,-145.156 L 72.1198,-145.241 L 72.0749,-145.329
 L 72.0356,-145.42 L 72.0021,-145.513 L 71.9745,-145.608 L 71.9529,-145.705 L 71.9374,-145.803 L 71.9281,-145.901
 L 71.925,-146 L 71.9281,-146.099 L 71.9374,-146.197 L 71.9529,-146.295 L 71.9745,-146.392 L 72.0021,-146.487
 L 72.0356,-146.58 L 72.0749,-146.671 L 72.1198,-146.759 L 72.1702,-146.844 L 72.2258,-146.926 L 72.2864,-147.004
 L 72.3519,-147.078 L 72.4218,-147.148 L 72.496,-147.214 L 72.5742,-147.274 L 72.6561,-147.33 L 72.7412,-147.38
 L 72.8294,-147.425 L 72.9202,-147.464 L 73.0133,-147.498 L 73.1083,-147.526 L 73.2049,-147.547 L 73.3026,-147.563
 L 73.4011,-147.572 L 73.5,-147.575 L 73.5989,-147.572 L 73.6974,-147.563 L 73.7951,-147.547 L 73.8917,-147.526
 L 73.9867,-147.498 L 74.0798,-147.464 L 74.1706,-147.425 L 74.2588,-147.38 L 74.3439,-147.33 L 74.4258,-147.274
 L 74.5039,-147.214 L 74.5782,-147.148 L 74.6481,-147.078 L 74.7135,-147.004 L 74.7742,-146.926 L 74.8298,-146.844
 L 74.8802,-146.759 L 74.9251,-146.671 L 74.9644,-146.58 L 74.9979,-146.487 L 75.0255,-146.392 L 75.0471,-146.295
 L 75.0626,-146.197 L 75.0719,-146.099 L 75.075,-146 L 75.0719,-145.901 L 75.0626,-145.803 L 75.0471,-145.705
 L 75.0255,-145.608 L 74.9979,-145.513 L 74.9644,-145.42 L 74.9251,-145.329 L 74.8802,-145.241 L 74.8298,-145.156
 L 74.7742,-145.074 L 74.7135,-144.996 L 74.6481,-144.922 L 74.5782,-144.852 L 74.5039,-144.786 L 74.4258,-144.726
 L 74.3439,-144.67 L 74.2588,-144.62 L 74.1706,-144.575 L 74.0798,-144.536 L 73.9867,-144.502 L 73.8917,-144.474
 L 73.7951,-144.453 L 73.6974,-144.437 L 73.5989,-144.428 L 73.5,-144.425 z
M 7.40109,-141.928 L 7.3026,-141.937 L 7.20486,-141.953 L 7.10831,-141.974 L 7.01329,-142.002 L 6.9202,-142.036
 L 6.82939,-142.075 L 6.74123,-142.12 L 6.65607,-142.17 L 6.57423,-142.226 L 6.49605,-142.286 L 6.42183,-142.352
 L 6.35187,-142.422 L 6.28644,-142.496 L 6.22578,-142.574 L 6.17018,-142.656 L 6.11981,-142.741 L 6.07489,-142.829
 L 6.0356,-142.92 L 6.00208,-143.013 L 5.97447,-143.108 L 5.9529,-143.205 L 5.93741,-143.303 L 5.9281,-143.401
 L 5.92499,-143.5 L 5.9281,-143.599 L 5.93741,-143.697 L 5.9529,-143.795 L 5.97447,-143.892 L 6.00208,-143.987
 L 6.0356,-144.08 L 6.07489,-144.171 L 6.11981,-144.259 L 6.17018,-144.344 L 6.22578,-144.426 L 6.28644,-144.504
 L 6.35187,-144.578 L 6.42183,-144.648 L 6.49605,-144.714 L 6.57423,-144.774 L 6.65607,-144.83 L 6.74123,-144.88
 L 6.82939,-144.925 L 6.9202,-144.964 L 7.01329,-144.998 L 7.10831,-145.026 L 7.20486,-145.047 L 7.3026,-145.063
 L 7.40109,-145.072 L 7.5,-145.075 L 7.59889,-145.072 L 7.69739,-145.063 L 7.79512,-145.047 L 7.89168,-145.026
 L 7.98669,-144.998 L 8.07979,-144.964 L 8.17059,-144.925 L 8.25876,-144.88 L 8.34392,-144.83 L 8.42575,-144.774
 L 8.50394,-144.714 L 8.57816,-144.648 L 8.64812,-144.578 L 8.71355,-144.504 L 8.7742,-144.426 L 8.8298,-144.344
 L 8.88017,-144.259 L 8.92509,-144.171 L 8.96439,-144.08 L 8.99791,-143.987 L 9.02551,-143.892 L 9.04709,-143.795
 L 9.06258,-143.697 L 9.07188,-143.599 L 9.075,-143.5 L 9.07188,-143.401 L 9.06258,-143.303 L 9.04709,-143.205
 L 9.02551,-143.108 L 8.99791,-143.013 L 8.96439,-142.92 L 8.92509,-142.829 L 8.88017,-142.741 L 8.8298,-142.656
 L 8.7742,-142.574 L 8.71355,-142.496 L 8.64812,-142.422 L 8.57816,-142.352 L 8.50394,-142.286 L 8.42575,-142.226
 L 8.34392,-142.17 L 8.25876,-142.12 L 8.17059,-142.075 L 8.07979,-142.036 L 7.98669,-142.002 L 7.89168,-141.974
 L 7.79512,-141.953 L 7.69739,-141.937 L 7.59889,-141.928 L 7.5,-141.925 z
M 92.4011,-141.928 L 92.3026,-141.937 L 92.2049,-141.953 L 92.1083,-141.974 L 92.0133,-142.002 L 91.9202,-142.036
 L 91.8294,-142.075 L 91.7412,-142.12 L 91.6561,-142.17 L 91.5742,-142.226 L 91.496,-142.286 L 91.4218,-142.352
 L 91.3519,-142.422 L 91.2864,-142.496 L 91.2258,-142.574 L 91.1702,-142.656 L 91.1198,-142.741 L 91.0749,-142.829
 L 91.0356,-142.92 L 91.0021,-143.013 L 90.9745,-143.108 L 90.9529,-143.205 L 90.9374,-143.303 L 90.9281,-143.401
 L 90.925,-143.5 L 90.9281,-143.599 L 90.9374,-143.697 L 90.9529,-143.795 L 90.9745,-143.892 L 91.0021,-143.987
 L 91.0356,-144.08 L 91.0749,-144.171 L 91.1198,-144.259 L 91.1702,-144.344 L 91.2258,-144.426 L 91.2864,-144.504
 L 91.3519,-144.578 L 91.4218,-144.648 L 91.496,-144.714 L 91.5742,-144.774 L 91.6561,-144.83 L 91.7412,-144.88
 L 91.8294,-144.925 L 91.9202,-144.964 L 92.0133,-144.998 L 92.1083,-145.026 L 92.2049,-145.047 L 92.3026,-145.063
 L 92.4011,-145.072 L 92.5,-145.075 L 92.5989,-145.072 L 92.6974,-145.063 L 92.7951,-145.047 L 92.8917,-145.026
 L 92.9867,-144.998 L 93.0798,-144.964 L 93.1706,-144.925 L 93.2588,-144.88 L 93.3439,-144.83 L 93.4258,-144.774
 L 93.5039,-144.714 L 93.5782,-144.648 L 93.6481,-144.578 L 93.7135,-144.504 L 93.7742,-144.426 L 93.8298,-144.344
 L 93.8802,-144.259 L 93.9251,-144.171 L 93.9644,-144.08 L 93.9979,-143.987 L 94.0255,-143.892 L 94.0471,-143.795
 L 94.0626,-143.697 L 94.0719,-143.599 L 94.075,-143.5 L 94.0719,-143.401 L 94.0626,-143.303 L 94.0471,-143.205
 L 94.0255,-143.108 L 93.9979,-143.013 L 93.9644,-142.92 L 93.9251,-142.829 L 93.8802,-142.741 L 93.8298,-142.656
 L 93.7742,-142.574 L 93.7135,-142.496 L 93.6481,-142.422 L 93.5782,-142.352 L 93.5039,-142.286 L 93.4258,-142.226
 L 93.3439,-142.17 L 93.2588,-142.12 L 93.1706,-142.075 L 93.0798,-142.036 L 92.9867,-142.002 L 92.8917,-141.974
 L 92.7951,-141.953 L 92.6974,-141.937 L 92.5989,-141.928 L 92.5,-141.925 z
M 92.4011,-126.928 L 92.3026,-126.937 L 92.2049,-126.953 L 92.1083,-126.974 L 92.0133,-127.002 L 91.9202,-127.036
 L 91.8294,-127.075 L 91.7412,-127.12 L 91.6561,-127.17 L 91.5742,-127.226 L 91.496,-127.286 L 91.4218,-127.352
 L 91.3519,-127.422 L 91.2864,-127.496 L 91.2258,-127.574 L 91.1702,-127.656 L 91.1198,-127.741 L 91.0749,-127.829
 L 91.0356,-127.92 L 91.0021,-128.013 L 90.9745,-128.108 L 90.9529,-128.205 L 90.9374,-128.303 L 90.9281,-128.401
 L 90.925,-128.5 L 90.9281,-128.599 L 90.9374,-128.697 L 90.9529,-128.795 L 90.9745,-128.892 L 91.0021,-128.987
 L 91.0356,-129.08 L 91.0749,-129.171 L 91.1198,-129.259 L 91.1702,-129.344 L 91.2258,-129.426 L 91.2864,-129.504
 L 91.3519,-129.578 L 91.4218,-129.648 L 91.496,-129.714 L 91.5742,-129.774 L 91.6561,-129.83 L 91.7412,-129.88
 L 91.8294,-129.925 L 91.9202,-129.964 L 92.0133,-129.998 L 92.1083,-130.026 L 92.2049,-130.047 L 92.3026,-130.063
 L 92.4011,-130.072 L 92.5,-130.075 L 92.5989,-130.072 L 92.6974,-130.063 L 92.7951,-130.047 L 92.8917,-130.026
 L 92.9867,-129.998 L 93.0798,-129.964 L 93.1706,-129.925 L 93.2588,-129.88 L 93.3439,-129.83 L 93.4258,-129.774
 L 93.5039,-129.714 L 93.5782,-129.648 L 93.6481,-129.578 L 93.7135,-129.504 L 93.7742,-129.426 L 93.8298,-129.344
 L 93.8802,-129.259 L 93.9251,-129.171 L 93.9644,-129.08 L 93.9979,-128.987 L 94.0255,-128.892 L 94.0471,-128.795
 L 94.0626,-128.697 L 94.0719,-128.599 L 94.075,-128.5 L 94.0719,-128.401 L 94.0626,-128.303 L 94.0471,-128.205
 L 94.0255,-128.108 L 93.9979,-128.013 L 93.9644,-127.92 L 93.9251,-127.829 L 93.8802,-127.741 L 93.8298,-127.656
 L 93.7742,-127.574 L 93.7135,-127.496 L 93.6481,-127.422 L 93.5782,-127.352 L 93.5039,-127.286 L 93.4258,-127.226
 L 93.3439,-127.17 L 93.2588,-127.12 L 93.1706,-127.075 L 93.0798,-127.036 L 92.9867,-127.002 L 92.8917,-126.974
 L 92.7951,-126.953 L 92.6974,-126.937 L 92.5989,-126.928 L 92.5,-126.925 z
M 7.40109,-126.928 L 7.3026,-126.937 L 7.20486,-126.953 L 7.10831,-126.974 L 7.01329,-127.002 L 6.9202,-127.036
 L 6.82939,-127.075 L 6.74123,-127.12 L 6.65607,-127.17 L 6.57423,-127.226 L 6.49605,-127.286 L 6.42183,-127.352
 L 6.35187,-127.422 L 6.28644,-127.496 L 6.22578,-127.574 L 6.17018,-127.656 L 6.11981,-127.741 L 6.07489,-127.829
 L 6.0356,-127.92 L 6.00208,-128.013 L 5.97447,-128.108 L 5.9529,-128.205 L 5.93741,-128.303 L 5.9281,-128.401
 L 5.92499,-128.5 L 5.9281,-128.599 L 5.93741,-128.697 L 5.9529,-128.795 L 5.97447,-128.892 L 6.00208,-128.987
 L 6.0356,-129.08 L 6.07489,-129.171 L 6.11981,-129.259 L 6.17018,-129.344 L 6.22578,-129.426 L 6.28644,-129.504
 L 6.35187,-129.578 L 6.42183,-129.648 L 6.49605,-129.714 L 6.57423,-129.774 L 6.65607,-129.83 L 6.74123,-129.88
 L 6.82939,-129.925 L 6.9202,-129.964 L 7.01329,-129.998 L 7.10831,-130.026 L 7.20486,-130.047 L 7.3026,-130.063
 L 7.40109,-130.072 L 7.5,-130.075 L 7.59889,-130.072 L 7.69739,-130.063 L 7.79512,-130.047 L 7.89168,-130.026
 L 7.98669,-129.998 L 8.07979,-129.964 L 8.17059,-129.925 L 8.25876,-129.88 L 8.34392,-129.83 L 8.42575,-129.774
 L 8.50394,-129.714 L 8.57816,-129.648 L 8.64812,-129.578 L 8.71355,-129.504 L 8.7742,-129.426 L 8.8298,-129.344
 L 8.88017,-129.259 L 8.92509,-129.171 L 8.96439,-129.08 L 8.99791,-128.987 L 9.02551,-128.892 L 9.04709,-128.795
 L 9.06258,-128.697 L 9.07188,-128.599 L 9.075,-128.5 L 9.07188,-128.401 L 9.06258,-128.303 L 9.04709,-128.205
 L 9.02551,-128.108 L 8.99791,-128.013 L 8.96439,-127.92 L 8.92509,-127.829 L 8.88017,-127.741 L 8.8298,-127.656
 L 8.7742,-127.574 L 8.71355,-127.496 L 8.64812,-127.422 L 8.57816,-127.352 L 8.50394,-127.286 L 8.42575,-127.226
 L 8.34392,-127.17 L 8.25876,-127.12 L 8.17059,-127.075 L 8.07979,-127.036 L 7.98669,-127.002 L 7.89168,-126.974
 L 7.79512,-126.953 L 7.69739,-126.937 L 7.59889,-126.928 L 7.5,-126.925 z
M 201,-100 L 101,-100 L 101,-0 L 201,-0 z
M 193.401,-70.9281 L 193.303,-70.9374 L 193.205,-70.9529 L 193.108,-70.9745 L 193.013,-71.0021 L 192.92,-71.0356
 L 192.829,-71.0749 L 192.741,-71.1198 L 192.656,-71.1702 L 192.574,-71.2258 L 192.496,-71.2864 L 192.422,-71.3519
 L 192.352,-71.4218 L 192.286,-71.496 L 192.226,-71.5742 L 192.17,-71.6561 L 192.12,-71.7412 L 192.075,-71.8294
 L 192.036,-71.9202 L 192.002,-72.0133 L 191.974,-72.1083 L 191.953,-72.2049 L 191.937,-72.3026 L 191.928,-72.4011
 L 191.925,-72.5 L 191.928,-72.5989 L 191.937,-72.6974 L 191.953,-72.7951 L 191.974,-72.8917 L 192.002,-72.9867
 L 192.036,-73.0798 L 192.075,-73.1706 L 192.12,-73.2588 L 192.17,-73.3439 L 192.226,-73.4258 L 192.286,-73.5039
 L 192.352,-73.5782 L 192.422,-73.6481 L 192.496,-73.7135 L 192.574,-73.7742 L 192.656,-73.8298 L 192.741,-73.8802
 L 192.829,-73.9251 L 192.92,-73.9644 L 193.013,-73.9979 L 193.108,-74.0255 L 193.205,-74.0471 L 193.303,-74.0626
 L 193.401,-74.0719 L 193.5,-74.075 L 193.599,-74.0719 L 193.697,-74.0626 L 193.795,-74.0471 L 193.892,-74.0255
 L 193.987,-73.9979 L 194.08,-73.9644 L 194.171,-73.9251 L 194.259,-73.8802 L 194.344,-73.8298 L 194.426,-73.7742
 L 194.504,-73.7135 L 194.578,-73.6481 L 194.648,-73.5782 L 194.714,-73.5039 L 194.774,-73.4258 L 194.83,-73.3439
 L 194.88,-73.2588 L 194.925,-73.1706 L 194.964,-73.0798 L 194.998,-72.9867 L 195.026,-72.8917 L 195.047,-72.7951
 L 195.063,-72.6974 L 195.072,-72.5989 L 195.075,-72.5 L 195.072,-72.4011 L 195.063,-72.3026 L 195.047,-72.2049
 L 195.026,-72.1083 L 194.998,-72.0133 L 194.964,-71.9202 L 194.925,-71.8294 L 194.88,-71.7412 L 194.83,-71.6561
 L 194.774,-71.5742 L 194.714,-71.496 L 194.648,-71.4218 L 194.578,-71.3519 L 194.504,-71.2864 L 194.426,-71.2258
 L 194.344,-71.1702 L 194.259,-71.1198 L 194.171,-71.0749 L 194.08,-71.0356 L 193.987,-71.0021 L 193.892,-70.9745
 L 193.795,-70.9529 L 193.697,-70.9374 L 193.599,-70.9281 L 193.5,-70.925 z
M 108.401,-70.9281 L 108.303,-70.9374 L 108.205,-70.9529 L 108.108,-70.9745 L 108.013,-71.0021 L 107.92,-71.0356
 L 107.829,-71.0749 L 107.741,-71.1198 L 107.656,-71.1702 L 107.574,-71.2258 L 107.496,-71.2864 L 107.422,-71.3519
 L 107.352,-71.4218 L 107.286,-71.496 L 107.226,-71.5742 L 107.17,-71.6561 L 107.12,-71.7412 L 107.075,-71.8294
 L 107.036,-71.9202 L 107.002,-72.0133 L 106.974,-72.1083 L 106.953,-72.2049 L 106.937,-72.3026 L 106.928,-72.4011
 L 106.925,-72.5 L 106.928,-72.5989 L 106.937,-72.6974 L 106.953,-72.7951 L 106.974,-72.8917 L 107.002,-72.9867
 L 107.036,-73.0798 L 107.075,-73.1706 L 107.12,-73.2588 L 107.17,-73.3439 L 107.226,-73.4258 L 107.286,-73.5039
 L 107.352,-73.5782 L 107.422,-73.6481 L 107.496,-73.7135 L 107.574,-73.7742 L 107.656,-73.8298 L 107.741,-73.8802
 L 107.829,-73.9251 L 107.92,-73.9644 L 108.013,-73.9979 L 108.108,-74.0255 L 108.205,-74.0471 L 108.303,-74.0626
 L 108.401,-74.0719 L 108.5,-74.075 L 108.599,-74.0719 L 108.697,-74.0626 L 108.795,-74.0471 L 108.892,-74.0255
 L 108.987,-73.9979 L 109.08,-73.9644 L 109.171,-73.9251 L 109.259,-73.8802 L 109.344,-73.8298 L 109.426,-73.7742
 L 109.504,-73.7135 L 109.578,-73.6481 L 109.648,-73.5782 L 109.714,-73.5039 L 109.774,-73.4258 L 109.83,-73.3439
 L 109.88,-73.2588 L 109.925,-73.1706 L 109.964,-73.0798 L 109.998,-72.9867 L 110.026,-72.8917 L 110.047,-72.7951
 L 110.063,-72.6974 L 110.072,-72.5989 L 110.075,-72.5 L 110.072,-72.4011 L 110.063,-72.3026 L 110.047,-72.2049
 L 110.026,-72.1083 L 109.998,-72.0133 L 109.964,-71.9202 L 109.925,-71.8294 L 109.88,-71.7412 L 109.83,-71.6561
 L 109.774,-71.5742 L 109.714,-71.496 L 109.648,-71.4218 L 109.578,-71.3519 L 109.504,-71.2864 L 109.426,-71.2258
 L 109.344,-71.1702 L 109.259,-71.1198 L 109.171,-71.0749 L 109.08,-71.0356 L 108.987,-71.0021 L 108.892,-70.9745
 L 108.795,-70.9529 L 108.697,-70.9374 L 108.599,-70.9281 L 108.5,-70.925 z
M 108.401,-55.9281 L 108.303,-55.9374 L 108.205,-55.9529 L 108.108,-55.9745 L 108.013,-56.0021 L 107.92,-56.0356
 L 107.829,-56.0749 L 107.741,-56.1198 L 107.656,-56.1702 L 107.574,-56.2258 L 107.496,-56.2864 L 107.422,-56.3519
 L 107.352,-56.4218 L 107.286,-56.496 L 107.226,-56.5742 L 107.17,-56.6561 L 107.12,-56.7412 L 107.075,-56.8294
 L 107.036,-56.9202 L 107.002,-57.0133 L 106.974,-57.1083 L 106.953,-57.2049 L 106.937,-57.3026 L 106.928,-57.4011
 L 106.925,-57.5 L 106.928,-57.5989 L 106.937,-57.6974 L 106.953,-57.7951 L 106.974,-57.8917 L 107.002,-57.9867
 L 107.036,-58.0798 L 107.075,-58.1706 L 107.12,-58.2588 L 107.17,-58.3439 L 107.226,-58.4258 L 107.286,-58.5039
 L 107.352,-58.5782 L 107.422,-58.6481 L 107.496,-58.7135 L 107.574,-58.7742 L 107.656,-58.8298 L 107.741,-58.8802
 L 107.829,-58.9251 L 107.92,-58.9644 L 108.013,-58.9979 L 108.108,-59.0255 L 108.205,-59.0471 L 108.303,-59.0626
 L 108.401,-59.0719 L 108.5,-59.075 L 108.599,-59.0719 L 108.697,-59.0626 L 108.795,-59.0471 L 108.892,-59.0255
 L 108.987,-58.9979 L 109.08,-58.9644 L 109.171,-58.9251 L 109.259,-58.8802 L 109.344,-58.8298 L 109.426,-58.7742
 L 109.504,-58.7135 L 109.578,-58.6481 L 109.648,-58.5782 L 109.714,-58.5039 L 109.774,-58.4258 L 109.83,-58.3439
 L 109.88,-58.2588 L 109.925,-58.1706 L 109.964,-58.0798 L 109.998,-57.9867 L 110.026,-57.8917 L 110.047,-57.7951
 L 110.063,-57.6974 L 110.072,-57.5989 L 110.075,-57.5 L 110.072,-57.4011 L 110.063,-57.3026 L 110.047,-57.2049
 L 110.026,-57.1083 L 109.998,-57.0133 L 109.964,-56.9202 L 109.925,-56.8294 L 109.88,-56.7412 L 109.83,-56.6561
 L 109.774,-56.5742 L 109.714,-56.496 L 109.648,-56.4218 L 109.578,-56.3519 L 109.504,-56.2864 L 109.426,-56.2258
 L 109.344,-56.1702 L 109.259,-56.1198 L 109.171,-56.0749 L 109.08,-56.0356 L 108.987,-56.0021 L 108.892,-55.9745
 L 108.795,-55.9529 L 108.697,-55.9374 L 108.599,-55.9281 L 108.5,-55.925 z
M 193.401,-55.9281 L 193.303,-55.9374 L 193.205,-55.9529 L 193.108,-55.9745 L 193.013,-56.0021 L 192.92,-56.0356
 L 192.829,-56.0749 L 192.741,-56.1198 L 192.656,-56.1702 L 192.574,-56.2258 L 192.496,-56.2864 L 192.422,-56.3519
 L 192.352,-56.4218 L 192.286,-56.496 L 192.226,-56.5742 L 192.17,-56.6561 L 192.12,-56.7412 L 192.075,-56.8294
 L 192.036,-56.9202 L 192.002,-57.0133 L 191.974,-57.1083 L 191.953,-57.2049 L 191.937,-57.3026 L 191.928,-57.4011
 L 191.925,-57.5 L 191.928,-57.5989 L 191.937,-57.6974 L 191.953,-57.7951 L 191.974,-57.8917 L 192.002,-57.9867
 L 192.036,-58.0798 L 192.075,-58.1706 L 192.12,-58.2588 L 192.17,-58.3439 L 192.226,-58.4258 L 192.286,-58.5039
 L 192.352,-58.5782 L 192.422,-58.6481 L 192.496,-58.7135 L 192.574,-58.7742 L 192.656,-58.8298 L 192.741,-58.8802
 L 192.829,-58.9251 L 192.92,-58.9644 L 193.013,-58.9979 L 193.108,-59.0255 L 193.205,-59.0471 L 193.303,-59.0626
 L 193.401,-59.0719 L 193.5,-59.075 L 193.599,-59.0719 L 193.697,-59.0626 L 193.795,-59.0471 L 193.892,-59.0255
 L 193.987,-58.9979 L 194.08,-58.9644 L 194.171,-58.9251 L 194.259,-58.8802 L 194.344,-58.8298 L 194.426,-58.7742
 L 194.504,-58.7135 L 194.578,-58.6481 L 194.648,-58.5782 L 194.714,-58.5039 L 194.774,-58.4258 L 194.83,-58.3439
 L 194.88,-58.2588 L 194.925,-58.1706 L 194.964,-58.0798 L 194.998,-57.9867 L 195.026,-57.8917 L 195.047,-57.7951
 L 195.063,-57.6974 L 195.072,-57.5989 L 195.075,-57.5 L 195.072,-57.4011 L 195.063,-57.3026 L 195.047,-57.2049
 L 195.026,-57.1083 L 194.998,-57.0133 L 194.964,-56.9202 L 194.925,-56.8294 L 194.88,-56.7412 L 194.83,-56.6561
 L 194.774,-56.5742 L 194.714,-56.496 L 194.648,-56.4218 L 194.578,-56.3519 L 194.504,-56.2864 L 194.426,-56.2258
 L 194.344,-56.1702 L 194.259,-56.1198 L 194.171,-56.0749 L 194.08,-56.0356 L 193.987,-56.0021 L 193.892,-55.9745
 L 193.795,-55.9529 L 193.697,-55.9374 L 193.599,-55.9281 L 193.5,-55.925 z
M 174.401,-53.4281 L 174.303,-53.4374 L 174.205,-53.4529 L 174.108,-53.4745 L 174.013,-53.5021 L 173.92,-53.5356
 L 173.829,-53.5749 L 173.741,-53.6198 L 173.656,-53.6702 L 173.574,-53.7258 L 173.496,-53.7864 L 173.422,-53.8519
 L 173.352,-53.9218 L 173.286,-53.996 L 173.226,-54.0742 L 173.17,-54.1561 L 173.12,-54.2412 L 173.075,-54.3294
 L 173.036,-54.4202 L 173.002,-54.5133 L 172.974,-54.6083 L 172.953,-54.7049 L 172.937,-54.8026 L 172.928,-54.9011
 L 172.925,-55 L 172.928,-55.0989 L 172.937,-55.1974 L 172.953,-55.2951 L 172.974,-55.3917 L 173.002,-55.4867
 L 173.036,-55.5798 L 173.075,-55.6706 L 173.12,-55.7588 L 173.17,-55.8439 L 173.226,-55.9258 L 173.286,-56.0039
 L 173.352,-56.0782 L 173.422,-56.1481 L 173.496,-56.2135 L 173.574,-56.2742 L 173.656,-56.3298 L 173.741,-56.3802
 L 173.829,-56.4251 L 173.92,-56.4644 L 174.013,-56.4979 L 174.108,-56.5255 L 174.205,-56.5471 L 174.303,-56.5626
 L 174.401,-56.5719 L 174.5,-56.575 L 174.599,-56.5719 L 174.697,-56.5626 L 174.795,-56.5471 L 174.892,-56.5255
 L 174.987,-56.4979 L 175.08,-56.4644 L 175.171,-56.4251 L 175.259,-56.3802 L 175.344,-56.3298 L 175.426,-56.2742
 L 175.504,-56.2135 L 175.578,-56.1481 L 175.648,-56.0782 L 175.714,-56.0039 L 175.774,-55.9258 L 175.83,-55.8439
 L 175.88,-55.7588 L 175.925,-55.6706 L 175.964,-55.5798 L 175.998,-55.4867 L 176.026,-55.3917 L 176.047,-55.2951
 L 176.063,-55.1974 L 176.072,-55.0989 L 176.075,-55 L 176.072,-54.9011 L 176.063,-54.8026 L 176.047,-54.7049
 L 176.026,-54.6083 L 175.998,-54.5133 L 175.964,-54.4202 L 175.925,-54.3294 L 175.88,-54.2412 L 175.83,-54.1561
 L 175.774,-54.0742 L 175.714,-53.996 L 175.648,-53.9218 L 175.578,-53.8519 L 175.504,-53.7864 L 175.426,-53.7258
 L 175.344,-53.6702 L 175.259,-53.6198 L 175.171,-53.5749 L 175.08,-53.5356 L 174.987,-53.5021 L 174.892,-53.4745
 L 174.795,-53.4529 L 174.697,-53.4374 L 174.599,-53.4281 L 174.5,-53.425 z
M 159.401,-53.4281 L 159.303,-53.4374 L 159.205,-53.4529 L 159.108,-53.4745 L 159.013,-53.5021 L 158.92,-53.5356
 L 158.829,-53.5749 L 158.741,-53.6198 L 158.656,-53.6702 L 158.574,-53.7258 L 158.496,-53.7864 L 158.422,-53.8519
 L 158.352,-53.9218 L 158.286,-53.996 L 158.226,-54.0742 L 158.17,-54.1561 L 158.12,-54.2412 L 158.075,-54.3294
 L 158.036,-54.4202 L 158.002,-54.5133 L 157.974,-54.6083 L 157.953,-54.7049 L 157.937,-54.8026 L 157.928,-54.9011
 L 157.925,-55 L 157.928,-55.0989 L 157.937,-55.1974 L 157.953,-55.2951 L 157.974,-55.3917 L 158.002,-55.4867
 L 158.036,-55.5798 L 158.075,-55.6706 L 158.12,-55.7588 L 158.17,-55.8439 L 158.226,-55.9258 L 158.286,-56.0039
 L 158.352,-56.0782 L 158.422,-56.1481 L 158.496,-56.2135 L 158.574,-56.2742 L 158.656,-56.3298 L 158.741,-56.3802
 L 158.829,-56.4251 L 158.92,-56.4644 L 159.013,-56.4979 L 159.108,-56.5255 L 159.205,-56.5471 L 159.303,-56.5626
 L 159.401,-56.5719 L 159.5,-56.575 L 159.599,-56.5719 L 159.697,-56.5626 L 159.795,-56.5471 L 159.892,-56.5255
 L 159.987,-56.4979 L 160.08,-56.4644 L 160.171,-56.4251 L 160.259,-56.3802 L 160.344,-56.3298 L 160.426,-56.2742
 L 160.504,-56.2135 L 160.578,-56.1481 L 160.648,-56.0782 L 160.714,-56.0039 L 160.774,-55.9258 L 160.83,-55.8439
 L 160.88,-55.7588 L 160.925,-55.6706 L 160.964,-55.5798 L 160.998,-55.4867 L 161.026,-55.3917 L 161.047,-55.2951
 L 161.063,-55.1974 L 161.072,-55.0989 L 161.075,-55 L 161.072,-54.9011 L 161.063,-54.8026 L 161.047,-54.7049
 L 161.026,-54.6083 L 160.998,-54.5133 L 160.964,-54.4202 L 160.925,-54.3294 L 160.88,-54.2412 L 160.83,-54.1561
 L 160.774,-54.0742 L 160.714,-53.996 L 160.648,-53.9218 L 160.578,-53.8519 L 160.504,-53.7864 L 160.426,-53.7258
 L 160.344,-53.6702 L 160.259,-53.6198 L 160.171,-53.5749 L 160.08,-53.5356 L 159.987,-53.5021 L 159.892,-53.4745
 L 159.795,-53.4529 L 159.697,-53.4374 L 159.599,-53.4281 L 159.5,-53.425 z
M 147.088,-47.4301 L 146.927,-47.4453 L 146.767,-47.4706 L 146.61,-47.5059 L 146.454,-47.551 L 146.302,-47.6058
 L 146.154,-47.6701 L 146.009,-47.7435 L 145.87,-47.8259 L 145.736,-47.9168 L 145.609,-48.0159 L 145.487,-48.1229
 L 145.373,-48.2373 L 145.266,-48.3586 L 145.167,-48.4865 L 145.076,-48.6202 L 144.993,-48.7595 L 144.92,-48.9036
 L 144.856,-49.0521 L 144.801,-49.2043 L 144.756,-49.3596 L 144.721,-49.5175 L 144.695,-49.6773 L 144.68,-49.8383
 L 144.675,-50 L 144.68,-50.1617 L 144.695,-50.3227 L 144.721,-50.4825 L 144.756,-50.6404 L 144.801,-50.7957
 L 144.856,-50.9479 L 144.92,-51.0964 L 144.993,-51.2405 L 145.076,-51.3797 L 145.167,-51.5135 L 145.266,-51.6414
 L 145.373,-51.7627 L 145.487,-51.8771 L 145.609,-51.9841 L 145.736,-52.0832 L 145.87,-52.1741 L 146.009,-52.2565
 L 146.154,-52.3299 L 146.302,-52.3942 L 146.454,-52.449 L 146.61,-52.4941 L 146.767,-52.5294 L 146.927,-52.5547
 L 147.088,-52.5699 L 147.25,-52.575 L 147.412,-52.5699 L 147.573,-52.5547 L 147.732,-52.5294 L 147.89,-52.4941
 L 148.046,-52.449 L 148.198,-52.3942 L 148.346,-52.3299 L 148.491,-52.2565 L 148.63,-52.1741 L 148.764,-52.0832
 L 148.891,-51.9841 L 149.013,-51.8771 L 149.127,-51.7627 L 149.234,-51.6414 L 149.333,-51.5135 L 149.424,-51.3797
 L 149.506,-51.2405 L 149.58,-51.0964 L 149.644,-50.9479 L 149.699,-50.7957 L 149.744,-50.6404 L 149.779,-50.4825
 L 149.805,-50.3227 L 149.82,-50.1617 L 149.825,-50 L 149.82,-49.8383 L 149.805,-49.6773 L 149.779,-49.5175
 L 149.744,-49.3596 L 149.699,-49.2043 L 149.644,-49.0521 L 149.58,-48.9036 L 149.506,-48.7595 L 149.424,-48.6202
 L 149.333,-48.4865 L 149.234,-48.3586 L 149.127,-48.2373 L 149.013,-48.1229 L 148.891,-48.0159 L 148.764,-47.9168
 L 148.63,-47.8259 L 148.491,-47.7435 L 148.346,-47.6701 L 148.198,-47.6058 L 148.046,-47.551 L 147.89,-47.5059
 L 147.732,-47.4706 L 147.573,-47.4453 L 147.412,-47.4301 L 147.25,-47.425 z
M 127.088,-47.4301 L 126.927,-47.4453 L 126.767,-47.4706 L 126.61,-47.5059 L 126.454,-47.551 L 126.302,-47.6058
 L 126.154,-47.6701 L 126.009,-47.7435 L 125.87,-47.8259 L 125.736,-47.9168 L 125.609,-48.0159 L 125.487,-48.1229
 L 125.373,-48.2373 L 125.266,-48.3586 L 125.167,-48.4865 L 125.076,-48.6202 L 124.993,-48.7595 L 124.92,-48.9036
 L 124.856,-49.0521 L 124.801,-49.2043 L 124.756,-49.3596 L 124.721,-49.5175 L 124.695,-49.6773 L 124.68,-49.8383
 L 124.675,-50 L 124.68,-50.1617 L 124.695,-50.3227 L 124.721,-50.4825 L 124.756,-50.6404 L 124.801,-50.7957
 L 124.856,-50.9479 L 124.92,-51.0964 L 124.993,-51.2405 L 125.076,-51.3797 L 125.167,-51.5135 L 125.266,-51.6414
 L 125.373,-51.7627 L 125.487,-51.8771 L 125.609,-51.9841 L 125.736,-52.0832 L 125.87,-52.1741 L 126.009,-52.2565
 L 126.154,-52.3299 L 126.302,-52.3942 L 126.454,-52.449 L 126.61,-52.4941 L 126.767,-52.5294 L 126.927,-52.5547
 L 127.088,-52.5699 L 127.25,-52.575 L 127.412,-52.5699 L 127.573,-52.5547 L 127.732,-52.5294 L 127.89,-52.4941
 L 128.046,-52.449 L 128.198,-52.3942 L 128.346,-52.3299 L 128.491,-52.2565 L 128.63,-52.1741 L 128.764,-52.0832
 L 128.891,-51.9841 L 129.013,-51.8771 L 129.127,-51.7627 L 129.234,-51.6414 L 129.333,-51.5135 L 129.424,-51.3797
 L 129.506,-51.2405 L 129.58,-51.0964 L 129.644,-50.9479 L 129.699,-50.7957 L 129.744,-50.6404 L 129.779,-50.4825
 L 129.805,-50.3227 L 129.82,-50.1617 L 129.825,-50 L 129.82,-49.8383 L 129.805,-49.6773 L 129.779,-49.5175
 L 129.744,-49.3596 L 129.699,-49.2043 L 129.644,-49.0521 L 129.58,-48.9036 L 129.506,-48.7595 L 129.424,-48.6202
 L 129.333,-48.4865 L 129.234,-48.3586 L 129.127,-48.2373 L 129.013,-48.1229 L 128.891,-48.0159 L 128.764,-47.9168
 L 128.63,-47.8259 L 128.491,-47.7435 L 128.346,-47.6701 L 128.198,-47.6058 L 128.046,-47.551 L 127.89,-47.5059
 L 127.732,-47.4706 L 127.573,-47.4453 L 127.412,-47.4301 L 127.25,-47.425 z
M 174.401,-43.4281 L 174.303,-43.4374 L 174.205,-43.4529 L 174.108,-43.4745 L 174.013,-43.5021 L 173.92,-43.5356
 L 173.829,-43.5749 L 173.741,-43.6198 L 173.656,-43.6702 L 173.574,-43.7258 L 173.496,-43.7864 L 173.422,-43.8519
 L 173.352,-43.9218 L 173.286,-43.996 L 173.226,-44.0742 L 173.17,-44.1561 L 173.12,-44.2412 L 173.075,-44.3294
 L 173.036,-44.4202 L 173.002,-44.5133 L 172.974,-44.6083 L 172.953,-44.7049 L 172.937,-44.8026 L 172.928,-44.9011
 L 172.925,-45 L 172.928,-45.0989 L 172.937,-45.1974 L 172.953,-45.2951 L 172.974,-45.3917 L 173.002,-45.4867
 L 173.036,-45.5798 L 173.075,-45.6706 L 173.12,-45.7588 L 173.17,-45.8439 L 173.226,-45.9258 L 173.286,-46.0039
 L 173.352,-46.0782 L 173.422,-46.1481 L 173.496,-46.2135 L 173.574,-46.2742 L 173.656,-46.3298 L 173.741,-46.3802
 L 173.829,-46.4251 L 173.92,-46.4644 L 174.013,-46.4979 L 174.108,-46.5255 L 174.205,-46.5471 L 174.303,-46.5626
 L 174.401,-46.5719 L 174.5,-46.575 L 174.599,-46.5719 L 174.697,-46.5626 L 174.795,-46.5471 L 174.892,-46.5255
 L 174.987,-46.4979 L 175.08,-46.4644 L 175.171,-46.4251 L 175.259,-46.3802 L 175.344,-46.3298 L 175.426,-46.2742
 L 175.504,-46.2135 L 175.578,-46.1481 L 175.648,-46.0782 L 175.714,-46.0039 L 175.774,-45.9258 L 175.83,-45.8439
 L 175.88,-45.7588 L 175.925,-45.6706 L 175.964,-45.5798 L 175.998,-45.4867 L 176.026,-45.3917 L 176.047,-45.2951
 L 176.063,-45.1974 L 176.072,-45.0989 L 176.075,-45 L 176.072,-44.9011 L 176.063,-44.8026 L 176.047,-44.7049
 L 176.026,-44.6083 L 175.998,-44.5133 L 175.964,-44.4202 L 175.925,-44.3294 L 175.88,-44.2412 L 175.83,-44.1561
 L 175.774,-44.0742 L 175.714,-43.996 L 175.648,-43.9218 L 175.578,-43.8519 L 175.504,-43.7864 L 175.426,-43.7258
 L 175.344,-43.6702 L 175.259,-43.6198 L 175.171,-43.5749 L 175.08,-43.5356 L 174.987,-43.5021 L 174.892,-43.4745
 L 174.795,-43.4529 L 174.697,-43.4374 L 174.599,-43.4281 L 174.5,-43.425 z
M 159.401,-43.4281 L 159.303,-43.4374 L 159.205,-43.4529 L 159.108,-43.4745 L 159.013,-43.5021 L 158.92,-43.5356
 L 158.829,-43.5749 L 158.741,-43.6198 L 158.656,-43.6702 L 158.574,-43.7258 L 158.496,-43.7864 L 158.422,-43.8519
 L 158.352,-43.9218 L 158.286,-43.996 L 158.226,-44.0742 L 158.17,-44.1561 L 158.12,-44.2412 L 158.075,-44.3294
 L 158.036,-44.4202 L 158.002,-44.5133 L 157.974,-44.6083 L 157.953,-44.7049 L 157.937,-44.8026 L 157.928,-44.9011
 L 157.925,-45 L 157.928,-45.0989 L 157.937,-45.1974 L 157.953,-45.2951 L 157.974,-45.3917 L 158.002,-45.4867
 L 158.036,-45.5798 L 158.075,-45.6706 L 158.12,-45.7588 L 158.17,-45.8439 L 158.226,-45.9258 L 158.286,-46.0039
 L 158.352,-46.0782 L 158.422,-46.1481 L 158.496,-46.2135 L 158.574,-46.2742 L 158.656,-46.3298 L 158.741,-46.3802
 L 158.829,-46.4251 L 158.92,-46.4644 L 159.013,-46.4979 L 159.108,-46.5255 L 159.205,-46.5471 L 159.303,-46.5626
 L 159.401,-46.5719 L 159.5,-46.575 L 159.599,-46.5719 L 159.697,-46.5626 L 159.795,-46.5471 L 159.892,-46.5255
 L 159.987,-46.4979 L 160.08,-46.4644 L 160.171,-46.4251 L 160.259,-46.3802 L 160.344,-46.3298 L 160.426,-46.2742
 L 160.504,-46.2135 L 160.578,-46.1481 L 160.648,-46.0782 L 160.714,-46.0039 L 160.774,-45.9258 L 160.83,-45.8439
 L 160.88,-45.7588 L 160.925,-45.6706 L 160.964,-45.5798 L 160.998,-45.4867 L 161.026,-45.3917 L 161.047,-45.2951
 L 161.063,-45.1974 L 161.072,-45.0989 L 161.075,-45 L 161.072,-44.9011 L 161.063,-44.8026 L 161.047,-44.7049
 L 161.026,-44.6083 L 160.998,-44.5133 L 160.964,-44.4202 L 160.925,-44.3294 L 160.88,-44.2412 L 160.83,-44.1561
 L 160.774,-44.0742 L 160.714,-43.996 L 160.648,-43.9218 L 160.578,-43.8519 L 160.504,-43.7864 L 160.426,-43.7258
 L 160.344,-43.6702 L 160.259,-43.6198 L 160.171,-43.5749 L 160.08,-43.5356 L 159.987,-43.5021 L 159.892,-43.4745
 L 159.795,-43.4529 L 159.697,-43.4374 L 159.599,-43.4281 L 159.5,-43.425 z
M 193.401,-40.9281 L 193.303,-40.9374 L 193.205,-40.9529 L 193.108,-40.9745 L 193.013,-41.0021 L 192.92,-41.0356
 L 192.829,-41.0749 L 192.741,-41.1198 L 192.656,-41.1702 L 192.574,-41.2258 L 192.496,-41.2864 L 192.422,-41.3519
 L 192.352,-41.4218 L 192.286,-41.496 L 192.226,-41.5742 L 192.17,-41.6561 L 192.12,-41.7412 L 192.075,-41.8294
 L 192.036,-41.9202 L 192.002,-42.0133 L 191.974,-42.1083 L 191.953,-42.2049 L 191.937,-42.3026 L 191.928,-42.4011
 L 191.925,-42.5 L 191.928,-42.5989 L 191.937,-42.6974 L 191.953,-42.7951 L 191.974,-42.8917 L 192.002,-42.9867
 L 192.036,-43.0798 L 192.075,-43.1706 L 192.12,-43.2588 L 192.17,-43.3439 L 192.226,-43.4258 L 192.286,-43.5039
 L 192.352,-43.5782 L 192.422,-43.6481 L 192.496,-43.7135 L 192.574,-43.7742 L 192.656,-43.8298 L 192.741,-43.8802
 L 192.829,-43.9251 L 192.92,-43.9644 L 193.013,-43.9979 L 193.108,-44.0255 L 193.205,-44.0471 L 193.303,-44.0626
 L 193.401,-44.0719 L 193.5,-44.075 L 193.599,-44.0719 L 193.697,-44.0626 L 193.795,-44.0471 L 193.892,-44.0255
 L 193.987,-43.9979 L 194.08,-43.9644 L 194.171,-43.9251 L 194.259,-43.8802 L 194.344,-43.8298 L 194.426,-43.7742
 L 194.504,-43.7135 L 194.578,-43.6481 L 194.648,-43.5782 L 194.714,-43.5039 L 194.774,-43.4258 L 194.83,-43.3439
 L 194.88,-43.2588 L 194.925,-43.1706 L 194.964,-43.0798 L 194.998,-42.9867 L 195.026,-42.8917 L 195.047,-42.7951
 L 195.063,-42.6974 L 195.072,-42.5989 L 195.075,-42.5 L 195.072,-42.4011 L 195.063,-42.3026 L 195.047,-42.2049
 L 195.026,-42.1083 L 194.998,-42.0133 L 194.964,-41.9202 L 194.925,-41.8294 L 194.88,-41.7412 L 194.83,-41.6561
 L 194.774,-41.5742 L 194.714,-41.496 L 194.648,-41.4218 L 194.578,-41.3519 L 194.504,-41.2864 L 194.426,-41.2258
 L 194.344,-41.1702 L 194.259,-41.1198 L 194.171,-41.0749 L 194.08,-41.0356 L 193.987,-41.0021 L 193.892,-40.9745
 L 193.795,-40.9529 L 193.697,-40.9374 L 193.599,-40.9281 L 193.5,-40.925 z
M 108.401,-40.9281 L 108.303,-40.9374 L 108.205,-40.9529 L 108.108,-40.9745 L 108.013,-41.0021 L 107.92,-41.0356
 L 107.829,-41.0749 L 107.741,-41.1198 L 107.656,-41.1702 L 107.574,-41.2258 L 107.496,-41.2864 L 107.422,-41.3519
 L 107.352,-41.4218 L 107.286,-41.496 L 107.226,-41.5742 L 107.17,-41.6561 L 107.12,-41.7412 L 107.075,-41.8294
 L 107.036,-41.9202 L 107.002,-42.0133 L 106.974,-42.1083 L 106.953,-42.2049 L 106.937,-42.3026 L 106.928,-42.4011
 L 106.925,-42.5 L 106.928,-42.5989 L 106.937,-42.6974 L 106.953,-42.7951 L 106.974,-42.8917 L 107.002,-42.9867
 L 107.036,-43.0798 L 107.075,-43.1706 L 107.12,-43.2588 L 107.17,-43.3439 L 107.226,-43.4258 L 107.286,-43.5039
 L 107.352,-43.5782 L 107.422,-43.6481 L 107.496,-43.7135 L 107.574,-43.7742 L 107.656,-43.8298 L 107.741,-43.8802
 L 107.829,-43.9251 L 107.92,-43.9644 L 108.013,-43.9979 L 108.108,-44.0255 L 108.205,-44.0471 L 108.303,-44.0626
 L 108.401,-44.0719 L 108.5,-44.075 L 108.599,-44.0719 L 108.697,-44.0626 L 108.795,-44.0471 L 108.892,-44.0255
 L 108.987,-43.9979 L 109.08,-43.9644 L 109.171,-43.9251 L 109.259,-43.8802 L 109.344,-43.8298 L 109.426,-43.7742
 L 109.504,-43.7135 L 109.578,-43.6481 L 109.648,-43.5782 L 109.714,-43.5039 L 109.774,-43.4258 L 109.83,-43.3439
 L 109.88,-43.2588 L 109.925,-43.1706 L 109.964,-43.0798 L 109.998,-42.9867 L 110.026,-42.8917 L 110.047,-42.7951
 L 110.063,-42.6974 L 110.072,-42.5989 L 110.075,-42.5 L 110.072,-42.4011 L 110.063,-42.3026 L 110.047,-42.2049
 L 110.026,-42.1083 L 109.998,-42.0133 L 109.964,-41.9202 L 109.925,-41.8294 L 109.88,-41.7412 L 109.83,-41.6561
 L 109.774,-41.5742 L 109.714,-41.496 L 109.648,-41.4218 L 109.578,-41.3519 L 109.504,-41.2864 L 109.426,-41.2258
 L 109.344,-41.1702 L 109.259,-41.1198 L 109.171,-41.0749 L 109.08,-41.0356 L 108.987,-41.0021 L 108.892,-40.9745
 L 108.795,-40.9529 L 108.697,-40.9374 L 108.599,-40.9281 L 108.5,-40.925 z
M 108.401,-25.9281 L 108.303,-25.9374 L 108.205,-25.9529 L 108.108,-25.9745 L 108.013,-26.0021 L 107.92,-26.0356
 L 107.829,-26.0749 L 107.741,-26.1198 L 107.656,-26.1702 L 107.574,-26.2258 L 107.496,-26.2864 L 107.422,-26.3519
 L 107.352,-26.4218 L 107.286,-26.496 L 107.226,-26.5742 L 107.17,-26.6561 L 107.12,-26.7412 L 107.075,-26.8294
 L 107.036,-26.9202 L 107.002,-27.0133 L 106.974,-27.1083 L 106.953,-27.2049 L 106.937,-27.3026 L 106.928,-27.4011
 L 106.925,-27.5 L 106.928,-27.5989 L 106.937,-27.6974 L 106.953,-27.7951 L 106.974,-27.8917 L 107.002,-27.9867
 L 107.036,-28.0798 L 107.075,-28.1706 L 107.12,-28.2588 L 107.17,-28.3439 L 107.226,-28.4258 L 107.286,-28.5039
 L 107.352,-28.5782 L 107.422,-28.6481 L 107.496,-28.7135 L 107.574,-28.7742 L 107.656,-28.8298 L 107.741,-28.8802
 L 107.829,-28.9251 L 107.92,-28.9644 L 108.013,-28.9979 L 108.108,-29.0255 L 108.205,-29.0471 L 108.303,-29.0626
 L 108.401,-29.0719 L 108.5,-29.075 L 108.599,-29.0719 L 108.697,-29.0626 L 108.795,-29.0471 L 108.892,-29.0255
 L 108.987,-28.9979 L 109.08,-28.9644 L 109.171,-28.9251 L 109.259,-28.8802 L 109.344,-28.8298 L 109.426,-28.7742
 L 109.504,-28.7135 L 109.578,-28.6481 L 109.648,-28.5782 L 109.714,-28.5039 L 109.774,-28.4258 L 109.83,-28.3439
 L 109.88,-28.2588 L 109.925,-28.1706 L 109.964,-28.0798 L 109.998,-27.9867 L 110.026,-27.8917 L 110.047,-27.7951
 L 110.063,-27.6974 L 110.072,-27.5989 L 110.075,-27.5 L 110.072,-27.4011 L 110.063,-27.3026 L 110.047,-27.2049
 L 110.026,-27.1083 L 109.998,-27.0133 L 109.964,-26.9202 L 109.925,-26.8294 L 109.88,-26.7412 L 109.83,-26.6561
 L 109.774,-26.5742 L 109.714,-26.496 L 109.648,-26.4218 L 109.578,-26.3519 L 109.504,-26.2864 L 109.426,-26.2258
 L 109.344,-26.1702 L 109.259,-26.1198 L 109.171,-26.0749 L 109.08,-26.0356 L 108.987,-26.0021 L 108.892,-25.9745
 L 108.795,-25.9529 L 108.697,-25.9374 L 108.599,-25.9281 L 108.5,-25.925 z
M 193.401,-25.9281 L 193.303,-25.9374 L 193.205,-25.9529 L 193.108,-25.9745 L 193.013,-26.0021 L 192.92,-26.0356
 L 192.829,-26.0749 L 192.741,-26.1198 L 192.656,-26.1702 L 192.574,-26.2258 L 192.496,-26.2864 L 192.422,-26.3519
 L 192.352,-26.4218 L 192.286,-26.496 L 192.226,-26.5742 L 192.17,-26.6561 L 192.12,-26.7412 L 192.075,-26.8294
 L 192.036,-26.9202 L 192.002,-27.0133 L 191.974,-27.1083 L 191.953,-27.2049 L 191.937,-27.3026 L 191.928,-27.4011
 L 191.925,-27.5 L 191.928,-27.5989 L 191.937,-27.6974 L 191.953,-27.7951 L 191.974,-27.8917 L 192.002,-27.9867
 L 192.036,-28.0798 L 192.075,-28.1706 L 192.12,-28.2588 L 192.17,-28.3439 L 192.226,-28.4258 L 192.286,-28.5039
 L 192.352,-28.5782 L 192.422,-28.6481 L 192.496,-28.7135 L 192.574,-28.7742 L 192.656,-28.8298 L 192.741,-28.8802
 L 192.829,-28.9251 L 192.92,-28.9644 L 193.013,-28.9979 L 193.108,-29.0255 L 193.205,-29.0471 L 193.303,-29.0626
 L 193.401,-29.0719 L 193.5,-29.075 L 193.599,-29.0719 L 193.697,-29.0626 L 193.795,-29.0471 L 193.892,-29.0255
 L 193.987,-28.9979 L 194.08,-28.9644 L 194.171,-28.9251 L 194.259,-28.8802 L 194.344,-28.8298 L 194.426,-28.7742
 L 194.504,-28.7135 L 194.578,-28.6481 L 194.648,-28.5782 L 194.714,-28.5039 L 194.774,-28.4258 L 194.83,-28.3439
 L 194.88,-28.2588 L 194.925,-28.1706 L 194.964,-28.0798 L 194.998,-27.9867 L 195.026,-27.8917 L 195.047,-27.7951
 L 195.063,-27.6974 L 195.072,-27.5989 L 195.075,-27.5 L 195.072,-27.4011 L 195.063,-27.3026 L 195.047,-27.2049
 L 195.026,-27.1083 L 194.998,-27.0133 L 194.964,-26.9202 L 194.925,-26.8294 L 194.88,-26.7412 L 194.83,-26.6561
 L 194.774,-26.5742 L 194.714,-26.496 L 194.648,-26.4218 L 194.578,-26.3519 L 194.504,-26.2864 L 194.426,-26.2258
 L 194.344,-26.1702 L 194.259,-26.1198 L 194.171,-26.0749 L 194.08,-26.0356 L 193.987,-26.0021 L 193.892,-25.9745
 L 193.795,-25.9529 L 193.697,-25.9374 L 193.599,-25.9281 L 193.5,-25.925 z
M 100,-100 L 0,-100 L 0,-0 L 100,-0 z
M 92.4011,-70.9281 L 92.3026,-70.9374 L 92.2049,-70.9529 L 92.1083,-70.9745 L 92.0133,-71.0021 L 91.9202,-71.0356
 L 91.8294,-71.0749 L 91.7412,-71.1198 L 91.6561,-71.1702 L 91.5742,-71.2258 L 91.496,-71.2864 L 91.4218,-71.3519
 L 91.3519,-71.4218 L 91.2864,-71.496 L 91.2258,-71.5742 L 91.1702,-71.6561 L 91.1198,-71.7412 L 91.0749,-71.8294
 L 91.0356,-71.9202 L 91.0021,-72.0133 L 90.9745,-72.1083 L 90.9529,-72.2049 L 90.9374,-72.3026 L 90.9281,-72.4011
 L 90.925,-72.5 L 90.9281,-72.5989 L 90.9374,-72.6974 L 90.9529,-72.7951 L 90.9745,-72.8917 L 91.0021,-72.9867
 L 91.0356,-73.0798 L 91.0749,-73.1706 L 91.1198,-73.2588 L 91.1702,-73.3439 L 91.2258,-73.4258 L 91.2864,-73.5039
 L 91.3519,-73.5782 L 91.4218,-73.6481 L 91.496,-73.7135 L 91.5742,-73.7742 L 91.6561,-73.8298 L 91.7412,-73.8802
 L 91.8294,-73.9251 L 91.9202,-73.9644 L 92.0133,-73.9979 L 92.1083,-74.0255 L 92.2049,-74.0471 L 92.3026,-74.0626
 L 92.4011,-74.0719 L 92.5,-74.075 L 92.5989,-74.0719 L 92.6974,-74.0626 L 92.7951,-74.0471 L 92.8917,-74.0255
 L 92.9867,-73.9979 L 93.0798,-73.9644 L 93.1706,-73.9251 L 93.2588,-73.8802 L 93.3439,-73.8298 L 93.4258,-73.7742
 L 93.5039,-73.7135 L 93.5782,-73.6481 L 93.6481,-73.5782 L 93.7135,-73.5039 L 93.7742,-73.4258 L 93.8298,-73.3439
 L 93.8802,-73.2588 L 93.9251,-73.1706 L 93.9644,-73.0798 L 93.9979,-72.9867 L 94.0255,-72.8917 L 94.0471,-72.7951
 L 94.0626,-72.6974 L 94.0719,-72.5989 L 94.075,-72.5 L 94.0719,-72.4011 L 94.0626,-72.3026 L 94.0471,-72.2049
 L 94.0255,-72.1083 L 93.9979,-72.0133 L 93.9644,-71.9202 L 93.9251,-71.8294 L 93.8802,-71.7412 L 93.8298,-71.6561
 L 93.7742,-71.5742 L 93.7135,-71.496 L 93.6481,-71.4218 L 93.5782,-71.3519 L 93.5039,-71.2864 L 93.4258,-71.2258
 L 93.3439,-71.1702 L 93.2588,-71.1198 L 93.1706,-71.0749 L 93.0798,-71.0356 L 92.9867,-71.0021 L 92.8917,-70.9745
 L 92.7951,-70.9529 L 92.6974,-70.9374 L 92.5989,-70.9281 L 92.5,-70.925 z
M 7.40109,-70.9281 L 7.3026,-70.9374 L 7.20486,-70.9529 L 7.10831,-70.9745 L 7.01329,-71.0021 L 6.9202,-71.0356
 L 6.82939,-71.0749 L 6.74123,-71.1198 L 6.65607,-71.1702 L 6.57423,-71.2258 L 6.49605,-71.2864 L 6.42183,-71.3519
 L 6.35187,-71.4218 L 6.28644,-71.496 L 6.22578,-71.5742 L 6.17018,-71.6561 L 6.11981,-71.7412 L 6.07489,-71.8294
 L 6.0356,-71.9202 L 6.00208,-72.0133 L 5.97447,-72.1083 L 5.9529,-72.2049 L 5.93741,-72.3026 L 5.9281,-72.4011
 L 5.92499,-72.5 L 5.9281,-72.5989 L 5.93741,-72.6974 L 5.9529,-72.7951 L 5.97447,-72.8917 L 6.00208,-72.9867
 L 6.0356,-73.0798 L 6.07489,-73.1706 L 6.11981,-73.2588 L 6.17018,-73.3439 L 6.22578,-73.4258 L 6.28644,-73.5039
 L 6.35187,-73.5782 L 6.42183,-73.6481 L 6.49605,-73.7135 L 6.57423,-73.7742 L 6.65607,-73.8298 L 6.74123,-73.8802
 L 6.82939,-73.9251 L 6.9202,-73.9644 L 7.01329,-73.9979 L 7.10831,-74.0255 L 7.20486,-74.0471 L 7.3026,-74.0626
 L 7.40109,-74.0719 L 7.5,-74.075 L 7.59889,-74.0719 L 7.69739,-74.0626 L 7.79512,-74.0471 L 7.89168,-74.0255
 L 7.98669,-73.9979 L 8.07979,-73.9644 L 8.17059,-73.9251 L 8.25876,-73.8802 L 8.34392,-73.8298 L 8.42575,-73.7742
 L 8.50394,-73.7135 L 8.57816,-73.6481 L 8.64812,-73.5782 L 8.71355,-73.5039 L 8.7742,-73.4258 L 8.8298,-73.3439
 L 8.88017,-73.2588 L 8.92509,-73.1706 L 8.96439,-73.0798 L 8.99791,-72.9867 L 9.02551,-72.8917 L 9.04709,-72.7951
 L 9.06258,-72.6974 L 9.07188,-72.5989 L 9.075,-72.5 L 9.07188,-72.4011 L 9.06258,-72.3026 L 9.04709,-72.2049
 L 9.02551,-72.1083 L 8.99791,-72.0133 L 8.96439,-71.9202 L 8.92509,-71.8294 L 8.88017,-71.7412 L 8.8298,-71.6561
 L 8.7742,-71.5742 L 8.71355,-71.496 L 8.64812,-71.4218 L 8.57816,-71.3519 L 8.50394,-71.2864 L 8.42575,-71.2258
 L 8.34392,-71.1702 L 8.25876,-71.1198 L 8.17059,-71.0749 L 8.07979,-71.0356 L 7.98669,-71.0021 L 7.89168,-70.9745
 L 7.79512,-70.9529 L 7.69739,-70.9374 L 7.59889,-70.9281 L 7.5,-70.925 z
M 92.4011,-55.9281 L 92.3026,-55.9374 L 92.2049,-55.9529 L 92.1083,-55.9745 L 92.0133,-56.0021 L 91.9202,-56.0356
 L 91.8294,-56.0749 L 91.7412,-56.1198 L 91.6561,-56.1702 L 91.5742,-56.2258 L 91.496,-56.2864 L 91.4218,-56.3519
 L 91.3519,-56.4218 L 91.2864,-56.496 L 91.2258,-56.5742 L 91.1702,-56.6561 L 91.1198,-56.7412 L 91.0749,-56.8294
 L 91.0356,-56.9202 L 91.0021,-57.0133 L 90.9745,-57.1083 L 90.9529,-57.2049 L 90.9374,-57.3026 L 90.9281,-57.4011
 L 90.925,-57.5 L 90.9281,-57.5989 L 90.9374,-57.6974 L 90.9529,-57.7951 L 90.9745,-57.8917 L 91.0021,-57.9867
 L 91.0356,-58.0798 L 91.0749,-58.1706 L 91.1198,-58.2588 L 91.1702,-58.3439 L 91.2258,-58.4258 L 91.2864,-58.5039
 L 91.3519,-58.5782 L 91.4218,-58.6481 L 91.496,-58.7135 L 91.5742,-58.7742 L 91.6561,-58.8298 L 91.7412,-58.8802
 L 91.8294,-58.9251 L 91.9202,-58.9644 L 92.0133,-58.9979 L 92.1083,-59.0255 L 92.2049,-59.0471 L 92.3026,-59.0626
 L 92.4011,-59.0719 L 92.5,-59.075 L 92.5989,-59.0719 L 92.6974,-59.0626 L 92.7951,-59.0471 L 92.8917,-59.0255
 L 92.9867,-58.9979 L 93.0798,-58.9644 L 93.1706,-58.9251 L 93.2588,-58.8802 L 93.3439,-58.8298 L 93.4258,-58.7742
 L 93.5039,-58.7135 L 93.5782,-58.6481 L 93.6481,-58.5782 L 93.7135,-58.5039 L 93.7742,-58.4258 L 93.8298,-58.3439
 L 93.8802,-58.2588 L 93.9251,-58.1706 L 93.9644,-58.0798 L 93.9979,-57.9867 L 94.0255,-57.8917 L 94.0471,-57.7951
 L 94.0626,-57.6974 L 94.0719,-57.5989 L 94.075,-57.5 L 94.0719,-57.4011 L 94.0626,-57.3026 L 94.0471,-57.2049
 L 94.0255,-57.1083 L 93.9979,-57.0133 L 93.9644,-56.9202 L 93.9251,-56.8294 L 93.8802,-56.7412 L 93.8298,-56.6561
 L 93.7742,-56.5742 L 93.7135,-56.496 L 93.6481,-56.4218 L 93.5782,-56.3519 L 93.5039,-56.2864 L 93.4258,-56.2258
 L 93.3439,-56.1702 L 93.2588,-56.1198 L 93.1706,-56.0749 L 93.0798,-56.0356 L 92.9867,-56.0021 L 92.8917,-55.9745
 L 92.7951,-55.9529 L 92.6974,-55.9374 L 92.5989,-55.9281 L 92.5,-55.925 z
M 7.40109,-55.9281 L 7.3026,-55.9374 L 7.20486,-55.9529 L 7.10831,-55.9745 L 7.01329,-56.0021 L 6.9202,-56.0356
 L 6.82939,-56.0749 L 6.74123,-56.1198 L 6.65607,-56.1702 L 6.57423,-56.2258 L 6.49605,-56.2864 L 6.42183,-56.3519
 L 6.35187,-56.4218 L 6.28644,-56.496 L 6.22578,-56.5742 L 6.17018,-56.6561 L 6.11981,-56.7412 L 6.07489,-56.8294
 L 6.0356,-56.9202 L 6.00208,-57.0133 L 5.97447,-57.1083 L 5.9529,-57.2049 L 5.93741,-57.3026 L 5.9281,-57.4011
 L 5.92499,-57.5 L 5.9281,-57.5989 L 5.93741,-57.6974 L 5.9529,-57.7951 L 5.97447,-57.8917 L 6.00208,-57.9867
 L 6.0356,-58.0798 L 6.07489,-58.1706 L 6.11981,-58.2588 L 6.17018,-58.3439 L 6.22578,-58.4258 L 6.28644,-58.5039
 L 6.35187,-58.5782 L 6.42183,-58.6481 L 6.49605,-58.7135 L 6.57423,-58.7742 L 6.65607,-58.8298 L 6.74123,-58.8802
 L 6.82939,-58.9251 L 6.9202,-58.9644 L 7.01329,-58.9979 L 7.10831,-59.0255 L 7.20486,-59.0471 L 7.3026,-59.0626
 L 7.40109,-59.0719 L 7.5,-59.075 L 7.59889,-59.0719 L 7.69739,-59.0626 L 7.79512,-59.0471 L 7.89168,-59.0255
 L 7.98669,-58.9979 L 8.07979,-58.9644 L 8.17059,-58.9251 L 8.25876,-58.8802 L 8.34392,-58.8298 L 8.42575,-58.7742
 L 8.50394,-58.7135 L 8.57816,-58.6481 L 8.64812,-58.5782 L 8.71355,-58.5039 L 8.7742,-58.4258 L 8.8298,-58.3439
 L 8.88017,-58.2588 L 8.92509,-58.1706 L 8.96439,-58.0798 L 8.99791,-57.9867 L 9.02551,-57.8917 L 9.04709,-57.7951
 L 9.06258,-57.6974 L 9.07188,-57.5989 L 9.075,-57.5 L 9.07188,-57.4011 L 9.06258,-57.3026 L 9.04709,-57.2049
 L 9.02551,-57.1083 L 8.99791,-57.0133 L 8.96439,-56.9202 L 8.92509,-56.8294 L 8.88017,-56.7412 L 8.8298,-56.6561
 L 8.7742,-56.5742 L 8.71355,-56.496 L 8.64812,-56.4218 L 8.57816,-56.3519 L 8.50394,-56.2864 L 8.42575,-56.2258
 L 8.34392,-56.1702 L 8.25876,-56.1198 L 8.17059,-56.0749 L 8.07979,-56.0356 L 7.98669,-56.0021 L 7.89168,-55.9745
 L 7.79512,-55.9529 L 7.69739,-55.9374 L 7.59889,-55.9281 L 7.5,-55.925 z
M 58.4011,-53.4281 L 58.3026,-53.4374 L 58.2049,-53.4529 L 58.1083,-53.4745 L 58.0133,-53.5021 L 57.9202,-53.5356
 L 57.8294,-53.5749 L 57.7412,-53.6198 L 57.6561,-53.6702 L 57.5742,-53.7258 L 57.496,-53.7864 L 57.4218,-53.8519
 L 57.3519,-53.9218 L 57.2864,-53.996 L 57.2258,-54.0742 L 57.1702,-54.1561 L 57.1198,-54.2412 L 57.0749,-54.3294
 L 57.0356,-54.4202 L 57.0021,-54.5133 L 56.9745,-54.6083 L 56.9529,-54.7049 L 56.9374,-54.8026 L 56.9281,-54.9011
 L 56.925,-55 L 56.9281,-55.0989 L 56.9374,-55.1974 L 56.9529,-55.2951 L 56.9745,-55.3917 L 57.0021,-55.4867
 L 57.0356,-55.5798 L 57.0749,-55.6706 L 57.1198,-55.7588 L 57.1702,-55.8439 L 57.2258,-55.9258 L 57.2864,-56.0039
 L 57.3519,-56.0782 L 57.4218,-56.1481 L 57.496,-56.2135 L 57.5742,-56.2742 L 57.6561,-56.3298 L 57.7412,-56.3802
 L 57.8294,-56.4251 L 57.9202,-56.4644 L 58.0133,-56.4979 L 58.1083,-56.5255 L 58.2049,-56.5471 L 58.3026,-56.5626
 L 58.4011,-56.5719 L 58.5,-56.575 L 58.5989,-56.5719 L 58.6974,-56.5626 L 58.7951,-56.5471 L 58.8917,-56.5255
 L 58.9867,-56.4979 L 59.0798,-56.4644 L 59.1706,-56.4251 L 59.2588,-56.3802 L 59.3439,-56.3298 L 59.4258,-56.2742
 L 59.5039,-56.2135 L 59.5782,-56.1481 L 59.6481,-56.0782 L 59.7135,-56.0039 L 59.7742,-55.9258 L 59.8298,-55.8439
 L 59.8802,-55.7588 L 59.9251,-55.6706 L 59.9644,-55.5798 L 59.9979,-55.4867 L 60.0255,-55.3917 L 60.0471,-55.2951
 L 60.0626,-55.1974 L 60.0719,-55.0989 L 60.075,-55 L 60.0719,-54.9011 L 60.0626,-54.8026 L 60.0471,-54.7049
 L 60.0255,-54.6083 L 59.9979,-54.5133 L 59.9644,-54.4202 L 59.9251,-54.3294 L 59.8802,-54.2412 L 59.8298,-54.1561
 L 59.7742,-54.0742 L 59.7135,-53.996 L 59.6481,-53.9218 L 59.5782,-53.8519 L 59.5039,-53.7864 L 59.4258,-53.7258
 L 59.3439,-53.6702 L 59.2588,-53.6198 L 59.1706,-53.5749 L 59.0798,-53.5356 L 58.9867,-53.5021 L 58.8917,-53.4745
 L 58.7951,-53.4529 L 58.6974,-53.4374 L 58.5989,-53.4281 L 58.5,-53.425 z
M 73.4011,-53.4281 L 73.3026,-53.4374 L 73.2049,-53.4529 L 73.1083,-53.4745 L 73.0133,-53.5021 L 72.9202,-53.5356
 L 72.8294,-53.5749 L 72.7412,-53.6198 L 72.6561,-53.6702 L 72.5742,-53.7258 L 72.496,-53.7864 L 72.4218,-53.8519
 L 72.3519,-53.9218 L 72.2864,-53.996 L 72.2258,-54.0742 L 72.1702,-54.1561 L 72.1198,-54.2412 L 72.0749,-54.3294
 L 72.0356,-54.4202 L 72.0021,-54.5133 L 71.9745,-54.6083 L 71.9529,-54.7049 L 71.9374,-54.8026 L 71.9281,-54.9011
 L 71.925,-55 L 71.9281,-55.0989 L 71.9374,-55.1974 L 71.9529,-55.2951 L 71.9745,-55.3917 L 72.0021,-55.4867
 L 72.0356,-55.5798 L 72.0749,-55.6706 L 72.1198,-55.7588 L 72.1702,-55.8439 L 72.2258,-55.9258 L 72.2864,-56.0039
 L 72.3519,-56.0782 L 72.4218,-56.1481 L 72.496,-56.2135 L 72.5742,-56.2742 L 72.6561,-56.3298 L 72.7412,-56.3802
 L 72.8294,-56.4251 L 72.9202,-56.4644 L 73.0133,-56.4979 L 73.1083,-56.5255 L 73.2049,-56.5471 L 73.3026,-56.5626
 L 73.4011,-56.5719 L 73.5,-56.575 L 73.5989,-56.5719 L 73.6974,-56.5626 L 73.7951,-56.5471 L 73.8917,-56.5255
 L 73.9867,-56.4979 L 74.0798,-56.4644 L 74.1706,-56.4251 L 74.2588,-56.3802 L 74.3439,-56.3298 L 74.4258,-56.2742
 L 74.5039,-56.2135 L 74.5782,-56.1481 L 74.6481,-56.0782 L 74.7135,-56.0039 L 74.7742,-55.9258 L 74.8298,-55.8439
 L 74.8802,-55.7588 L 74.9251,-55.6706 L 74.9644,-55.5798 L 74.9979,-55.4867 L 75.0255,-55.3917 L 75.0471,-55.2951
 L 75.0626,-55.1974 L 75.0719,-55.0989 L 75.075,-55 L 75.0719,-54.9011 L 75.0626,-54.8026 L 75.0471,-54.7049
 L 75.0255,-54.6083 L 74.9979,-54.5133 L 74.9644,-54.4202 L 74.9251,-54.3294 L 74.8802,-54.2412 L 74.8298,-54.1561
 L 74.7742,-54.0742 L 74.7135,-53.996 L 74.6481,-53.9218 L 74.5782,-53.8519 L 74.5039,-53.7864 L 74.4258,-53.7258
 L 74.3439,-53.6702 L 74.2588,-53.6198 L 74.1706,-53.5749 L 74.0798,-53.5356 L 73.9867,-53.5021 L 73.8917,-53.4745
 L 73.7951,-53.4529 L 73.6974,-53.4374 L 73.5989,-53.4281 L 73.5,-53.425 z
M 26.0883,-47.4301 L 25.9273,-47.4453 L 25.7675,-47.4706 L 25.6096,-47.5059 L 25.4543,-47.551 L 25.3021,-47.6058
 L 25.1536,-47.6701 L 25.0095,-47.7435 L 24.8702,-47.8259 L 24.7365,-47.9168 L 24.6086,-48.0159 L 24.4873,-48.1229
 L 24.3729,-48.2373 L 24.2659,-48.3586 L 24.1668,-48.4865 L 24.0759,-48.6202 L 23.9935,-48.7595 L 23.9201,-48.9036
 L 23.8558,-49.0521 L 23.801,-49.2043 L 23.7559,-49.3596 L 23.7206,-49.5175 L 23.6953,-49.6773 L 23.6801,-49.8383
 L 23.675,-50 L 23.6801,-50.1617 L 23.6953,-50.3227 L 23.7206,-50.4825 L 23.7559,-50.6404 L 23.801,-50.7957
 L 23.8558,-50.9479 L 23.9201,-51.0964 L 23.9935,-51.2405 L 24.0759,-51.3797 L 24.1668,-51.5135 L 24.2659,-51.6414
 L 24.3729,-51.7627 L 24.4873,-51.8771 L 24.6086,-51.9841 L 24.7365,-52.0832 L 24.8702,-52.1741 L 25.0095,-52.2565
 L 25.1536,-52.3299 L 25.3021,-52.3942 L 25.4543,-52.449 L 25.6096,-52.4941 L 25.7675,-52.5294 L 25.9273,-52.5547
 L 26.0883,-52.5699 L 26.25,-52.575 L 26.4117,-52.5699 L 26.5727,-52.5547 L 26.7325,-52.5294 L 26.8904,-52.4941
 L 27.0457,-52.449 L 27.1979,-52.3942 L 27.3464,-52.3299 L 27.4905,-52.2565 L 27.6297,-52.1741 L 27.7635,-52.0832
 L 27.8914,-51.9841 L 28.0127,-51.8771 L 28.1271,-51.7627 L 28.2341,-51.6414 L 28.3332,-51.5135 L 28.4241,-51.3797
 L 28.5065,-51.2405 L 28.5799,-51.0964 L 28.6442,-50.9479 L 28.699,-50.7957 L 28.7441,-50.6404 L 28.7794,-50.4825
 L 28.8047,-50.3227 L 28.8199,-50.1617 L 28.825,-50 L 28.8199,-49.8383 L 28.8047,-49.6773 L 28.7794,-49.5175
 L 28.7441,-49.3596 L 28.699,-49.2043 L 28.6442,-49.0521 L 28.5799,-48.9036 L 28.5065,-48.7595 L 28.4241,-48.6202
 L 28.3332,-48.4865 L 28.2341,-48.3586 L 28.1271,-48.2373 L 28.0127,-48.1229 L 27.8914,-48.0159 L 27.7635,-47.9168
 L 27.6297,-47.8259 L 27.4905,-47.7435 L 27.3464,-47.6701 L 27.1979,-47.6058 L 27.0457,-47.551 L 26.8904,-47.5059
 L 26.7325,-47.4706 L 26.5727,-47.4453 L 26.4117,-47.4301 L 26.25,-47.425 z
M 46.0883,-47.4301 L 45.9273,-47.4453 L 45.7675,-47.4706 L 45.6096,-47.5059 L 45.4543,-47.551 L 45.3021,-47.6058
 L 45.1536,-47.6701 L 45.0095,-47.7435 L 44.8702,-47.8259 L 44.7365,-47.9168 L 44.6086,-48.0159 L 44.4873,-48.1229
 L 44.3729,-48.2373 L 44.2659,-48.3586 L 44.1668,-48.4865 L 44.0759,-48.6202 L 43.9935,-48.7595 L 43.9201,-48.9036
 L 43.8558,-49.0521 L 43.801,-49.2043 L 43.7559,-49.3596 L 43.7206,-49.5175 L 43.6953,-49.6773 L 43.6801,-49.8383
 L 43.675,-50 L 43.6801,-50.1617 L 43.6953,-50.3227 L 43.7206,-50.4825 L 43.7559,-50.6404 L 43.801,-50.7957
 L 43.8558,-50.9479 L 43.9201,-51.0964 L 43.9935,-51.2405 L 44.0759,-51.3797 L 44.1668,-51.5135 L 44.2659,-51.6414
 L 44.3729,-51.7627 L 44.4873,-51.8771 L 44.6086,-51.9841 L 44.7365,-52.0832 L 44.8702,-52.1741 L 45.0095,-52.2565
 L 45.1536,-52.3299 L 45.3021,-52.3942 L 45.4543,-52.449 L 45.6096,-52.4941 L 45.7675,-52.5294 L 45.9273,-52.5547
 L 46.0883,-52.5699 L 46.25,-52.575 L 46.4117,-52.5699 L 46.5727,-52.5547 L 46.7325,-52.5294 L 46.8904,-52.4941
 L 47.0457,-52.449 L 47.1979,-52.3942 L 47.3464,-52.3299 L 47.4905,-52.2565 L 47.6297,-52.1741 L 47.7635,-52.0832
 L 47.8914,-51.9841 L 48.0127,-51.8771 L 48.1271,-51.7627 L 48.2341,-51.6414 L 48.3332,-51.5135 L 48.4241,-51.3797
 L 48.5065,-51.2405 L 48.5799,-51.0964 L 48.6442,-50.9479 L 48.699,-50.7957 L 48.7441,-50.6404 L 48.7794,-50.4825
 L 48.8047,-50.3227 L 48.8199,-50.1617 L 48.825,-50 L 48.8199,-49.8383 L 48.8047,-49.6773 L 48.7794,-49.5175
 L 48.7441,-49.3596 L 48.699,-49.2043 L 48.6442,-49.0521 L 48.5799,-48.9036 L 48.5065,-48.7595 L 48.4241,-48.6202
 L 48.3332,-48.4865 L 48.2341,-48.3586 L 48.1271,-48.2373 L 48.0127,-48.1229 L 47.8914,-48.0159 L 47.7635,-47.9168
 L 47.6297,-47.8259 L 47.4905,-47.7435 L 47.3464,-47.6701 L 47.1979,-47.6058 L 47.0457,-47.551 L 46.8904,-47.5059
 L 46.7325,-47.4706 L 46.5727,-47.4453 L 46.4117,-47.4301 L 46.25,-47.425 z
M 58.4011,-43.4281 L 58.3026,-43.4374 L 58.2049,-43.4529 L 58.1083,-43.4745 L 58.0133,-43.5021 L 57.9202,-43.5356
 L 57.8294,-43.5749 L 57.7412,-43.6198 L 57.6561,-43.6702 L 57.5742,-43.7258 L 57.496,-43.7864 L 57.4218,-43.8519
 L 57.3519,-43.9218 L 57.2864,-43.996 L 57.2258,-44.0742 L 57.1702,-44.1561 L 57.1198,-44.2412 L 57.0749,-44.3294
 L 57.0356,-44.4202 L 57.0021,-44.5133 L 56.9745,-44.6083 L 56.9529,-44.7049 L 56.9374,-44.8026 L 56.9281,-44.9011
 L 56.925,-45 L 56.9281,-45.0989 L 56.9374,-45.1974 L 56.9529,-45.2951 L 56.9745,-45.3917 L 57.0021,-45.4867
 L 57.0356,-45.5798 L 57.0749,-45.6706 L 57.1198,-45.7588 L 57.1702,-45.8439 L 57.2258,-45.9258 L 57.2864,-46.0039
 L 57.3519,-46.0782 L 57.4218,-46.1481 L 57.496,-46.2135 L 57.5742,-46.2742 L 57.6561,-46.3298 L 57.7412,-46.3802
 L 57.8294,-46.4251 L 57.9202,-46.4644 L 58.0133,-46.4979 L 58.1083,-46.5255 L 58.2049,-46.5471 L 58.3026,-46.5626
 L 58.4011,-46.5719 L 58.5,-46.575 L 58.5989,-46.5719 L 58.6974,-46.5626 L 58.7951,-46.5471 L 58.8917,-46.5255
 L 58.9867,-46.4979 L 59.0798,-46.4644 L 59.1706,-46.4251 L 59.2588,-46.3802 L 59.3439,-46.3298 L 59.4258,-46.2742
 L 59.5039,-46.2135 L 59.5782,-46.1481 L 59.6481,-46.0782 L 59.7135,-46.0039 L 59.7742,-45.9258 L 59.8298,-45.8439
 L 59.8802,-45.7588 L 59.9251,-45.6706 L 59.9644,-45.5798 L 59.9979,-45.4867 L 60.0255,-45.3917 L 60.0471,-45.2951
 L 60.0626,-45.1974 L 60.0719,-45.0989 L 60.075,-45 L 60.0719,-44.9011 L 60.0626,-44.8026 L 60.0471,-44.7049
 L 60.0255,-44.6083 L 59.9979,-44.5133 L 59.9644,-44.4202 L 59.9251,-44.3294 L 59.8802,-44.2412 L 59.8298,-44.1561
 L 59.7742,-44.0742 L 59.7135,-43.996 L 59.6481,-43.9218 L 59.5782,-43.8519 L 59.5039,-43.7864 L 59.4258,-43.7258
 L 59.3439,-43.6702 L 59.2588,-43.6198 L 59.1706,-43.5749 L 59.0798,-43.5356 L 58.9867,-43.5021 L 58.8917,-43.4745
 L 58.7951,-43.4529 L 58.6974,-43.4374 L 58.5989,-43.4281 L 58.5,-43.425 z
M 73.4011,-43.4281 L 73.3026,-43.4374 L 73.2049,-43.4529 L 73.1083,-43.4745 L 73.0133,-43.5021 L 72.9202,-43.5356
 L 72.8294,-43.5749 L 72.7412,-43.6198 L 72.6561,-43.6702 L 72.5742,-43.7258 L 72.496,-43.7864 L 72.4218,-43.8519
 L 72.3519,-43.9218 L 72.2864,-43.996 L 72.2258,-44.0742 L 72.1702,-44.1561 L 72.1198,-44.2412 L 72.0749,-44.3294
 L 72.0356,-44.4202 L 72.0021,-44.5133 L 71.9745,-44.6083 L 71.9529,-44.7049 L 71.9374,-44.8026 L 71.9281,-44.9011
 L 71.925,-45 L 71.9281,-45.0989 L 71.9374,-45.1974 L 71.9529,-45.2951 L 71.9745,-45.3917 L 72.0021,-45.4867
 L 72.0356,-45.5798 L 72.0749,-45.6706 L 72.1198,-45.7588 L 72.1702,-45.8439 L 72.2258,-45.9258 L 72.2864,-46.0039
 L 72.3519,-46.0782 L 72.4218,-46.1481 L 72.496,-46.2135 L 72.5742,-46.2742 L 72.6561,-46.3298 L 72.7412,-46.3802
 L 72.8294,-46.4251 L 72.9202,-46.4644 L 73.0133,-46.4979 L 73.1083,-46.5255 L 73.2049,-46.5471 L 73.3026,-46.5626
 L 73.4011,-46.5719 L 73.5,-46.575 L 73.5989,-46.5719 L 73.6974,-46.5626 L 73.7951,-46.5471 L 73.8917,-46.5255
 L 73.9867,-46.4979 L 74.0798,-46.4644 L 74.1706,-46.4251 L 74.2588,-46.3802 L 74.3439,-46.3298 L 74.4258,-46.2742
 L 74.5039,-46.2135 L 74.5782,-46.1481 L 74.6481,-46.0782 L 74.7135,-46.0039 L 74.7742,-45.9258 L 74.8298,-45.8439
 L 74.8802,-45.7588 L 74.9251,-45.6706 L 74.9644,-45.5798 L 74.9979,-45.4867 L 75.0255,-45.3917 L 75.0471,-45.2951
 L 75.0626,-45.1974 L 75.0719,-45.0989 L 75.075,-45 L 75.0719,-44.9011 L 75.0626,-44.8026 L 75.0471,-44.7049
 L 75.0255,-44.6083 L 74.9979,-44.5133 L 74.9644,-44.4202 L 74.9251,-44.3294 L 74.8802,-44.2412 L 74.8298,-44.1561
 L 74.7742,-44.0742 L 74.7135,-43.996 L 74.6481,-43.9218 L 74.5782,-43.8519 L 74.5039,-43.7864 L 74.4258,-43.7258
 L 74.3439,-43.6702 L 74.2588,-43.6198 L 74.1706,-43.5749 L 74.0798,-43.5356 L 73.9867,-43.5021 L 73.8917,-43.4745
 L 73.7951,-43.4529 L 73.6974,-43.4374 L 73.5989,-43.4281 L 73.5,-43.425 z
M 92.4011,-40.9281 L 92.3026,-40.9374 L 92.2049,-40.9529 L 92.1083,-40.9745 L 92.0133,-41.0021 L 91.9202,-41.0356
 L 91.8294,-41.0749 L 91.7412,-41.1198 L 91.6561,-41.1702 L 91.5742,-41.2258 L 91.496,-41.2864 L 91.4218,-41.3519
 L 91.3519,-41.4218 L 91.2864,-41.496 L 91.2258,-41.5742 L 91.1702,-41.6561 L 91.1198,-41.7412 L 91.0749,-41.8294
 L 91.0356,-41.9202 L 91.0021,-42.0133 L 90.9745,-42.1083 L 90.9529,-42.2049 L 90.9374,-42.3026 L 90.9281,-42.4011
 L 90.925,-42.5 L 90.9281,-42.5989 L 90.9374,-42.6974 L 90.9529,-42.7951 L 90.9745,-42.8917 L 91.0021,-42.9867
 L 91.0356,-43.0798 L 91.0749,-43.1706 L 91.1198,-43.2588 L 91.1702,-43.3439 L 91.2258,-43.4258 L 91.2864,-43.5039
 L 91.3519,-43.5782 L 91.4218,-43.6481 L 91.496,-43.7135 L 91.5742,-43.7742 L 91.6561,-43.8298 L 91.7412,-43.8802
 L 91.8294,-43.9251 L 91.9202,-43.9644 L 92.0133,-43.9979 L 92.1083,-44.0255 L 92.2049,-44.0471 L 92.3026,-44.0626
 L 92.4011,-44.0719 L 92.5,-44.075 L 92.5989,-44.0719 L 92.6974,-44.0626 L 92.7951,-44.0471 L 92.8917,-44.0255
 L 92.9867,-43.9979 L 93.0798,-43.9644 L 93.1706,-43.9251 L 93.2588,-43.8802 L 93.3439,-43.8298 L 93.4258,-43.7742
 L 93.5039,-43.7135 L 93.5782,-43.6481 L 93.6481,-43.5782 L 93.7135,-43.5039 L 93.7742,-43.4258 L 93.8298,-43.3439
 L 93.8802,-43.2588 L 93.9251,-43.1706 L 93.9644,-43.0798 L 93.9979,-42.9867 L 94.0255,-42.8917 L 94.0471,-42.7951
 L 94.0626,-42.6974 L 94.0719,-42.5989 L 94.075,-42.5 L 94.0719,-42.4011 L 94.0626,-42.3026 L 94.0471,-42.2049
 L 94.0255,-42.1083 L 93.9979,-42.0133 L 93.9644,-41.9202 L 93.9251,-41.8294 L 93.8802,-41.7412 L 93.8298,-41.6561
 L 93.7742,-41.5742 L 93.7135,-41.496 L 93.6481,-41.4218 L 93.5782,-41.3519 L 93.5039,-41.2864 L 93.4258,-41.2258
 L 93.3439,-41.1702 L 93.2588,-41.1198 L 93.1706,-41.0749 L 93.0798,-41.0356 L 92.9867,-41.0021 L 92.8917,-40.9745
 L 92.7951,-40.9529 L 92.6974,-40.9374 L 92.5989,-40.9281 L 92.5,-40.925 z
M 7.40109,-40.9281 L 7.3026,-40.9374 L 7.20486,-40.9529 L 7.10831,-40.9745 L 7.01329,-41.0021 L 6.9202,-41.0356
 L 6.82939,-41.0749 L 6.74123,-41.1198 L 6.65607,-41.1702 L 6.57423,-41.2258 L 6.49605,-41.2864 L 6.42183,-41.3519
 L 6.35187,-41.4218 L 6.28644,-41.496 L 6.22578,-41.5742 L 6.17018,-41.6561 L 6.11981,-41.7412 L 6.07489,-41.8294
 L 6.0356,-41.9202 L 6.00208,-42.0133 L 5.97447,-42.1083 L 5.9529,-42.2049 L 5.93741,-42.3026 L 5.9281,-42.4011
 L 5.92499,-42.5 L 5.9281,-42.5989 L 5.93741,-42.6974 L 5.9529,-42.7951 L 5.97447,-42.8917 L 6.00208,-42.9867
 L 6.0356,-43.0798 L 6.07489,-43.1706 L 6.11981,-43.2588 L 6.17018,-43.3439 L 6.22578,-43.4258 L 6.28644,-43.5039
 L 6.35187,-43.5782 L 6.42183,-43.6481 L 6.49605,-43.7135 L 6.57423,-43.7742 L 6.65607,-43.8298 L 6.74123,-43.8802
 L 6.82939,-43.9251 L 6.9202,-43.9644 L 7.01329,-43.9979 L 7.10831,-44.0255 L 7.20486,-44.0471 L 7.3026,-44.0626
 L 7.40109,-44.0719 L 7.5,-44.075 L 7.59889,-44.0719 L 7.69739,-44.0626 L 7.79512,-44.0471 L 7.89168,-44.0255
 L 7.98669,-43.9979 L 8.07979,-43.9644 L 8.17059,-43.9251 L 8.25876,-43.8802 L 8.34392,-43.8298 L 8.42575,-43.7742
 L 8.50394,-43.7135 L 8.57816,-43.6481 L 8.64812,-43.5782 L 8.71355,-43.5039 L 8.7742,-43.4258 L 8.8298,-43.3439
 L 8.88017,-43.2588 L 8.92509,-43.1706 L 8.96439,-43.0798 L 8.99791,-42.9867 L 9.02551,-42.8917 L 9.04709,-42.7951
 L 9.06258,-42.6974 L 9.07188,-42.5989 L 9.075,-42.5 L 9.07188,-42.4011 L 9.06258,-42.3026 L 9.04709,-42.2049
 L 9.02551,-42.1083 L 8.99791,-42.0133 L 8.96439,-41.9202 L 8.92509,-41.8294 L 8.88017,-41.7412 L 8.8298,-41.6561
 L 8.7742,-41.5742 L 8.71355,-41.496 L 8.64812,-41.4218 L 8.57816,-41.3519 L 8.50394,-41.2864 L 8.42575,-41.2258
 L 8.34392,-41.1702 L 8.25876,-41.1198 L 8.17059,-41.0749 L 8.07979,-41.0356 L 7.98669,-41.0021 L 7.89168,-40.9745
 L 7.79512,-40.9529 L 7.69739,-40.9374 L 7.59889,-40.9281 L 7.5,-40.925 z
M 92.4011,-25.9281 L 92.3026,-25.9374 L 92.2049,-25.9529 L 92.1083,-25.9745 L 92.0133,-26.0021 L 91.9202,-26.0356
 L 91.8294,-26.0749 L 91.7412,-26.1198 L 91.6561,-26.1702 L 91.5742,-26.2258 L 91.496,-26.2864 L 91.4218,-26.3519
 L 91.3519,-26.4218 L 91.2864,-26.496 L 91.2258,-26.5742 L 91.1702,-26.6561 L 91.1198,-26.7412 L 91.0749,-26.8294
 L 91.0356,-26.9202 L 91.0021,-27.0133 L 90.9745,-27.1083 L 90.9529,-27.2049 L 90.9374,-27.3026 L 90.9281,-27.4011
 L 90.925,-27.5 L 90.9281,-27.5989 L 90.9374,-27.6974 L 90.9529,-27.7951 L 90.9745,-27.8917 L 91.0021,-27.9867
 L 91.0356,-28.0798 L 91.0749,-28.1706 L 91.1198,-28.2588 L 91.1702,-28.3439 L 91.2258,-28.4258 L 91.2864,-28.5039
 L 91.3519,-28.5782 L 91.4218,-28.6481 L 91.496,-28.7135 L 91.5742,-28.7742 L 91.6561,-28.8298 L 91.7412,-28.8802
 L 91.8294,-28.9251 L 91.9202,-28.9644 L 92.0133,-28.9979 L 92.1083,-29.0255 L 92.2049,-29.0471 L 92.3026,-29.0626
 L 92.4011,-29.0719 L 92.5,-29.075 L 92.5989,-29.0719 L 92.6974,-29.0626 L 92.7951,-29.0471 L 92.8917,-29.0255
 L 92.9867,-28.9979 L 93.0798,-28.9644 L 93.1706,-28.9251 L 93.2588,-28.8802 L 93.3439,-28.8298 L 93.4258,-28.7742
 L 93.5039,-28.7135 L 93.5782,-28.6481 L 93.6481,-28.5782 L 93.7135,-28.5039 L 93.7742,-28.4258 L 93.8298,-28.3439
 L 93.8802,-28.2588 L 93.9251,-28.1706 L 93.9644,-28.0798 L 93.9979,-27.9867 L 94.0255,-27.8917 L 94.0471,-27.7951
 L 94.0626,-27.6974 L 94.0719,-27.5989 L 94.075,-27.5 L 94.0719,-27.4011 L 94.0626,-27.3026 L 94.0471,-27.2049
 L 94.0255,-27.1083 L 93.9979,-27.0133 L 93.9644,-26.9202 L 93.9251,-26.8294 L 93.8802,-26.7412 L 93.8298,-26.6561
 L 93.7742,-26.5742 L 93.7135,-26.496 L 93.6481,-26.4218 L 93.5782,-26.3519 L 93.5039,-26.2864 L 93.4258,-26.2258
 L 93.3439,-26.1702 L 93.2588,-26.1198 L 93.1706,-26.0749 L 93.0798,-26.0356 L 92.9867,-26.0021 L 92.8917,-25.9745
 L 92.7951,-25.9529 L 92.6974,-25.9374 L 92.5989,-25.9281 L 92.5,-25.925 z
M 7.40109,-25.9281 L 7.3026,-25.9374 L 7.20486,-25.9529 L 7.10831,-25.9745 L 7.01329,-26.0021 L 6.9202,-26.0356
 L 6.82939,-26.0749 L 6.74123,-26.1198 L 6.65607,-26.1702 L 6.57423,-26.2258 L 6.49605,-26.2864 L 6.42183,-26.3519
 L 6.35187,-26.4218 L 6.28644,-26.496 L 6.22578,-26.5742 L 6.17018,-26.6561 L 6.11981,-26.7412 L 6.07489,-26.8294
 L 6.0356,-26.9202 L 6.00208,-27.0133 L 5.97447,-27.1083 L 5.9529,-27.2049 L 5.93741,-27.3026 L 5.9281,-27.4011
 L 5.92499,-27.5 L 5.9281,-27.5989 L 5.93741,-27.6974 L 5.9529,-27.7951 L 5.97447,-27.8917 L 6.00208,-27.9867
 L 6.0356,-28.0798 L 6.07489,-28.1706 L 6.11981,-28.2588 L 6.17018,-28.3439 L 6.22578,-28.4258 L 6.28644,-28.5039
 L 6.35187,-28.5782 L 6.42183,-28.6481 L 6.49605,-28.7135 L 6.57423,-28.7742 L 6.65607,-28.8298 L 6.74123,-28.8802
 L 6.82939,-28.9251 L 6.9202,-28.9644 L 7.01329,-28.9979 L 7.10831,-29.0255 L 7.20486,-29.0471 L 7.3026,-29.0626
 L 7.40109,-29.0719 L 7.5,-29.075 L 7.59889,-29.0719 L 7.69739,-29.0626 L 7.79512,-29.0471 L 7.89168,-29.0255
 L 7.98669,-28.9979 L 8.07979,-28.9644 L 8.17059,-28.9251 L 8.25876,-28.8802 L 8.34392,-28.8298 L 8.42575,-28.7742
 L 8.50394,-28.7135 L 8.57816,-28.6481 L 8.64812,-28.5782 L 8.71355,-28.5039 L 8.7742,-28.4258 L 8.8298,-28.3439
 L 8.88017,-28.2588 L 8.92509,-28.1706 L 8.96439,-28.0798 L 8.99791,-27.9867 L 9.02551,-27.8917 L 9.04709,-27.7951
 L 9.06258,-27.6974 L 9.07188,-27.5989 L 9.075,-27.5 L 9.07188,-27.4011 L 9.06258,-27.3026 L 9.04709,-27.2049
 L 9.02551,-27.1083 L 8.99791,-27.0133 L 8.96439,-26.9202 L 8.92509,-26.8294 L 8.88017,-26.7412 L 8.8298,-26.6561
 L 8.7742,-26.5742 L 8.71355,-26.496 L 8.64812,-26.4218 L 8.57816,-26.3519 L 8.50394,-26.2864 L 8.42575,-26.2258
 L 8.34392,-26.1702 L 8.25876,-26.1198 L 8.17059,-26.0749 L 8.07979,-26.0356 L 7.98669,-26.0021 L 7.89168,-25.9745
 L 7.79512,-25.9529 L 7.69739,-25.9374 L 7.59889,-25.9281 L 7.5,-25.925 z
" stroke="black" fill="lightgray" stroke-width="0.5"/></svg>
